<svg width="399" height="274" viewBox="0 0 399 274" fill="none" xmlns="http://www.w3.org/2000/svg">
<g filter="url(#filter0_i)">
<path d="M56.915 13.6919H15.8799C14.6712 13.6919 13.6914 14.6717 13.6914 15.8804V15.8804C13.6914 17.0891 14.6712 18.069 15.8799 18.069H56.915C58.1237 18.069 59.1035 17.0891 59.1035 15.8804C59.1035 14.6717 58.1237 13.6919 56.915 13.6919Z" fill="white" fill-opacity="0.6"/>
<path d="M26.0144 69.646C32.8202 69.646 38.3374 64.1288 38.3374 57.323C38.3374 50.5172 32.8202 45 26.0144 45C19.2086 45 13.6914 50.5172 13.6914 57.323C13.6914 64.1288 19.2086 69.646 26.0144 69.646Z" fill="#FF5A6D"/>
<path d="M166.702 57.2383H53.7408C52.7956 57.2383 52.0293 58.0046 52.0293 58.9498C52.0293 59.8951 52.7956 60.6613 53.7408 60.6613H166.702C167.647 60.6613 168.413 59.8951 168.413 58.9498C168.413 58.0046 167.647 57.2383 166.702 57.2383Z" fill="#FF5A6D"/>
<path d="M146.6 66.1382H53.42C52.652 66.1382 52.0293 66.7608 52.0293 67.5289C52.0293 68.297 52.652 68.9197 53.42 68.9197H146.6C147.368 68.9197 147.991 68.297 147.991 67.5289C147.991 66.7608 147.368 66.1382 146.6 66.1382Z" fill="white" fill-opacity="0.3"/>
<path d="M169.529 74.3965H53.5293C52.7009 74.3965 52.0293 75.0681 52.0293 75.8965C52.0293 76.7249 52.7009 77.3965 53.5293 77.3965H169.529C170.358 77.3965 171.029 76.7249 171.029 75.8965C171.029 75.0681 170.358 74.3965 169.529 74.3965Z" fill="white" fill-opacity="0.3"/>
<path d="M26.0144 133.646C32.8202 133.646 38.3374 128.129 38.3374 121.323C38.3374 114.517 32.8202 109 26.0144 109C19.2086 109 13.6914 114.517 13.6914 121.323C13.6914 128.129 19.2086 133.646 26.0144 133.646Z" fill="black" fill-opacity="0.2"/>
<path d="M173.548 116.566H53.7408C52.7956 116.566 52.0293 117.332 52.0293 118.277C52.0293 119.223 52.7956 119.989 53.7408 119.989H173.548C174.493 119.989 175.259 119.223 175.259 118.277C175.259 117.332 174.493 116.566 173.548 116.566Z" fill="black" fill-opacity="0.2"/>
<path d="M156.25 117H67.7501C59.6038 117 53 117.448 53 118C53 118.552 59.6038 119 67.7501 119H156.25C164.396 119 171 118.552 171 118C171 117.448 164.396 117 156.25 117Z" fill="white"/>
<path d="M155.529 125.466H53.5293C52.7009 125.466 52.0293 126.137 52.0293 126.966C52.0293 127.794 52.7009 128.466 53.5293 128.466H155.529C156.358 128.466 157.029 127.794 157.029 126.966C157.029 126.137 156.358 125.466 155.529 125.466Z" fill="white" fill-opacity="0.3"/>
<path d="M116.529 133.942H53.5293C52.7009 133.942 52.0293 134.613 52.0293 135.442C52.0293 136.27 52.7009 136.942 53.5293 136.942H116.529C117.358 136.942 118.029 136.27 118.029 135.442C118.029 134.613 117.358 133.942 116.529 133.942Z" fill="white" fill-opacity="0.3"/>
<path d="M116.529 142.419H53.5293C52.7009 142.419 52.0293 143.091 52.0293 143.919C52.0293 144.747 52.7009 145.419 53.5293 145.419H116.529C117.358 145.419 118.029 144.747 118.029 143.919C118.029 143.091 117.358 142.419 116.529 142.419Z" fill="white" fill-opacity="0.3"/>
<path d="M26.0144 201.646C32.8202 201.646 38.3374 196.129 38.3374 189.323C38.3374 182.517 32.8202 177 26.0144 177C19.2086 177 13.6914 182.517 13.6914 189.323C13.6914 196.129 19.2086 201.646 26.0144 201.646Z" fill="black" fill-opacity="0.2"/>
<path d="M161.529 201.747H53.5293C52.7009 201.747 52.0293 202.419 52.0293 203.247C52.0293 204.075 52.7009 204.747 53.5293 204.747H161.529C162.358 204.747 163.029 204.075 163.029 203.247C163.029 202.419 162.358 201.747 161.529 201.747Z" fill="white" fill-opacity="0.3"/>
<path d="M111.529 210.224H53.5293C52.7009 210.224 52.0293 210.896 52.0293 211.724C52.0293 212.553 52.7009 213.224 53.5293 213.224H111.529C112.358 213.224 113.029 212.553 113.029 211.724C113.029 210.896 112.358 210.224 111.529 210.224Z" fill="white" fill-opacity="0.3"/>
<path d="M378.413 13.6919H227.799C224.018 13.6919 220.953 16.757 220.953 20.538V253.306C220.953 257.087 224.018 260.152 227.799 260.152H378.413C382.194 260.152 385.259 257.087 385.259 253.306V20.538C385.259 16.757 382.194 13.6919 378.413 13.6919Z" fill="white"/>
<path d="M378.413 13.6919H227.799C224.018 13.6919 220.953 16.757 220.953 20.538V253.306C220.953 257.087 224.018 260.152 227.799 260.152H378.413C382.194 260.152 385.259 257.087 385.259 253.306V20.538C385.259 16.757 382.194 13.6919 378.413 13.6919Z" fill="#007AFF"/>
<path opacity="0.43" d="M251.419 87.7725C246.638 92.357 242.881 100.521 245.714 105.178C247.321 107.82 250.577 108.556 261.7 109.143C282.232 110.226 297.819 109.123 299.252 109.017C313.646 107.95 311.397 107.498 321.31 107.01C332.522 106.458 337.641 106.926 346.28 104.84C353.222 103.164 357.231 102.196 361.216 98.7299C370.077 91.021 369.864 78.7468 369.828 76.7197C369.78 73.9378 369.239 64.3628 362.173 56.6235C351.528 44.9654 331.596 43.5163 321.023 51.3602C308.643 60.5453 316.158 77.234 304.994 83.1792C295.138 88.4284 285.456 77.4555 263.553 81.9262C260.297 82.5909 255.504 83.8554 251.419 87.7725Z" fill="#491EB8"/>
<path opacity="0.2" d="M244.74 120.905C243.251 120.905 242.045 120.546 241.232 119.622C238.916 116.988 240.446 110.437 244.207 106.877C248.279 103.025 253.997 103.844 263.469 105.203C266.752 105.674 270.473 106.207 274.729 106.632C284.013 107.558 293.639 107.715 303.339 107.098C303.39 107.095 303.432 107.133 303.435 107.183C303.438 107.232 303.4 107.275 303.351 107.278C293.641 107.895 284.005 107.738 274.711 106.811C270.451 106.386 266.728 105.852 263.444 105.381C254.025 104.031 248.339 103.215 244.331 107.008C240.631 110.509 239.107 116.932 241.368 119.503C243.379 121.791 248.004 120.447 253.36 118.891C254.82 118.467 256.329 118.028 257.856 117.643C269.348 114.743 276.044 116.394 282.521 117.991C288.327 119.422 294.332 120.902 303.854 119.248C313.588 117.556 319.743 113.922 325.173 110.715C331.477 106.993 336.456 104.053 344.324 106.055C348.443 107.103 351.485 109.061 353.93 110.634C356.97 112.589 359.371 114.133 362.261 113.03C365.046 111.967 367.227 108.838 368.402 104.219C369.461 100.059 369.593 94.9686 368.756 90.6025C366.291 77.7467 353.702 69.3551 343.109 67.9864C336.781 67.1683 333.124 69.0535 328.89 71.2361C324.914 73.2854 320.407 75.6083 312.767 75.9759C304.818 76.3588 300.038 74.3589 294.974 72.2424C290.525 70.3832 285.926 68.4605 278.885 68.1469C278.836 68.1445 278.797 68.1026 278.8 68.0528C278.802 68.0044 278.841 67.9667 278.889 67.9667C278.891 67.9667 278.892 67.9667 278.894 67.9669C285.966 68.282 290.58 70.2109 295.043 72.0761C300.088 74.1845 304.853 76.175 312.758 75.7961C320.359 75.4301 324.847 73.1168 328.807 71.0759C333.068 68.8798 336.749 66.9833 343.132 67.8075C353.788 69.1844 366.452 77.6295 368.933 90.5688C369.775 94.9595 369.641 100.079 368.577 104.263C367.387 108.941 365.167 112.114 362.326 113.198C359.349 114.335 356.915 112.768 353.833 110.785C351.272 109.138 348.37 107.271 344.28 106.23C336.483 104.246 331.532 107.169 325.265 110.871C319.821 114.085 313.651 117.728 303.885 119.425C294.326 121.087 288.302 119.602 282.478 118.166C275.725 116.501 269.348 114.929 257.9 117.818C256.377 118.202 254.869 118.64 253.411 119.064C250.105 120.024 247.074 120.905 244.74 120.905Z" fill="#76F7FF"/>
<path d="M330.985 98.9289C339.74 98.9289 346.837 91.8319 346.837 83.0771C346.837 74.3223 339.74 67.2251 330.985 67.2251C322.23 67.2251 315.133 74.3223 315.133 83.0771C315.133 91.8319 322.23 98.9289 330.985 98.9289Z" fill="#B3CAF8"/>
<path d="M340.796 97.8101H316.93V114.525H340.796V97.8101Z" fill="#76F7FF"/>
<path opacity="0.43" d="M293.265 71.8172C298.339 71.8172 302.453 67.7036 302.453 62.6291C302.453 57.5546 298.339 53.4409 293.265 53.4409C288.19 53.4409 284.076 57.5546 284.076 62.6291C284.076 67.7036 288.19 71.8172 293.265 71.8172Z" fill="#76F7FF"/>
<path d="M300.071 115.351C298.487 115.351 297.199 114.073 297.188 112.487C297.177 110.895 298.459 109.595 300.051 109.584L310.759 109.512L311.5 96.7374C311.592 95.1476 312.952 93.9317 314.546 94.0262C316.135 94.1184 317.349 95.4818 317.257 97.0717L316.456 110.862C316.314 113.318 314.276 115.254 311.816 115.271L300.091 115.351C300.084 115.351 300.077 115.351 300.071 115.351Z" fill="#B3825D"/>
<path d="M329.326 115.254C327.787 115.254 326.51 114.038 326.448 112.486C326.384 110.894 327.622 109.553 329.213 109.489L339.516 109.077V96.9043C339.516 95.3119 340.806 94.021 342.399 94.021C343.991 94.021 345.282 95.3119 345.282 96.9043V109.774C345.282 112.49 343.156 114.702 340.442 114.811L329.444 115.251C329.405 115.253 329.366 115.254 329.326 115.254Z" fill="#B3825D"/>
<path d="M363.359 118.12H247.876C247.03 118.12 246.344 117.434 246.344 116.588C246.344 115.742 247.03 115.056 247.876 115.056H363.359C364.205 115.056 364.891 115.742 364.891 116.588C364.891 117.434 364.205 118.12 363.359 118.12Z" fill="#18204D"/>
<path d="M310.82 100.366C310.82 89.9122 318.217 85.3501 327.856 85.3501C337.495 85.3501 345.725 89.9122 345.725 100.366" fill="#76F7FF"/>
<path d="M324.023 72.4354C324.779 72.4354 325.392 71.8223 325.392 71.066C325.392 70.3098 324.779 69.6968 324.023 69.6968C323.267 69.6968 322.654 70.3098 322.654 71.066C322.654 71.8223 323.267 72.4354 324.023 72.4354Z" fill="#F05936"/>
<path d="M331.662 72.4354C332.418 72.4354 333.031 71.8223 333.031 71.066C333.031 70.3098 332.418 69.6968 331.662 69.6968C330.906 69.6968 330.293 70.3098 330.293 71.066C330.293 71.8223 330.906 72.4354 331.662 72.4354Z" fill="#F05936"/>
<path d="M331.659 76.2125V87.7179C331.659 89.803 329.968 91.4933 327.883 91.4933C325.798 91.4933 324.107 89.803 324.107 87.7179V76.2125C324.107 75.432 324.343 74.7072 324.749 74.1056C325.427 73.0987 326.578 72.4365 327.883 72.4365C328.926 72.4365 329.869 72.8591 330.553 73.5425C331.236 74.2259 331.659 75.1697 331.659 76.2125Z" fill="#B3825D"/>
<path d="M331.658 74.5088L331.038 78.6569C331.038 80.7167 330.227 83.4596 328.233 83.6449C324.555 83.9869 324.107 81.9546 324.107 79.8693V72.4019C324.848 71.395 326.105 70.7329 327.532 70.7329C328.672 70.7329 329.703 71.1554 330.45 71.8388C331.196 72.5223 331.658 73.466 331.658 74.5088Z" fill="#303030"/>
<path d="M328.096 82.8947H327.669C325.702 82.8947 324.107 81.2997 324.107 79.3323V69.4921C324.107 67.5247 325.702 65.9297 327.669 65.9297H328.096C330.063 65.9297 331.658 67.5247 331.658 69.4921V79.3323C331.658 81.2997 330.063 82.8947 328.096 82.8947Z" fill="#B3825D"/>
<path d="M324.645 68.4521L331.155 68.4283C332.528 68.4227 332.642 63.6898 330.361 64.2572L329.932 64.5236C329.407 64.1522 328.779 63.9539 328.137 63.9566L324.627 63.9784C323.601 63.9826 322.773 64.8175 322.777 65.8434C322.781 66.8693 323.619 68.4562 324.645 68.4521Z" fill="#76F7FF"/>
<path d="M325.575 71.7824C325.773 71.7824 325.934 71.622 325.934 71.4241C325.934 71.2263 325.773 71.0659 325.575 71.0659C325.378 71.0659 325.217 71.2263 325.217 71.4241C325.217 71.622 325.378 71.7824 325.575 71.7824Z" fill="#303030"/>
<path d="M328.766 71.7824C328.964 71.7824 329.124 71.622 329.124 71.4241C329.124 71.2263 328.964 71.0659 328.766 71.0659C328.568 71.0659 328.408 71.2263 328.408 71.4241C328.408 71.622 328.568 71.7824 328.766 71.7824Z" fill="#303030"/>
<path d="M326.997 76.6159C326.879 76.6159 326.759 76.5749 326.654 76.4958C326.478 76.3643 326.356 76.1448 326.335 75.9224C326.304 75.5972 326.427 75.2933 326.547 74.9994L326.58 74.9169C326.907 74.1003 327.098 73.2411 327.148 72.3628L327.327 72.3729C327.277 73.2706 327.082 74.1491 326.747 74.9837L326.714 75.0672C326.602 75.341 326.487 75.6239 326.514 75.9055C326.53 76.0759 326.627 76.2512 326.761 76.3515C326.828 76.401 326.933 76.454 327.06 76.4297L327.095 76.6065C327.063 76.6129 327.03 76.6159 326.997 76.6159Z" fill="#303030"/>
<path d="M326.952 78.7466C326.738 78.7466 326.585 78.7117 326.572 78.7083L326.613 78.533C326.619 78.5344 327.277 78.6829 327.748 78.3276C328.049 78.101 328.214 77.7159 328.239 77.1836L328.419 77.192C328.391 77.7813 328.201 78.2121 327.856 78.4724C327.56 78.6949 327.211 78.7466 326.952 78.7466Z" fill="#303030"/>
<path d="M327.953 92.3814C327.833 92.3814 327.758 92.3767 327.743 92.3757C327.634 92.3682 327.552 92.2737 327.559 92.1645C327.567 92.0555 327.658 91.9723 327.77 91.9805C327.79 91.9812 329.81 92.1024 331.19 90.8119C332.062 89.9974 332.504 88.7933 332.504 87.2333C332.504 87.1237 332.592 87.0352 332.702 87.0352C332.811 87.0352 332.9 87.1237 332.9 87.2333C332.9 88.9092 332.415 90.2115 331.458 91.104C330.207 92.2713 328.537 92.3814 327.953 92.3814Z" fill="#B3CAF8"/>
<path d="M362.558 113.239L351.236 113.223L351.234 114.941L362.556 114.956L362.558 113.239Z" fill="#B3CAF8"/>
<path d="M361.227 111.519L349.906 111.503L349.904 113.221L361.225 113.236L361.227 111.519Z" fill="#18204D"/>
<path d="M362.942 109.803L351.621 109.788L351.619 111.505L362.94 111.521L362.942 109.803Z" fill="#76F7FF"/>
<path d="M298.331 114.798H291.416C291.416 113.661 292.337 112.74 293.474 112.74H296.273C297.41 112.74 298.331 113.661 298.331 114.798Z" fill="#76F7FF"/>
<path d="M356.42 119.07H260.065C259.834 119.07 259.646 118.883 259.646 118.651C259.646 118.42 259.834 118.233 260.065 118.233H356.42C356.651 118.233 356.839 118.42 356.839 118.651C356.839 118.883 356.651 119.07 356.42 119.07Z" fill="#B3CAF8"/>
<path d="M347.1 69.7453C349.698 69.7453 351.803 67.6399 351.803 65.0427C351.803 62.4456 349.698 60.3403 347.1 60.3403C344.503 60.3403 342.398 62.4456 342.398 65.0427C342.398 67.6399 344.503 69.7453 347.1 69.7453Z" fill="#76F7FF"/>
<path d="M325.928 70.1816L324.002 70.6456L324.044 70.8208L325.97 70.3568L325.928 70.1816Z" fill="#303030"/>
<path d="M328.325 70.1816L328.283 70.3568L330.209 70.8202L330.251 70.6449L328.325 70.1816Z" fill="#303030"/>
<path d="M330.236 69.1838C330.286 69.1838 330.326 69.1436 330.326 69.0939C330.326 69.0441 330.286 69.0039 330.236 69.0039C330.187 69.0039 330.146 69.0441 330.146 69.0939C330.146 69.1436 330.187 69.1838 330.236 69.1838Z" fill="#76F7FF"/>
<path d="M330.146 68.7904C330.196 68.7904 330.237 68.7501 330.237 68.7003C330.237 68.6506 330.196 68.6104 330.146 68.6104C330.097 68.6104 330.057 68.6506 330.057 68.7003C330.057 68.7501 330.097 68.7904 330.146 68.7904Z" fill="#76F7FF"/>
<path d="M329.473 68.7904C329.522 68.7904 329.563 68.7501 329.563 68.7003C329.563 68.6506 329.522 68.6104 329.473 68.6104C329.423 68.6104 329.383 68.6506 329.383 68.7003C329.383 68.7501 329.423 68.7904 329.473 68.7904Z" fill="#76F7FF"/>
<path d="M329.807 68.7904C329.856 68.7904 329.897 68.7501 329.897 68.7003C329.897 68.6506 329.856 68.6104 329.807 68.6104C329.757 68.6104 329.717 68.6506 329.717 68.7003C329.717 68.7501 329.757 68.7904 329.807 68.7904Z" fill="#76F7FF"/>
<path d="M331.207 68.7904C331.257 68.7904 331.297 68.7501 331.297 68.7003C331.297 68.6506 331.257 68.6104 331.207 68.6104C331.158 68.6104 331.117 68.6506 331.117 68.7003C331.117 68.7501 331.158 68.7904 331.207 68.7904Z" fill="#76F7FF"/>
<path d="M330.535 68.7904C330.585 68.7904 330.625 68.7501 330.625 68.7003C330.625 68.6506 330.585 68.6104 330.535 68.6104C330.486 68.6104 330.445 68.6506 330.445 68.7003C330.445 68.7501 330.486 68.7904 330.535 68.7904Z" fill="#76F7FF"/>
<path d="M330.87 68.7904C330.92 68.7904 330.961 68.7501 330.961 68.7003C330.961 68.6506 330.92 68.6104 330.87 68.6104C330.821 68.6104 330.781 68.6506 330.781 68.7003C330.781 68.7501 330.821 68.7904 330.87 68.7904Z" fill="#76F7FF"/>
<path d="M331.317 69.101C331.367 69.101 331.407 69.0607 331.407 69.0111C331.407 68.9613 331.367 68.9209 331.317 68.9209C331.267 68.9209 331.227 68.9613 331.227 69.0111C331.227 69.0607 331.267 69.101 331.317 69.101Z" fill="#76F7FF"/>
<path d="M330.61 69.1811C330.659 69.1811 330.7 69.1407 330.7 69.0909C330.7 69.0414 330.659 69.001 330.61 69.001C330.56 69.001 330.52 69.0414 330.52 69.0909C330.52 69.1407 330.56 69.1811 330.61 69.1811Z" fill="#76F7FF"/>
<path d="M330.983 69.1838C331.033 69.1838 331.073 69.1436 331.073 69.0939C331.073 69.0441 331.033 69.0039 330.983 69.0039C330.933 69.0039 330.893 69.0441 330.893 69.0939C330.893 69.1436 330.933 69.1838 330.983 69.1838Z" fill="#76F7FF"/>
<path d="M331.363 69.4338C331.413 69.4338 331.453 69.3936 331.453 69.3439C331.453 69.2941 331.413 69.2539 331.363 69.2539C331.314 69.2539 331.273 69.2941 331.273 69.3439C331.273 69.3936 331.314 69.4338 331.363 69.4338Z" fill="#76F7FF"/>
<path d="M330.623 69.5241C330.673 69.5241 330.713 69.4839 330.713 69.4341C330.713 69.3844 330.673 69.3442 330.623 69.3442C330.574 69.3442 330.533 69.3844 330.533 69.4341C330.533 69.4839 330.574 69.5241 330.623 69.5241Z" fill="#76F7FF"/>
<path d="M331.033 69.5168C331.083 69.5168 331.124 69.4766 331.124 69.4269C331.124 69.3771 331.083 69.3369 331.033 69.3369C330.984 69.3369 330.943 69.3771 330.943 69.4269C330.943 69.4766 330.984 69.5168 331.033 69.5168Z" fill="#76F7FF"/>
<path d="M331.386 69.7757C331.436 69.7757 331.477 69.7355 331.477 69.6857C331.477 69.636 331.436 69.5957 331.386 69.5957C331.337 69.5957 331.297 69.636 331.297 69.6857C331.297 69.7355 331.337 69.7757 331.386 69.7757Z" fill="#76F7FF"/>
<path d="M331.059 69.8601C331.109 69.8601 331.149 69.8199 331.149 69.7701C331.149 69.7204 331.109 69.6802 331.059 69.6802C331.01 69.6802 330.969 69.7204 330.969 69.7701C330.969 69.8199 331.01 69.8601 331.059 69.8601Z" fill="#76F7FF"/>
<path d="M331.418 70.1189C331.467 70.1189 331.508 70.0786 331.508 70.029C331.508 69.9792 331.467 69.939 331.418 69.939C331.368 69.939 331.328 69.9792 331.328 70.029C331.328 70.0786 331.368 70.1189 331.418 70.1189Z" fill="#76F7FF"/>
<path d="M331.084 70.2033C331.133 70.2033 331.174 70.1631 331.174 70.1133C331.174 70.0636 331.133 70.0234 331.084 70.0234C331.034 70.0234 330.994 70.0636 330.994 70.1133C330.994 70.1631 331.034 70.2033 331.084 70.2033Z" fill="#76F7FF"/>
<path d="M331.418 70.4643C331.467 70.4643 331.508 70.4239 331.508 70.3741C331.508 70.3246 331.467 70.2842 331.418 70.2842C331.368 70.2842 331.328 70.3246 331.328 70.3741C331.328 70.4239 331.368 70.4643 331.418 70.4643Z" fill="#76F7FF"/>
<path d="M331.084 70.5467C331.133 70.5467 331.174 70.5063 331.174 70.4567C331.174 70.407 331.133 70.3667 331.084 70.3667C331.034 70.3667 330.994 70.407 330.994 70.4567C330.994 70.5063 331.034 70.5467 331.084 70.5467Z" fill="#76F7FF"/>
<path d="M331.418 70.8073C331.467 70.8073 331.508 70.7671 331.508 70.7174C331.508 70.6676 331.467 70.6274 331.418 70.6274C331.368 70.6274 331.328 70.6676 331.328 70.7174C331.328 70.7671 331.368 70.8073 331.418 70.8073Z" fill="#76F7FF"/>
<path d="M331.084 70.8993C331.133 70.8993 331.174 70.8589 331.174 70.8093C331.174 70.7596 331.133 70.7192 331.084 70.7192C331.034 70.7192 330.994 70.7596 330.994 70.8093C330.994 70.8589 331.034 70.8993 331.084 70.8993Z" fill="#76F7FF"/>
<path d="M331.418 71.1584C331.467 71.1584 331.508 71.1182 331.508 71.0685C331.508 71.0187 331.467 70.9785 331.418 70.9785C331.368 70.9785 331.328 71.0187 331.328 71.0685C331.328 71.1182 331.368 71.1584 331.418 71.1584Z" fill="#76F7FF"/>
<path d="M331.084 71.2502C331.133 71.2502 331.174 71.21 331.174 71.1602C331.174 71.1106 331.133 71.0703 331.084 71.0703C331.034 71.0703 330.994 71.1106 330.994 71.1602C330.994 71.21 331.034 71.2502 331.084 71.2502Z" fill="#76F7FF"/>
<path d="M245.925 71.2583L285.186 72.6293C285.633 72.6448 286.273 73.1263 286.613 73.7033L288.229 76.441L288.384 76.4465L286.77 73.7086C286.365 73.0222 285.601 72.4484 285.068 72.4297L245.808 71.0586C245.276 71.0401 245.172 71.5839 245.577 72.2702L247.192 75.008L247.347 75.0133L245.732 72.2757C245.391 71.6987 245.479 71.2428 245.925 71.2583Z" fill="#B3CAF8"/>
<path fill-rule="evenodd" clip-rule="evenodd" d="M285.228 72.4511C285.171 72.439 285.117 72.4318 285.064 72.4299L245.803 71.0588C245.438 71.0461 245.275 71.2989 245.34 71.6809C245.37 71.855 245.447 72.0556 245.573 72.2704L247.189 75.0081L247.343 75.0134L245.728 72.2758C245.713 72.2514 245.7 72.2272 245.687 72.2033C245.578 72.0001 245.523 71.8146 245.52 71.6626C245.515 71.409 245.654 71.2491 245.921 71.2585L285.182 72.6294C285.188 72.6298 285.195 72.6301 285.201 72.6305C285.647 72.6589 286.274 73.1347 286.61 73.7034L288.225 76.4412L288.381 76.4467L286.765 73.7089C286.751 73.6848 286.736 73.661 286.721 73.6374C286.349 73.0496 285.724 72.5581 285.228 72.4511ZM245.915 71.4392L285.176 72.8102C285.346 72.8162 285.582 72.9158 285.827 73.1005C286.068 73.2817 286.296 73.5289 286.454 73.7953L288.119 76.6185L288.704 76.6389L286.921 73.617C286.705 73.2516 286.397 72.9192 286.071 72.6745C285.751 72.4331 285.391 72.2603 285.071 72.2491L245.81 70.878C245.646 70.8724 245.496 70.9095 245.377 70.9996C245.257 71.0903 245.187 71.2209 245.159 71.3665C245.106 71.6484 245.205 72.0025 245.417 72.3623L247.083 75.1854L247.667 75.2056L245.884 72.1839C245.723 71.912 245.684 71.7006 245.707 71.5789C245.718 71.5228 245.74 71.492 245.764 71.4742C245.789 71.4553 245.834 71.4365 245.915 71.4392Z" fill="#B3CAF8"/>
<path d="M304.668 104.05L303.627 102.286L292.653 83.6881L290.638 80.2731L290.483 80.2676L292.498 83.6826L303.471 102.28L304.512 104.044C304.852 104.62 304.766 105.077 304.319 105.062L265.058 103.691C264.612 103.675 263.97 103.192 263.631 102.617L263.103 101.722L259.775 96.0814L259.142 95.0088L255.814 89.3698L254.944 87.8953L251.616 82.255L249.601 78.84L249.447 78.8345L251.462 82.2495L254.79 87.8899L255.66 89.3643L258.987 95.0033L259.62 96.0759L262.948 101.716L263.476 102.611C263.881 103.298 264.644 103.872 265.176 103.89L304.437 105.261C304.97 105.28 305.073 104.736 304.668 104.05Z" fill="#B3CAF8"/>
<path fill-rule="evenodd" clip-rule="evenodd" d="M290.746 80.0952L292.812 83.5957L304.826 103.958C305.038 104.317 305.138 104.671 305.084 104.953C305.056 105.099 304.986 105.23 304.866 105.32C304.747 105.41 304.596 105.447 304.433 105.442L265.172 104.071C264.852 104.06 264.493 103.887 264.172 103.645C263.847 103.401 263.538 103.068 263.323 102.703L259.466 96.1673L251.308 82.3411L249.125 78.6416L249.709 78.6622L255.102 87.8029L259.3 94.9164L263.261 101.63L263.789 102.524C263.946 102.79 264.174 103.037 264.416 103.219C264.661 103.404 264.897 103.504 265.067 103.509L304.328 104.881C304.409 104.883 304.454 104.864 304.479 104.846C304.502 104.828 304.525 104.797 304.535 104.741C304.558 104.619 304.519 104.407 304.359 104.136L290.162 80.0747L290.746 80.0952ZM304.514 104.044C304.529 104.069 304.543 104.093 304.556 104.117C304.663 104.317 304.717 104.5 304.722 104.651C304.729 104.908 304.591 105.071 304.321 105.061L265.06 103.69C265.054 103.69 265.048 103.69 265.042 103.689C264.597 103.661 263.968 103.184 263.633 102.616L249.604 78.8395L249.449 78.834L263.478 102.611C263.492 102.635 263.507 102.658 263.522 102.682C263.894 103.27 264.52 103.762 265.016 103.869C265.072 103.881 265.126 103.888 265.178 103.89L304.439 105.261C304.808 105.274 304.971 105.017 304.902 104.631C304.872 104.459 304.795 104.261 304.67 104.049L290.641 80.2726L290.485 80.2671L304.514 104.044Z" fill="#B3CAF8"/>
<path d="M331.418 71.511C331.467 71.511 331.508 71.4706 331.508 71.421C331.508 71.3713 331.467 71.3311 331.418 71.3311C331.368 71.3311 331.328 71.3713 331.328 71.421C331.328 71.4706 331.368 71.511 331.418 71.511Z" fill="#76F7FF"/>
<path d="M330.701 69.8675C330.75 69.8675 330.791 69.8273 330.791 69.7775C330.791 69.7278 330.75 69.6875 330.701 69.6875C330.651 69.6875 330.611 69.7278 330.611 69.7775C330.611 69.8273 330.651 69.8675 330.701 69.8675Z" fill="#76F7FF"/>
<path d="M290.295 115.077H284.6L280.289 107.278L285.983 107.522L290.295 115.077Z" fill="#B3CAF8"/>
<path opacity="0.2" d="M289.645 114.025L284.094 114.066L283.188 112.508L288.739 112.467L289.645 114.025Z" fill="#303030"/>
<path d="M299.462 115.077H275.32V114.944C275.32 114.459 275.713 114.067 276.197 114.067H298.585C299.069 114.067 299.462 114.459 299.462 114.944V115.077Z" fill="#B3CAF8"/>
<path d="M240.192 74.7624L247.191 75.0068L247.345 75.0123L248.156 75.0405L287.417 76.4116L288.227 76.4398L288.383 76.4453L290.976 76.5359C291.794 76.5644 292.964 77.444 293.588 78.5012C294.211 79.5572 294.052 80.3916 293.234 80.363L290.641 80.2725L290.485 80.267L289.675 80.2387L250.414 78.8676L249.603 78.8394L249.449 78.8339L242.45 78.5895C241.631 78.5609 240.461 77.6802 239.838 76.6242C239.215 75.567 239.373 74.7338 240.192 74.7624Z" fill="#76F7FF"/>
<path d="M291.69 83.6556L275.125 83.0771L286.098 101.675L302.664 102.253L303.474 102.282L292.501 83.6838L291.69 83.6556Z" fill="#76F7FF"/>
<path d="M296.734 83.8303L292.465 83.6812L303.439 102.279L307.707 102.428L296.734 83.8303Z" fill="#76F7FF"/>
<path d="M242.879 81.9976L246.207 87.6379L256.022 87.934L252.694 82.2937L242.879 81.9976Z" fill="#76F7FF"/>
<path d="M272.063 82.969L252.426 82.2832L251.615 82.2549L254.943 87.8951L255.754 87.9235L275.392 88.6093L272.063 82.969Z" fill="#76F7FF"/>
<path d="M333.634 115.295H308.242V114.76C308.242 114.205 308.692 113.755 309.247 113.755H332.629C333.184 113.755 333.634 114.205 333.634 114.76V115.295Z" fill="#76F7FF"/>
<path d="M316.634 138.381H251.677C249.955 138.381 248.559 136.986 248.559 135.264V123.832C248.559 122.11 249.955 120.715 251.677 120.715H316.634C318.356 120.715 319.751 122.11 319.751 123.832V135.264C319.751 136.986 318.356 138.381 316.634 138.381Z" fill="#B3CAF8"/>
<path d="M363.036 138.381H325.109C323.388 138.381 321.992 136.986 321.992 135.264V123.832C321.992 122.11 323.388 120.715 325.109 120.715H363.036C364.757 120.715 366.153 122.11 366.153 123.832V135.264C366.153 136.986 364.757 138.381 363.036 138.381Z" fill="#B3CAF8"/>
<path d="M368.576 129.74H247.261C246.554 129.74 245.979 129.165 245.979 128.457C245.979 127.75 246.554 127.175 247.261 127.175H368.576C369.283 127.175 369.859 127.75 369.859 128.457C369.859 129.165 369.283 129.74 368.576 129.74ZM247.261 127.56C246.767 127.56 246.364 127.963 246.364 128.457C246.364 128.952 246.767 129.354 247.261 129.354H368.576C369.071 129.354 369.473 128.952 369.473 128.457C369.473 127.963 369.071 127.56 368.576 127.56H247.261Z" fill="#76F7FF"/>
<path d="M274.599 85.4396C274.565 85.4396 274.532 85.4203 274.517 85.3872L274.329 84.9778C274.308 84.9326 274.328 84.8791 274.373 84.8584C274.418 84.8376 274.472 84.8572 274.492 84.9025L274.681 85.3117C274.701 85.3571 274.682 85.4105 274.636 85.4314C274.624 85.437 274.611 85.4396 274.599 85.4396Z" fill="#303030"/>
<path d="M274.037 84.2173C274.004 84.2173 273.971 84.198 273.956 84.1648L273.582 83.353C273.561 83.3078 273.581 83.2542 273.626 83.2335C273.671 83.2128 273.725 83.2323 273.746 83.2777L274.119 84.0895C274.14 84.1348 274.12 84.1882 274.075 84.2089C274.063 84.2146 274.05 84.2173 274.037 84.2173ZM273.291 82.5936C273.257 82.5936 273.224 82.5743 273.209 82.5412L272.835 81.7294C272.815 81.6841 272.834 81.6307 272.88 81.61C272.924 81.5889 272.978 81.6088 272.999 81.6541L273.373 82.4659C273.393 82.5111 273.374 82.5647 273.328 82.5854C273.316 82.591 273.303 82.5936 273.291 82.5936ZM272.544 80.97C272.51 80.97 272.477 80.9507 272.462 80.9175L272.089 80.1057C272.068 80.0605 272.088 80.007 272.133 79.9863C272.178 79.9659 272.231 79.9851 272.252 80.0304L272.626 80.8422C272.646 80.8875 272.627 80.9409 272.582 80.9618C272.569 80.9673 272.557 80.97 272.544 80.97ZM271.797 79.3463C271.763 79.3463 271.73 79.327 271.715 79.2939L271.342 78.4822C271.321 78.437 271.341 78.3834 271.386 78.3627C271.431 78.3418 271.485 78.3613 271.506 78.4069L271.879 79.2186C271.9 79.2638 271.88 79.3174 271.835 79.3381C271.823 79.3437 271.81 79.3463 271.797 79.3463ZM271.05 77.7226C271.016 77.7226 270.984 77.7032 270.969 77.6702L270.595 76.8583C270.575 76.8131 270.594 76.7595 270.639 76.7388C270.684 76.7178 270.738 76.7376 270.759 76.783L271.132 77.5947C271.153 77.6401 271.133 77.6935 271.088 77.7144C271.076 77.72 271.063 77.7226 271.05 77.7226ZM270.304 76.0989C270.27 76.0989 270.237 76.0795 270.222 76.0465L269.848 75.2347C269.828 75.1895 269.847 75.136 269.892 75.1153C269.937 75.0942 269.991 75.1141 270.012 75.1594L270.385 75.9712C270.406 76.0164 270.386 76.0699 270.341 76.0907C270.329 76.0963 270.316 76.0989 270.304 76.0989ZM269.557 74.4753C269.523 74.4753 269.49 74.456 269.475 74.4229L269.102 73.611C269.081 73.5658 269.101 73.5124 269.146 73.4915C269.19 73.4712 269.244 73.4903 269.265 73.5357L269.639 74.3476C269.66 74.3928 269.64 74.4462 269.595 74.4671C269.582 74.4727 269.57 74.4753 269.557 74.4753ZM268.81 72.8518C268.776 72.8518 268.743 72.8323 268.728 72.7992L268.355 71.9874C268.334 71.9423 268.354 71.8887 268.399 71.868C268.444 71.8471 268.497 71.8668 268.518 71.9121L268.892 72.7239C268.913 72.7691 268.893 72.8227 268.848 72.8434C268.836 72.849 268.823 72.8518 268.81 72.8518ZM268.063 71.228C268.029 71.228 267.997 71.2087 267.982 71.1757L267.608 70.3637C267.587 70.3185 267.607 70.2651 267.652 70.2443C267.697 70.2234 267.751 70.2431 267.772 70.2884L268.145 71.1004C268.166 71.1455 268.146 71.1989 268.101 71.2198C268.089 71.2255 268.076 71.228 268.063 71.228ZM267.316 69.6045C267.282 69.6045 267.25 69.5851 267.235 69.5519L266.861 68.7402C266.841 68.695 266.86 68.6414 266.906 68.6207C266.951 68.6003 267.004 68.6195 267.025 68.6649L267.398 69.4766C267.419 69.5218 267.399 69.5754 267.354 69.5961C267.342 69.6017 267.329 69.6045 267.316 69.6045ZM266.57 67.9808C266.536 67.9808 266.503 67.9614 266.488 67.9284L266.114 67.1166C266.094 67.0713 266.113 67.0179 266.159 66.997C266.203 66.9764 266.257 66.9958 266.278 67.0413L266.652 67.8531C266.672 67.8983 266.653 67.9518 266.607 67.9725C266.595 67.9782 266.582 67.9808 266.57 67.9808ZM265.823 66.3572C265.789 66.3572 265.756 66.3379 265.741 66.3047L265.368 65.4927C265.347 65.4475 265.367 65.394 265.412 65.3733C265.457 65.3524 265.511 65.3721 265.532 65.4174L265.905 66.2294C265.926 66.2747 265.906 66.3281 265.86 66.3488C265.848 66.3545 265.835 66.3572 265.823 66.3572ZM265.076 64.7333C265.042 64.7333 265.01 64.714 264.994 64.6809L264.621 63.8692C264.6 63.8238 264.62 63.7704 264.665 63.7495C264.71 63.7287 264.764 63.7483 264.785 63.7939L265.158 64.6056C265.179 64.6508 265.159 64.7044 265.114 64.7251C265.102 64.7307 265.089 64.7333 265.076 64.7333ZM264.33 63.1098C264.295 63.1098 264.263 63.0904 264.248 63.0572L264.082 62.6971C264.006 62.5323 263.965 62.3587 263.961 62.1813C263.959 62.1315 263.999 62.09 264.049 62.0888C264.098 62.0947 264.14 62.127 264.141 62.1766C264.145 62.3296 264.18 62.4794 264.245 62.6218L264.411 62.9819C264.432 63.0273 264.412 63.0807 264.367 63.1015C264.355 63.107 264.342 63.1098 264.33 63.1098ZM264.345 61.446C264.324 61.446 264.303 61.439 264.286 61.4246C264.249 61.3921 264.244 61.3353 264.276 61.2974C264.487 61.0498 264.78 60.8909 265.101 60.8497C265.149 60.8418 265.195 60.8781 265.201 60.9277C265.208 60.977 265.173 61.0222 265.123 61.0285C264.847 61.064 264.595 61.2011 264.413 61.4143C264.396 61.4352 264.37 61.446 264.345 61.446ZM291.919 61.019H291.025C290.975 61.019 290.935 60.9787 290.935 60.9289C290.935 60.8791 290.975 60.8389 291.025 60.8389H291.919C291.969 60.8389 292.009 60.8791 292.009 60.9289C292.009 60.9787 291.969 61.019 291.919 61.019ZM290.132 61.019H289.238C289.188 61.019 289.148 60.9787 289.148 60.9289C289.148 60.8791 289.188 60.8389 289.238 60.8389H290.132C290.181 60.8389 290.222 60.8791 290.222 60.9289C290.222 60.9787 290.181 61.019 290.132 61.019ZM288.344 61.019H287.451C287.401 61.019 287.361 60.9787 287.361 60.9289C287.361 60.8791 287.401 60.8389 287.451 60.8389H288.344C288.394 60.8389 288.435 60.8791 288.435 60.9289C288.435 60.9787 288.394 61.019 288.344 61.019ZM286.557 61.019H285.664C285.614 61.019 285.574 60.9787 285.574 60.9289C285.574 60.8791 285.614 60.8389 285.664 60.8389H286.557C286.607 60.8389 286.647 60.8791 286.647 60.9289C286.647 60.9787 286.607 61.019 286.557 61.019ZM284.77 61.019H283.876C283.827 61.019 283.786 60.9787 283.786 60.9289C283.786 60.8791 283.827 60.8389 283.876 60.8389H284.77C284.82 60.8389 284.86 60.8791 284.86 60.9289C284.86 60.9787 284.82 61.019 284.77 61.019ZM282.983 61.019H282.089C282.04 61.019 281.999 60.9787 281.999 60.9289C281.999 60.8791 282.04 60.8389 282.089 60.8389H282.983C283.033 60.8389 283.073 60.8791 283.073 60.9289C283.073 60.9787 283.033 61.019 282.983 61.019ZM281.196 61.019H280.302C280.252 61.019 280.212 60.9787 280.212 60.9289C280.212 60.8791 280.252 60.8389 280.302 60.8389H281.196C281.246 60.8389 281.286 60.8791 281.286 60.9289C281.286 60.9787 281.246 61.019 281.196 61.019ZM279.409 61.019H278.515C278.465 61.019 278.425 60.9787 278.425 60.9289C278.425 60.8791 278.465 60.8389 278.515 60.8389H279.409C279.459 60.8389 279.499 60.8791 279.499 60.9289C279.499 60.9787 279.459 61.019 279.409 61.019ZM277.622 61.019H276.728C276.678 61.019 276.638 60.9787 276.638 60.9289C276.638 60.8791 276.678 60.8389 276.728 60.8389H277.622C277.671 60.8389 277.712 60.8791 277.712 60.9289C277.712 60.9787 277.671 61.019 277.622 61.019ZM275.834 61.019H274.941C274.891 61.019 274.851 60.9787 274.851 60.9289C274.851 60.8791 274.891 60.8389 274.941 60.8389H275.834C275.884 60.8389 275.924 60.8791 275.924 60.9289C275.924 60.9787 275.884 61.019 275.834 61.019ZM274.047 61.019H273.154C273.104 61.019 273.064 60.9787 273.064 60.9289C273.064 60.8791 273.104 60.8389 273.154 60.8389H274.047C274.097 60.8389 274.137 60.8791 274.137 60.9289C274.137 60.9787 274.097 61.019 274.047 61.019ZM272.26 61.019H271.366C271.317 61.019 271.276 60.9787 271.276 60.9289C271.276 60.8791 271.317 60.8389 271.366 60.8389H272.26C272.31 60.8389 272.35 60.8791 272.35 60.9289C272.35 60.9787 272.31 61.019 272.26 61.019ZM270.473 61.019H269.579C269.529 61.019 269.489 60.9787 269.489 60.9289C269.489 60.8791 269.529 60.8389 269.579 60.8389H270.473C270.523 60.8389 270.563 60.8791 270.563 60.9289C270.563 60.9787 270.523 61.019 270.473 61.019ZM268.686 61.019H267.792C267.742 61.019 267.702 60.9787 267.702 60.9289C267.702 60.8791 267.742 60.8389 267.792 60.8389H268.686C268.736 60.8389 268.776 60.8791 268.776 60.9289C268.776 60.9787 268.736 61.019 268.686 61.019ZM266.899 61.019H266.005C265.955 61.019 265.915 60.9787 265.915 60.9289C265.915 60.8791 265.955 60.8389 266.005 60.8389H266.899C266.948 60.8389 266.989 60.8791 266.989 60.9289C266.989 60.9787 266.948 61.019 266.899 61.019Z" fill="#303030"/>
<path d="M293.266 61.019H292.815C292.765 61.019 292.725 60.9787 292.725 60.9289C292.725 60.8791 292.765 60.8389 292.815 60.8389H293.266C293.316 60.8389 293.356 60.8791 293.356 60.9289C293.356 60.9787 293.316 61.019 293.266 61.019Z" fill="#303030"/>
<path d="M276.728 86.6715C276.953 86.1074 276.441 85.3726 275.583 85.0307C274.725 84.6886 273.848 84.8686 273.623 85.4329C273.398 85.997 273.911 86.7318 274.768 87.0737C275.626 87.4159 276.503 87.2358 276.728 86.6715Z" fill="#303030"/>
<path d="M293.787 62.4719C292.89 62.4719 292.141 61.7811 292.118 60.932C292.108 60.5353 292.256 60.1581 292.536 59.87C292.839 59.5587 293.255 59.3872 293.708 59.3872C294.605 59.3872 295.353 60.078 295.376 60.9271C295.387 61.324 295.239 61.701 294.958 61.9892C294.655 62.3006 294.239 62.4719 293.787 62.4719ZM293.708 59.5674C293.304 59.5674 292.934 59.7194 292.666 59.9957C292.419 60.2486 292.289 60.5793 292.298 60.9271C292.319 61.6796 292.987 62.2917 293.787 62.2917C294.19 62.2917 294.561 62.1397 294.829 61.8634C295.075 61.6106 295.206 61.2798 295.196 60.932C295.176 60.1795 294.508 59.5674 293.708 59.5674Z" fill="#303030"/>
<path d="M293.747 61.6401C294.14 61.6401 294.457 61.3223 294.457 60.9302C294.457 60.5382 294.14 60.2202 293.747 60.2202C293.355 60.2202 293.037 60.5382 293.037 60.9302C293.037 61.3223 293.355 61.6401 293.747 61.6401Z" fill="#76F7FF"/>
<path d="M295.245 64.3072H286.585C286.501 64.3072 286.434 64.2396 286.434 64.1561C286.434 64.0725 286.501 64.0049 286.585 64.0049H295.245C295.328 64.0049 295.396 64.0725 295.396 64.1561C295.396 64.2396 295.328 64.3072 295.245 64.3072Z" fill="#76F7FF"/>
<path d="M295.245 65.1931H286.585C286.501 65.1931 286.434 65.1254 286.434 65.0419C286.434 64.9582 286.501 64.8906 286.585 64.8906H295.245C295.328 64.8906 295.396 64.9582 295.396 65.0419C295.396 65.1254 295.328 65.1931 295.245 65.1931Z" fill="#76F7FF"/>
<path d="M249.066 53.5923H240.407C240.323 53.5923 240.256 53.5248 240.256 53.4412C240.256 53.3576 240.323 53.29 240.407 53.29H249.066C249.15 53.29 249.218 53.3576 249.218 53.4412C249.218 53.5248 249.15 53.5923 249.066 53.5923Z" fill="#76F7FF"/>
<path d="M249.066 54.8609H240.407C240.323 54.8609 240.256 54.7933 240.256 54.7098C240.256 54.6262 240.323 54.5586 240.407 54.5586H249.066C249.15 54.5586 249.218 54.6262 249.218 54.7098C249.218 54.7933 249.15 54.8609 249.066 54.8609Z" fill="#76F7FF"/>
<path d="M259.895 95.0035L256.567 89.3645L254.658 89.3296L257.985 94.9686L259.895 95.0035Z" fill="#18204D"/>
<path d="M259.955 95.0373L264.639 95.2009L261.312 89.562L256.628 89.3984L255.818 89.3701L259.145 95.0091L259.955 95.0373Z" fill="#18204D"/>
<path d="M258.617 96.041L261.945 101.681L263.468 101.716L260.14 96.0761L258.617 96.041Z" fill="#18204D"/>
<path d="M279.59 95.7234L276.263 90.0845L269.611 89.8521L272.938 95.491L279.59 95.7234Z" fill="#18204D"/>
<path d="M272.115 95.4612L268.787 89.822L262.135 89.5898L265.463 95.2289L272.115 95.4612Z" fill="#18204D"/>
<path d="M253.831 89.3009L247.178 89.0684L250.505 94.7076L257.159 94.9398L253.831 89.3009Z" fill="#18204D"/>
<path d="M280.224 96.7957L273.572 96.5635L276.899 102.204L283.552 102.436L280.224 96.7957Z" fill="#18204D"/>
<path d="M266.096 96.3027L269.424 101.943L276.076 102.176L272.748 96.5349L266.096 96.3027Z" fill="#18204D"/>
<path d="M260.591 96.1094L259.781 96.0811L263.109 101.722L263.919 101.75L268.603 101.914L265.275 96.2728L260.591 96.1094Z" fill="#18204D"/>
<path d="M251.141 95.7803L254.469 101.421L261.122 101.653L257.794 96.0127L251.141 95.7803Z" fill="#18204D"/>
<path opacity="0.160784" d="M302.794 103.283L302.14 102.175L286.894 76.3359L285.666 74.255C285.309 73.6498 284.639 73.1458 284.17 73.1295L246.609 71.8178C246.14 71.8014 246.048 72.2787 246.405 72.8839L247.633 74.9648L249.891 78.7921L251.906 82.2071L255.234 87.8474L256.104 89.3219L259.543 95.1503L260.064 96.0335L263.392 101.674L263.533 101.912C263.89 102.517 264.561 103.021 265.03 103.038L302.591 104.349C303.06 104.366 303.151 103.888 302.794 103.283Z" fill="#18204D"/>
<path d="M362.037 150.613H244.037C242.656 150.613 241.537 151.732 241.537 153.113C241.537 154.494 242.656 155.613 244.037 155.613H362.037C363.418 155.613 364.537 154.494 364.537 153.113C364.537 151.732 363.418 150.613 362.037 150.613Z" fill="white" fill-opacity="0.6"/>
<path d="M334.037 167.613H272.037C270.656 167.613 269.537 168.732 269.537 170.113C269.537 171.494 270.656 172.613 272.037 172.613H334.037C335.418 172.613 336.537 171.494 336.537 170.113C336.537 168.732 335.418 167.613 334.037 167.613Z" fill="white" fill-opacity="0.6"/>
<path d="M349.627 184.613H256.447C255.679 184.613 255.057 185.235 255.057 186.004C255.057 186.772 255.679 187.394 256.447 187.394H349.627C350.395 187.394 351.018 186.772 351.018 186.004C351.018 185.235 350.395 184.613 349.627 184.613Z" fill="white" fill-opacity="0.3"/>
<path d="M299.615 210.349C299.615 204.299 294.71 199.395 288.661 199.395C282.611 199.395 277.707 204.299 277.707 210.349C277.707 216.398 282.611 221.303 288.661 221.303C294.71 221.303 299.615 216.398 299.615 210.349Z" fill="white" fill-opacity="0.7"/>
<path d="M328.368 210.349C328.368 204.299 323.464 199.395 317.415 199.395C311.365 199.395 306.461 204.299 306.461 210.349C306.461 216.398 311.365 221.303 317.415 221.303C323.464 221.303 328.368 216.398 328.368 210.349Z" fill="white" fill-opacity="0.7"/>
<path fill-rule="evenodd" clip-rule="evenodd" d="M360.614 49.2903C366.664 49.2903 371.568 44.3861 371.568 38.3365C371.568 32.2869 366.664 27.3828 360.614 27.3828C354.564 27.3828 349.66 32.2869 349.66 38.3365C349.66 44.3861 354.564 49.2903 360.614 49.2903Z" fill="#18204D"/>
<path d="M363.992 37.8018L360.08 41.7132L361.682 43.3151L365.594 39.4037L363.992 37.8018Z" fill="#FFE458"/>
<path fill-rule="evenodd" clip-rule="evenodd" d="M355.77 34.0719L359.068 37.3696C359.065 37.3939 359.064 37.4187 359.064 37.4438C359.064 37.8081 359.359 38.1035 359.723 38.1035C360.088 38.1035 360.383 37.8081 360.383 37.4438C360.383 37.0794 360.088 36.7841 359.723 36.7841C359.698 36.7841 359.673 36.7855 359.648 36.7883L356.354 33.4941L362.212 34.6027H362.217L363.283 38.5162L360.793 41.0057L356.88 39.9352L355.77 34.0719Z" fill="#B5CDFB"/>
</g>
<path d="M53.5516 49V41.6993H55.9032C56.5484 41.6993 57.1284 41.8464 57.6432 42.1405C58.158 42.4314 58.5591 42.8442 58.8466 43.379C59.1374 43.9106 59.2845 44.5072 59.2878 45.1691V45.5051C59.2878 46.1736 59.1458 46.7737 58.8616 47.3052C58.5808 47.8334 58.183 48.2479 57.6683 48.5487C57.1568 48.8462 56.5852 48.9967 55.9534 49H53.5516ZM55.3116 43.0581V47.6462H55.9233C56.4281 47.6462 56.8158 47.4673 57.0866 47.1096C57.3574 46.7486 57.4928 46.2138 57.4928 45.5051V45.1892C57.4928 44.4838 57.3574 43.9523 57.0866 43.5947C56.8158 43.237 56.4214 43.0581 55.9032 43.0581H55.3116ZM61.8953 49H60.2004V43.5746H61.8953V49ZM60.1002 42.1756C60.1002 41.9349 60.1871 41.7377 60.3609 41.5839C60.5347 41.4302 60.7604 41.3533 61.0378 41.3533C61.3153 41.3533 61.5409 41.4302 61.7147 41.5839C61.8886 41.7377 61.9755 41.9349 61.9755 42.1756C61.9755 42.4163 61.8886 42.6135 61.7147 42.7673C61.5409 42.9211 61.3153 42.998 61.0378 42.998C60.7604 42.998 60.5347 42.9211 60.3609 42.7673C60.1871 42.6135 60.1002 42.4163 60.1002 42.1756ZM65.7813 47.4757C65.7813 47.3319 65.7061 47.2166 65.5556 47.1297C65.4052 47.0428 65.1194 46.9525 64.6982 46.8589C64.277 46.7653 63.9294 46.6433 63.6552 46.4929C63.3811 46.3391 63.1722 46.1536 63.0285 45.9363C62.8847 45.719 62.8129 45.47 62.8129 45.1892C62.8129 44.6911 63.0184 44.2816 63.4296 43.9607C63.8408 43.6364 64.379 43.4743 65.0442 43.4743C65.7596 43.4743 66.3345 43.6364 66.7691 43.9607C67.2037 44.2849 67.4209 44.7112 67.4209 45.2393H65.7261C65.7261 44.8048 65.4971 44.5875 65.0392 44.5875C64.862 44.5875 64.7133 44.6376 64.5929 44.7379C64.4726 44.8348 64.4124 44.9569 64.4124 45.1039C64.4124 45.2544 64.4859 45.3764 64.633 45.47C64.7801 45.5636 65.0141 45.6405 65.335 45.7006C65.6593 45.7608 65.9434 45.8327 66.1874 45.9162C67.0031 46.197 67.4109 46.7001 67.4109 47.4255C67.4109 47.9203 67.1903 48.3231 66.749 48.634C66.3111 48.9448 65.7428 49.1003 65.0442 49.1003C64.5795 49.1003 64.165 49.0167 63.8007 48.8496C63.4363 48.6824 63.1522 48.4551 62.9482 48.1676C62.7443 47.8802 62.6424 47.5776 62.6424 47.2601H64.2219C64.2285 47.5108 64.3121 47.6946 64.4726 47.8116C64.633 47.9253 64.8386 47.9821 65.0893 47.9821C65.32 47.9821 65.4921 47.9353 65.6058 47.8417C65.7228 47.7481 65.7813 47.6261 65.7813 47.4757ZM70.8306 49.1003C69.9983 49.1003 69.3247 48.8529 68.8099 48.3582C68.2951 47.8601 68.0377 47.2133 68.0377 46.4177V46.2773C68.0377 45.7224 68.1396 45.2326 68.3436 44.8081C68.5508 44.3836 68.8517 44.056 69.2461 43.8253C69.6406 43.5913 70.1086 43.4743 70.6501 43.4743C71.4123 43.4743 72.014 43.7117 72.4552 44.1863C72.8965 44.6577 73.1171 45.3162 73.1171 46.1619V46.8188H69.7576C69.8177 47.123 69.9498 47.362 70.1537 47.5358C70.3576 47.7097 70.6217 47.7966 70.9459 47.7966C71.4808 47.7966 71.8986 47.6094 72.1995 47.235L72.9717 48.1476C72.7611 48.4384 72.4619 48.6707 72.0741 48.8446C71.6897 49.015 71.2752 49.1003 70.8306 49.1003ZM70.6401 44.778C70.1453 44.778 69.8512 45.1056 69.7576 45.7608H71.4624V45.6304C71.4691 45.3597 71.4006 45.1507 71.2568 45.0037C71.1131 44.8532 70.9075 44.778 70.6401 44.778ZM75.3535 43.5746L75.4086 44.2114C75.783 43.72 76.2995 43.4743 76.958 43.4743C77.5229 43.4743 77.9441 43.6431 78.2216 43.9808C78.5024 44.3184 78.6478 44.8265 78.6578 45.5051V49H76.963V45.5753C76.963 45.3012 76.9079 45.1006 76.7976 44.9736C76.6872 44.8432 76.4867 44.778 76.1958 44.778C75.8649 44.778 75.6192 44.9084 75.4588 45.1691V49H73.769V43.5746H75.3535ZM78.1564 41.3383C78.1564 41.7193 78.0444 42.0436 77.8205 42.311C77.5998 42.5751 77.3257 42.7071 76.9981 42.7071C76.7775 42.7071 76.5318 42.6369 76.261 42.4965C75.9903 42.3561 75.7713 42.2859 75.6042 42.2859C75.4972 42.2859 75.4053 42.3227 75.3284 42.3963C75.2548 42.4698 75.2181 42.5835 75.2181 42.7372L74.2804 42.6871C74.2804 42.316 74.3907 41.9951 74.6113 41.7243C74.8353 41.4536 75.1094 41.3182 75.4337 41.3182C75.6008 41.3182 75.8198 41.38 76.0905 41.5037C76.3613 41.6241 76.5318 41.6926 76.602 41.7093C76.6755 41.726 76.7524 41.7344 76.8327 41.7344C76.9396 41.7344 77.0316 41.6976 77.1084 41.6241C77.1853 41.5505 77.2238 41.4369 77.2238 41.2831L78.1564 41.3383ZM79.3849 46.2372C79.3849 45.6956 79.4902 45.2143 79.7008 44.7931C79.9114 44.3685 80.2139 44.0426 80.6084 43.8153C81.0028 43.588 81.4658 43.4743 81.9973 43.4743C82.8096 43.4743 83.4498 43.7267 83.9178 44.2315C84.3858 44.7329 84.6198 45.4165 84.6198 46.2823V46.3425C84.6198 47.1882 84.3841 47.8601 83.9128 48.3582C83.4448 48.8529 82.8096 49.1003 82.0073 49.1003C81.2352 49.1003 80.6151 48.8696 80.1471 48.4083C79.6791 47.9437 79.4267 47.3152 79.3899 46.523L79.3849 46.2372ZM81.0747 46.3425C81.0747 46.8439 81.1533 47.2116 81.3104 47.4456C81.4675 47.6796 81.6998 47.7966 82.0073 47.7966C82.6091 47.7966 82.9166 47.3336 82.93 46.4076V46.2372C82.93 45.2644 82.6191 44.778 81.9973 44.778C81.4324 44.778 81.1265 45.1975 81.0797 46.0366L81.0747 46.3425ZM92.6074 46.7737L93.154 43.5746H94.7736L93.495 49H92.0659L91.1684 45.7809L90.2658 49H88.8367L87.5581 43.5746H89.1777L89.7142 46.8489L90.5767 43.5746H91.755L92.6074 46.7737ZM98.0078 49.1003C97.1754 49.1003 96.5018 48.8529 95.987 48.3582C95.4722 47.8601 95.2148 47.2133 95.2148 46.4177V46.2773C95.2148 45.7224 95.3168 45.2326 95.5207 44.8081C95.728 44.3836 96.0288 44.056 96.4233 43.8253C96.8177 43.5913 97.2857 43.4743 97.8273 43.4743C98.5894 43.4743 99.1911 43.7117 99.6324 44.1863C100.074 44.6577 100.294 45.3162 100.294 46.1619V46.8188H96.9347C96.9949 47.123 97.1269 47.362 97.3308 47.5358C97.5348 47.7097 97.7988 47.7966 98.1231 47.7966C98.6579 47.7966 99.0758 47.6094 99.3767 47.235L100.149 48.1476C99.9382 48.4384 99.6391 48.6707 99.2513 48.8446C98.8669 49.015 98.4524 49.1003 98.0078 49.1003ZM97.8172 44.778C97.3225 44.778 97.0283 45.1056 96.9347 45.7608H98.6396V45.6304C98.6462 45.3597 98.5777 45.1507 98.434 45.0037C98.2902 44.8532 98.0847 44.778 97.8172 44.778ZM106.015 46.3324C106.015 47.2216 105.832 47.9052 105.464 48.3832C105.096 48.8613 104.578 49.1003 103.91 49.1003C103.358 49.1003 102.913 48.8813 102.576 48.4434L102.506 49H100.991V41.2981H102.681V44.0108C102.995 43.6532 103.401 43.4743 103.899 43.4743C104.575 43.4743 105.096 43.7167 105.464 44.2014C105.832 44.6861 106.015 45.368 106.015 46.2472V46.3324ZM104.321 46.2271C104.321 45.7056 104.25 45.3346 104.11 45.114C103.973 44.89 103.761 44.778 103.473 44.778C103.092 44.778 102.828 44.9234 102.681 45.2143V47.3704C102.825 47.6579 103.092 47.8016 103.483 47.8016C103.881 47.8016 104.133 47.6077 104.24 47.2199C104.294 47.0294 104.321 46.6985 104.321 46.2271ZM112.113 46.4227H111.16V49H109.4V41.6993H112.273C113.139 41.6993 113.816 41.8915 114.304 42.2759C114.792 42.6603 115.036 43.2035 115.036 43.9055C115.036 44.4136 114.932 44.8348 114.725 45.1691C114.521 45.5034 114.2 45.7742 113.762 45.9814L115.287 48.9248V49H113.401L112.113 46.4227ZM111.16 45.0638H112.273C112.608 45.0638 112.858 44.9769 113.025 44.8031C113.196 44.6259 113.281 44.3802 113.281 44.066C113.281 43.7518 113.196 43.5061 113.025 43.3289C112.855 43.1484 112.604 43.0581 112.273 43.0581H111.16V45.0638ZM118.646 49.1003C117.814 49.1003 117.14 48.8529 116.626 48.3582C116.111 47.8601 115.853 47.2133 115.853 46.4177V46.2773C115.853 45.7224 115.955 45.2326 116.159 44.8081C116.367 44.3836 116.667 44.056 117.062 43.8253C117.456 43.5913 117.924 43.4743 118.466 43.4743C119.228 43.4743 119.83 43.7117 120.271 44.1863C120.712 44.6577 120.933 45.3162 120.933 46.1619V46.8188H117.573C117.633 47.123 117.766 47.362 117.969 47.5358C118.173 47.7097 118.437 47.7966 118.762 47.7966C119.297 47.7966 119.714 47.6094 120.015 47.235L120.787 48.1476C120.577 48.4384 120.278 48.6707 119.89 48.8446C119.505 49.015 119.091 49.1003 118.646 49.1003ZM118.456 44.778C117.961 44.778 117.667 45.1056 117.573 45.7608H119.278V45.6304C119.285 45.3597 119.216 45.1507 119.073 45.0037C118.929 44.8532 118.723 44.778 118.456 44.778ZM124.458 47.4757C124.458 47.3319 124.383 47.2166 124.232 47.1297C124.082 47.0428 123.796 46.9525 123.375 46.8589C122.954 46.7653 122.606 46.6433 122.332 46.4929C122.058 46.3391 121.849 46.1536 121.705 45.9363C121.561 45.719 121.489 45.47 121.489 45.1892C121.489 44.6911 121.695 44.2816 122.106 43.9607C122.517 43.6364 123.056 43.4743 123.721 43.4743C124.436 43.4743 125.011 43.6364 125.446 43.9607C125.88 44.2849 126.098 44.7112 126.098 45.2393H124.403C124.403 44.8048 124.174 44.5875 123.716 44.5875C123.539 44.5875 123.39 44.6376 123.269 44.7379C123.149 44.8348 123.089 44.9569 123.089 45.1039C123.089 45.2544 123.163 45.3764 123.31 45.47C123.457 45.5636 123.691 45.6405 124.012 45.7006C124.336 45.7608 124.62 45.8327 124.864 45.9162C125.68 46.197 126.087 46.7001 126.087 47.4255C126.087 47.9203 125.867 48.3231 125.426 48.634C124.988 48.9448 124.419 49.1003 123.721 49.1003C123.256 49.1003 122.842 49.0167 122.477 48.8496C122.113 48.6824 121.829 48.4551 121.625 48.1676C121.421 47.8802 121.319 47.5776 121.319 47.2601H122.898C122.905 47.5108 122.989 47.6946 123.149 47.8116C123.31 47.9253 123.515 47.9821 123.766 47.9821C123.997 47.9821 124.169 47.9353 124.282 47.8417C124.399 47.7481 124.458 47.6261 124.458 47.4757ZM131.919 46.3274C131.919 47.1698 131.728 47.8434 131.347 48.3481C130.97 48.8496 130.458 49.1003 129.813 49.1003C129.315 49.1003 128.905 48.9181 128.585 48.5537V51.0859H126.895V43.5746H128.474L128.524 44.076C128.849 43.6749 129.275 43.4743 129.803 43.4743C130.472 43.4743 130.991 43.7217 131.362 44.2164C131.734 44.7078 131.919 45.3847 131.919 46.2472V46.3274ZM130.229 46.2221C130.229 45.2594 129.948 44.778 129.387 44.778C128.986 44.778 128.718 44.9218 128.585 45.2092V47.3453C128.732 47.6462 129.002 47.7966 129.397 47.7966C129.935 47.7966 130.213 47.3319 130.229 46.4026V46.2221ZM132.456 46.2372C132.456 45.6956 132.561 45.2143 132.771 44.7931C132.982 44.3685 133.285 44.0426 133.679 43.8153C134.073 43.588 134.536 43.4743 135.068 43.4743C135.88 43.4743 136.52 43.7267 136.988 44.2315C137.456 44.7329 137.69 45.4165 137.69 46.2823V46.3425C137.69 47.1882 137.455 47.8601 136.983 48.3582C136.515 48.8529 135.88 49.1003 135.078 49.1003C134.306 49.1003 133.686 48.8696 133.218 48.4083C132.75 47.9437 132.497 47.3152 132.461 46.523L132.456 46.2372ZM134.145 46.3425C134.145 46.8439 134.224 47.2116 134.381 47.4456C134.538 47.6796 134.77 47.7966 135.078 47.7966C135.68 47.7966 135.987 47.3336 136.001 46.4076V46.2372C136.001 45.2644 135.69 44.778 135.068 44.778C134.503 44.778 134.197 45.1975 134.15 46.0366L134.145 46.3425ZM139.987 43.5746L140.042 44.2114C140.416 43.72 140.933 43.4743 141.591 43.4743C142.156 43.4743 142.578 43.6431 142.855 43.9808C143.136 44.3184 143.281 44.8265 143.291 45.5051V49H141.597V45.5753C141.597 45.3012 141.541 45.1006 141.431 44.9736C141.321 44.8432 141.12 44.778 140.829 44.778C140.498 44.778 140.253 44.9084 140.092 45.1691V49H138.402V43.5746H139.987ZM147.072 47.4757C147.072 47.3319 146.997 47.2166 146.846 47.1297C146.696 47.0428 146.41 46.9525 145.989 46.8589C145.568 46.7653 145.22 46.6433 144.946 46.4929C144.672 46.3391 144.463 46.1536 144.319 45.9363C144.175 45.719 144.104 45.47 144.104 45.1892C144.104 44.6911 144.309 44.2816 144.72 43.9607C145.132 43.6364 145.67 43.4743 146.335 43.4743C147.05 43.4743 147.625 43.6364 148.06 43.9607C148.494 44.2849 148.712 44.7112 148.712 45.2393H147.017C147.017 44.8048 146.788 44.5875 146.33 44.5875C146.153 44.5875 146.004 44.6376 145.884 44.7379C145.763 44.8348 145.703 44.9569 145.703 45.1039C145.703 45.2544 145.777 45.3764 145.924 45.47C146.071 45.5636 146.305 45.6405 146.626 45.7006C146.95 45.7608 147.234 45.8327 147.478 45.9162C148.294 46.197 148.702 46.7001 148.702 47.4255C148.702 47.9203 148.481 48.3231 148.04 48.634C147.602 48.9448 147.034 49.1003 146.335 49.1003C145.87 49.1003 145.456 49.0167 145.091 48.8496C144.727 48.6824 144.443 48.4551 144.239 48.1676C144.035 47.8802 143.933 47.5776 143.933 47.2601H145.513C145.519 47.5108 145.603 47.6946 145.763 47.8116C145.924 47.9253 146.129 47.9821 146.38 47.9821C146.611 47.9821 146.783 47.9353 146.897 47.8417C147.014 47.7481 147.072 47.6261 147.072 47.4757ZM151.279 49H149.584V43.5746H151.279V49ZM149.484 42.1756C149.484 41.9349 149.571 41.7377 149.745 41.5839C149.918 41.4302 150.144 41.3533 150.422 41.3533C150.699 41.3533 150.925 41.4302 151.098 41.5839C151.272 41.7377 151.359 41.9349 151.359 42.1756C151.359 42.4163 151.272 42.6135 151.098 42.7673C150.925 42.9211 150.699 42.998 150.422 42.998C150.144 42.998 149.918 42.9211 149.745 42.7673C149.571 42.6135 149.484 42.4163 149.484 42.1756ZM154.488 46.9893L155.346 43.5746H157.126L155.356 49H153.631L151.861 43.5746H153.646L154.488 46.9893ZM157.336 46.2372C157.336 45.6956 157.441 45.2143 157.652 44.7931C157.863 44.3685 158.165 44.0426 158.56 43.8153C158.954 43.588 159.417 43.4743 159.949 43.4743C160.761 43.4743 161.401 43.7267 161.869 44.2315C162.337 44.7329 162.571 45.4165 162.571 46.2823V46.3425C162.571 47.1882 162.335 47.8601 161.864 48.3582C161.396 48.8529 160.761 49.1003 159.959 49.1003C159.186 49.1003 158.566 48.8696 158.098 48.4083C157.63 47.9437 157.378 47.3152 157.341 46.523L157.336 46.2372ZM159.026 46.3425C159.026 46.8439 159.105 47.2116 159.262 47.4456C159.419 47.6796 159.651 47.7966 159.959 47.7966C160.56 47.7966 160.868 47.3336 160.881 46.4076V46.2372C160.881 45.2644 160.57 44.778 159.949 44.778C159.384 44.778 159.078 45.1975 159.031 46.0366L159.026 46.3425Z" fill="white"/>
<path d="M59.4583 102.528C59.4349 103.036 59.2979 103.486 59.0472 103.877C58.7965 104.265 58.4438 104.565 57.9892 104.779C57.5379 104.993 57.0214 105.1 56.4398 105.1C55.4804 105.1 54.7249 104.788 54.1733 104.163C53.6218 103.538 53.346 102.655 53.346 101.515V101.154C53.346 100.439 53.4697 99.8136 53.717 99.2788C53.9677 98.7406 54.3271 98.3261 54.7951 98.0352C55.2631 97.7411 55.8046 97.594 56.4197 97.594C57.3056 97.594 58.0176 97.828 58.5558 98.296C59.094 98.7606 59.3998 99.4024 59.4734 100.221H57.7184C57.705 99.7768 57.593 99.4576 57.3824 99.2637C57.1718 99.0698 56.8509 98.9729 56.4197 98.9729C55.9818 98.9729 55.6609 99.1367 55.457 99.4643C55.2531 99.7919 55.1461 100.315 55.1361 101.034V101.55C55.1361 102.329 55.233 102.886 55.4269 103.22C55.6241 103.554 55.9617 103.721 56.4398 103.721C56.8442 103.721 57.1535 103.626 57.3674 103.436C57.5813 103.245 57.695 102.942 57.7084 102.528H59.4583ZM59.9999 102.237C59.9999 101.696 60.1052 101.214 60.3158 100.793C60.5264 100.369 60.8289 100.043 61.2233 99.8153C61.6178 99.588 62.0808 99.4743 62.6123 99.4743C63.4246 99.4743 64.0647 99.7267 64.5327 100.231C65.0007 100.733 65.2347 101.416 65.2347 102.282V102.342C65.2347 103.188 64.9991 103.86 64.5277 104.358C64.0597 104.853 63.4246 105.1 62.6223 105.1C61.8501 105.1 61.23 104.87 60.762 104.408C60.294 103.944 60.0417 103.315 60.0049 102.523L59.9999 102.237ZM61.6897 102.342C61.6897 102.844 61.7682 103.212 61.9253 103.446C62.0824 103.68 62.3148 103.797 62.6223 103.797C63.224 103.797 63.5316 103.334 63.5449 102.408V102.237C63.5449 101.264 63.2341 100.778 62.6123 100.778C62.0474 100.778 61.7415 101.198 61.6947 102.037L61.6897 102.342ZM67.5313 99.5746L67.5864 100.211C67.9608 99.72 68.4773 99.4743 69.1358 99.4743C69.7007 99.4743 70.1219 99.6431 70.3994 99.9808C70.6802 100.318 70.8256 100.826 70.8356 101.505V105H69.1408V101.575C69.1408 101.301 69.0857 101.101 68.9754 100.974C68.865 100.843 68.6645 100.778 68.3736 100.778C68.0427 100.778 67.797 100.908 67.6366 101.169V105H65.9468V99.5746H67.5313ZM74.6164 103.476C74.6164 103.332 74.5412 103.217 74.3907 103.13C74.2403 103.043 73.9545 102.953 73.5333 102.859C73.1121 102.765 72.7644 102.643 72.4903 102.493C72.2162 102.339 72.0073 102.154 71.8636 101.936C71.7198 101.719 71.6479 101.47 71.6479 101.189C71.6479 100.691 71.8535 100.282 72.2647 99.9607C72.6759 99.6364 73.2141 99.4743 73.8793 99.4743C74.5946 99.4743 75.1696 99.6364 75.6042 99.9607C76.0387 100.285 76.256 100.711 76.256 101.239H74.5612C74.5612 100.805 74.3322 100.587 73.8743 100.587C73.6971 100.587 73.5483 100.638 73.428 100.738C73.3076 100.835 73.2475 100.957 73.2475 101.104C73.2475 101.254 73.321 101.376 73.4681 101.47C73.6152 101.564 73.8492 101.64 74.1701 101.701C74.4944 101.761 74.7785 101.833 75.0225 101.916C75.8382 102.197 76.246 102.7 76.246 103.426C76.246 103.92 76.0254 104.323 75.5841 104.634C75.1462 104.945 74.5779 105.1 73.8793 105.1C73.4146 105.1 73.0001 105.017 72.6357 104.85C72.2714 104.682 71.9872 104.455 71.7833 104.168C71.5794 103.88 71.4775 103.578 71.4775 103.26H73.0569C73.0636 103.511 73.1472 103.695 73.3076 103.812C73.4681 103.925 73.6737 103.982 73.9244 103.982C74.1551 103.982 74.3272 103.935 74.4409 103.842C74.5579 103.748 74.6164 103.626 74.6164 103.476ZM80.2724 104.413C79.9147 104.871 79.4317 105.1 78.8233 105.1C78.2283 105.1 77.777 104.928 77.4695 104.584C77.1653 104.236 77.0132 103.738 77.0132 103.09V99.5746H78.703V103.1C78.703 103.564 78.9286 103.797 79.3799 103.797C79.7677 103.797 80.0434 103.658 80.2072 103.38V99.5746H81.9071V105H80.3226L80.2724 104.413ZM84.4342 99.5746L84.4894 100.211C84.8738 99.72 85.3903 99.4743 86.0388 99.4743C86.7241 99.4743 87.187 99.7468 87.4277 100.292C87.7954 99.7468 88.327 99.4743 89.0223 99.4743C90.122 99.4743 90.687 100.14 90.7171 101.47V105H89.0223V101.575C89.0223 101.298 88.9755 101.096 88.8819 100.969C88.7883 100.842 88.6178 100.778 88.3704 100.778C88.0361 100.778 87.7871 100.927 87.6233 101.224L87.6283 101.294V105H85.9335V101.585C85.9335 101.301 85.8884 101.096 85.7981 100.969C85.7078 100.842 85.5357 100.778 85.2816 100.778C84.9574 100.778 84.71 100.927 84.5395 101.224V105H82.8497V99.5746H84.4342ZM91.4692 102.237C91.4692 101.696 91.5745 101.214 91.7851 100.793C91.9957 100.369 92.2982 100.043 92.6927 99.8153C93.0871 99.588 93.5501 99.4743 94.0816 99.4743C94.8939 99.4743 95.5341 99.7267 96.0021 100.231C96.4701 100.733 96.7041 101.416 96.7041 102.282V102.342C96.7041 103.188 96.4684 103.86 95.9971 104.358C95.5291 104.853 94.8939 105.1 94.0917 105.1C93.3195 105.1 92.6994 104.87 92.2314 104.408C91.7634 103.944 91.511 103.315 91.4742 102.523L91.4692 102.237ZM93.159 102.342C93.159 102.844 93.2376 103.212 93.3947 103.446C93.5518 103.68 93.7841 103.797 94.0917 103.797C94.6934 103.797 95.0009 103.334 95.0143 102.408V102.237C95.0143 101.264 94.7034 100.778 94.0816 100.778C93.5167 100.778 93.2108 101.198 93.164 102.037L93.159 102.342ZM99.7928 102.247C99.7928 101.388 99.9784 100.711 100.349 100.216C100.72 99.7217 101.239 99.4743 101.904 99.4743C102.389 99.4743 102.796 99.6649 103.127 100.046V97.2981H104.822V105H103.303L103.218 104.418C102.87 104.873 102.429 105.1 101.894 105.1C101.249 105.1 100.737 104.853 100.359 104.358C99.9817 103.863 99.7928 103.16 99.7928 102.247ZM101.483 102.352C101.483 103.315 101.763 103.797 102.325 103.797C102.699 103.797 102.967 103.639 103.127 103.325V101.259C102.974 100.938 102.709 100.778 102.335 100.778C101.814 100.778 101.531 101.199 101.488 102.042L101.483 102.352ZM108.407 105.1C107.575 105.1 106.901 104.853 106.387 104.358C105.872 103.86 105.614 103.213 105.614 102.418V102.277C105.614 101.722 105.716 101.233 105.92 100.808C106.127 100.384 106.428 100.056 106.823 99.8253C107.217 99.5913 107.685 99.4743 108.227 99.4743C108.989 99.4743 109.591 99.7117 110.032 100.186C110.473 100.658 110.694 101.316 110.694 102.162V102.819H107.334C107.394 103.123 107.526 103.362 107.73 103.536C107.934 103.71 108.198 103.797 108.523 103.797C109.057 103.797 109.475 103.609 109.776 103.235L110.548 104.148C110.338 104.438 110.039 104.671 109.651 104.845C109.266 105.015 108.852 105.1 108.407 105.1ZM108.217 100.778C107.722 100.778 107.428 101.106 107.334 101.761H109.039V101.63C109.046 101.36 108.977 101.151 108.833 101.004C108.69 100.853 108.484 100.778 108.217 100.778ZM118.16 103.636H115.748L115.327 105H113.447L116.124 97.6993H117.779L120.477 105H118.586L118.16 103.636ZM116.169 102.277H117.739L116.952 99.7451L116.169 102.277ZM122.773 102.523V105H121.013V97.6993H123.926C124.485 97.6993 124.978 97.8029 125.406 98.0102C125.837 98.2141 126.169 98.5066 126.403 98.8876C126.641 99.2654 126.759 99.6949 126.759 100.176C126.759 100.888 126.504 101.458 125.992 101.886C125.484 102.311 124.785 102.523 123.896 102.523H122.773ZM122.773 101.164H123.926C124.267 101.164 124.526 101.079 124.704 100.908C124.884 100.738 124.974 100.497 124.974 100.186C124.974 99.8454 124.882 99.5729 124.699 99.369C124.515 99.1651 124.264 99.0615 123.946 99.0581H122.773V101.164ZM129.577 105H127.822V97.6993H129.577V105ZM133.564 103.476C133.564 103.332 133.488 103.217 133.338 103.13C133.188 103.043 132.902 102.953 132.481 102.859C132.059 102.765 131.712 102.643 131.438 102.493C131.164 102.339 130.955 102.154 130.811 101.936C130.667 101.719 130.595 101.47 130.595 101.189C130.595 100.691 130.801 100.282 131.212 99.9607C131.623 99.6364 132.161 99.4743 132.827 99.4743C133.542 99.4743 134.117 99.6364 134.552 99.9607C134.986 100.285 135.203 100.711 135.203 101.239H133.509C133.509 100.805 133.28 100.587 132.822 100.587C132.644 100.587 132.496 100.638 132.375 100.738C132.255 100.835 132.195 100.957 132.195 101.104C132.195 101.254 132.268 101.376 132.415 101.47C132.563 101.564 132.797 101.64 133.117 101.701C133.442 101.761 133.726 101.833 133.97 101.916C134.786 102.197 135.193 102.7 135.193 103.426C135.193 103.92 134.973 104.323 134.531 104.634C134.094 104.945 133.525 105.1 132.827 105.1C132.362 105.1 131.947 105.017 131.583 104.85C131.219 104.682 130.935 104.455 130.731 104.168C130.527 103.88 130.425 103.578 130.425 103.26H132.004C132.011 103.511 132.095 103.695 132.255 103.812C132.415 103.925 132.621 103.982 132.872 103.982C133.102 103.982 133.275 103.935 133.388 103.842C133.505 103.748 133.564 103.626 133.564 103.476Z" fill="white"/>
<path d="M59.2778 164.699V169.478C59.2778 170.019 59.1625 170.489 58.9318 170.887C58.7012 171.281 58.3702 171.582 57.939 171.789C57.5078 171.997 56.998 172.1 56.4097 172.1C55.5205 172.1 54.8202 171.87 54.3087 171.408C53.7973 170.947 53.5365 170.315 53.5265 169.513V164.699H55.2965V169.548C55.3166 170.347 55.6876 170.746 56.4097 170.746C56.774 170.746 57.0498 170.646 57.237 170.446C57.4242 170.245 57.5178 169.919 57.5178 169.468V164.699H59.2778ZM63.1438 170.476C63.1438 170.332 63.0686 170.217 62.9182 170.13C62.7677 170.043 62.4819 169.953 62.0607 169.859C61.6395 169.765 61.2919 169.643 61.0178 169.493C60.7436 169.339 60.5347 169.154 60.391 168.936C60.2472 168.719 60.1754 168.47 60.1754 168.189C60.1754 167.691 60.381 167.282 60.7921 166.961C61.2033 166.636 61.7415 166.474 62.4067 166.474C63.1221 166.474 63.697 166.636 64.1316 166.961C64.5662 167.285 64.7835 167.711 64.7835 168.239H63.0886C63.0886 167.805 62.8597 167.587 62.4017 167.587C62.2245 167.587 62.0758 167.638 61.9554 167.738C61.8351 167.835 61.7749 167.957 61.7749 168.104C61.7749 168.254 61.8485 168.376 61.9955 168.47C62.1426 168.564 62.3766 168.64 62.6975 168.701C63.0218 168.761 63.3059 168.833 63.5499 168.916C64.3656 169.197 64.7734 169.7 64.7734 170.426C64.7734 170.92 64.5528 171.323 64.1115 171.634C63.6736 171.945 63.1054 172.1 62.4067 172.1C61.9421 172.1 61.5275 172.017 61.1632 171.85C60.7988 171.682 60.5147 171.455 60.3108 171.168C60.1068 170.88 60.0049 170.578 60.0049 170.26H61.5844C61.5911 170.511 61.6746 170.695 61.8351 170.812C61.9955 170.925 62.2011 170.982 62.4518 170.982C62.6825 170.982 62.8546 170.935 62.9683 170.842C63.0853 170.748 63.1438 170.626 63.1438 170.476ZM65.3551 169.237C65.3551 168.696 65.4604 168.214 65.671 167.793C65.8816 167.369 66.1841 167.043 66.5785 166.815C66.973 166.588 67.436 166.474 67.9675 166.474C68.7798 166.474 69.4199 166.727 69.8879 167.231C70.3559 167.733 70.5899 168.416 70.5899 169.282V169.342C70.5899 170.188 70.3543 170.86 69.8829 171.358C69.4149 171.853 68.7798 172.1 67.9775 172.1C67.2053 172.1 66.5852 171.87 66.1172 171.408C65.6492 170.944 65.3969 170.315 65.3601 169.523L65.3551 169.237ZM67.0449 169.342C67.0449 169.844 67.1234 170.212 67.2805 170.446C67.4377 170.68 67.67 170.797 67.9775 170.797C68.5792 170.797 68.8868 170.334 68.9001 169.408V169.237C68.9001 168.264 68.5893 167.778 67.9675 167.778C67.4026 167.778 67.0967 168.198 67.0499 169.037L67.0449 169.342ZM73.6787 169.247C73.6787 168.388 73.8642 167.711 74.2353 167.216C74.6063 166.722 75.1245 166.474 75.7897 166.474C76.2744 166.474 76.6822 166.665 77.0132 167.046V164.298H78.708V172H77.1887L77.1034 171.418C76.7558 171.873 76.3145 172.1 75.7797 172.1C75.1345 172.1 74.623 171.853 74.2453 171.358C73.8676 170.863 73.6787 170.16 73.6787 169.247ZM75.3685 169.352C75.3685 170.315 75.6493 170.797 76.2109 170.797C76.5853 170.797 76.8527 170.639 77.0132 170.325V168.259C76.8594 167.938 76.5953 167.778 76.2209 167.778C75.6994 167.778 75.417 168.199 75.3735 169.042L75.3685 169.352ZM82.2932 172.1C81.4608 172.1 80.7872 171.853 80.2724 171.358C79.7576 170.86 79.5002 170.213 79.5002 169.418V169.277C79.5002 168.722 79.6022 168.233 79.8061 167.808C80.0134 167.384 80.3142 167.056 80.7087 166.825C81.1031 166.591 81.5711 166.474 82.1126 166.474C82.8748 166.474 83.4765 166.712 83.9178 167.186C84.359 167.658 84.5796 168.316 84.5796 169.162V169.819H81.2201C81.2803 170.123 81.4123 170.362 81.6162 170.536C81.8201 170.71 82.0842 170.797 82.4085 170.797C82.9433 170.797 83.3612 170.609 83.662 170.235L84.4342 171.148C84.2236 171.438 83.9245 171.671 83.5367 171.845C83.1523 172.015 82.7378 172.1 82.2932 172.1ZM82.1026 167.778C81.6079 167.778 81.3137 168.106 81.2201 168.761H82.9249V168.63C82.9316 168.36 82.8631 168.151 82.7194 168.004C82.5756 167.853 82.37 167.778 82.1026 167.778ZM92.1612 172H90.4664V164.298H92.1612V172ZM94.9892 172H93.2944V166.575H94.9892V172ZM93.1941 165.176C93.1941 164.935 93.281 164.738 93.4548 164.584C93.6287 164.43 93.8543 164.353 94.1318 164.353C94.4092 164.353 94.6349 164.43 94.8087 164.584C94.9825 164.738 95.0694 164.935 95.0694 165.176C95.0694 165.416 94.9825 165.614 94.8087 165.767C94.6349 165.921 94.4092 165.998 94.1318 165.998C93.8543 165.998 93.6287 165.921 93.4548 165.767C93.281 165.614 93.1941 165.416 93.1941 165.176ZM101.071 169.332C101.071 170.222 100.888 170.905 100.52 171.383C100.152 171.861 99.6341 172.1 98.9655 172.1C98.4139 172.1 97.9693 171.881 97.6317 171.443L97.5615 172H96.0472V164.298H97.737V167.011C98.0512 166.653 98.4574 166.474 98.9555 166.474C99.6307 166.474 100.152 166.717 100.52 167.201C100.888 167.686 101.071 168.368 101.071 169.247V169.332ZM99.3767 169.227C99.3767 168.706 99.3065 168.335 99.1661 168.114C99.029 167.89 98.8167 167.778 98.5292 167.778C98.1482 167.778 97.8841 167.923 97.737 168.214V170.37C97.8807 170.658 98.1482 170.802 98.5393 170.802C98.9371 170.802 99.1895 170.608 99.2964 170.22C99.3499 170.029 99.3767 169.698 99.3767 169.227ZM105.103 168.104L104.546 168.064C104.015 168.064 103.674 168.231 103.523 168.565V172H101.834V166.575H103.418L103.473 167.272C103.757 166.74 104.154 166.474 104.662 166.474C104.842 166.474 104.999 166.494 105.133 166.534L105.103 168.104ZM108.237 172.1C107.404 172.1 106.731 171.853 106.216 171.358C105.701 170.86 105.444 170.213 105.444 169.418V169.277C105.444 168.722 105.546 168.233 105.75 167.808C105.957 167.384 106.258 167.056 106.652 166.825C107.047 166.591 107.515 166.474 108.056 166.474C108.818 166.474 109.42 166.712 109.861 167.186C110.303 167.658 110.523 168.316 110.523 169.162V169.819H107.164C107.224 170.123 107.356 170.362 107.56 170.536C107.764 170.71 108.028 170.797 108.352 170.797C108.887 170.797 109.305 170.609 109.606 170.235L110.378 171.148C110.167 171.438 109.868 171.671 109.48 171.845C109.096 172.015 108.681 172.1 108.237 172.1ZM108.046 167.778C107.552 167.778 107.257 168.106 107.164 168.761H108.869V168.63C108.875 168.36 108.807 168.151 108.663 168.004C108.519 167.853 108.314 167.778 108.046 167.778ZM114.49 168.104L113.933 168.064C113.401 168.064 113.06 168.231 112.91 168.565V172H111.22V166.575H112.805L112.86 167.272C113.144 166.74 113.54 166.474 114.048 166.474C114.229 166.474 114.386 166.494 114.52 166.534L114.49 168.104ZM116.881 172H115.187V166.575H116.881V172ZM115.086 165.176C115.086 164.935 115.173 164.738 115.347 164.584C115.521 164.43 115.746 164.353 116.024 164.353C116.301 164.353 116.527 164.43 116.701 164.584C116.875 164.738 116.962 164.935 116.962 165.176C116.962 165.416 116.875 165.614 116.701 165.767C116.527 165.921 116.301 165.998 116.024 165.998C115.746 165.998 115.521 165.921 115.347 165.767C115.173 165.614 115.086 165.416 115.086 165.176ZM120.983 172C120.923 171.89 120.869 171.728 120.823 171.514C120.512 171.905 120.077 172.1 119.519 172.1C119.007 172.1 118.573 171.947 118.215 171.639C117.857 171.328 117.679 170.939 117.679 170.471C117.679 169.882 117.896 169.438 118.33 169.137C118.765 168.836 119.397 168.686 120.226 168.686H120.747V168.4C120.747 167.902 120.532 167.653 120.1 167.653C119.699 167.653 119.499 167.85 119.499 168.244H117.809C117.809 167.72 118.031 167.293 118.476 166.966C118.924 166.638 119.494 166.474 120.186 166.474C120.878 166.474 121.424 166.643 121.825 166.981C122.227 167.318 122.432 167.781 122.442 168.37V170.772C122.449 171.27 122.526 171.651 122.673 171.915V172H120.983ZM119.925 170.897C120.136 170.897 120.309 170.852 120.446 170.761C120.587 170.671 120.687 170.569 120.747 170.456V169.588H120.256C119.668 169.588 119.373 169.852 119.373 170.38C119.373 170.534 119.425 170.66 119.529 170.756C119.632 170.85 119.765 170.897 119.925 170.897ZM126.223 170.476C126.223 170.332 126.148 170.217 125.997 170.13C125.847 170.043 125.561 169.953 125.14 169.859C124.719 169.765 124.371 169.643 124.097 169.493C123.823 169.339 123.614 169.154 123.47 168.936C123.326 168.719 123.254 168.47 123.254 168.189C123.254 167.691 123.46 167.282 123.871 166.961C124.282 166.636 124.821 166.474 125.486 166.474C126.201 166.474 126.776 166.636 127.211 166.961C127.645 167.285 127.863 167.711 127.863 168.239H126.168C126.168 167.805 125.939 167.587 125.481 167.587C125.304 167.587 125.155 167.638 125.034 167.738C124.914 167.835 124.854 167.957 124.854 168.104C124.854 168.254 124.928 168.376 125.075 168.47C125.222 168.564 125.456 168.64 125.777 168.701C126.101 168.761 126.385 168.833 126.629 168.916C127.445 169.197 127.852 169.7 127.852 170.426C127.852 170.92 127.632 171.323 127.191 171.634C126.753 171.945 126.184 172.1 125.486 172.1C125.021 172.1 124.607 172.017 124.242 171.85C123.878 171.682 123.594 171.455 123.39 171.168C123.186 170.88 123.084 170.578 123.084 170.26H124.663C124.67 170.511 124.754 170.695 124.914 170.812C125.075 170.925 125.28 170.982 125.531 170.982C125.762 170.982 125.934 170.935 126.047 170.842C126.164 170.748 126.223 170.626 126.223 170.476ZM58.5106 181.327C58.5106 182.17 58.3201 182.843 57.939 183.348C57.5613 183.85 57.0498 184.1 56.4047 184.1C55.9066 184.1 55.4971 183.918 55.1762 183.554V186.086H53.4864V178.575H55.0659L55.116 179.076C55.4403 178.675 55.8665 178.474 56.3946 178.474C57.0632 178.474 57.583 178.722 57.9541 179.216C58.3251 179.708 58.5106 180.385 58.5106 181.247V181.327ZM56.8208 181.222C56.8208 180.259 56.54 179.778 55.9785 179.778C55.5773 179.778 55.3099 179.922 55.1762 180.209V182.345C55.3233 182.646 55.594 182.797 55.9885 182.797C56.5267 182.797 56.8041 182.332 56.8208 181.403V181.222ZM59.0472 181.237C59.0472 180.696 59.1525 180.214 59.3631 179.793C59.5737 179.369 59.8762 179.043 60.2706 178.815C60.6651 178.588 61.1281 178.474 61.6596 178.474C62.4719 178.474 63.112 178.727 63.58 179.231C64.048 179.733 64.282 180.416 64.282 181.282V181.342C64.282 182.188 64.0464 182.86 63.575 183.358C63.107 183.853 62.4719 184.1 61.6696 184.1C60.8974 184.1 60.2773 183.87 59.8093 183.408C59.3413 182.944 59.089 182.315 59.0522 181.523L59.0472 181.237ZM60.737 181.342C60.737 181.844 60.8155 182.212 60.9726 182.446C61.1297 182.68 61.3621 182.797 61.6696 182.797C62.2713 182.797 62.5789 182.334 62.5922 181.408V181.237C62.5922 180.264 62.2813 179.778 61.6596 179.778C61.0946 179.778 60.7888 180.198 60.742 181.037L60.737 181.342ZM70.0634 181.327C70.0634 182.17 69.8729 182.843 69.4918 183.348C69.1141 183.85 68.6026 184.1 67.9575 184.1C67.4594 184.1 67.0499 183.918 66.729 183.554V186.086H65.0392V178.575H66.6187L66.6688 179.076C66.9931 178.675 67.4193 178.474 67.9474 178.474C68.616 178.474 69.1358 178.722 69.5069 179.216C69.8779 179.708 70.0634 180.385 70.0634 181.247V181.327ZM68.3736 181.222C68.3736 180.259 68.0928 179.778 67.5313 179.778C67.1301 179.778 66.8627 179.922 66.729 180.209V182.345C66.8761 182.646 67.1468 182.797 67.5413 182.797C68.0795 182.797 68.3569 182.332 68.3736 181.403V181.222ZM74.0447 183.413C73.6871 183.871 73.204 184.1 72.5956 184.1C72.0006 184.1 71.5493 183.928 71.2418 183.584C70.9376 183.236 70.7855 182.738 70.7855 182.09V178.575H72.4753V182.1C72.4753 182.564 72.7009 182.797 73.1522 182.797C73.54 182.797 73.8158 182.658 73.9796 182.38V178.575H75.6794V184H74.0949L74.0447 183.413ZM78.3921 184H76.6973V176.298H78.3921V184ZM82.4937 184C82.4336 183.89 82.3801 183.728 82.3333 183.514C82.0224 183.905 81.5878 184.1 81.0296 184.1C80.5181 184.1 80.0836 183.947 79.7259 183.639C79.3682 183.328 79.1893 182.939 79.1893 182.471C79.1893 181.882 79.4066 181.438 79.8412 181.137C80.2758 180.836 80.9076 180.686 81.7366 180.686H82.2581V180.4C82.2581 179.902 82.0424 179.653 81.6112 179.653C81.2101 179.653 81.0095 179.85 81.0095 180.244H79.3197C79.3197 179.72 79.542 179.293 79.9866 178.966C80.4345 178.638 81.0045 178.474 81.6965 178.474C82.3884 178.474 82.935 178.643 83.3361 178.981C83.7373 179.318 83.9428 179.781 83.9529 180.37V182.772C83.9596 183.27 84.0364 183.651 84.1835 183.915V184H82.4937ZM81.4357 182.897C81.6463 182.897 81.8201 182.852 81.9572 182.761C82.0976 182.671 82.1979 182.569 82.2581 182.456V181.588H81.7667C81.1783 181.588 80.8842 181.852 80.8842 182.38C80.8842 182.534 80.936 182.66 81.0396 182.756C81.1432 182.85 81.2753 182.897 81.4357 182.897ZM88.1749 180.104L87.6183 180.064C87.0868 180.064 86.7458 180.231 86.5954 180.565V184H84.9056V178.575H86.4901L86.5452 179.272C86.8294 178.74 87.2255 178.474 87.7336 178.474C87.9141 178.474 88.0712 178.494 88.2049 178.534L88.1749 180.104ZM91.3088 184.1C90.4764 184.1 89.8028 183.853 89.288 183.358C88.7732 182.86 88.5158 182.213 88.5158 181.418V181.277C88.5158 180.722 88.6178 180.233 88.8217 179.808C89.0289 179.384 89.3298 179.056 89.7243 178.825C90.1187 178.591 90.5867 178.474 91.1282 178.474C91.8904 178.474 92.4921 178.712 92.9334 179.186C93.3746 179.658 93.5952 180.316 93.5952 181.162V181.819H90.2357C90.2959 182.123 90.4279 182.362 90.6318 182.536C90.8357 182.71 91.0998 182.797 91.4241 182.797C91.9589 182.797 92.3768 182.609 92.6776 182.235L93.4498 183.148C93.2392 183.438 92.94 183.671 92.5523 183.845C92.1679 184.015 91.7533 184.1 91.3088 184.1ZM91.1182 179.778C90.6235 179.778 90.3293 180.106 90.2357 180.761H91.9405V180.63C91.9472 180.36 91.8787 180.151 91.735 180.004C91.5912 179.853 91.3856 179.778 91.1182 179.778ZM97.1202 182.476C97.1202 182.332 97.045 182.217 96.8946 182.13C96.7442 182.043 96.4584 181.953 96.0372 181.859C95.616 181.765 95.2683 181.643 94.9942 181.493C94.7201 181.339 94.5112 181.154 94.3674 180.936C94.2237 180.719 94.1518 180.47 94.1518 180.189C94.1518 179.691 94.3574 179.282 94.7686 178.961C95.1797 178.636 95.7179 178.474 96.3832 178.474C97.0985 178.474 97.6735 178.636 98.1081 178.961C98.5426 179.285 98.7599 179.711 98.7599 180.239H97.0651C97.0651 179.805 96.8361 179.587 96.3781 179.587C96.201 179.587 96.0522 179.638 95.9319 179.738C95.8115 179.835 95.7514 179.957 95.7514 180.104C95.7514 180.254 95.8249 180.376 95.972 180.47C96.1191 180.564 96.3531 180.64 96.674 180.701C96.9982 180.761 97.2824 180.833 97.5264 180.916C98.3421 181.197 98.7499 181.7 98.7499 182.426C98.7499 182.92 98.5292 183.323 98.088 183.634C97.6501 183.945 97.0818 184.1 96.3832 184.1C95.9185 184.1 95.504 184.017 95.1396 183.85C94.7753 183.682 94.4911 183.455 94.2872 183.168C94.0833 182.88 93.9813 182.578 93.9813 182.26H95.5608C95.5675 182.511 95.6511 182.695 95.8115 182.812C95.972 182.925 96.1776 182.982 96.4283 182.982C96.6589 182.982 96.8311 182.935 96.9448 182.842C97.0617 182.748 97.1202 182.626 97.1202 182.476ZM104.396 182.797C104.633 182.797 104.817 182.733 104.947 182.606C105.078 182.476 105.141 182.295 105.138 182.065H106.723C106.723 182.66 106.509 183.148 106.081 183.529C105.656 183.91 105.108 184.1 104.436 184.1C103.647 184.1 103.025 183.853 102.571 183.358C102.116 182.863 101.889 182.178 101.889 181.302V181.232C101.889 180.684 101.989 180.201 102.19 179.783C102.394 179.362 102.686 179.039 103.067 178.815C103.448 178.588 103.899 178.474 104.421 178.474C105.126 178.474 105.686 178.67 106.101 179.061C106.515 179.452 106.723 179.982 106.723 180.65H105.138C105.138 180.37 105.069 180.154 104.932 180.004C104.795 179.853 104.612 179.778 104.381 179.778C103.943 179.778 103.687 180.057 103.614 180.615C103.59 180.793 103.579 181.037 103.579 181.347C103.579 181.892 103.644 182.27 103.774 182.481C103.905 182.691 104.112 182.797 104.396 182.797ZM107.224 181.237C107.224 180.696 107.329 180.214 107.54 179.793C107.75 179.369 108.053 179.043 108.447 178.815C108.842 178.588 109.305 178.474 109.836 178.474C110.649 178.474 111.289 178.727 111.757 179.231C112.225 179.733 112.459 180.416 112.459 181.282V181.342C112.459 182.188 112.223 182.86 111.752 183.358C111.284 183.853 110.649 184.1 109.846 184.1C109.074 184.1 108.454 183.87 107.986 183.408C107.518 182.944 107.266 182.315 107.229 181.523L107.224 181.237ZM108.914 181.342C108.914 181.844 108.992 182.212 109.149 182.446C109.307 182.68 109.539 182.797 109.846 182.797C110.448 182.797 110.756 182.334 110.769 181.408V181.237C110.769 180.264 110.458 179.778 109.836 179.778C109.271 179.778 108.966 180.198 108.919 181.037L108.914 181.342ZM114.8 178.575L114.856 179.211C115.24 178.72 115.756 178.474 116.405 178.474C117.09 178.474 117.553 178.747 117.794 179.292C118.162 178.747 118.693 178.474 119.388 178.474C120.488 178.474 121.053 179.14 121.083 180.47V184H119.388V180.575C119.388 180.298 119.342 180.096 119.248 179.969C119.154 179.842 118.984 179.778 118.737 179.778C118.402 179.778 118.153 179.927 117.989 180.224L117.995 180.294V184H116.3V180.585C116.3 180.301 116.255 180.096 116.164 179.969C116.074 179.842 115.902 179.778 115.648 179.778C115.324 179.778 115.076 179.927 114.906 180.224V184H113.216V178.575H114.8ZM121.835 181.237C121.835 180.696 121.941 180.214 122.151 179.793C122.362 179.369 122.664 179.043 123.059 178.815C123.453 178.588 123.916 178.474 124.448 178.474C125.26 178.474 125.9 178.727 126.368 179.231C126.836 179.733 127.07 180.416 127.07 181.282V181.342C127.07 182.188 126.835 182.86 126.363 183.358C125.895 183.853 125.26 184.1 124.458 184.1C123.686 184.1 123.066 183.87 122.598 183.408C122.13 182.944 121.877 182.315 121.84 181.523L121.835 181.237ZM123.525 181.342C123.525 181.844 123.604 182.212 123.761 182.446C123.918 182.68 124.15 182.797 124.458 182.797C125.06 182.797 125.367 182.334 125.38 181.408V181.237C125.38 180.264 125.07 179.778 124.448 179.778C123.883 179.778 123.577 180.198 123.53 181.037L123.525 181.342ZM133.163 181.423H132.21V184H130.45V176.699H133.323C134.189 176.699 134.866 176.891 135.354 177.276C135.842 177.66 136.086 178.204 136.086 178.906C136.086 179.414 135.982 179.835 135.775 180.169C135.571 180.503 135.25 180.774 134.812 180.981L136.337 183.925V184H134.451L133.163 181.423ZM132.21 180.064H133.323C133.657 180.064 133.908 179.977 134.075 179.803C134.246 179.626 134.331 179.38 134.331 179.066C134.331 178.752 134.246 178.506 134.075 178.329C133.905 178.148 133.654 178.058 133.323 178.058H132.21V180.064ZM139.696 184.1C138.864 184.1 138.19 183.853 137.675 183.358C137.161 182.86 136.903 182.213 136.903 181.418V181.277C136.903 180.722 137.005 180.233 137.209 179.808C137.416 179.384 137.717 179.056 138.112 178.825C138.506 178.591 138.974 178.474 139.516 178.474C140.278 178.474 140.879 178.712 141.321 179.186C141.762 179.658 141.983 180.316 141.983 181.162V181.819H138.623C138.683 182.123 138.815 182.362 139.019 182.536C139.223 182.71 139.487 182.797 139.811 182.797C140.346 182.797 140.764 182.609 141.065 182.235L141.837 183.148C141.627 183.438 141.327 183.671 140.94 183.845C140.555 184.015 140.141 184.1 139.696 184.1ZM139.506 179.778C139.011 179.778 138.717 180.106 138.623 180.761H140.328V180.63C140.335 180.36 140.266 180.151 140.122 180.004C139.979 179.853 139.773 179.778 139.506 179.778ZM145.723 184C145.663 183.89 145.61 183.728 145.563 183.514C145.252 183.905 144.817 184.1 144.259 184.1C143.748 184.1 143.313 183.947 142.955 183.639C142.598 183.328 142.419 182.939 142.419 182.471C142.419 181.882 142.636 181.438 143.071 181.137C143.505 180.836 144.137 180.686 144.966 180.686H145.488V180.4C145.488 179.902 145.272 179.653 144.841 179.653C144.44 179.653 144.239 179.85 144.239 180.244H142.549C142.549 179.72 142.772 179.293 143.216 178.966C143.664 178.638 144.234 178.474 144.926 178.474C145.618 178.474 146.164 178.643 146.566 178.981C146.967 179.318 147.172 179.781 147.182 180.37V182.772C147.189 183.27 147.266 183.651 147.413 183.915V184H145.723ZM144.665 182.897C144.876 182.897 145.05 182.852 145.187 182.761C145.327 182.671 145.427 182.569 145.488 182.456V181.588H144.996C144.408 181.588 144.114 181.852 144.114 182.38C144.114 182.534 144.165 182.66 144.269 182.756C144.373 182.85 144.505 182.897 144.665 182.897ZM150.417 182.797C150.654 182.797 150.838 182.733 150.968 182.606C151.098 182.476 151.162 182.295 151.159 182.065H152.743C152.743 182.66 152.529 183.148 152.101 183.529C151.677 183.91 151.129 184.1 150.457 184.1C149.668 184.1 149.046 183.853 148.591 183.358C148.137 182.863 147.909 182.178 147.909 181.302V181.232C147.909 180.684 148.01 180.201 148.21 179.783C148.414 179.362 148.707 179.039 149.088 178.815C149.469 178.588 149.92 178.474 150.442 178.474C151.147 178.474 151.707 178.67 152.121 179.061C152.536 179.452 152.743 179.982 152.743 180.65H151.159C151.159 180.37 151.09 180.154 150.953 180.004C150.816 179.853 150.632 179.778 150.401 179.778C149.964 179.778 149.708 180.057 149.634 180.615C149.611 180.793 149.599 181.037 149.599 181.347C149.599 181.892 149.664 182.27 149.795 182.481C149.925 182.691 150.132 182.797 150.417 182.797ZM155.426 177.226V178.575H156.318V179.748H155.426V182.23C155.426 182.434 155.463 182.576 155.536 182.656C155.61 182.736 155.755 182.777 155.972 182.777C156.139 182.777 156.28 182.766 156.394 182.746V183.955C156.089 184.052 155.772 184.1 155.441 184.1C154.859 184.1 154.43 183.963 154.152 183.689C153.875 183.415 153.736 182.999 153.736 182.441V179.748H153.044V178.575H153.736V177.226H155.426ZM157.582 185.966L156.729 185.564L156.9 185.223C157.134 184.789 157.256 184.374 157.266 183.98V182.726H158.62L158.615 183.814C158.611 184.199 158.513 184.59 158.319 184.988C158.125 185.386 157.879 185.712 157.582 185.966ZM56.3144 194.476C56.3144 194.332 56.2392 194.217 56.0888 194.13C55.9383 194.043 55.6525 193.953 55.2313 193.859C54.8101 193.765 54.4625 193.643 54.1884 193.493C53.9143 193.339 53.7053 193.154 53.5616 192.936C53.4179 192.719 53.346 192.47 53.346 192.189C53.346 191.691 53.5516 191.282 53.9627 190.961C54.3739 190.636 54.9121 190.474 55.5773 190.474C56.2927 190.474 56.8676 190.636 57.3022 190.961C57.7368 191.285 57.9541 191.711 57.9541 192.239H56.2593C56.2593 191.805 56.0303 191.587 55.5723 191.587C55.3951 191.587 55.2464 191.638 55.126 191.738C55.0057 191.835 54.9455 191.957 54.9455 192.104C54.9455 192.254 55.0191 192.376 55.1661 192.47C55.3132 192.564 55.5472 192.64 55.8681 192.701C56.1924 192.761 56.4765 192.833 56.7206 192.916C57.5362 193.197 57.944 193.7 57.944 194.426C57.944 194.92 57.7234 195.323 57.2822 195.634C56.8442 195.945 56.276 196.1 55.5773 196.1C55.1127 196.1 54.6982 196.017 54.3338 195.85C53.9694 195.682 53.6853 195.455 53.4814 195.168C53.2775 194.88 53.1755 194.578 53.1755 194.26H54.755C54.7617 194.511 54.8452 194.695 55.0057 194.812C55.1661 194.925 55.3717 194.982 55.6224 194.982C55.8531 194.982 56.0253 194.935 56.1389 194.842C56.2559 194.748 56.3144 194.626 56.3144 194.476ZM60.7069 189.226V190.575H61.5994V191.748H60.7069V194.23C60.7069 194.434 60.7436 194.576 60.8172 194.656C60.8907 194.736 61.0361 194.777 61.2534 194.777C61.4206 194.777 61.561 194.766 61.6746 194.746V195.955C61.3704 196.052 61.0529 196.1 60.7219 196.1C60.1403 196.1 59.7107 195.963 59.4333 195.689C59.1558 195.415 59.0171 194.999 59.0171 194.441V191.748H58.3251V190.575H59.0171V189.226H60.7069ZM64.4375 193.633L65.34 190.575H67.1502L64.9389 196.908L64.8436 197.138C64.5294 197.84 63.9745 198.191 63.1789 198.191C62.9583 198.191 62.7259 198.158 62.4819 198.091V196.883H62.7025C62.9399 196.883 63.1204 196.847 63.2441 196.777C63.3711 196.71 63.4647 196.588 63.5249 196.411L63.6603 196.05L61.7749 190.575H63.58L64.4375 193.633ZM69.3765 196H67.6817V188.298H69.3765V196ZM73.0469 196.1C72.2145 196.1 71.541 195.853 71.0262 195.358C70.5114 194.86 70.254 194.213 70.254 193.418V193.277C70.254 192.722 70.3559 192.233 70.5598 191.808C70.7671 191.384 71.068 191.056 71.4624 190.825C71.8569 190.591 72.3249 190.474 72.8664 190.474C73.6286 190.474 74.2303 190.712 74.6715 191.186C75.1128 191.658 75.3334 192.316 75.3334 193.162V193.819H71.9739C72.034 194.123 72.1661 194.362 72.37 194.536C72.5739 194.71 72.838 194.797 73.1622 194.797C73.6971 194.797 74.1149 194.609 74.4158 194.235L75.188 195.148C74.9774 195.438 74.6782 195.671 74.2904 195.845C73.906 196.015 73.4915 196.1 73.0469 196.1ZM72.8564 191.778C72.3616 191.778 72.0675 192.106 71.9739 192.761H73.6787V192.63C73.6854 192.36 73.6169 192.151 73.4731 192.004C73.3294 191.853 73.1238 191.778 72.8564 191.778ZM75.8047 193.247C75.8047 192.388 75.9903 191.711 76.3613 191.216C76.7324 190.722 77.2505 190.474 77.9157 190.474C78.4004 190.474 78.8083 190.665 79.1392 191.046V188.298H80.834V196H79.3147L79.2295 195.418C78.8818 195.873 78.4406 196.1 77.9057 196.1C77.2605 196.1 76.7491 195.853 76.3713 195.358C75.9936 194.863 75.8047 194.16 75.8047 193.247ZM77.4945 193.352C77.4945 194.315 77.7753 194.797 78.3369 194.797C78.7113 194.797 78.9787 194.639 79.1392 194.325V192.259C78.9854 191.938 78.7213 191.778 78.347 191.778C77.8255 191.778 77.543 192.199 77.4995 193.042L77.4945 193.352ZM86.6455 194.797C86.8829 194.797 87.0667 194.733 87.1971 194.606C87.3274 194.476 87.391 194.295 87.3876 194.065H88.9721C88.9721 194.66 88.7582 195.148 88.3303 195.529C87.9058 195.91 87.3575 196.1 86.6856 196.1C85.8967 196.1 85.275 195.853 84.8203 195.358C84.3657 194.863 84.1384 194.178 84.1384 193.302V193.232C84.1384 192.684 84.2387 192.201 84.4392 191.783C84.6432 191.362 84.9357 191.039 85.3167 190.815C85.6978 190.588 86.1491 190.474 86.6706 190.474C87.3759 190.474 87.9358 190.67 88.3504 191.061C88.7649 191.452 88.9721 191.982 88.9721 192.65H87.3876C87.3876 192.37 87.3191 192.154 87.182 192.004C87.045 191.853 86.8611 191.778 86.6305 191.778C86.1926 191.778 85.9368 192.057 85.8633 192.615C85.8399 192.793 85.8282 193.037 85.8282 193.347C85.8282 193.892 85.8934 194.27 86.0237 194.481C86.1541 194.691 86.3614 194.797 86.6455 194.797ZM89.4735 193.237C89.4735 192.696 89.5788 192.214 89.7894 191.793C90 191.369 90.3026 191.043 90.697 190.815C91.0915 190.588 91.5544 190.474 92.086 190.474C92.8983 190.474 93.5384 190.727 94.0064 191.231C94.4744 191.733 94.7084 192.416 94.7084 193.282V193.342C94.7084 194.188 94.4727 194.86 94.0014 195.358C93.5334 195.853 92.8983 196.1 92.096 196.1C91.3238 196.1 90.7037 195.87 90.2357 195.408C89.7677 194.944 89.5153 194.315 89.4786 193.523L89.4735 193.237ZM91.1633 193.342C91.1633 193.844 91.2419 194.212 91.399 194.446C91.5561 194.68 91.7884 194.797 92.096 194.797C92.6977 194.797 93.0052 194.334 93.0186 193.408V193.237C93.0186 192.264 92.7077 191.778 92.086 191.778C91.521 191.778 91.2151 192.198 91.1684 193.037L91.1633 193.342ZM97.05 190.575L97.1052 191.211C97.4896 190.72 98.0061 190.474 98.6546 190.474C99.3399 190.474 99.8029 190.747 100.044 191.292C100.411 190.747 100.943 190.474 101.638 190.474C102.738 190.474 103.303 191.14 103.333 192.47V196H101.638V192.575C101.638 192.298 101.591 192.096 101.498 191.969C101.404 191.842 101.234 191.778 100.986 191.778C100.652 191.778 100.403 191.927 100.239 192.224L100.244 192.294V196H98.5493V192.585C98.5493 192.301 98.5042 192.096 98.4139 191.969C98.3237 191.842 98.1515 191.778 97.8975 191.778C97.5732 191.778 97.3258 191.927 97.1553 192.224V196H95.4655V190.575H97.05ZM109.335 193.327C109.335 194.17 109.144 194.843 108.763 195.348C108.386 195.85 107.874 196.1 107.229 196.1C106.731 196.1 106.321 195.918 106 195.554V198.086H104.311V190.575H105.89L105.94 191.076C106.265 190.675 106.691 190.474 107.219 190.474C107.887 190.474 108.407 190.722 108.778 191.216C109.149 191.708 109.335 192.385 109.335 193.247V193.327ZM107.645 193.222C107.645 192.259 107.364 191.778 106.803 191.778C106.402 191.778 106.134 191.922 106 192.209V194.345C106.148 194.646 106.418 194.797 106.813 194.797C107.351 194.797 107.628 194.332 107.645 193.403V193.222ZM109.871 193.237C109.871 192.696 109.977 192.214 110.187 191.793C110.398 191.369 110.7 191.043 111.095 190.815C111.489 190.588 111.952 190.474 112.484 190.474C113.296 190.474 113.936 190.727 114.404 191.231C114.872 191.733 115.106 192.416 115.106 193.282V193.342C115.106 194.188 114.871 194.86 114.399 195.358C113.931 195.853 113.296 196.1 112.494 196.1C111.722 196.1 111.102 195.87 110.634 195.408C110.166 194.944 109.913 194.315 109.876 193.523L109.871 193.237ZM111.561 193.342C111.561 193.844 111.64 194.212 111.797 194.446C111.954 194.68 112.186 194.797 112.494 194.797C113.096 194.797 113.403 194.334 113.417 193.408V193.237C113.417 192.264 113.106 191.778 112.484 191.778C111.919 191.778 111.613 192.198 111.566 193.037L111.561 193.342ZM117.403 190.575L117.458 191.211C117.832 190.72 118.349 190.474 119.007 190.474C119.572 190.474 119.994 190.643 120.271 190.981C120.552 191.318 120.697 191.826 120.707 192.505V196H119.012V192.575C119.012 192.301 118.957 192.101 118.847 191.974C118.737 191.843 118.536 191.778 118.245 191.778C117.914 191.778 117.669 191.908 117.508 192.169V196H115.818V190.575H117.403ZM124.272 196.1C123.44 196.1 122.766 195.853 122.252 195.358C121.737 194.86 121.479 194.213 121.479 193.418V193.277C121.479 192.722 121.581 192.233 121.785 191.808C121.993 191.384 122.293 191.056 122.688 190.825C123.082 190.591 123.55 190.474 124.092 190.474C124.854 190.474 125.456 190.712 125.897 191.186C126.338 191.658 126.559 192.316 126.559 193.162V193.819H123.199C123.259 194.123 123.391 194.362 123.595 194.536C123.799 194.71 124.063 194.797 124.388 194.797C124.923 194.797 125.34 194.609 125.641 194.235L126.413 195.148C126.203 195.438 125.904 195.671 125.516 195.845C125.131 196.015 124.717 196.1 124.272 196.1ZM124.082 191.778C123.587 191.778 123.293 192.106 123.199 192.761H124.904V192.63C124.911 192.36 124.842 192.151 124.699 192.004C124.555 191.853 124.349 191.778 124.082 191.778ZM128.795 190.575L128.85 191.211C129.225 190.72 129.741 190.474 130.4 190.474C130.965 190.474 131.386 190.643 131.663 190.981C131.944 191.318 132.09 191.826 132.1 192.505V196H130.405V192.575C130.405 192.301 130.35 192.101 130.239 191.974C130.129 191.843 129.928 191.778 129.638 191.778C129.307 191.778 129.061 191.908 128.9 192.169V196H127.211V190.575H128.795ZM135.008 189.226V190.575H135.9V191.748H135.008V194.23C135.008 194.434 135.045 194.576 135.118 194.656C135.192 194.736 135.337 194.777 135.554 194.777C135.721 194.777 135.862 194.766 135.976 194.746V195.955C135.671 196.052 135.354 196.1 135.023 196.1C134.441 196.1 134.012 195.963 133.734 195.689C133.457 195.415 133.318 194.999 133.318 194.441V191.748H132.626V190.575H133.318V189.226H135.008ZM139.41 194.476C139.41 194.332 139.335 194.217 139.185 194.13C139.034 194.043 138.748 193.953 138.327 193.859C137.906 193.765 137.558 193.643 137.284 193.493C137.01 193.339 136.801 193.154 136.657 192.936C136.514 192.719 136.442 192.47 136.442 192.189C136.442 191.691 136.647 191.282 137.059 190.961C137.47 190.636 138.008 190.474 138.673 190.474C139.389 190.474 139.964 190.636 140.398 190.961C140.833 191.285 141.05 191.711 141.05 192.239H139.355C139.355 191.805 139.126 191.587 138.668 191.587C138.491 191.587 138.342 191.638 138.222 191.738C138.102 191.835 138.041 191.957 138.041 192.104C138.041 192.254 138.115 192.376 138.262 192.47C138.409 192.564 138.643 192.64 138.964 192.701C139.288 192.761 139.572 192.833 139.816 192.916C140.632 193.197 141.04 193.7 141.04 194.426C141.04 194.92 140.819 195.323 140.378 195.634C139.94 195.945 139.372 196.1 138.673 196.1C138.209 196.1 137.794 196.017 137.43 195.85C137.065 195.682 136.781 195.455 136.577 195.168C136.373 194.88 136.271 194.578 136.271 194.26H137.851C137.858 194.511 137.941 194.695 138.102 194.812C138.262 194.925 138.468 194.982 138.718 194.982C138.949 194.982 139.121 194.935 139.235 194.842C139.352 194.748 139.41 194.626 139.41 194.476ZM142.429 197.966L141.576 197.564L141.747 197.223C141.981 196.789 142.103 196.374 142.113 195.98V194.726H143.467L143.462 195.814C143.458 196.199 143.36 196.59 143.166 196.988C142.972 197.386 142.726 197.712 142.429 197.966ZM149.785 196.1C148.952 196.1 148.279 195.853 147.764 195.358C147.249 194.86 146.992 194.213 146.992 193.418V193.277C146.992 192.722 147.094 192.233 147.298 191.808C147.505 191.384 147.806 191.056 148.2 190.825C148.595 190.591 149.063 190.474 149.604 190.474C150.366 190.474 150.968 190.712 151.409 191.186C151.851 191.658 152.071 192.316 152.071 193.162V193.819H148.712C148.772 194.123 148.904 194.362 149.108 194.536C149.312 194.71 149.576 194.797 149.9 194.797C150.435 194.797 150.853 194.609 151.154 194.235L151.926 195.148C151.715 195.438 151.416 195.671 151.028 195.845C150.644 196.015 150.229 196.1 149.785 196.1ZM149.594 191.778C149.099 191.778 148.805 192.106 148.712 192.761H150.417V192.63C150.423 192.36 150.355 192.151 150.211 192.004C150.067 191.853 149.862 191.778 149.594 191.778ZM154.724 189.226V190.575H155.616V191.748H154.724V194.23C154.724 194.434 154.761 194.576 154.834 194.656C154.908 194.736 155.053 194.777 155.27 194.777C155.437 194.777 155.578 194.766 155.692 194.746V195.955C155.387 196.052 155.07 196.1 154.739 196.1C154.157 196.1 153.728 195.963 153.45 195.689C153.173 195.415 153.034 194.999 153.034 194.441V191.748H152.342V190.575H153.034V189.226H154.724ZM158.58 194.797C158.817 194.797 159.001 194.733 159.131 194.606C159.262 194.476 159.325 194.295 159.322 194.065H160.906C160.906 194.66 160.692 195.148 160.264 195.529C159.84 195.91 159.292 196.1 158.62 196.1C157.831 196.1 157.209 195.853 156.755 195.358C156.3 194.863 156.073 194.178 156.073 193.302V193.232C156.073 192.684 156.173 192.201 156.373 191.783C156.577 191.362 156.87 191.039 157.251 190.815C157.632 190.588 158.083 190.474 158.605 190.474C159.31 190.474 159.87 190.67 160.285 191.061C160.699 191.452 160.906 191.982 160.906 192.65H159.322C159.322 192.37 159.253 192.154 159.116 192.004C158.979 191.853 158.795 191.778 158.565 191.778C158.127 191.778 157.871 192.057 157.797 192.615C157.774 192.793 157.762 193.037 157.762 193.347C157.762 193.892 157.828 194.27 157.958 194.481C158.088 194.691 158.296 194.797 158.58 194.797ZM162.666 194.36C162.934 194.36 163.156 194.441 163.333 194.601C163.51 194.758 163.599 194.96 163.599 195.208C163.599 195.455 163.51 195.659 163.333 195.819C163.156 195.977 162.934 196.055 162.666 196.055C162.396 196.055 162.172 195.975 161.994 195.814C161.821 195.654 161.734 195.452 161.734 195.208C161.734 194.964 161.821 194.761 161.994 194.601C162.172 194.441 162.396 194.36 162.666 194.36Z" fill="white"/>
<defs>
<filter id="filter0_i" x="13.6914" y="13.6919" width="371.568" height="246.46" filterUnits="userSpaceOnUse" color-interpolation-filters="sRGB">
<feFlood flood-opacity="0" result="BackgroundImageFix"/>
<feBlend mode="normal" in="SourceGraphic" in2="BackgroundImageFix" result="shape"/>
<feColorMatrix in="SourceAlpha" type="matrix" values="0 0 0 0 0 0 0 0 0 0 0 0 0 0 0 0 0 0 127 0" result="hardAlpha"/>
<feOffset/>
<feGaussianBlur stdDeviation="2"/>
<feComposite in2="hardAlpha" operator="arithmetic" k2="-1" k3="1"/>
<feColorMatrix type="matrix" values="0 0 0 0 1 0 0 0 0 1 0 0 0 0 1 0 0 0 0.2 0"/>
<feBlend mode="normal" in2="shape" result="effect1_innerShadow"/>
</filter>
</defs>
</svg>
