<svg width="399" height="274" viewBox="0 0 399 274" fill="none" xmlns="http://www.w3.org/2000/svg">
<g filter="url(#filter0_i)">
<path d="M56.915 13.6919H15.8799C14.6712 13.6919 13.6914 14.6717 13.6914 15.8804V15.8804C13.6914 17.0891 14.6712 18.069 15.8799 18.069H56.915C58.1237 18.069 59.1035 17.0891 59.1035 15.8804C59.1035 14.6717 58.1237 13.6919 56.915 13.6919Z" fill="white" fill-opacity="0.6"/>
<path d="M26.0144 69.646C32.8202 69.646 38.3374 64.1288 38.3374 57.323C38.3374 50.5172 32.8202 45 26.0144 45C19.2086 45 13.6914 50.5172 13.6914 57.323C13.6914 64.1288 19.2086 69.646 26.0144 69.646Z" fill="#FF5A6D"/>
<path d="M166.702 57.2383H53.7408C52.7956 57.2383 52.0293 58.0046 52.0293 58.9498C52.0293 59.8951 52.7956 60.6613 53.7408 60.6613H166.702C167.647 60.6613 168.413 59.8951 168.413 58.9498C168.413 58.0046 167.647 57.2383 166.702 57.2383Z" fill="#FF5A6D"/>
<path d="M146.6 66.1382H53.42C52.652 66.1382 52.0293 66.7608 52.0293 67.5289C52.0293 68.297 52.652 68.9197 53.42 68.9197H146.6C147.368 68.9197 147.991 68.297 147.991 67.5289C147.991 66.7608 147.368 66.1382 146.6 66.1382Z" fill="white" fill-opacity="0.3"/>
<path d="M169.529 74.3965H53.5293C52.7009 74.3965 52.0293 75.0681 52.0293 75.8965C52.0293 76.7249 52.7009 77.3965 53.5293 77.3965H169.529C170.358 77.3965 171.029 76.7249 171.029 75.8965C171.029 75.0681 170.358 74.3965 169.529 74.3965Z" fill="white" fill-opacity="0.3"/>
<path d="M26.0144 133.646C32.8202 133.646 38.3374 128.129 38.3374 121.323C38.3374 114.517 32.8202 109 26.0144 109C19.2086 109 13.6914 114.517 13.6914 121.323C13.6914 128.129 19.2086 133.646 26.0144 133.646Z" fill="black" fill-opacity="0.2"/>
<path d="M173.548 116.566H53.7408C52.7956 116.566 52.0293 117.332 52.0293 118.277C52.0293 119.223 52.7956 119.989 53.7408 119.989H173.548C174.493 119.989 175.259 119.223 175.259 118.277C175.259 117.332 174.493 116.566 173.548 116.566Z" fill="black" fill-opacity="0.2"/>
<path d="M156.25 117H67.7501C59.6038 117 53 117.448 53 118C53 118.552 59.6038 119 67.7501 119H156.25C164.396 119 171 118.552 171 118C171 117.448 164.396 117 156.25 117Z" fill="white"/>
<path d="M155.529 125.466H53.5293C52.7009 125.466 52.0293 126.137 52.0293 126.966C52.0293 127.794 52.7009 128.466 53.5293 128.466H155.529C156.358 128.466 157.029 127.794 157.029 126.966C157.029 126.137 156.358 125.466 155.529 125.466Z" fill="white" fill-opacity="0.3"/>
<path d="M116.529 133.942H53.5293C52.7009 133.942 52.0293 134.613 52.0293 135.442C52.0293 136.27 52.7009 136.942 53.5293 136.942H116.529C117.358 136.942 118.029 136.27 118.029 135.442C118.029 134.613 117.358 133.942 116.529 133.942Z" fill="white" fill-opacity="0.3"/>
<path d="M116.529 142.419H53.5293C52.7009 142.419 52.0293 143.091 52.0293 143.919C52.0293 144.747 52.7009 145.419 53.5293 145.419H116.529C117.358 145.419 118.029 144.747 118.029 143.919C118.029 143.091 117.358 142.419 116.529 142.419Z" fill="white" fill-opacity="0.3"/>
<path d="M26.0144 201.646C32.8202 201.646 38.3374 196.129 38.3374 189.323C38.3374 182.517 32.8202 177 26.0144 177C19.2086 177 13.6914 182.517 13.6914 189.323C13.6914 196.129 19.2086 201.646 26.0144 201.646Z" fill="black" fill-opacity="0.2"/>
<path d="M161.529 201.747H53.5293C52.7009 201.747 52.0293 202.419 52.0293 203.247C52.0293 204.075 52.7009 204.747 53.5293 204.747H161.529C162.358 204.747 163.029 204.075 163.029 203.247C163.029 202.419 162.358 201.747 161.529 201.747Z" fill="white" fill-opacity="0.3"/>
<path d="M111.529 210.224H53.5293C52.7009 210.224 52.0293 210.896 52.0293 211.724C52.0293 212.553 52.7009 213.224 53.5293 213.224H111.529C112.358 213.224 113.029 212.553 113.029 211.724C113.029 210.896 112.358 210.224 111.529 210.224Z" fill="white" fill-opacity="0.3"/>
<path d="M378.413 13.6919H227.799C224.018 13.6919 220.953 16.757 220.953 20.538V253.306C220.953 257.087 224.018 260.152 227.799 260.152H378.413C382.194 260.152 385.259 257.087 385.259 253.306V20.538C385.259 16.757 382.194 13.6919 378.413 13.6919Z" fill="white"/>
<path d="M378.413 13.6919H227.799C224.018 13.6919 220.953 16.757 220.953 20.538V253.306C220.953 257.087 224.018 260.152 227.799 260.152H378.413C382.194 260.152 385.259 257.087 385.259 253.306V20.538C385.259 16.757 382.194 13.6919 378.413 13.6919Z" fill="#007AFF"/>
<path opacity="0.43" d="M251.419 87.7725C246.638 92.357 242.881 100.521 245.714 105.178C247.321 107.82 250.577 108.556 261.7 109.143C282.232 110.226 297.819 109.123 299.252 109.017C313.646 107.95 311.397 107.498 321.31 107.01C332.522 106.458 337.641 106.926 346.28 104.84C353.222 103.164 357.231 102.196 361.216 98.7299C370.077 91.021 369.864 78.7468 369.828 76.7197C369.78 73.9378 369.239 64.3628 362.173 56.6235C351.528 44.9654 331.596 43.5163 321.023 51.3602C308.643 60.5453 316.158 77.234 304.994 83.1792C295.138 88.4284 285.456 77.4555 263.553 81.9262C260.297 82.5909 255.504 83.8554 251.419 87.7725Z" fill="#491EB8"/>
<path opacity="0.2" d="M244.74 120.905C243.251 120.905 242.045 120.546 241.232 119.622C238.916 116.988 240.446 110.437 244.207 106.877C248.279 103.025 253.997 103.844 263.469 105.203C266.752 105.674 270.473 106.207 274.729 106.632C284.013 107.558 293.639 107.715 303.339 107.098C303.39 107.095 303.432 107.133 303.435 107.183C303.438 107.232 303.4 107.275 303.351 107.278C293.641 107.895 284.005 107.738 274.711 106.811C270.451 106.386 266.728 105.852 263.444 105.381C254.025 104.031 248.339 103.215 244.331 107.008C240.631 110.509 239.107 116.932 241.368 119.503C243.379 121.791 248.004 120.447 253.36 118.891C254.82 118.467 256.329 118.028 257.856 117.643C269.348 114.743 276.044 116.394 282.521 117.991C288.327 119.422 294.332 120.902 303.854 119.248C313.588 117.556 319.743 113.922 325.173 110.715C331.477 106.993 336.456 104.053 344.324 106.055C348.443 107.103 351.485 109.061 353.93 110.634C356.97 112.589 359.371 114.133 362.261 113.03C365.046 111.967 367.227 108.838 368.402 104.219C369.461 100.059 369.593 94.9686 368.756 90.6025C366.291 77.7467 353.702 69.3551 343.109 67.9864C336.781 67.1683 333.124 69.0535 328.89 71.2361C324.914 73.2854 320.407 75.6083 312.767 75.9759C304.818 76.3588 300.038 74.3589 294.974 72.2424C290.525 70.3832 285.926 68.4605 278.885 68.1469C278.836 68.1445 278.797 68.1026 278.8 68.0528C278.802 68.0044 278.841 67.9667 278.889 67.9667C278.891 67.9667 278.892 67.9667 278.894 67.9669C285.966 68.282 290.58 70.2109 295.043 72.0761C300.088 74.1845 304.853 76.175 312.758 75.7961C320.359 75.4301 324.847 73.1168 328.807 71.0759C333.068 68.8798 336.749 66.9833 343.132 67.8075C353.788 69.1844 366.452 77.6295 368.933 90.5688C369.775 94.9595 369.641 100.079 368.577 104.263C367.387 108.941 365.167 112.114 362.326 113.198C359.349 114.335 356.915 112.768 353.833 110.785C351.272 109.138 348.37 107.271 344.28 106.23C336.483 104.246 331.532 107.169 325.265 110.871C319.821 114.085 313.651 117.728 303.885 119.425C294.326 121.087 288.302 119.602 282.478 118.166C275.725 116.501 269.348 114.929 257.9 117.818C256.377 118.202 254.869 118.64 253.411 119.064C250.105 120.024 247.074 120.905 244.74 120.905Z" fill="#76F7FF"/>
<path d="M330.985 98.9289C339.74 98.9289 346.837 91.8319 346.837 83.0771C346.837 74.3223 339.74 67.2251 330.985 67.2251C322.23 67.2251 315.133 74.3223 315.133 83.0771C315.133 91.8319 322.23 98.9289 330.985 98.9289Z" fill="#B3CAF8"/>
<path d="M340.796 97.8101H316.93V114.525H340.796V97.8101Z" fill="#76F7FF"/>
<path opacity="0.43" d="M293.265 71.8172C298.339 71.8172 302.453 67.7036 302.453 62.6291C302.453 57.5546 298.339 53.4409 293.265 53.4409C288.19 53.4409 284.076 57.5546 284.076 62.6291C284.076 67.7036 288.19 71.8172 293.265 71.8172Z" fill="#76F7FF"/>
<path d="M300.071 115.351C298.487 115.351 297.199 114.073 297.188 112.487C297.177 110.895 298.459 109.595 300.051 109.584L310.759 109.512L311.5 96.7374C311.592 95.1476 312.952 93.9317 314.546 94.0262C316.135 94.1184 317.349 95.4818 317.257 97.0717L316.456 110.862C316.314 113.318 314.276 115.254 311.816 115.271L300.091 115.351C300.084 115.351 300.077 115.351 300.071 115.351Z" fill="#B3825D"/>
<path d="M329.326 115.254C327.787 115.254 326.51 114.038 326.448 112.486C326.384 110.894 327.622 109.553 329.213 109.489L339.516 109.077V96.9043C339.516 95.3119 340.806 94.021 342.399 94.021C343.991 94.021 345.282 95.3119 345.282 96.9043V109.774C345.282 112.49 343.156 114.702 340.442 114.811L329.444 115.251C329.405 115.253 329.366 115.254 329.326 115.254Z" fill="#B3825D"/>
<path d="M363.359 118.12H247.876C247.03 118.12 246.344 117.434 246.344 116.588C246.344 115.742 247.03 115.056 247.876 115.056H363.359C364.205 115.056 364.891 115.742 364.891 116.588C364.891 117.434 364.205 118.12 363.359 118.12Z" fill="#18204D"/>
<path d="M310.82 100.366C310.82 89.9122 318.217 85.3501 327.856 85.3501C337.495 85.3501 345.725 89.9122 345.725 100.366" fill="#76F7FF"/>
<path d="M324.023 72.4354C324.779 72.4354 325.392 71.8223 325.392 71.066C325.392 70.3098 324.779 69.6968 324.023 69.6968C323.267 69.6968 322.654 70.3098 322.654 71.066C322.654 71.8223 323.267 72.4354 324.023 72.4354Z" fill="#F05936"/>
<path d="M331.662 72.4354C332.418 72.4354 333.031 71.8223 333.031 71.066C333.031 70.3098 332.418 69.6968 331.662 69.6968C330.906 69.6968 330.293 70.3098 330.293 71.066C330.293 71.8223 330.906 72.4354 331.662 72.4354Z" fill="#F05936"/>
<path d="M331.659 76.2125V87.7179C331.659 89.803 329.968 91.4933 327.883 91.4933C325.798 91.4933 324.107 89.803 324.107 87.7179V76.2125C324.107 75.432 324.343 74.7072 324.749 74.1056C325.427 73.0987 326.578 72.4365 327.883 72.4365C328.926 72.4365 329.869 72.8591 330.553 73.5425C331.236 74.2259 331.659 75.1697 331.659 76.2125Z" fill="#B3825D"/>
<path d="M331.658 74.5088L331.038 78.6569C331.038 80.7167 330.227 83.4596 328.233 83.6449C324.555 83.9869 324.107 81.9546 324.107 79.8693V72.4019C324.848 71.395 326.105 70.7329 327.532 70.7329C328.672 70.7329 329.703 71.1554 330.45 71.8388C331.196 72.5223 331.658 73.466 331.658 74.5088Z" fill="#303030"/>
<path d="M328.096 82.8947H327.669C325.702 82.8947 324.107 81.2997 324.107 79.3323V69.4921C324.107 67.5247 325.702 65.9297 327.669 65.9297H328.096C330.063 65.9297 331.658 67.5247 331.658 69.4921V79.3323C331.658 81.2997 330.063 82.8947 328.096 82.8947Z" fill="#B3825D"/>
<path d="M324.645 68.4521L331.155 68.4283C332.528 68.4227 332.642 63.6898 330.361 64.2572L329.932 64.5236C329.407 64.1522 328.779 63.9539 328.137 63.9566L324.627 63.9784C323.601 63.9826 322.773 64.8175 322.777 65.8434C322.781 66.8693 323.619 68.4562 324.645 68.4521Z" fill="#76F7FF"/>
<path d="M325.575 71.7824C325.773 71.7824 325.934 71.622 325.934 71.4241C325.934 71.2263 325.773 71.0659 325.575 71.0659C325.378 71.0659 325.217 71.2263 325.217 71.4241C325.217 71.622 325.378 71.7824 325.575 71.7824Z" fill="#303030"/>
<path d="M328.766 71.7824C328.964 71.7824 329.124 71.622 329.124 71.4241C329.124 71.2263 328.964 71.0659 328.766 71.0659C328.568 71.0659 328.408 71.2263 328.408 71.4241C328.408 71.622 328.568 71.7824 328.766 71.7824Z" fill="#303030"/>
<path d="M326.997 76.6159C326.879 76.6159 326.759 76.5749 326.654 76.4958C326.478 76.3643 326.356 76.1448 326.335 75.9224C326.304 75.5972 326.427 75.2933 326.547 74.9994L326.58 74.9169C326.907 74.1003 327.098 73.2411 327.148 72.3628L327.327 72.3729C327.277 73.2706 327.082 74.1491 326.747 74.9837L326.714 75.0672C326.602 75.341 326.487 75.6239 326.514 75.9055C326.53 76.0759 326.627 76.2512 326.761 76.3515C326.828 76.401 326.933 76.454 327.06 76.4297L327.095 76.6065C327.063 76.6129 327.03 76.6159 326.997 76.6159Z" fill="#303030"/>
<path d="M326.952 78.7466C326.738 78.7466 326.585 78.7117 326.572 78.7083L326.613 78.533C326.619 78.5344 327.277 78.6829 327.748 78.3276C328.049 78.101 328.214 77.7159 328.239 77.1836L328.419 77.192C328.391 77.7813 328.201 78.2121 327.856 78.4724C327.56 78.6949 327.211 78.7466 326.952 78.7466Z" fill="#303030"/>
<path d="M327.953 92.3814C327.833 92.3814 327.758 92.3767 327.743 92.3757C327.634 92.3682 327.552 92.2737 327.559 92.1645C327.567 92.0555 327.658 91.9723 327.77 91.9805C327.79 91.9812 329.81 92.1024 331.19 90.8119C332.062 89.9974 332.504 88.7933 332.504 87.2333C332.504 87.1237 332.592 87.0352 332.702 87.0352C332.811 87.0352 332.9 87.1237 332.9 87.2333C332.9 88.9092 332.415 90.2115 331.458 91.104C330.207 92.2713 328.537 92.3814 327.953 92.3814Z" fill="#B3CAF8"/>
<path d="M362.558 113.239L351.236 113.223L351.234 114.941L362.556 114.956L362.558 113.239Z" fill="#B3CAF8"/>
<path d="M361.227 111.519L349.906 111.503L349.904 113.221L361.225 113.236L361.227 111.519Z" fill="#18204D"/>
<path d="M362.942 109.803L351.621 109.788L351.619 111.505L362.94 111.521L362.942 109.803Z" fill="#76F7FF"/>
<path d="M298.331 114.798H291.416C291.416 113.661 292.337 112.74 293.474 112.74H296.273C297.41 112.74 298.331 113.661 298.331 114.798Z" fill="#76F7FF"/>
<path d="M356.42 119.07H260.065C259.834 119.07 259.646 118.883 259.646 118.651C259.646 118.42 259.834 118.233 260.065 118.233H356.42C356.651 118.233 356.839 118.42 356.839 118.651C356.839 118.883 356.651 119.07 356.42 119.07Z" fill="#B3CAF8"/>
<path d="M347.1 69.7453C349.698 69.7453 351.803 67.6399 351.803 65.0427C351.803 62.4456 349.698 60.3403 347.1 60.3403C344.503 60.3403 342.398 62.4456 342.398 65.0427C342.398 67.6399 344.503 69.7453 347.1 69.7453Z" fill="#76F7FF"/>
<path d="M325.928 70.1816L324.002 70.6456L324.044 70.8208L325.97 70.3568L325.928 70.1816Z" fill="#303030"/>
<path d="M328.325 70.1816L328.283 70.3568L330.209 70.8202L330.251 70.6449L328.325 70.1816Z" fill="#303030"/>
<path d="M330.236 69.1838C330.286 69.1838 330.326 69.1436 330.326 69.0939C330.326 69.0441 330.286 69.0039 330.236 69.0039C330.187 69.0039 330.146 69.0441 330.146 69.0939C330.146 69.1436 330.187 69.1838 330.236 69.1838Z" fill="#76F7FF"/>
<path d="M330.146 68.7904C330.196 68.7904 330.237 68.7501 330.237 68.7003C330.237 68.6506 330.196 68.6104 330.146 68.6104C330.097 68.6104 330.057 68.6506 330.057 68.7003C330.057 68.7501 330.097 68.7904 330.146 68.7904Z" fill="#76F7FF"/>
<path d="M329.473 68.7904C329.522 68.7904 329.563 68.7501 329.563 68.7003C329.563 68.6506 329.522 68.6104 329.473 68.6104C329.423 68.6104 329.383 68.6506 329.383 68.7003C329.383 68.7501 329.423 68.7904 329.473 68.7904Z" fill="#76F7FF"/>
<path d="M329.807 68.7904C329.856 68.7904 329.897 68.7501 329.897 68.7003C329.897 68.6506 329.856 68.6104 329.807 68.6104C329.757 68.6104 329.717 68.6506 329.717 68.7003C329.717 68.7501 329.757 68.7904 329.807 68.7904Z" fill="#76F7FF"/>
<path d="M331.207 68.7904C331.257 68.7904 331.297 68.7501 331.297 68.7003C331.297 68.6506 331.257 68.6104 331.207 68.6104C331.158 68.6104 331.117 68.6506 331.117 68.7003C331.117 68.7501 331.158 68.7904 331.207 68.7904Z" fill="#76F7FF"/>
<path d="M330.535 68.7904C330.585 68.7904 330.625 68.7501 330.625 68.7003C330.625 68.6506 330.585 68.6104 330.535 68.6104C330.486 68.6104 330.445 68.6506 330.445 68.7003C330.445 68.7501 330.486 68.7904 330.535 68.7904Z" fill="#76F7FF"/>
<path d="M330.87 68.7904C330.92 68.7904 330.961 68.7501 330.961 68.7003C330.961 68.6506 330.92 68.6104 330.87 68.6104C330.821 68.6104 330.781 68.6506 330.781 68.7003C330.781 68.7501 330.821 68.7904 330.87 68.7904Z" fill="#76F7FF"/>
<path d="M331.317 69.101C331.367 69.101 331.407 69.0607 331.407 69.0111C331.407 68.9613 331.367 68.9209 331.317 68.9209C331.267 68.9209 331.227 68.9613 331.227 69.0111C331.227 69.0607 331.267 69.101 331.317 69.101Z" fill="#76F7FF"/>
<path d="M330.61 69.1811C330.659 69.1811 330.7 69.1407 330.7 69.0909C330.7 69.0414 330.659 69.001 330.61 69.001C330.56 69.001 330.52 69.0414 330.52 69.0909C330.52 69.1407 330.56 69.1811 330.61 69.1811Z" fill="#76F7FF"/>
<path d="M330.983 69.1838C331.033 69.1838 331.073 69.1436 331.073 69.0939C331.073 69.0441 331.033 69.0039 330.983 69.0039C330.933 69.0039 330.893 69.0441 330.893 69.0939C330.893 69.1436 330.933 69.1838 330.983 69.1838Z" fill="#76F7FF"/>
<path d="M331.363 69.4338C331.413 69.4338 331.453 69.3936 331.453 69.3439C331.453 69.2941 331.413 69.2539 331.363 69.2539C331.314 69.2539 331.273 69.2941 331.273 69.3439C331.273 69.3936 331.314 69.4338 331.363 69.4338Z" fill="#76F7FF"/>
<path d="M330.623 69.5241C330.673 69.5241 330.713 69.4839 330.713 69.4341C330.713 69.3844 330.673 69.3442 330.623 69.3442C330.574 69.3442 330.533 69.3844 330.533 69.4341C330.533 69.4839 330.574 69.5241 330.623 69.5241Z" fill="#76F7FF"/>
<path d="M331.033 69.5168C331.083 69.5168 331.124 69.4766 331.124 69.4269C331.124 69.3771 331.083 69.3369 331.033 69.3369C330.984 69.3369 330.943 69.3771 330.943 69.4269C330.943 69.4766 330.984 69.5168 331.033 69.5168Z" fill="#76F7FF"/>
<path d="M331.386 69.7757C331.436 69.7757 331.477 69.7355 331.477 69.6857C331.477 69.636 331.436 69.5957 331.386 69.5957C331.337 69.5957 331.297 69.636 331.297 69.6857C331.297 69.7355 331.337 69.7757 331.386 69.7757Z" fill="#76F7FF"/>
<path d="M331.059 69.8601C331.109 69.8601 331.149 69.8199 331.149 69.7701C331.149 69.7204 331.109 69.6802 331.059 69.6802C331.01 69.6802 330.969 69.7204 330.969 69.7701C330.969 69.8199 331.01 69.8601 331.059 69.8601Z" fill="#76F7FF"/>
<path d="M331.418 70.1189C331.467 70.1189 331.508 70.0786 331.508 70.029C331.508 69.9792 331.467 69.939 331.418 69.939C331.368 69.939 331.328 69.9792 331.328 70.029C331.328 70.0786 331.368 70.1189 331.418 70.1189Z" fill="#76F7FF"/>
<path d="M331.084 70.2033C331.133 70.2033 331.174 70.1631 331.174 70.1133C331.174 70.0636 331.133 70.0234 331.084 70.0234C331.034 70.0234 330.994 70.0636 330.994 70.1133C330.994 70.1631 331.034 70.2033 331.084 70.2033Z" fill="#76F7FF"/>
<path d="M331.418 70.4643C331.467 70.4643 331.508 70.4239 331.508 70.3741C331.508 70.3246 331.467 70.2842 331.418 70.2842C331.368 70.2842 331.328 70.3246 331.328 70.3741C331.328 70.4239 331.368 70.4643 331.418 70.4643Z" fill="#76F7FF"/>
<path d="M331.084 70.5467C331.133 70.5467 331.174 70.5063 331.174 70.4567C331.174 70.407 331.133 70.3667 331.084 70.3667C331.034 70.3667 330.994 70.407 330.994 70.4567C330.994 70.5063 331.034 70.5467 331.084 70.5467Z" fill="#76F7FF"/>
<path d="M331.418 70.8073C331.467 70.8073 331.508 70.7671 331.508 70.7174C331.508 70.6676 331.467 70.6274 331.418 70.6274C331.368 70.6274 331.328 70.6676 331.328 70.7174C331.328 70.7671 331.368 70.8073 331.418 70.8073Z" fill="#76F7FF"/>
<path d="M331.084 70.8993C331.133 70.8993 331.174 70.8589 331.174 70.8093C331.174 70.7596 331.133 70.7192 331.084 70.7192C331.034 70.7192 330.994 70.7596 330.994 70.8093C330.994 70.8589 331.034 70.8993 331.084 70.8993Z" fill="#76F7FF"/>
<path d="M331.418 71.1584C331.467 71.1584 331.508 71.1182 331.508 71.0685C331.508 71.0187 331.467 70.9785 331.418 70.9785C331.368 70.9785 331.328 71.0187 331.328 71.0685C331.328 71.1182 331.368 71.1584 331.418 71.1584Z" fill="#76F7FF"/>
<path d="M331.084 71.2502C331.133 71.2502 331.174 71.21 331.174 71.1602C331.174 71.1106 331.133 71.0703 331.084 71.0703C331.034 71.0703 330.994 71.1106 330.994 71.1602C330.994 71.21 331.034 71.2502 331.084 71.2502Z" fill="#76F7FF"/>
<path d="M245.925 71.2583L285.186 72.6293C285.633 72.6448 286.273 73.1263 286.613 73.7033L288.229 76.441L288.384 76.4465L286.77 73.7086C286.365 73.0222 285.601 72.4484 285.068 72.4297L245.808 71.0586C245.276 71.0401 245.172 71.5839 245.577 72.2702L247.192 75.008L247.347 75.0133L245.732 72.2757C245.391 71.6987 245.479 71.2428 245.925 71.2583Z" fill="#B3CAF8"/>
<path fill-rule="evenodd" clip-rule="evenodd" d="M285.228 72.4511C285.171 72.439 285.117 72.4318 285.064 72.4299L245.803 71.0588C245.438 71.0461 245.275 71.2989 245.34 71.6809C245.37 71.855 245.447 72.0556 245.573 72.2704L247.189 75.0081L247.343 75.0134L245.728 72.2758C245.713 72.2514 245.7 72.2272 245.687 72.2033C245.578 72.0001 245.523 71.8146 245.52 71.6626C245.515 71.409 245.654 71.2491 245.921 71.2585L285.182 72.6294C285.188 72.6298 285.195 72.6301 285.201 72.6305C285.647 72.6589 286.274 73.1347 286.61 73.7034L288.225 76.4412L288.381 76.4467L286.765 73.7089C286.751 73.6848 286.736 73.661 286.721 73.6374C286.349 73.0496 285.724 72.5581 285.228 72.4511ZM245.915 71.4392L285.176 72.8102C285.346 72.8162 285.582 72.9158 285.827 73.1005C286.068 73.2817 286.296 73.5289 286.454 73.7953L288.119 76.6185L288.704 76.6389L286.921 73.617C286.705 73.2516 286.397 72.9192 286.071 72.6745C285.751 72.4331 285.391 72.2603 285.071 72.2491L245.81 70.878C245.646 70.8724 245.496 70.9095 245.377 70.9996C245.257 71.0903 245.187 71.2209 245.159 71.3665C245.106 71.6484 245.205 72.0025 245.417 72.3623L247.083 75.1854L247.667 75.2056L245.884 72.1839C245.723 71.912 245.684 71.7006 245.707 71.5789C245.718 71.5228 245.74 71.492 245.764 71.4742C245.789 71.4553 245.834 71.4365 245.915 71.4392Z" fill="#B3CAF8"/>
<path d="M304.668 104.05L303.627 102.286L292.653 83.6881L290.638 80.2731L290.483 80.2676L292.498 83.6826L303.471 102.28L304.512 104.044C304.852 104.62 304.766 105.077 304.319 105.062L265.058 103.691C264.612 103.675 263.97 103.192 263.631 102.617L263.103 101.722L259.775 96.0814L259.142 95.0088L255.814 89.3698L254.944 87.8953L251.616 82.255L249.601 78.84L249.447 78.8345L251.462 82.2495L254.79 87.8899L255.66 89.3643L258.987 95.0033L259.62 96.0759L262.948 101.716L263.476 102.611C263.881 103.298 264.644 103.872 265.176 103.89L304.437 105.261C304.97 105.28 305.073 104.736 304.668 104.05Z" fill="#B3CAF8"/>
<path fill-rule="evenodd" clip-rule="evenodd" d="M290.746 80.0952L292.812 83.5957L304.826 103.958C305.038 104.317 305.138 104.671 305.084 104.953C305.056 105.099 304.986 105.23 304.866 105.32C304.747 105.41 304.596 105.447 304.433 105.442L265.172 104.071C264.852 104.06 264.493 103.887 264.172 103.645C263.847 103.401 263.538 103.068 263.323 102.703L259.466 96.1673L251.308 82.3411L249.125 78.6416L249.709 78.6622L255.102 87.8029L259.3 94.9164L263.261 101.63L263.789 102.524C263.946 102.79 264.174 103.037 264.416 103.219C264.661 103.404 264.897 103.504 265.067 103.509L304.328 104.881C304.409 104.883 304.454 104.864 304.479 104.846C304.502 104.828 304.525 104.797 304.535 104.741C304.558 104.619 304.519 104.407 304.359 104.136L290.162 80.0747L290.746 80.0952ZM304.514 104.044C304.529 104.069 304.543 104.093 304.556 104.117C304.663 104.317 304.717 104.5 304.722 104.651C304.729 104.908 304.591 105.071 304.321 105.061L265.06 103.69C265.054 103.69 265.048 103.69 265.042 103.689C264.597 103.661 263.968 103.184 263.633 102.616L249.604 78.8395L249.449 78.834L263.478 102.611C263.492 102.635 263.507 102.658 263.522 102.682C263.894 103.27 264.52 103.762 265.016 103.869C265.072 103.881 265.126 103.888 265.178 103.89L304.439 105.261C304.808 105.274 304.971 105.017 304.902 104.631C304.872 104.459 304.795 104.261 304.67 104.049L290.641 80.2726L290.485 80.2671L304.514 104.044Z" fill="#B3CAF8"/>
<path d="M331.418 71.511C331.467 71.511 331.508 71.4706 331.508 71.421C331.508 71.3713 331.467 71.3311 331.418 71.3311C331.368 71.3311 331.328 71.3713 331.328 71.421C331.328 71.4706 331.368 71.511 331.418 71.511Z" fill="#76F7FF"/>
<path d="M330.701 69.8675C330.75 69.8675 330.791 69.8273 330.791 69.7775C330.791 69.7278 330.75 69.6875 330.701 69.6875C330.651 69.6875 330.611 69.7278 330.611 69.7775C330.611 69.8273 330.651 69.8675 330.701 69.8675Z" fill="#76F7FF"/>
<path d="M290.295 115.077H284.6L280.289 107.278L285.983 107.522L290.295 115.077Z" fill="#B3CAF8"/>
<path opacity="0.2" d="M289.645 114.025L284.094 114.066L283.188 112.508L288.739 112.467L289.645 114.025Z" fill="#303030"/>
<path d="M299.462 115.077H275.32V114.944C275.32 114.459 275.713 114.067 276.197 114.067H298.585C299.069 114.067 299.462 114.459 299.462 114.944V115.077Z" fill="#B3CAF8"/>
<path d="M240.192 74.7624L247.191 75.0068L247.345 75.0123L248.156 75.0405L287.417 76.4116L288.227 76.4398L288.383 76.4453L290.976 76.5359C291.794 76.5644 292.964 77.444 293.588 78.5012C294.211 79.5572 294.052 80.3916 293.234 80.363L290.641 80.2725L290.485 80.267L289.675 80.2387L250.414 78.8676L249.603 78.8394L249.449 78.8339L242.45 78.5895C241.631 78.5609 240.461 77.6802 239.838 76.6242C239.215 75.567 239.373 74.7338 240.192 74.7624Z" fill="#76F7FF"/>
<path d="M291.69 83.6556L275.125 83.0771L286.098 101.675L302.664 102.253L303.474 102.282L292.501 83.6838L291.69 83.6556Z" fill="#76F7FF"/>
<path d="M296.734 83.8303L292.465 83.6812L303.439 102.279L307.707 102.428L296.734 83.8303Z" fill="#76F7FF"/>
<path d="M242.879 81.9976L246.207 87.6379L256.022 87.934L252.694 82.2937L242.879 81.9976Z" fill="#76F7FF"/>
<path d="M272.063 82.969L252.426 82.2832L251.615 82.2549L254.943 87.8951L255.754 87.9235L275.392 88.6093L272.063 82.969Z" fill="#76F7FF"/>
<path d="M333.634 115.295H308.242V114.76C308.242 114.205 308.692 113.755 309.247 113.755H332.629C333.184 113.755 333.634 114.205 333.634 114.76V115.295Z" fill="#76F7FF"/>
<path d="M316.634 138.381H251.677C249.955 138.381 248.559 136.986 248.559 135.264V123.832C248.559 122.11 249.955 120.715 251.677 120.715H316.634C318.356 120.715 319.751 122.11 319.751 123.832V135.264C319.751 136.986 318.356 138.381 316.634 138.381Z" fill="#B3CAF8"/>
<path d="M363.036 138.381H325.109C323.388 138.381 321.992 136.986 321.992 135.264V123.832C321.992 122.11 323.388 120.715 325.109 120.715H363.036C364.757 120.715 366.153 122.11 366.153 123.832V135.264C366.153 136.986 364.757 138.381 363.036 138.381Z" fill="#B3CAF8"/>
<path d="M368.576 129.74H247.261C246.554 129.74 245.979 129.165 245.979 128.457C245.979 127.75 246.554 127.175 247.261 127.175H368.576C369.283 127.175 369.859 127.75 369.859 128.457C369.859 129.165 369.283 129.74 368.576 129.74ZM247.261 127.56C246.767 127.56 246.364 127.963 246.364 128.457C246.364 128.952 246.767 129.354 247.261 129.354H368.576C369.071 129.354 369.473 128.952 369.473 128.457C369.473 127.963 369.071 127.56 368.576 127.56H247.261Z" fill="#76F7FF"/>
<path d="M274.599 85.4396C274.565 85.4396 274.532 85.4203 274.517 85.3872L274.329 84.9778C274.308 84.9326 274.328 84.8791 274.373 84.8584C274.418 84.8376 274.472 84.8572 274.492 84.9025L274.681 85.3117C274.701 85.3571 274.682 85.4105 274.636 85.4314C274.624 85.437 274.611 85.4396 274.599 85.4396Z" fill="#303030"/>
<path d="M274.037 84.2173C274.004 84.2173 273.971 84.198 273.956 84.1648L273.582 83.353C273.561 83.3078 273.581 83.2542 273.626 83.2335C273.671 83.2128 273.725 83.2323 273.746 83.2777L274.119 84.0895C274.14 84.1348 274.12 84.1882 274.075 84.2089C274.063 84.2146 274.05 84.2173 274.037 84.2173ZM273.291 82.5936C273.257 82.5936 273.224 82.5743 273.209 82.5412L272.835 81.7294C272.815 81.6841 272.834 81.6307 272.88 81.61C272.924 81.5889 272.978 81.6088 272.999 81.6541L273.373 82.4659C273.393 82.5111 273.374 82.5647 273.328 82.5854C273.316 82.591 273.303 82.5936 273.291 82.5936ZM272.544 80.97C272.51 80.97 272.477 80.9507 272.462 80.9175L272.089 80.1057C272.068 80.0605 272.088 80.007 272.133 79.9863C272.178 79.9659 272.231 79.9851 272.252 80.0304L272.626 80.8422C272.646 80.8875 272.627 80.9409 272.582 80.9618C272.569 80.9673 272.557 80.97 272.544 80.97ZM271.797 79.3463C271.763 79.3463 271.73 79.327 271.715 79.2939L271.342 78.4822C271.321 78.437 271.341 78.3834 271.386 78.3627C271.431 78.3418 271.485 78.3613 271.506 78.4069L271.879 79.2186C271.9 79.2638 271.88 79.3174 271.835 79.3381C271.823 79.3437 271.81 79.3463 271.797 79.3463ZM271.05 77.7226C271.016 77.7226 270.984 77.7032 270.969 77.6702L270.595 76.8583C270.575 76.8131 270.594 76.7595 270.639 76.7388C270.684 76.7178 270.738 76.7376 270.759 76.783L271.132 77.5947C271.153 77.6401 271.133 77.6935 271.088 77.7144C271.076 77.72 271.063 77.7226 271.05 77.7226ZM270.304 76.0989C270.27 76.0989 270.237 76.0795 270.222 76.0465L269.848 75.2347C269.828 75.1895 269.847 75.136 269.892 75.1153C269.937 75.0942 269.991 75.1141 270.012 75.1594L270.385 75.9712C270.406 76.0164 270.386 76.0699 270.341 76.0907C270.329 76.0963 270.316 76.0989 270.304 76.0989ZM269.557 74.4753C269.523 74.4753 269.49 74.456 269.475 74.4229L269.102 73.611C269.081 73.5658 269.101 73.5124 269.146 73.4915C269.19 73.4712 269.244 73.4903 269.265 73.5357L269.639 74.3476C269.66 74.3928 269.64 74.4462 269.595 74.4671C269.582 74.4727 269.57 74.4753 269.557 74.4753ZM268.81 72.8518C268.776 72.8518 268.743 72.8323 268.728 72.7992L268.355 71.9874C268.334 71.9423 268.354 71.8887 268.399 71.868C268.444 71.8471 268.497 71.8668 268.518 71.9121L268.892 72.7239C268.913 72.7691 268.893 72.8227 268.848 72.8434C268.836 72.849 268.823 72.8518 268.81 72.8518ZM268.063 71.228C268.029 71.228 267.997 71.2087 267.982 71.1757L267.608 70.3637C267.587 70.3185 267.607 70.2651 267.652 70.2443C267.697 70.2234 267.751 70.2431 267.772 70.2884L268.145 71.1004C268.166 71.1455 268.146 71.1989 268.101 71.2198C268.089 71.2255 268.076 71.228 268.063 71.228ZM267.316 69.6045C267.282 69.6045 267.25 69.5851 267.235 69.5519L266.861 68.7402C266.841 68.695 266.86 68.6414 266.906 68.6207C266.951 68.6003 267.004 68.6195 267.025 68.6649L267.398 69.4766C267.419 69.5218 267.399 69.5754 267.354 69.5961C267.342 69.6017 267.329 69.6045 267.316 69.6045ZM266.57 67.9808C266.536 67.9808 266.503 67.9614 266.488 67.9284L266.114 67.1166C266.094 67.0713 266.113 67.0179 266.159 66.997C266.203 66.9764 266.257 66.9958 266.278 67.0413L266.652 67.8531C266.672 67.8983 266.653 67.9518 266.607 67.9725C266.595 67.9782 266.582 67.9808 266.57 67.9808ZM265.823 66.3572C265.789 66.3572 265.756 66.3379 265.741 66.3047L265.368 65.4927C265.347 65.4475 265.367 65.394 265.412 65.3733C265.457 65.3524 265.511 65.3721 265.532 65.4174L265.905 66.2294C265.926 66.2747 265.906 66.3281 265.86 66.3488C265.848 66.3545 265.835 66.3572 265.823 66.3572ZM265.076 64.7333C265.042 64.7333 265.01 64.714 264.994 64.6809L264.621 63.8692C264.6 63.8238 264.62 63.7704 264.665 63.7495C264.71 63.7287 264.764 63.7483 264.785 63.7939L265.158 64.6056C265.179 64.6508 265.159 64.7044 265.114 64.7251C265.102 64.7307 265.089 64.7333 265.076 64.7333ZM264.33 63.1098C264.295 63.1098 264.263 63.0904 264.248 63.0572L264.082 62.6971C264.006 62.5323 263.965 62.3587 263.961 62.1813C263.959 62.1315 263.999 62.09 264.049 62.0888C264.098 62.0947 264.14 62.127 264.141 62.1766C264.145 62.3296 264.18 62.4794 264.245 62.6218L264.411 62.9819C264.432 63.0273 264.412 63.0807 264.367 63.1015C264.355 63.107 264.342 63.1098 264.33 63.1098ZM264.345 61.446C264.324 61.446 264.303 61.439 264.286 61.4246C264.249 61.3921 264.244 61.3353 264.276 61.2974C264.487 61.0498 264.78 60.8909 265.101 60.8497C265.149 60.8418 265.195 60.8781 265.201 60.9277C265.208 60.977 265.173 61.0222 265.123 61.0285C264.847 61.064 264.595 61.2011 264.413 61.4143C264.396 61.4352 264.37 61.446 264.345 61.446ZM291.919 61.019H291.025C290.975 61.019 290.935 60.9787 290.935 60.9289C290.935 60.8791 290.975 60.8389 291.025 60.8389H291.919C291.969 60.8389 292.009 60.8791 292.009 60.9289C292.009 60.9787 291.969 61.019 291.919 61.019ZM290.132 61.019H289.238C289.188 61.019 289.148 60.9787 289.148 60.9289C289.148 60.8791 289.188 60.8389 289.238 60.8389H290.132C290.181 60.8389 290.222 60.8791 290.222 60.9289C290.222 60.9787 290.181 61.019 290.132 61.019ZM288.344 61.019H287.451C287.401 61.019 287.361 60.9787 287.361 60.9289C287.361 60.8791 287.401 60.8389 287.451 60.8389H288.344C288.394 60.8389 288.435 60.8791 288.435 60.9289C288.435 60.9787 288.394 61.019 288.344 61.019ZM286.557 61.019H285.664C285.614 61.019 285.574 60.9787 285.574 60.9289C285.574 60.8791 285.614 60.8389 285.664 60.8389H286.557C286.607 60.8389 286.647 60.8791 286.647 60.9289C286.647 60.9787 286.607 61.019 286.557 61.019ZM284.77 61.019H283.876C283.827 61.019 283.786 60.9787 283.786 60.9289C283.786 60.8791 283.827 60.8389 283.876 60.8389H284.77C284.82 60.8389 284.86 60.8791 284.86 60.9289C284.86 60.9787 284.82 61.019 284.77 61.019ZM282.983 61.019H282.089C282.04 61.019 281.999 60.9787 281.999 60.9289C281.999 60.8791 282.04 60.8389 282.089 60.8389H282.983C283.033 60.8389 283.073 60.8791 283.073 60.9289C283.073 60.9787 283.033 61.019 282.983 61.019ZM281.196 61.019H280.302C280.252 61.019 280.212 60.9787 280.212 60.9289C280.212 60.8791 280.252 60.8389 280.302 60.8389H281.196C281.246 60.8389 281.286 60.8791 281.286 60.9289C281.286 60.9787 281.246 61.019 281.196 61.019ZM279.409 61.019H278.515C278.465 61.019 278.425 60.9787 278.425 60.9289C278.425 60.8791 278.465 60.8389 278.515 60.8389H279.409C279.459 60.8389 279.499 60.8791 279.499 60.9289C279.499 60.9787 279.459 61.019 279.409 61.019ZM277.622 61.019H276.728C276.678 61.019 276.638 60.9787 276.638 60.9289C276.638 60.8791 276.678 60.8389 276.728 60.8389H277.622C277.671 60.8389 277.712 60.8791 277.712 60.9289C277.712 60.9787 277.671 61.019 277.622 61.019ZM275.834 61.019H274.941C274.891 61.019 274.851 60.9787 274.851 60.9289C274.851 60.8791 274.891 60.8389 274.941 60.8389H275.834C275.884 60.8389 275.924 60.8791 275.924 60.9289C275.924 60.9787 275.884 61.019 275.834 61.019ZM274.047 61.019H273.154C273.104 61.019 273.064 60.9787 273.064 60.9289C273.064 60.8791 273.104 60.8389 273.154 60.8389H274.047C274.097 60.8389 274.137 60.8791 274.137 60.9289C274.137 60.9787 274.097 61.019 274.047 61.019ZM272.26 61.019H271.366C271.317 61.019 271.276 60.9787 271.276 60.9289C271.276 60.8791 271.317 60.8389 271.366 60.8389H272.26C272.31 60.8389 272.35 60.8791 272.35 60.9289C272.35 60.9787 272.31 61.019 272.26 61.019ZM270.473 61.019H269.579C269.529 61.019 269.489 60.9787 269.489 60.9289C269.489 60.8791 269.529 60.8389 269.579 60.8389H270.473C270.523 60.8389 270.563 60.8791 270.563 60.9289C270.563 60.9787 270.523 61.019 270.473 61.019ZM268.686 61.019H267.792C267.742 61.019 267.702 60.9787 267.702 60.9289C267.702 60.8791 267.742 60.8389 267.792 60.8389H268.686C268.736 60.8389 268.776 60.8791 268.776 60.9289C268.776 60.9787 268.736 61.019 268.686 61.019ZM266.899 61.019H266.005C265.955 61.019 265.915 60.9787 265.915 60.9289C265.915 60.8791 265.955 60.8389 266.005 60.8389H266.899C266.948 60.8389 266.989 60.8791 266.989 60.9289C266.989 60.9787 266.948 61.019 266.899 61.019Z" fill="#303030"/>
<path d="M293.266 61.019H292.815C292.765 61.019 292.725 60.9787 292.725 60.9289C292.725 60.8791 292.765 60.8389 292.815 60.8389H293.266C293.316 60.8389 293.356 60.8791 293.356 60.9289C293.356 60.9787 293.316 61.019 293.266 61.019Z" fill="#303030"/>
<path d="M276.728 86.6715C276.953 86.1074 276.441 85.3726 275.583 85.0307C274.725 84.6886 273.848 84.8686 273.623 85.4329C273.398 85.997 273.911 86.7318 274.768 87.0737C275.626 87.4159 276.503 87.2358 276.728 86.6715Z" fill="#303030"/>
<path d="M293.787 62.4719C292.89 62.4719 292.141 61.7811 292.118 60.932C292.108 60.5353 292.256 60.1581 292.536 59.87C292.839 59.5587 293.255 59.3872 293.708 59.3872C294.605 59.3872 295.353 60.078 295.376 60.9271C295.387 61.324 295.239 61.701 294.958 61.9892C294.655 62.3006 294.239 62.4719 293.787 62.4719ZM293.708 59.5674C293.304 59.5674 292.934 59.7194 292.666 59.9957C292.419 60.2486 292.289 60.5793 292.298 60.9271C292.319 61.6796 292.987 62.2917 293.787 62.2917C294.19 62.2917 294.561 62.1397 294.829 61.8634C295.075 61.6106 295.206 61.2798 295.196 60.932C295.176 60.1795 294.508 59.5674 293.708 59.5674Z" fill="#303030"/>
<path d="M293.747 61.6401C294.14 61.6401 294.457 61.3223 294.457 60.9302C294.457 60.5382 294.14 60.2202 293.747 60.2202C293.355 60.2202 293.037 60.5382 293.037 60.9302C293.037 61.3223 293.355 61.6401 293.747 61.6401Z" fill="#76F7FF"/>
<path d="M295.245 64.3072H286.585C286.501 64.3072 286.434 64.2396 286.434 64.1561C286.434 64.0725 286.501 64.0049 286.585 64.0049H295.245C295.328 64.0049 295.396 64.0725 295.396 64.1561C295.396 64.2396 295.328 64.3072 295.245 64.3072Z" fill="#76F7FF"/>
<path d="M295.245 65.1931H286.585C286.501 65.1931 286.434 65.1254 286.434 65.0419C286.434 64.9582 286.501 64.8906 286.585 64.8906H295.245C295.328 64.8906 295.396 64.9582 295.396 65.0419C295.396 65.1254 295.328 65.1931 295.245 65.1931Z" fill="#76F7FF"/>
<path d="M249.066 53.5923H240.407C240.323 53.5923 240.256 53.5248 240.256 53.4412C240.256 53.3576 240.323 53.29 240.407 53.29H249.066C249.15 53.29 249.218 53.3576 249.218 53.4412C249.218 53.5248 249.15 53.5923 249.066 53.5923Z" fill="#76F7FF"/>
<path d="M249.066 54.8609H240.407C240.323 54.8609 240.256 54.7933 240.256 54.7098C240.256 54.6262 240.323 54.5586 240.407 54.5586H249.066C249.15 54.5586 249.218 54.6262 249.218 54.7098C249.218 54.7933 249.15 54.8609 249.066 54.8609Z" fill="#76F7FF"/>
<path d="M259.895 95.0035L256.567 89.3645L254.658 89.3296L257.985 94.9686L259.895 95.0035Z" fill="#18204D"/>
<path d="M259.955 95.0373L264.639 95.2009L261.312 89.562L256.628 89.3984L255.818 89.3701L259.145 95.0091L259.955 95.0373Z" fill="#18204D"/>
<path d="M258.617 96.041L261.945 101.681L263.468 101.716L260.14 96.0761L258.617 96.041Z" fill="#18204D"/>
<path d="M279.59 95.7234L276.263 90.0845L269.611 89.8521L272.938 95.491L279.59 95.7234Z" fill="#18204D"/>
<path d="M272.115 95.4612L268.787 89.822L262.135 89.5898L265.463 95.2289L272.115 95.4612Z" fill="#18204D"/>
<path d="M253.831 89.3009L247.178 89.0684L250.505 94.7076L257.159 94.9398L253.831 89.3009Z" fill="#18204D"/>
<path d="M280.224 96.7957L273.572 96.5635L276.899 102.204L283.552 102.436L280.224 96.7957Z" fill="#18204D"/>
<path d="M266.096 96.3027L269.424 101.943L276.076 102.176L272.748 96.5349L266.096 96.3027Z" fill="#18204D"/>
<path d="M260.591 96.1094L259.781 96.0811L263.109 101.722L263.919 101.75L268.603 101.914L265.275 96.2728L260.591 96.1094Z" fill="#18204D"/>
<path d="M251.141 95.7803L254.469 101.421L261.122 101.653L257.794 96.0127L251.141 95.7803Z" fill="#18204D"/>
<path opacity="0.160784" d="M302.794 103.283L302.14 102.175L286.894 76.3359L285.666 74.255C285.309 73.6498 284.639 73.1458 284.17 73.1295L246.609 71.8178C246.14 71.8014 246.048 72.2787 246.405 72.8839L247.633 74.9648L249.891 78.7921L251.906 82.2071L255.234 87.8474L256.104 89.3219L259.543 95.1503L260.064 96.0335L263.392 101.674L263.533 101.912C263.89 102.517 264.561 103.021 265.03 103.038L302.591 104.349C303.06 104.366 303.151 103.888 302.794 103.283Z" fill="#18204D"/>
<path d="M362.037 150.613H244.037C242.656 150.613 241.537 151.732 241.537 153.113C241.537 154.494 242.656 155.613 244.037 155.613H362.037C363.418 155.613 364.537 154.494 364.537 153.113C364.537 151.732 363.418 150.613 362.037 150.613Z" fill="white" fill-opacity="0.6"/>
<path d="M334.037 167.613H272.037C270.656 167.613 269.537 168.732 269.537 170.113C269.537 171.494 270.656 172.613 272.037 172.613H334.037C335.418 172.613 336.537 171.494 336.537 170.113C336.537 168.732 335.418 167.613 334.037 167.613Z" fill="white" fill-opacity="0.6"/>
<path d="M349.627 184.613H256.447C255.679 184.613 255.057 185.235 255.057 186.004C255.057 186.772 255.679 187.394 256.447 187.394H349.627C350.395 187.394 351.018 186.772 351.018 186.004C351.018 185.235 350.395 184.613 349.627 184.613Z" fill="white" fill-opacity="0.3"/>
<path d="M299.615 210.349C299.615 204.299 294.71 199.395 288.661 199.395C282.611 199.395 277.707 204.299 277.707 210.349C277.707 216.398 282.611 221.303 288.661 221.303C294.71 221.303 299.615 216.398 299.615 210.349Z" fill="white" fill-opacity="0.7"/>
<path d="M328.368 210.349C328.368 204.299 323.464 199.395 317.415 199.395C311.365 199.395 306.461 204.299 306.461 210.349C306.461 216.398 311.365 221.303 317.415 221.303C323.464 221.303 328.368 216.398 328.368 210.349Z" fill="white" fill-opacity="0.7"/>
<path fill-rule="evenodd" clip-rule="evenodd" d="M360.614 49.2903C366.664 49.2903 371.568 44.3861 371.568 38.3365C371.568 32.2869 366.664 27.3828 360.614 27.3828C354.564 27.3828 349.66 32.2869 349.66 38.3365C349.66 44.3861 354.564 49.2903 360.614 49.2903Z" fill="#18204D"/>
<path d="M363.992 37.8018L360.08 41.7132L361.682 43.3151L365.594 39.4037L363.992 37.8018Z" fill="#FFE458"/>
<path fill-rule="evenodd" clip-rule="evenodd" d="M355.77 34.0719L359.068 37.3696C359.065 37.3939 359.064 37.4187 359.064 37.4438C359.064 37.8081 359.359 38.1035 359.723 38.1035C360.088 38.1035 360.383 37.8081 360.383 37.4438C360.383 37.0794 360.088 36.7841 359.723 36.7841C359.698 36.7841 359.673 36.7855 359.648 36.7883L356.354 33.4941L362.212 34.6027H362.217L363.283 38.5162L360.793 41.0057L356.88 39.9352L355.77 34.0719Z" fill="#B5CDFB"/>
</g>
<path d="M56.2643 46.4227H55.3116V49H53.5516V41.6993H56.4247C57.2905 41.6993 57.9674 41.8915 58.4555 42.2759C58.9435 42.6603 59.1876 43.2035 59.1876 43.9055C59.1876 44.4136 59.0839 44.8348 58.8767 45.1691C58.6728 45.5034 58.3519 45.7742 57.9139 45.9814L59.4383 48.9248V49H57.5529L56.2643 46.4227ZM55.3116 45.0638H56.4247C56.759 45.0638 57.0097 44.9769 57.1769 44.8031C57.3473 44.6259 57.4326 44.3802 57.4326 44.066C57.4326 43.7518 57.3473 43.5061 57.1769 43.3289C57.0064 43.1484 56.7557 43.0581 56.4247 43.0581H55.3116V45.0638ZM62.7978 49.1003C61.9655 49.1003 61.2919 48.8529 60.7771 48.3582C60.2623 47.8601 60.0049 47.2133 60.0049 46.4177V46.2773C60.0049 45.7224 60.1068 45.2326 60.3108 44.8081C60.518 44.3836 60.8189 44.056 61.2133 43.8253C61.6078 43.5913 62.0758 43.4743 62.6173 43.4743C63.3795 43.4743 63.9812 43.7117 64.4224 44.1863C64.8637 44.6577 65.0843 45.3162 65.0843 46.1619V46.8188H61.7248C61.7849 47.123 61.917 47.362 62.1209 47.5358C62.3248 47.7097 62.5889 47.7966 62.9131 47.7966C63.448 47.7966 63.8658 47.6094 64.1667 47.235L64.9389 48.1476C64.7283 48.4384 64.4291 48.6707 64.0413 48.8446C63.6569 49.015 63.2424 49.1003 62.7978 49.1003ZM62.6073 44.778C62.1125 44.778 61.8184 45.1056 61.7248 45.7608H63.4296V45.6304C63.4363 45.3597 63.3678 45.1507 63.224 45.0037C63.0803 44.8532 62.8747 44.778 62.6073 44.778ZM68.6093 47.4757C68.6093 47.3319 68.5341 47.2166 68.3837 47.1297C68.2332 47.0428 67.9474 46.9525 67.5262 46.8589C67.105 46.7653 66.7574 46.6433 66.4833 46.4929C66.2092 46.3391 66.0002 46.1536 65.8565 45.9363C65.7128 45.719 65.6409 45.47 65.6409 45.1892C65.6409 44.6911 65.8465 44.2816 66.2576 43.9607C66.6688 43.6364 67.207 43.4743 67.8722 43.4743C68.5876 43.4743 69.1625 43.6364 69.5971 43.9607C70.0317 44.2849 70.249 44.7112 70.249 45.2393H68.5542C68.5542 44.8048 68.3252 44.5875 67.8672 44.5875C67.69 44.5875 67.5413 44.6376 67.4209 44.7379C67.3006 44.8348 67.2404 44.9569 67.2404 45.1039C67.2404 45.2544 67.314 45.3764 67.4611 45.47C67.6081 45.5636 67.8421 45.6405 68.163 45.7006C68.4873 45.7608 68.7714 45.8327 69.0155 45.9162C69.8311 46.197 70.2389 46.7001 70.2389 47.4255C70.2389 47.9203 70.0183 48.3231 69.5771 48.634C69.1391 48.9448 68.5709 49.1003 67.8722 49.1003C67.4076 49.1003 66.9931 49.0167 66.6287 48.8496C66.2643 48.6824 65.9802 48.4551 65.7763 48.1676C65.5724 47.8802 65.4704 47.5776 65.4704 47.2601H67.0499C67.0566 47.5108 67.1401 47.6946 67.3006 47.8116C67.4611 47.9253 67.6666 47.9821 67.9173 47.9821C68.148 47.9821 68.3202 47.9353 68.4338 47.8417C68.5508 47.7481 68.6093 47.6261 68.6093 47.4757ZM76.0705 46.3274C76.0705 47.1698 75.88 47.8434 75.4989 48.3481C75.1211 48.8496 74.6097 49.1003 73.9645 49.1003C73.4664 49.1003 73.0569 48.9181 72.736 48.5537V51.0859H71.0462V43.5746H72.6257L72.6759 44.076C73.0001 43.6749 73.4263 43.4743 73.9545 43.4743C74.623 43.4743 75.1429 43.7217 75.5139 44.2164C75.885 44.7078 76.0705 45.3847 76.0705 46.2472V46.3274ZM74.3807 46.2221C74.3807 45.2594 74.0999 44.778 73.5383 44.778C73.1372 44.778 72.8697 44.9218 72.736 45.2092V47.3453C72.8831 47.6462 73.1539 47.7966 73.5483 47.7966C74.0865 47.7966 74.364 47.3319 74.3807 46.4026V46.2221ZM76.607 46.2372C76.607 45.6956 76.7123 45.2143 76.9229 44.7931C77.1335 44.3685 77.436 44.0426 77.8305 43.8153C78.2249 43.588 78.6879 43.4743 79.2194 43.4743C80.0317 43.4743 80.6719 43.7267 81.1399 44.2315C81.6079 44.7329 81.8419 45.4165 81.8419 46.2823V46.3425C81.8419 47.1882 81.6062 47.8601 81.1349 48.3582C80.6669 48.8529 80.0317 49.1003 79.2295 49.1003C78.4573 49.1003 77.8372 48.8696 77.3692 48.4083C76.9012 47.9437 76.6488 47.3152 76.612 46.523L76.607 46.2372ZM78.2968 46.3425C78.2968 46.8439 78.3754 47.2116 78.5325 47.4456C78.6896 47.6796 78.9219 47.7966 79.2295 47.7966C79.8312 47.7966 80.1387 47.3336 80.1521 46.4076V46.2372C80.1521 45.2644 79.8412 44.778 79.2194 44.778C78.6545 44.778 78.3486 45.1975 78.3018 46.0366L78.2968 46.3425ZM84.1384 43.5746L84.1936 44.2114C84.5679 43.72 85.0844 43.4743 85.7429 43.4743C86.3079 43.4743 86.7291 43.6431 87.0065 43.9808C87.2873 44.3184 87.4327 44.8265 87.4428 45.5051V49H85.748V45.5753C85.748 45.3012 85.6928 45.1006 85.5825 44.9736C85.4722 44.8432 85.2716 44.778 84.9808 44.778C84.6498 44.778 84.4041 44.9084 84.2437 45.1691V49H82.5539V43.5746H84.1384ZM91.2235 47.4757C91.2235 47.3319 91.1483 47.2166 90.9979 47.1297C90.8474 47.0428 90.5616 46.9525 90.1404 46.8589C89.7192 46.7653 89.3716 46.6433 89.0975 46.4929C88.8234 46.3391 88.6144 46.1536 88.4707 45.9363C88.327 45.719 88.2551 45.47 88.2551 45.1892C88.2551 44.6911 88.4607 44.2816 88.8718 43.9607C89.283 43.6364 89.8212 43.4743 90.4864 43.4743C91.2018 43.4743 91.7767 43.6364 92.2113 43.9607C92.6459 44.2849 92.8632 44.7112 92.8632 45.2393H91.1684C91.1684 44.8048 90.9394 44.5875 90.4814 44.5875C90.3042 44.5875 90.1555 44.6376 90.0351 44.7379C89.9148 44.8348 89.8546 44.9569 89.8546 45.1039C89.8546 45.2544 89.9282 45.3764 90.0752 45.47C90.2223 45.5636 90.4563 45.6405 90.7772 45.7006C91.1015 45.7608 91.3856 45.8327 91.6297 45.9162C92.4453 46.197 92.8531 46.7001 92.8531 47.4255C92.8531 47.9203 92.6325 48.3231 92.1913 48.634C91.7533 48.9448 91.1851 49.1003 90.4864 49.1003C90.0218 49.1003 89.6073 49.0167 89.2429 48.8496C88.8785 48.6824 88.5944 48.4551 88.3905 48.1676C88.1866 47.8802 88.0846 47.5776 88.0846 47.2601H89.6641C89.6708 47.5108 89.7543 47.6946 89.9148 47.8116C90.0752 47.9253 90.2808 47.9821 90.5315 47.9821C90.7622 47.9821 90.9344 47.9353 91.048 47.8417C91.165 47.7481 91.2235 47.6261 91.2235 47.4757ZM95.4305 49H93.7356V43.5746H95.4305V49ZM93.6354 42.1756C93.6354 41.9349 93.7223 41.7377 93.8961 41.5839C94.0699 41.4302 94.2956 41.3533 94.573 41.3533C94.8505 41.3533 95.0761 41.4302 95.2499 41.5839C95.4238 41.7377 95.5107 41.9349 95.5107 42.1756C95.5107 42.4163 95.4238 42.6135 95.2499 42.7673C95.0761 42.9211 94.8505 42.998 94.573 42.998C94.2956 42.998 94.0699 42.9211 93.8961 42.7673C93.7223 42.6135 93.6354 42.4163 93.6354 42.1756ZM98.6396 46.9893L99.497 43.5746H101.277L99.507 49H97.7821L96.0121 43.5746H97.7972L98.6396 46.9893ZM104.336 49.1003C103.503 49.1003 102.83 48.8529 102.315 48.3582C101.8 47.8601 101.543 47.2133 101.543 46.4177V46.2773C101.543 45.7224 101.645 45.2326 101.849 44.8081C102.056 44.3836 102.357 44.056 102.751 43.8253C103.146 43.5913 103.614 43.4743 104.155 43.4743C104.917 43.4743 105.519 43.7117 105.96 44.1863C106.402 44.6577 106.622 45.3162 106.622 46.1619V46.8188H103.263C103.323 47.123 103.455 47.362 103.659 47.5358C103.863 47.7097 104.127 47.7966 104.451 47.7966C104.986 47.7966 105.404 47.6094 105.705 47.235L106.477 48.1476C106.266 48.4384 105.967 48.6707 105.579 48.8446C105.195 49.015 104.78 49.1003 104.336 49.1003ZM104.145 44.778C103.65 44.778 103.356 45.1056 103.263 45.7608H104.968V45.6304C104.974 45.3597 104.906 45.1507 104.762 45.0037C104.618 44.8532 104.413 44.778 104.145 44.778ZM115.598 46.2773L116.435 41.6993H118.18L116.631 49H114.805L113.828 44.8382L112.87 49H111.05L109.495 41.6993H111.245L112.083 46.2773L113.086 41.6993H114.58L115.598 46.2773ZM121.254 49.1003C120.421 49.1003 119.748 48.8529 119.233 48.3582C118.718 47.8601 118.461 47.2133 118.461 46.4177V46.2773C118.461 45.7224 118.563 45.2326 118.767 44.8081C118.974 44.3836 119.275 44.056 119.669 43.8253C120.064 43.5913 120.532 43.4743 121.073 43.4743C121.835 43.4743 122.437 43.7117 122.878 44.1863C123.32 44.6577 123.54 45.3162 123.54 46.1619V46.8188H120.181C120.241 47.123 120.373 47.362 120.577 47.5358C120.781 47.7097 121.045 47.7966 121.369 47.7966C121.904 47.7966 122.322 47.6094 122.623 47.235L123.395 48.1476C123.184 48.4384 122.885 48.6707 122.497 48.8446C122.113 49.015 121.698 49.1003 121.254 49.1003ZM121.063 44.778C120.568 44.778 120.274 45.1056 120.181 45.7608H121.886V45.6304C121.892 45.3597 121.824 45.1507 121.68 45.0037C121.536 44.8532 121.331 44.778 121.063 44.778ZM129.261 46.3324C129.261 47.2216 129.078 47.9052 128.71 48.3832C128.342 48.8613 127.824 49.1003 127.156 49.1003C126.604 49.1003 126.159 48.8813 125.822 48.4434L125.752 49H124.237V41.2981H125.927V44.0108C126.241 43.6532 126.647 43.4743 127.145 43.4743C127.821 43.4743 128.342 43.7167 128.71 44.2014C129.078 44.6861 129.261 45.368 129.261 46.2472V46.3324ZM127.567 46.2271C127.567 45.7056 127.496 45.3346 127.356 45.114C127.219 44.89 127.007 44.778 126.719 44.778C126.338 44.778 126.074 44.9234 125.927 45.2143V47.3704C126.071 47.6579 126.338 47.8016 126.729 47.8016C127.127 47.8016 127.379 47.6077 127.486 47.2199C127.54 47.0294 127.567 46.6985 127.567 46.2271ZM132.646 49V41.6993H134.998C135.643 41.6993 136.223 41.8464 136.738 42.1405C137.253 42.4314 137.654 42.8442 137.941 43.379C138.232 43.9106 138.379 44.5072 138.382 45.1691V45.5051C138.382 46.1736 138.24 46.7737 137.956 47.3052C137.675 47.8334 137.278 48.2479 136.763 48.5487C136.251 48.8462 135.68 48.9967 135.048 49H132.646ZM134.406 43.0581V47.6462H135.018C135.523 47.6462 135.91 47.4673 136.181 47.1096C136.452 46.7486 136.587 46.2138 136.587 45.5051V45.1892C136.587 44.4838 136.452 43.9523 136.181 43.5947C135.91 43.237 135.516 43.0581 134.998 43.0581H134.406ZM141.832 49.1003C141 49.1003 140.326 48.8529 139.811 48.3582C139.297 47.8601 139.039 47.2133 139.039 46.4177V46.2773C139.039 45.7224 139.141 45.2326 139.345 44.8081C139.552 44.3836 139.853 44.056 140.248 43.8253C140.642 43.5913 141.11 43.4743 141.652 43.4743C142.414 43.4743 143.016 43.7117 143.457 44.1863C143.898 44.6577 144.119 45.3162 144.119 46.1619V46.8188H140.759C140.819 47.123 140.951 47.362 141.155 47.5358C141.359 47.7097 141.623 47.7966 141.947 47.7966C142.482 47.7966 142.9 47.6094 143.201 47.235L143.973 48.1476C143.763 48.4384 143.463 48.6707 143.076 48.8446C142.691 49.015 142.277 49.1003 141.832 49.1003ZM141.642 44.778C141.147 44.778 140.853 45.1056 140.759 45.7608H142.464V45.6304C142.471 45.3597 142.402 45.1507 142.258 45.0037C142.115 44.8532 141.909 44.778 141.642 44.778ZM147.644 47.4757C147.644 47.3319 147.568 47.2166 147.418 47.1297C147.268 47.0428 146.982 46.9525 146.561 46.8589C146.139 46.7653 145.792 46.6433 145.518 46.4929C145.244 46.3391 145.035 46.1536 144.891 45.9363C144.747 45.719 144.675 45.47 144.675 45.1892C144.675 44.6911 144.881 44.2816 145.292 43.9607C145.703 43.6364 146.241 43.4743 146.907 43.4743C147.622 43.4743 148.197 43.6364 148.631 43.9607C149.066 44.2849 149.283 44.7112 149.283 45.2393H147.589C147.589 44.8048 147.36 44.5875 146.902 44.5875C146.724 44.5875 146.576 44.6376 146.455 44.7379C146.335 44.8348 146.275 44.9569 146.275 45.1039C146.275 45.2544 146.348 45.3764 146.495 45.47C146.642 45.5636 146.876 45.6405 147.197 45.7006C147.522 45.7608 147.806 45.8327 148.05 45.9162C148.865 46.197 149.273 46.7001 149.273 47.4255C149.273 47.9203 149.053 48.3231 148.611 48.634C148.174 48.9448 147.605 49.1003 146.907 49.1003C146.442 49.1003 146.027 49.0167 145.663 48.8496C145.299 48.6824 145.015 48.4551 144.811 48.1676C144.607 47.8802 144.505 47.5776 144.505 47.2601H146.084C146.091 47.5108 146.174 47.6946 146.335 47.8116C146.495 47.9253 146.701 47.9821 146.952 47.9821C147.182 47.9821 147.355 47.9353 147.468 47.8417C147.585 47.7481 147.644 47.6261 147.644 47.4757ZM151.851 49H150.156V43.5746H151.851V49ZM150.056 42.1756C150.056 41.9349 150.142 41.7377 150.316 41.5839C150.49 41.4302 150.716 41.3533 150.993 41.3533C151.271 41.3533 151.496 41.4302 151.67 41.5839C151.844 41.7377 151.931 41.9349 151.931 42.1756C151.931 42.4163 151.844 42.6135 151.67 42.7673C151.496 42.9211 151.271 42.998 150.993 42.998C150.716 42.998 150.49 42.9211 150.316 42.7673C150.142 42.6135 150.056 42.4163 150.056 42.1756ZM152.698 46.2472C152.698 45.699 152.788 45.2143 152.969 44.7931C153.149 44.3719 153.408 44.0476 153.746 43.8203C154.084 43.5896 154.476 43.4743 154.924 43.4743C155.489 43.4743 155.931 43.6649 156.248 44.0459L156.308 43.5746H157.843V48.7944C157.843 49.2724 157.731 49.687 157.507 50.0379C157.286 50.3923 156.965 50.6631 156.544 50.8503C156.123 51.0408 155.635 51.1361 155.08 51.1361C154.682 51.1361 154.296 51.0609 153.921 50.9104C153.55 50.76 153.266 50.5644 153.069 50.3238L153.776 49.3309C154.09 49.702 154.505 49.8875 155.02 49.8875C155.768 49.8875 156.143 49.5031 156.143 48.7342V48.5638C155.819 48.9214 155.409 49.1003 154.914 49.1003C154.252 49.1003 153.718 48.8479 153.31 48.3431C152.902 47.835 152.698 47.1564 152.698 46.3074V46.2472ZM154.393 46.3525C154.393 46.7971 154.476 47.1497 154.644 47.4105C154.811 47.6679 155.045 47.7966 155.346 47.7966C155.71 47.7966 155.976 47.6746 156.143 47.4305V45.1491C155.979 44.9017 155.717 44.778 155.356 44.778C155.055 44.778 154.819 44.9134 154.649 45.1842C154.478 45.4516 154.393 45.841 154.393 46.3525ZM160.355 43.5746L160.41 44.2114C160.784 43.72 161.301 43.4743 161.959 43.4743C162.524 43.4743 162.945 43.6431 163.223 43.9808C163.504 44.3184 163.649 44.8265 163.659 45.5051V49H161.964V45.5753C161.964 45.3012 161.909 45.1006 161.799 44.9736C161.689 44.8432 161.488 44.778 161.197 44.778C160.866 44.778 160.621 44.9084 160.46 45.1691V49H158.77V43.5746H160.355Z" fill="white"/>
<path d="M57.6983 103.636H55.2865L54.8653 105H52.985L55.6626 97.6993H57.3173L60.0149 105H58.1245L57.6983 103.636ZM55.7077 102.277H57.2771L56.4899 99.7451L55.7077 102.277ZM62.3114 102.523V105H60.5514V97.6993H63.4647C64.023 97.6993 64.516 97.8029 64.9439 98.0102C65.3751 98.2141 65.7077 98.5066 65.9417 98.8876C66.1791 99.2654 66.2977 99.6949 66.2977 100.176C66.2977 100.888 66.042 101.458 65.5306 101.886C65.0225 102.311 64.3238 102.523 63.4346 102.523H62.3114ZM62.3114 101.164H63.4647C63.8057 101.164 64.0647 101.079 64.2419 100.908C64.4224 100.738 64.5127 100.497 64.5127 100.186C64.5127 99.8454 64.4208 99.5729 64.2369 99.369C64.053 99.1651 63.8023 99.0615 63.4848 99.0581H62.3114V101.164ZM69.1157 105H67.3608V97.6993H69.1157V105ZM73.1021 103.476C73.1021 103.332 73.0269 103.217 72.8764 103.13C72.726 103.043 72.4402 102.953 72.019 102.859C71.5978 102.765 71.2501 102.643 70.976 102.493C70.7019 102.339 70.493 102.154 70.3493 101.936C70.2055 101.719 70.1336 101.47 70.1336 101.189C70.1336 100.691 70.3392 100.282 70.7504 99.9607C71.1616 99.6364 71.6998 99.4743 72.365 99.4743C73.0803 99.4743 73.6553 99.6364 74.0899 99.9607C74.5244 100.285 74.7417 100.711 74.7417 101.239H73.0469C73.0469 100.805 72.8179 100.587 72.36 100.587C72.1828 100.587 72.034 100.638 71.9137 100.738C71.7934 100.835 71.7332 100.957 71.7332 101.104C71.7332 101.254 71.8067 101.376 71.9538 101.47C72.1009 101.564 72.3349 101.64 72.6558 101.701C72.9801 101.761 73.2642 101.833 73.5082 101.916C74.3239 102.197 74.7317 102.7 74.7317 103.426C74.7317 103.92 74.5111 104.323 74.0698 104.634C73.6319 104.945 73.0636 105.1 72.365 105.1C71.9003 105.1 71.4858 105.017 71.1214 104.85C70.7571 104.682 70.4729 104.455 70.269 104.168C70.0651 103.88 69.9632 103.578 69.9632 103.26H71.5426C71.5493 103.511 71.6329 103.695 71.7934 103.812C71.9538 103.925 72.1594 103.982 72.4101 103.982C72.6408 103.982 72.8129 103.935 72.9266 103.842C73.0436 103.748 73.1021 103.626 73.1021 103.476ZM80.3777 103.797C80.6151 103.797 80.7989 103.733 80.9293 103.606C81.0597 103.476 81.1232 103.295 81.1198 103.065H82.7043C82.7043 103.66 82.4904 104.148 82.0625 104.529C81.638 104.91 81.0897 105.1 80.4178 105.1C79.6289 105.1 79.0072 104.853 78.5525 104.358C78.0979 103.863 77.8706 103.178 77.8706 102.302V102.232C77.8706 101.684 77.9709 101.201 78.1715 100.783C78.3754 100.362 78.6679 100.039 79.0489 99.8153C79.43 99.588 79.8813 99.4743 80.4028 99.4743C81.1081 99.4743 81.668 99.6699 82.0826 100.061C82.4971 100.452 82.7043 100.982 82.7043 101.65H81.1198C81.1198 101.37 81.0513 101.154 80.9142 101.004C80.7772 100.853 80.5933 100.778 80.3627 100.778C79.9248 100.778 79.669 101.057 79.5955 101.615C79.5721 101.793 79.5604 102.037 79.5604 102.347C79.5604 102.892 79.6256 103.27 79.756 103.481C79.8863 103.691 80.0936 103.797 80.3777 103.797ZM83.2057 102.237C83.2057 101.696 83.311 101.214 83.5216 100.793C83.7322 100.369 84.0348 100.043 84.4292 99.8153C84.8237 99.588 85.2867 99.4743 85.8182 99.4743C86.6305 99.4743 87.2706 99.7267 87.7386 100.231C88.2066 100.733 88.4406 101.416 88.4406 102.282V102.342C88.4406 103.188 88.2049 103.86 87.7336 104.358C87.2656 104.853 86.6305 105.1 85.8282 105.1C85.056 105.1 84.4359 104.87 83.9679 104.408C83.4999 103.944 83.2475 103.315 83.2108 102.523L83.2057 102.237ZM84.8955 102.342C84.8955 102.844 84.9741 103.212 85.1312 103.446C85.2883 103.68 85.5207 103.797 85.8282 103.797C86.4299 103.797 86.7374 103.334 86.7508 102.408V102.237C86.7508 101.264 86.4399 100.778 85.8182 100.778C85.2532 100.778 84.9474 101.198 84.9006 102.037L84.8955 102.342ZM90.7371 99.5746L90.7923 100.211C91.1667 99.72 91.6831 99.4743 92.3417 99.4743C92.9066 99.4743 93.3278 99.6431 93.6053 99.9808C93.8861 100.318 94.0315 100.826 94.0415 101.505V105H92.3467V101.575C92.3467 101.301 92.2915 101.101 92.1812 100.974C92.0709 100.843 91.8703 100.778 91.5795 100.778C91.2486 100.778 91.0029 100.908 90.8424 101.169V105H89.1526V99.5746H90.7371ZM97.8222 103.476C97.8222 103.332 97.747 103.217 97.5966 103.13C97.4462 103.043 97.1604 102.953 96.7392 102.859C96.318 102.765 95.9703 102.643 95.6962 102.493C95.4221 102.339 95.2132 102.154 95.0694 101.936C94.9257 101.719 94.8538 101.47 94.8538 101.189C94.8538 100.691 95.0594 100.282 95.4706 99.9607C95.8817 99.6364 96.4199 99.4743 97.0851 99.4743C97.8005 99.4743 98.3755 99.6364 98.81 99.9607C99.2446 100.285 99.4619 100.711 99.4619 101.239H97.7671C97.7671 100.805 97.5381 100.587 97.0801 100.587C96.903 100.587 96.7542 100.638 96.6339 100.738C96.5135 100.835 96.4534 100.957 96.4534 101.104C96.4534 101.254 96.5269 101.376 96.674 101.47C96.8211 101.564 97.0551 101.64 97.376 101.701C97.7002 101.761 97.9844 101.833 98.2284 101.916C99.044 102.197 99.4519 102.7 99.4519 103.426C99.4519 103.92 99.2312 104.323 98.79 104.634C98.3521 104.945 97.7838 105.1 97.0851 105.1C96.6205 105.1 96.206 105.017 95.8416 104.85C95.4773 104.682 95.1931 104.455 94.9892 104.168C94.7853 103.88 94.6833 103.578 94.6833 103.26H96.2628C96.2695 103.511 96.3531 103.695 96.5135 103.812C96.674 103.925 96.8796 103.982 97.1303 103.982C97.3609 103.982 97.5331 103.935 97.6467 103.842C97.7637 103.748 97.8222 103.626 97.8222 103.476ZM103.478 104.413C103.121 104.871 102.638 105.1 102.029 105.1C101.434 105.1 100.983 104.928 100.675 104.584C100.371 104.236 100.219 103.738 100.219 103.09V99.5746H101.909V103.1C101.909 103.564 102.134 103.797 102.586 103.797C102.974 103.797 103.249 103.658 103.413 103.38V99.5746H105.113V105H103.528L103.478 104.413ZM107.64 99.5746L107.695 100.211C108.08 99.72 108.596 99.4743 109.245 99.4743C109.93 99.4743 110.393 99.7468 110.634 100.292C111.001 99.7468 111.533 99.4743 112.228 99.4743C113.328 99.4743 113.893 100.14 113.923 101.47V105H112.228V101.575C112.228 101.298 112.181 101.096 112.088 100.969C111.994 100.842 111.824 100.778 111.576 100.778C111.242 100.778 110.993 100.927 110.829 101.224L110.834 101.294V105H109.139V101.585C109.139 101.301 109.094 101.096 109.004 100.969C108.914 100.842 108.742 100.778 108.488 100.778C108.163 100.778 107.916 100.927 107.745 101.224V105H106.056V99.5746H107.64ZM119.925 102.327C119.925 103.17 119.734 103.843 119.353 104.348C118.976 104.85 118.464 105.1 117.819 105.1C117.321 105.1 116.911 104.918 116.591 104.554V107.086H114.901V99.5746H116.48L116.53 100.076C116.855 99.6749 117.281 99.4743 117.809 99.4743C118.478 99.4743 118.997 99.7217 119.368 100.216C119.739 100.708 119.925 101.385 119.925 102.247V102.327ZM118.235 102.222C118.235 101.259 117.954 100.778 117.393 100.778C116.992 100.778 116.724 100.922 116.591 101.209V103.345C116.738 103.646 117.008 103.797 117.403 103.797C117.941 103.797 118.218 103.332 118.235 102.403V102.222ZM122.643 98.2258V99.5746H123.535V100.748H122.643V103.23C122.643 103.434 122.679 103.576 122.753 103.656C122.827 103.736 122.972 103.777 123.189 103.777C123.356 103.777 123.497 103.766 123.61 103.746V104.955C123.306 105.052 122.989 105.1 122.658 105.1C122.076 105.1 121.647 104.963 121.369 104.689C121.092 104.415 120.953 103.999 120.953 103.441V100.748H120.261V99.5746H120.953V98.2258H122.643ZM125.987 105H124.292V99.5746H125.987V105ZM124.192 98.1756C124.192 97.9349 124.279 97.7377 124.453 97.5839C124.627 97.4302 124.852 97.3533 125.13 97.3533C125.407 97.3533 125.633 97.4302 125.807 97.5839C125.981 97.7377 126.067 97.9349 126.067 98.1756C126.067 98.4163 125.981 98.6135 125.807 98.7673C125.633 98.9211 125.407 98.998 125.13 98.998C124.852 98.998 124.627 98.9211 124.453 98.7673C124.279 98.6135 124.192 98.4163 124.192 98.1756ZM126.82 102.237C126.82 101.696 126.925 101.214 127.135 100.793C127.346 100.369 127.649 100.043 128.043 99.8153C128.437 99.588 128.9 99.4743 129.432 99.4743C130.244 99.4743 130.884 99.7267 131.352 100.231C131.82 100.733 132.054 101.416 132.054 102.282V102.342C132.054 103.188 131.819 103.86 131.347 104.358C130.879 104.853 130.244 105.1 129.442 105.1C128.67 105.1 128.05 104.87 127.582 104.408C127.114 103.944 126.861 103.315 126.825 102.523L126.82 102.237ZM128.509 102.342C128.509 102.844 128.588 103.212 128.745 103.446C128.902 103.68 129.134 103.797 129.442 103.797C130.044 103.797 130.351 103.334 130.365 102.408V102.237C130.365 101.264 130.054 100.778 129.432 100.778C128.867 100.778 128.561 101.198 128.514 102.037L128.509 102.342ZM134.351 99.5746L134.406 100.211C134.78 99.72 135.297 99.4743 135.955 99.4743C136.52 99.4743 136.942 99.6431 137.219 99.9808C137.5 100.318 137.645 100.826 137.655 101.505V105H135.961V101.575C135.961 101.301 135.905 101.101 135.795 100.974C135.685 100.843 135.484 100.778 135.193 100.778C134.862 100.778 134.617 100.908 134.456 101.169V105H132.766V99.5746H134.351Z" fill="white"/>
<path d="M55.3116 169.523V172H53.5516V164.699H56.4648C57.0231 164.699 57.5162 164.803 57.944 165.01C58.3753 165.214 58.7079 165.507 58.9419 165.888C59.1792 166.265 59.2979 166.695 59.2979 167.176C59.2979 167.888 59.0422 168.458 58.5307 168.886C58.0226 169.311 57.3239 169.523 56.4348 169.523H55.3116ZM55.3116 168.164H56.4648C56.8058 168.164 57.0649 168.079 57.242 167.908C57.4226 167.738 57.5128 167.497 57.5128 167.186C57.5128 166.845 57.4209 166.573 57.237 166.369C57.0532 166.165 56.8025 166.061 56.4849 166.058H55.3116V168.164ZM59.8795 169.237C59.8795 168.696 59.9848 168.214 60.1954 167.793C60.406 167.369 60.7085 167.043 61.103 166.815C61.4975 166.588 61.9604 166.474 62.4919 166.474C63.3043 166.474 63.9444 166.727 64.4124 167.231C64.8804 167.733 65.1144 168.416 65.1144 169.282V169.342C65.1144 170.188 64.8787 170.86 64.4074 171.358C63.9394 171.853 63.3043 172.1 62.502 172.1C61.7298 172.1 61.1097 171.87 60.6417 171.408C60.1737 170.944 59.9213 170.315 59.8845 169.523L59.8795 169.237ZM61.5693 169.342C61.5693 169.844 61.6479 170.212 61.805 170.446C61.9621 170.68 62.1944 170.797 62.502 170.797C63.1037 170.797 63.4112 170.334 63.4246 169.408V169.237C63.4246 168.264 63.1137 167.778 62.4919 167.778C61.927 167.778 61.6211 168.198 61.5743 169.037L61.5693 169.342ZM69.0907 171.413C68.733 171.871 68.25 172.1 67.6416 172.1C67.0465 172.1 66.5953 171.928 66.2877 171.584C65.9835 171.236 65.8314 170.738 65.8314 170.09V166.575H67.5212V170.1C67.5212 170.564 67.7469 170.797 68.1981 170.797C68.5859 170.797 68.8617 170.658 69.0255 170.38V166.575H70.7253V172H69.1408L69.0907 171.413ZM73.438 172H71.7432V164.298H73.438V172ZM77.5397 172C77.4795 171.89 77.426 171.728 77.3792 171.514C77.0683 171.905 76.6338 172.1 76.0755 172.1C75.5641 172.1 75.1295 171.947 74.7718 171.639C74.4141 171.328 74.2353 170.939 74.2353 170.471C74.2353 169.882 74.4526 169.438 74.8871 169.137C75.3217 168.836 75.9535 168.686 76.7825 168.686H77.304V168.4C77.304 167.902 77.0884 167.653 76.6572 167.653C76.256 167.653 76.0554 167.85 76.0554 168.244H74.3657C74.3657 167.72 74.5879 167.293 75.0325 166.966C75.4805 166.638 76.0504 166.474 76.7424 166.474C77.4344 166.474 77.9809 166.643 78.3821 166.981C78.7832 167.318 78.9888 167.781 78.9988 168.37V170.772C79.0055 171.27 79.0824 171.651 79.2295 171.915V172H77.5397ZM76.4817 170.897C76.6923 170.897 76.8661 170.852 77.0031 170.761C77.1435 170.671 77.2438 170.569 77.304 170.456V169.588H76.8126C76.2243 169.588 75.9301 169.852 75.9301 170.38C75.9301 170.534 75.9819 170.66 76.0855 170.756C76.1892 170.85 76.3212 170.897 76.4817 170.897ZM83.2208 168.104L82.6642 168.064C82.1327 168.064 81.7917 168.231 81.6413 168.565V172H79.9515V166.575H81.536L81.5912 167.272C81.8753 166.74 82.2714 166.474 82.7795 166.474C82.96 166.474 83.1172 166.494 83.2509 166.534L83.2208 168.104ZM88.1698 172H86.475V164.298H88.1698V172ZM90.9979 172H89.3031V166.575H90.9979V172ZM89.2028 165.176C89.2028 164.935 89.2897 164.738 89.4635 164.584C89.6373 164.43 89.863 164.353 90.1404 164.353C90.4179 164.353 90.6435 164.43 90.8174 164.584C90.9912 164.738 91.0781 164.935 91.0781 165.176C91.0781 165.416 90.9912 165.614 90.8174 165.767C90.6435 165.921 90.4179 165.998 90.1404 165.998C89.863 165.998 89.6373 165.921 89.4635 165.767C89.2897 165.614 89.2028 165.416 89.2028 165.176ZM97.0801 169.332C97.0801 170.222 96.8963 170.905 96.5286 171.383C96.1609 171.861 95.6427 172.1 94.9742 172.1C94.4226 172.1 93.978 171.881 93.6404 171.443L93.5702 172H92.0559V164.298H93.7457V167.011C94.0599 166.653 94.466 166.474 94.9641 166.474C95.6394 166.474 96.1609 166.717 96.5286 167.201C96.8963 167.686 97.0801 168.368 97.0801 169.247V169.332ZM95.3853 169.227C95.3853 168.706 95.3151 168.335 95.1747 168.114C95.0377 167.89 94.8254 167.778 94.5379 167.778C94.1568 167.778 93.8928 167.923 93.7457 168.214V170.37C93.8894 170.658 94.1568 170.802 94.5479 170.802C94.9457 170.802 95.1981 170.608 95.3051 170.22C95.3586 170.029 95.3853 169.698 95.3853 169.227ZM101.112 168.104L100.555 168.064C100.023 168.064 99.6825 168.231 99.5321 168.565V172H97.8423V166.575H99.4268L99.482 167.272C99.7661 166.74 100.162 166.474 100.67 166.474C100.851 166.474 101.008 166.494 101.142 166.534L101.112 168.104ZM104.627 172C104.566 171.89 104.513 171.728 104.466 171.514C104.155 171.905 103.721 172.1 103.162 172.1C102.651 172.1 102.216 171.947 101.859 171.639C101.501 171.328 101.322 170.939 101.322 170.471C101.322 169.882 101.539 169.438 101.974 169.137C102.409 168.836 103.04 168.686 103.869 168.686H104.391V168.4C104.391 167.902 104.175 167.653 103.744 167.653C103.343 167.653 103.142 167.85 103.142 168.244H101.453C101.453 167.72 101.675 167.293 102.119 166.966C102.567 166.638 103.137 166.474 103.829 166.474C104.521 166.474 105.068 166.643 105.469 166.981C105.87 167.318 106.076 167.781 106.086 168.37V170.772C106.092 171.27 106.169 171.651 106.316 171.915V172H104.627ZM103.569 170.897C103.779 170.897 103.953 170.852 104.09 170.761C104.23 170.671 104.331 170.569 104.391 170.456V169.588H103.899C103.311 169.588 103.017 169.852 103.017 170.38C103.017 170.534 103.069 170.66 103.172 170.756C103.276 170.85 103.408 170.897 103.569 170.897ZM110.308 168.104L109.751 168.064C109.22 168.064 108.879 168.231 108.728 168.565V172H107.038V166.575H108.623L108.678 167.272C108.962 166.74 109.358 166.474 109.866 166.474C110.047 166.474 110.204 166.494 110.338 166.534L110.308 168.104ZM112.699 172H111.005V166.575H112.699V172ZM110.904 165.176C110.904 164.935 110.991 164.738 111.165 164.584C111.339 164.43 111.565 164.353 111.842 164.353C112.119 164.353 112.345 164.43 112.519 164.584C112.693 164.738 112.78 164.935 112.78 165.176C112.78 165.416 112.693 165.614 112.519 165.767C112.345 165.921 112.119 165.998 111.842 165.998C111.565 165.998 111.339 165.921 111.165 165.767C110.991 165.614 110.904 165.416 110.904 165.176ZM116.37 172.1C115.538 172.1 114.864 171.853 114.349 171.358C113.834 170.86 113.577 170.213 113.577 169.418V169.277C113.577 168.722 113.679 168.233 113.883 167.808C114.09 167.384 114.391 167.056 114.785 166.825C115.18 166.591 115.648 166.474 116.189 166.474C116.952 166.474 117.553 166.712 117.995 167.186C118.436 167.658 118.656 168.316 118.656 169.162V169.819H115.297C115.357 170.123 115.489 170.362 115.693 170.536C115.897 170.71 116.161 170.797 116.485 170.797C117.02 170.797 117.438 170.609 117.739 170.235L118.511 171.148C118.3 171.438 118.001 171.671 117.613 171.845C117.229 172.015 116.814 172.1 116.37 172.1ZM116.179 167.778C115.685 167.778 115.39 168.106 115.297 168.761H117.002V168.63C117.008 168.36 116.94 168.151 116.796 168.004C116.652 167.853 116.447 167.778 116.179 167.778ZM122.181 170.476C122.181 170.332 122.106 170.217 121.956 170.13C121.805 170.043 121.52 169.953 121.098 169.859C120.677 169.765 120.329 169.643 120.055 169.493C119.781 169.339 119.572 169.154 119.429 168.936C119.285 168.719 119.213 168.47 119.213 168.189C119.213 167.691 119.419 167.282 119.83 166.961C120.241 166.636 120.779 166.474 121.444 166.474C122.16 166.474 122.735 166.636 123.169 166.961C123.604 167.285 123.821 167.711 123.821 168.239H122.126C122.126 167.805 121.897 167.587 121.439 167.587C121.262 167.587 121.113 167.638 120.993 167.738C120.873 167.835 120.813 167.957 120.813 168.104C120.813 168.254 120.886 168.376 121.033 168.47C121.18 168.564 121.414 168.64 121.735 168.701C122.059 168.761 122.344 168.833 122.588 168.916C123.403 169.197 123.811 169.7 123.811 170.426C123.811 170.92 123.59 171.323 123.149 171.634C122.711 171.945 122.143 172.1 121.444 172.1C120.98 172.1 120.565 172.017 120.201 171.85C119.836 171.682 119.552 171.455 119.348 171.168C119.144 170.88 119.042 170.578 119.042 170.26H120.622C120.629 170.511 120.712 170.695 120.873 170.812C121.033 170.925 121.239 170.982 121.489 170.982C121.72 170.982 121.892 170.935 122.006 170.842C122.123 170.748 122.181 170.626 122.181 170.476ZM128.946 172H127.251V164.298H128.946V172ZM131.774 172H130.079V166.575H131.774V172ZM129.979 165.176C129.979 164.935 130.065 164.738 130.239 164.584C130.413 164.43 130.639 164.353 130.916 164.353C131.194 164.353 131.419 164.43 131.593 164.584C131.767 164.738 131.854 164.935 131.854 165.176C131.854 165.416 131.767 165.614 131.593 165.767C131.419 165.921 131.194 165.998 130.916 165.998C130.639 165.998 130.413 165.921 130.239 165.767C130.065 165.614 129.979 165.416 129.979 165.176ZM134.998 169.979L134.521 170.456V172H132.832V164.293H134.521V168.385L134.692 168.159L135.966 166.575H137.991L136.091 168.806L138.117 172H136.181L134.998 169.979ZM140.96 172.1C140.127 172.1 139.454 171.853 138.939 171.358C138.424 170.86 138.167 170.213 138.167 169.418V169.277C138.167 168.722 138.269 168.233 138.473 167.808C138.68 167.384 138.981 167.056 139.375 166.825C139.77 166.591 140.238 166.474 140.779 166.474C141.541 166.474 142.143 166.712 142.584 167.186C143.026 167.658 143.246 168.316 143.246 169.162V169.819H139.887C139.947 170.123 140.079 170.362 140.283 170.536C140.487 170.71 140.751 170.797 141.075 170.797C141.61 170.797 142.028 170.609 142.329 170.235L143.101 171.148C142.89 171.438 142.591 171.671 142.203 171.845C141.819 172.015 141.404 172.1 140.96 172.1ZM140.769 167.778C140.274 167.778 139.98 168.106 139.887 168.761H141.591V168.63C141.598 168.36 141.53 168.151 141.386 168.004C141.242 167.853 141.037 167.778 140.769 167.778ZM56.2643 181.423H55.3116V184H53.5516V176.699H56.4247C57.2905 176.699 57.9674 176.891 58.4555 177.276C58.9435 177.66 59.1876 178.204 59.1876 178.906C59.1876 179.414 59.0839 179.835 58.8767 180.169C58.6728 180.503 58.3519 180.774 57.9139 180.981L59.4383 183.925V184H57.5529L56.2643 181.423ZM55.3116 180.064H56.4247C56.759 180.064 57.0097 179.977 57.1769 179.803C57.3473 179.626 57.4326 179.38 57.4326 179.066C57.4326 178.752 57.3473 178.506 57.1769 178.329C57.0064 178.148 56.7557 178.058 56.4247 178.058H55.3116V180.064ZM62.7978 184.1C61.9655 184.1 61.2919 183.853 60.7771 183.358C60.2623 182.86 60.0049 182.213 60.0049 181.418V181.277C60.0049 180.722 60.1068 180.233 60.3108 179.808C60.518 179.384 60.8189 179.056 61.2133 178.825C61.6078 178.591 62.0758 178.474 62.6173 178.474C63.3795 178.474 63.9812 178.712 64.4224 179.186C64.8637 179.658 65.0843 180.316 65.0843 181.162V181.819H61.7248C61.7849 182.123 61.917 182.362 62.1209 182.536C62.3248 182.71 62.5889 182.797 62.9131 182.797C63.448 182.797 63.8658 182.609 64.1667 182.235L64.9389 183.148C64.7283 183.438 64.4291 183.671 64.0413 183.845C63.6569 184.015 63.2424 184.1 62.7978 184.1ZM62.6073 179.778C62.1125 179.778 61.8184 180.106 61.7248 180.761H63.4296V180.63C63.4363 180.36 63.3678 180.151 63.224 180.004C63.0803 179.853 62.8747 179.778 62.6073 179.778ZM68.8249 184C68.7648 183.89 68.7113 183.728 68.6645 183.514C68.3536 183.905 67.919 184.1 67.3608 184.1C66.8493 184.1 66.4147 183.947 66.0571 183.639C65.6994 183.328 65.5205 182.939 65.5205 182.471C65.5205 181.882 65.7378 181.438 66.1724 181.137C66.607 180.836 67.2388 180.686 68.0678 180.686H68.5893V180.4C68.5893 179.902 68.3736 179.653 67.9424 179.653C67.5413 179.653 67.3407 179.85 67.3407 180.244H65.6509C65.6509 179.72 65.8732 179.293 66.3178 178.966C66.7657 178.638 67.3357 178.474 68.0277 178.474C68.7196 178.474 69.2662 178.643 69.6673 178.981C70.0685 179.318 70.274 179.781 70.2841 180.37V182.772C70.2908 183.27 70.3676 183.651 70.5147 183.915V184H68.8249ZM67.7669 182.897C67.9775 182.897 68.1513 182.852 68.2884 182.761C68.4288 182.671 68.5291 182.569 68.5893 182.456V181.588H68.0979C67.5095 181.588 67.2154 181.852 67.2154 182.38C67.2154 182.534 67.2672 182.66 67.3708 182.756C67.4744 182.85 67.6065 182.897 67.7669 182.897ZM73.5182 182.797C73.7556 182.797 73.9394 182.733 74.0698 182.606C74.2002 182.476 74.2637 182.295 74.2604 182.065H75.8449C75.8449 182.66 75.6309 183.148 75.203 183.529C74.7785 183.91 74.2303 184.1 73.5584 184.1C72.7695 184.1 72.1477 183.853 71.6931 183.358C71.2384 182.863 71.0111 182.178 71.0111 181.302V181.232C71.0111 180.684 71.1114 180.201 71.312 179.783C71.5159 179.362 71.8084 179.039 72.1895 178.815C72.5706 178.588 73.0218 178.474 73.5433 178.474C74.2487 178.474 74.8086 178.67 75.2231 179.061C75.6376 179.452 75.8449 179.982 75.8449 180.65H74.2604C74.2604 180.37 74.1918 180.154 74.0548 180.004C73.9177 179.853 73.7339 179.778 73.5032 179.778C73.0653 179.778 72.8096 180.057 72.736 180.615C72.7126 180.793 72.7009 181.037 72.7009 181.347C72.7009 181.892 72.7661 182.27 72.8965 182.481C73.0269 182.691 73.2341 182.797 73.5182 182.797ZM78.5275 177.226V178.575H79.42V179.748H78.5275V182.23C78.5275 182.434 78.5642 182.576 78.6378 182.656C78.7113 182.736 78.8567 182.777 79.074 182.777C79.2412 182.777 79.3816 182.766 79.4952 182.746V183.955C79.191 184.052 78.8734 184.1 78.5425 184.1C77.9609 184.1 77.5313 183.963 77.2538 183.689C76.9764 183.415 76.8377 182.999 76.8377 182.441V179.748H76.1457V178.575H76.8377V177.226H78.5275ZM80.6836 185.966L79.8312 185.564L80.0017 185.223C80.2356 184.789 80.3577 184.374 80.3677 183.98V182.726H81.7215L81.7165 183.814C81.7132 184.199 81.6146 184.59 81.4207 184.988C81.2268 185.386 80.9811 185.712 80.6836 185.966ZM88.2551 182.476C88.2551 182.332 88.1799 182.217 88.0294 182.13C87.879 182.043 87.5932 181.953 87.172 181.859C86.7508 181.765 86.4032 181.643 86.129 181.493C85.8549 181.339 85.646 181.154 85.5023 180.936C85.3585 180.719 85.2867 180.47 85.2867 180.189C85.2867 179.691 85.4922 179.282 85.9034 178.961C86.3146 178.636 86.8528 178.474 87.518 178.474C88.2334 178.474 88.8083 178.636 89.2429 178.961C89.6775 179.285 89.8947 179.711 89.8947 180.239H88.1999C88.1999 179.805 87.9709 179.587 87.513 179.587C87.3358 179.587 87.187 179.638 87.0667 179.738C86.9464 179.835 86.8862 179.957 86.8862 180.104C86.8862 180.254 86.9597 180.376 87.1068 180.47C87.2539 180.564 87.4879 180.64 87.8088 180.701C88.1331 180.761 88.4172 180.833 88.6612 180.916C89.4769 181.197 89.8847 181.7 89.8847 182.426C89.8847 182.92 89.6641 183.323 89.2228 183.634C88.7849 183.945 88.2166 184.1 87.518 184.1C87.0533 184.1 86.6388 184.017 86.2745 183.85C85.9101 183.682 85.626 183.455 85.422 183.168C85.2181 182.88 85.1162 182.578 85.1162 182.26H86.6957C86.7023 182.511 86.7859 182.695 86.9464 182.812C87.1068 182.925 87.3124 182.982 87.5631 182.982C87.7938 182.982 87.9659 182.935 88.0796 182.842C88.1966 182.748 88.2551 182.626 88.2551 182.476ZM92.6476 177.226V178.575H93.5401V179.748H92.6476V182.23C92.6476 182.434 92.6843 182.576 92.7579 182.656C92.8314 182.736 92.9768 182.777 93.1941 182.777C93.3612 182.777 93.5016 182.766 93.6153 182.746V183.955C93.3111 184.052 92.9935 184.1 92.6626 184.1C92.0809 184.1 91.6514 183.963 91.3739 183.689C91.0965 183.415 90.9578 182.999 90.9578 182.441V179.748H90.2658V178.575H90.9578V177.226H92.6476ZM96.3781 181.633L97.2807 178.575H99.0908L96.8796 184.908L96.7843 185.138C96.4701 185.84 95.9152 186.191 95.1196 186.191C94.8989 186.191 94.6666 186.158 94.4226 186.091V184.883H94.6432C94.8806 184.883 95.0611 184.847 95.1848 184.777C95.3118 184.71 95.4054 184.588 95.4655 184.411L95.6009 184.05L93.7156 178.575H95.5207L96.3781 181.633ZM101.317 184H99.6224V176.298H101.317V184ZM104.988 184.1C104.155 184.1 103.482 183.853 102.967 183.358C102.452 182.86 102.195 182.213 102.195 181.418V181.277C102.195 180.722 102.297 180.233 102.501 179.808C102.708 179.384 103.009 179.056 103.403 178.825C103.798 178.591 104.266 178.474 104.807 178.474C105.569 178.474 106.171 178.712 106.612 179.186C107.053 179.658 107.274 180.316 107.274 181.162V181.819H103.915C103.975 182.123 104.107 182.362 104.311 182.536C104.515 182.71 104.779 182.797 105.103 182.797C105.638 182.797 106.056 182.609 106.356 182.235L107.129 183.148C106.918 183.438 106.619 183.671 106.231 183.845C105.847 184.015 105.432 184.1 104.988 184.1ZM104.797 179.778C104.302 179.778 104.008 180.106 103.915 180.761H105.619V180.63C105.626 180.36 105.558 180.151 105.414 180.004C105.27 179.853 105.064 179.778 104.797 179.778ZM107.745 181.247C107.745 180.388 107.931 179.711 108.302 179.216C108.673 178.722 109.191 178.474 109.856 178.474C110.341 178.474 110.749 178.665 111.08 179.046V176.298H112.775V184H111.255L111.17 183.418C110.822 183.873 110.381 184.1 109.846 184.1C109.201 184.1 108.69 183.853 108.312 183.358C107.934 182.863 107.745 182.16 107.745 181.247ZM109.435 181.352C109.435 182.315 109.716 182.797 110.278 182.797C110.652 182.797 110.919 182.639 111.08 182.325V180.259C110.926 179.938 110.662 179.778 110.288 179.778C109.766 179.778 109.484 180.199 109.44 181.042L109.435 181.352ZM55.7679 194.797C56.0052 194.797 56.1891 194.733 56.3194 194.606C56.4498 194.476 56.5133 194.295 56.51 194.065H58.0945C58.0945 194.66 57.8805 195.148 57.4526 195.529C57.0281 195.91 56.4799 196.1 55.808 196.1C55.0191 196.1 54.3973 195.853 53.9427 195.358C53.4881 194.863 53.2607 194.178 53.2607 193.302V193.232C53.2607 192.684 53.361 192.201 53.5616 191.783C53.7655 191.362 54.058 191.039 54.4391 190.815C54.8202 190.588 55.2714 190.474 55.7929 190.474C56.4983 190.474 57.0582 190.67 57.4727 191.061C57.8872 191.452 58.0945 191.982 58.0945 192.65H56.51C56.51 192.37 56.4414 192.154 56.3044 192.004C56.1673 191.853 55.9835 191.778 55.7528 191.778C55.3149 191.778 55.0592 192.057 54.9856 192.615C54.9622 192.793 54.9505 193.037 54.9505 193.347C54.9505 193.892 55.0157 194.27 55.1461 194.481C55.2765 194.691 55.4837 194.797 55.7679 194.797ZM58.5959 193.237C58.5959 192.696 58.7012 192.214 58.9118 191.793C59.1224 191.369 59.4249 191.043 59.8194 190.815C60.2138 190.588 60.6768 190.474 61.2083 190.474C62.0206 190.474 62.6608 190.727 63.1288 191.231C63.5967 191.733 63.8307 192.416 63.8307 193.282V193.342C63.8307 194.188 63.5951 194.86 63.1237 195.358C62.6557 195.853 62.0206 196.1 61.2183 196.1C60.4461 196.1 59.826 195.87 59.358 195.408C58.8901 194.944 58.6377 194.315 58.6009 193.523L58.5959 193.237ZM60.2857 193.342C60.2857 193.844 60.3642 194.212 60.5214 194.446C60.6785 194.68 60.9108 194.797 61.2183 194.797C61.82 194.797 62.1276 194.334 62.1409 193.408V193.237C62.1409 192.264 61.8301 191.778 61.2083 191.778C60.6434 191.778 60.3375 192.198 60.2907 193.037L60.2857 193.342ZM66.1724 190.575L66.2276 191.211C66.612 190.72 67.1284 190.474 67.7769 190.474C68.4622 190.474 68.9252 190.747 69.1659 191.292C69.5336 190.747 70.0651 190.474 70.7604 190.474C71.8602 190.474 72.4251 191.14 72.4552 192.47V196H70.7604V192.575C70.7604 192.298 70.7136 192.096 70.62 191.969C70.5264 191.842 70.3559 191.778 70.1086 191.778C69.7743 191.778 69.5252 191.927 69.3614 192.224L69.3665 192.294V196H67.6716V192.585C67.6716 192.301 67.6265 192.096 67.5363 191.969C67.446 191.842 67.2739 191.778 67.0198 191.778C66.6955 191.778 66.4482 191.927 66.2777 192.224V196H64.5879V190.575H66.1724ZM78.4573 193.327C78.4573 194.17 78.2667 194.843 77.8856 195.348C77.5079 195.85 76.9965 196.1 76.3513 196.1C75.8532 196.1 75.4437 195.918 75.1228 195.554V198.086H73.433V190.575H75.0125L75.0626 191.076C75.3869 190.675 75.8131 190.474 76.3413 190.474C77.0098 190.474 77.5296 190.722 77.9007 191.216C78.2717 191.708 78.4573 192.385 78.4573 193.247V193.327ZM76.7675 193.222C76.7675 192.259 76.4867 191.778 75.9251 191.778C75.5239 191.778 75.2565 191.922 75.1228 192.209V194.345C75.2699 194.646 75.5407 194.797 75.9351 194.797C76.4733 194.797 76.7508 194.332 76.7675 193.403V193.222ZM78.9938 193.237C78.9938 192.696 79.0991 192.214 79.3097 191.793C79.5203 191.369 79.8228 191.043 80.2173 190.815C80.6117 190.588 81.0747 190.474 81.6062 190.474C82.4185 190.474 83.0587 190.727 83.5267 191.231C83.9947 191.733 84.2287 192.416 84.2287 193.282V193.342C84.2287 194.188 83.993 194.86 83.5216 195.358C83.0536 195.853 82.4185 196.1 81.6162 196.1C80.844 196.1 80.2239 195.87 79.756 195.408C79.288 194.944 79.0356 194.315 78.9988 193.523L78.9938 193.237ZM80.6836 193.342C80.6836 193.844 80.7621 194.212 80.9193 194.446C81.0764 194.68 81.3087 194.797 81.6162 194.797C82.2179 194.797 82.5255 194.334 82.5389 193.408V193.237C82.5389 192.264 82.228 191.778 81.6062 191.778C81.0413 191.778 80.7354 192.198 80.6886 193.037L80.6836 193.342ZM86.5252 190.575L86.5803 191.211C86.9547 190.72 87.4712 190.474 88.1297 190.474C88.6947 190.474 89.1159 190.643 89.3933 190.981C89.6741 191.318 89.8195 191.826 89.8295 192.505V196H88.1347V192.575C88.1347 192.301 88.0796 192.101 87.9693 191.974C87.859 191.843 87.6584 191.778 87.3676 191.778C87.0366 191.778 86.7909 191.908 86.6305 192.169V196H84.9407V190.575H86.5252ZM93.3947 196.1C92.5623 196.1 91.8887 195.853 91.3739 195.358C90.8591 194.86 90.6017 194.213 90.6017 193.418V193.277C90.6017 192.722 90.7037 192.233 90.9076 191.808C91.1149 191.384 91.4157 191.056 91.8102 190.825C92.2046 190.591 92.6726 190.474 93.2142 190.474C93.9763 190.474 94.578 190.712 95.0193 191.186C95.4605 191.658 95.6812 192.316 95.6812 193.162V193.819H92.3216C92.3818 194.123 92.5138 194.362 92.7178 194.536C92.9217 194.71 93.1857 194.797 93.51 194.797C94.0449 194.797 94.4627 194.609 94.7636 194.235L95.5358 195.148C95.3252 195.438 95.026 195.671 94.6382 195.845C94.2538 196.015 93.8393 196.1 93.3947 196.1ZM93.2041 191.778C92.7094 191.778 92.4152 192.106 92.3216 192.761H94.0265V192.63C94.0332 192.36 93.9646 192.151 93.8209 192.004C93.6771 191.853 93.4716 191.778 93.2041 191.778ZM97.9175 190.575L97.9727 191.211C98.3471 190.72 98.8635 190.474 99.5221 190.474C100.087 190.474 100.508 190.643 100.786 190.981C101.066 191.318 101.212 191.826 101.222 192.505V196H99.5271V192.575C99.5271 192.301 99.4719 192.101 99.3616 191.974C99.2513 191.843 99.0507 191.778 98.7599 191.778C98.429 191.778 98.1833 191.908 98.0228 192.169V196H96.333V190.575H97.9175ZM104.13 189.226V190.575H105.023V191.748H104.13V194.23C104.13 194.434 104.167 194.576 104.24 194.656C104.314 194.736 104.459 194.777 104.677 194.777C104.844 194.777 104.984 194.766 105.098 194.746V195.955C104.794 196.052 104.476 196.1 104.145 196.1C103.564 196.1 103.134 195.963 102.857 195.689C102.579 195.415 102.44 194.999 102.44 194.441V191.748H101.748V190.575H102.44V189.226H104.13ZM108.533 194.476C108.533 194.332 108.457 194.217 108.307 194.13C108.157 194.043 107.871 193.953 107.45 193.859C107.028 193.765 106.681 193.643 106.407 193.493C106.132 193.339 105.924 193.154 105.78 192.936C105.636 192.719 105.564 192.47 105.564 192.189C105.564 191.691 105.77 191.282 106.181 190.961C106.592 190.636 107.13 190.474 107.796 190.474C108.511 190.474 109.086 190.636 109.52 190.961C109.955 191.285 110.172 191.711 110.172 192.239H108.477C108.477 191.805 108.249 191.587 107.791 191.587C107.613 191.587 107.465 191.638 107.344 191.738C107.224 191.835 107.164 191.957 107.164 192.104C107.164 192.254 107.237 192.376 107.384 192.47C107.531 192.564 107.765 192.64 108.086 192.701C108.411 192.761 108.695 192.833 108.939 192.916C109.754 193.197 110.162 193.7 110.162 194.426C110.162 194.92 109.942 195.323 109.5 195.634C109.062 195.945 108.494 196.1 107.796 196.1C107.331 196.1 106.916 196.017 106.552 195.85C106.188 195.682 105.904 195.455 105.7 195.168C105.496 194.88 105.394 194.578 105.394 194.26H106.973C106.98 194.511 107.063 194.695 107.224 194.812C107.384 194.925 107.59 194.982 107.841 194.982C108.071 194.982 108.243 194.935 108.357 194.842C108.474 194.748 108.533 194.626 108.533 194.476ZM111.551 197.966L110.699 197.564L110.869 197.223C111.103 196.789 111.225 196.374 111.235 195.98V194.726H112.589L112.584 195.814C112.581 196.199 112.482 196.59 112.288 196.988C112.094 197.386 111.849 197.712 111.551 197.966ZM118.907 196.1C118.075 196.1 117.401 195.853 116.886 195.358C116.372 194.86 116.114 194.213 116.114 193.418V193.277C116.114 192.722 116.216 192.233 116.42 191.808C116.627 191.384 116.928 191.056 117.323 190.825C117.717 190.591 118.185 190.474 118.727 190.474C119.489 190.474 120.09 190.712 120.532 191.186C120.973 191.658 121.194 192.316 121.194 193.162V193.819H117.834C117.894 194.123 118.026 194.362 118.23 194.536C118.434 194.71 118.698 194.797 119.022 194.797C119.557 194.797 119.975 194.609 120.276 194.235L121.048 195.148C120.838 195.438 120.538 195.671 120.151 195.845C119.766 196.015 119.352 196.1 118.907 196.1ZM118.717 191.778C118.222 191.778 117.928 192.106 117.834 192.761H119.539V192.63C119.546 192.36 119.477 192.151 119.333 192.004C119.19 191.853 118.984 191.778 118.717 191.778ZM123.846 189.226V190.575H124.739V191.748H123.846V194.23C123.846 194.434 123.883 194.576 123.956 194.656C124.03 194.736 124.175 194.777 124.393 194.777C124.56 194.777 124.7 194.766 124.814 194.746V195.955C124.51 196.052 124.192 196.1 123.861 196.1C123.28 196.1 122.85 195.963 122.572 195.689C122.295 195.415 122.156 194.999 122.156 194.441V191.748H121.464V190.575H122.156V189.226H123.846ZM127.702 194.797C127.939 194.797 128.123 194.733 128.254 194.606C128.384 194.476 128.448 194.295 128.444 194.065H130.029C130.029 194.66 129.815 195.148 129.387 195.529C128.962 195.91 128.414 196.1 127.742 196.1C126.953 196.1 126.332 195.853 125.877 195.358C125.422 194.863 125.195 194.178 125.195 193.302V193.232C125.195 192.684 125.295 192.201 125.496 191.783C125.7 191.362 125.992 191.039 126.373 190.815C126.754 190.588 127.206 190.474 127.727 190.474C128.432 190.474 128.992 190.67 129.407 191.061C129.821 191.452 130.029 191.982 130.029 192.65H128.444C128.444 192.37 128.376 192.154 128.239 192.004C128.102 191.853 127.918 191.778 127.687 191.778C127.249 191.778 126.993 192.057 126.92 192.615C126.896 192.793 126.885 193.037 126.885 193.347C126.885 193.892 126.95 194.27 127.08 194.481C127.211 194.691 127.418 194.797 127.702 194.797ZM131.789 194.36C132.056 194.36 132.278 194.441 132.456 194.601C132.633 194.758 132.721 194.96 132.721 195.208C132.721 195.455 132.633 195.659 132.456 195.819C132.278 195.977 132.056 196.055 131.789 196.055C131.518 196.055 131.294 195.975 131.117 195.814C130.943 195.654 130.856 195.452 130.856 195.208C130.856 194.964 130.943 194.761 131.117 194.601C131.294 194.441 131.518 194.36 131.789 194.36Z" fill="white"/>
<defs>
<filter id="filter0_i" x="13.6914" y="13.6919" width="371.568" height="246.46" filterUnits="userSpaceOnUse" color-interpolation-filters="sRGB">
<feFlood flood-opacity="0" result="BackgroundImageFix"/>
<feBlend mode="normal" in="SourceGraphic" in2="BackgroundImageFix" result="shape"/>
<feColorMatrix in="SourceAlpha" type="matrix" values="0 0 0 0 0 0 0 0 0 0 0 0 0 0 0 0 0 0 127 0" result="hardAlpha"/>
<feOffset/>
<feGaussianBlur stdDeviation="2"/>
<feComposite in2="hardAlpha" operator="arithmetic" k2="-1" k3="1"/>
<feColorMatrix type="matrix" values="0 0 0 0 1 0 0 0 0 1 0 0 0 0 1 0 0 0 0.2 0"/>
<feBlend mode="normal" in2="shape" result="effect1_innerShadow"/>
</filter>
</defs>
</svg>
