<svg width="183" height="120" viewBox="0 0 183 120" fill="none" xmlns="http://www.w3.org/2000/svg">
<path d="M64.5911 64.1836H11.2753C10.709 64.1836 10.25 64.6426 10.25 65.2089C10.25 65.7752 10.709 66.2342 11.2753 66.2342H64.5911C65.1574 66.2342 65.6164 65.7752 65.6164 65.2089C65.6164 64.6426 65.1574 64.1836 64.5911 64.1836Z" fill="white" fill-opacity="0.3"/>
<path d="M38.9585 70.3354H11.2753C10.709 70.3354 10.25 70.7945 10.25 71.3608C10.25 71.927 10.709 72.386 11.2753 72.386H38.9585C39.5248 72.386 39.9838 71.927 39.9838 71.3608C39.9838 70.7945 39.5248 70.3354 38.9585 70.3354Z" fill="white" fill-opacity="0.3"/>
<path d="M49.2116 76.4873H11.2753C10.709 76.4873 10.25 76.9463 10.25 77.5126C10.25 78.0789 10.709 78.5379 11.2753 78.5379H49.2116C49.7779 78.5379 50.2369 78.0789 50.2369 77.5126C50.2369 76.9463 49.7779 76.4873 49.2116 76.4873Z" fill="white" fill-opacity="0.3"/>
<path d="M38.9585 82.6392H11.2753C10.709 82.6392 10.25 83.0982 10.25 83.6645C10.25 84.2307 10.709 84.6898 11.2753 84.6898H38.9585C39.5248 84.6898 39.9838 84.2307 39.9838 83.6645C39.9838 83.0982 39.5248 82.6392 38.9585 82.6392Z" fill="white" fill-opacity="0.3"/>
<path d="M50.7495 96.9932H12.3006C11.1681 96.9932 10.25 97.9113 10.25 99.0438V99.0438C10.25 100.176 11.1681 101.094 12.3006 101.094H50.7495C51.882 101.094 52.8001 100.176 52.8001 99.0438C52.8001 97.9113 51.882 96.9932 50.7495 96.9932Z" fill="white" fill-opacity="0.6"/>
<path d="M150.206 84.6895H117.396C116.83 84.6895 116.371 85.1485 116.371 85.7148C116.371 86.281 116.83 86.7401 117.396 86.7401H150.206C150.772 86.7401 151.231 86.281 151.231 85.7148C151.231 85.1485 150.772 84.6895 150.206 84.6895Z" fill="white" fill-opacity="0.3"/>
<path d="M134.827 90.8413H117.396C116.83 90.8413 116.371 91.3003 116.371 91.8666C116.371 92.4329 116.83 92.8919 117.396 92.8919H134.827C135.393 92.8919 135.852 92.4329 135.852 91.8666C135.852 91.3003 135.393 90.8413 134.827 90.8413Z" fill="white" fill-opacity="0.3"/>
<path d="M141.491 96.9932H118.422C117.289 96.9932 116.371 97.9112 116.371 99.0438V99.0438C116.371 100.176 117.289 101.094 118.422 101.094H141.491C142.624 101.094 143.542 100.176 143.542 99.0438V99.0438C143.542 97.9112 142.624 96.9932 141.491 96.9932Z" fill="white" fill-opacity="0.6"/>
<g clip-path="url(#clip0)">
<path d="M14.1699 28.5869H12.7695V31.71H11.0117V23.1787H14.1816C15.1895 23.1787 15.9668 23.4033 16.5137 23.8525C17.0605 24.3018 17.334 24.9365 17.334 25.7568C17.334 26.3389 17.207 26.8252 16.9531 27.2158C16.7031 27.6025 16.3223 27.9111 15.8105 28.1416L17.6562 31.6279V31.71H15.7695L14.1699 28.5869ZM12.7695 27.1631H14.1875C14.6289 27.1631 14.9707 27.0518 15.2129 26.8291C15.4551 26.6025 15.5762 26.292 15.5762 25.8975C15.5762 25.4951 15.4609 25.1787 15.2305 24.9482C15.0039 24.7178 14.6543 24.6025 14.1816 24.6025H12.7695V27.1631ZM23.8086 28.0127H20.4336V30.2979H24.3945V31.71H18.6758V23.1787H24.3828V24.6025H20.4336V26.6357H23.8086V28.0127ZM30.2422 29.9521H27.1602L26.5742 31.71H24.7051L27.8809 23.1787H29.5098L32.7031 31.71H30.834L30.2422 29.9521ZM27.6348 28.5283H29.7676L28.6953 25.335L27.6348 28.5283ZM40.0684 28.8682C40.002 29.7861 39.6621 30.5088 39.0488 31.0361C38.4395 31.5635 37.6348 31.8271 36.6348 31.8271C35.541 31.8271 34.6797 31.46 34.0508 30.7256C33.4258 29.9873 33.1133 28.9756 33.1133 27.6904V27.1689C33.1133 26.3486 33.2578 25.626 33.5469 25.001C33.8359 24.376 34.248 23.8975 34.7832 23.5654C35.3223 23.2295 35.9473 23.0615 36.6582 23.0615C37.6426 23.0615 38.4355 23.3252 39.0371 23.8525C39.6387 24.3799 39.9863 25.1201 40.0801 26.0732H38.3223C38.2793 25.5225 38.125 25.124 37.8594 24.8779C37.5977 24.6279 37.1973 24.5029 36.6582 24.5029C36.0723 24.5029 35.6328 24.7139 35.3398 25.1357C35.0508 25.5537 34.9023 26.2041 34.8945 27.0869V27.7314C34.8945 28.6533 35.0332 29.3271 35.3105 29.7529C35.5918 30.1787 36.0332 30.3916 36.6348 30.3916C37.1777 30.3916 37.582 30.2686 37.8477 30.0225C38.1172 29.7725 38.2715 29.3877 38.3105 28.8682H40.0684ZM47.4688 24.6025H44.8555V31.71H43.0977V24.6025H40.5195V23.1787H47.4688V24.6025ZM58.0508 31.71H56.293L52.8711 26.0967V31.71H51.1133V23.1787H52.8711L56.2988 28.8037V23.1787H58.0508V31.71ZM64.5078 29.9521H61.4258L60.8398 31.71H58.9707L62.1465 23.1787H63.7754L66.9688 31.71H65.0996L64.5078 29.9521ZM61.9004 28.5283H64.0332L62.9609 25.335L61.9004 28.5283ZM73.4844 24.6025H70.8711V31.71H69.1133V24.6025H66.5352V23.1787H73.4844V24.6025ZM76.3613 31.71H74.6035V23.1787H76.3613V31.71ZM81.1484 29.5947L83.082 23.1787H85.0391L82.0684 31.71H80.2344L77.2754 23.1787H79.2266L81.1484 29.5947ZM90.9805 28.0127H87.6055V30.2979H91.5664V31.71H85.8477V23.1787H91.5547V24.6025H87.6055V26.6357H90.9805V28.0127Z" fill="white"/>
</g>
<circle cx="122.28" cy="25.1799" r="14.28" fill="black"/>
<path d="M125.197 18.7568C125.948 18.0508 126.456 17.0707 126.317 16.0933C125.235 16.1272 123.923 16.6509 123.146 17.3569C122.45 17.9818 121.84 18.9806 122.003 19.9388C123.211 20.0105 124.444 19.4616 125.197 18.7568ZM127.502 25.5067C127.479 23.3155 129.478 22.263 129.567 22.2122C128.443 20.7242 126.692 20.5206 126.069 20.4976C124.578 20.3603 123.162 21.29 122.405 21.29C121.652 21.29 120.486 20.5157 119.249 20.5365C117.624 20.56 116.127 21.3907 115.292 22.7074C113.604 25.3562 114.859 29.28 116.504 31.4285C117.309 32.4804 118.266 33.6603 119.524 33.6176C120.737 33.5749 121.195 32.9089 122.66 32.9089C124.125 32.9089 124.535 33.6176 125.817 33.5963C127.121 33.5749 127.946 32.5242 128.744 31.4691C129.666 30.2492 130.047 29.0682 130.068 29.0086C130.04 28.9944 127.529 28.127 127.502 25.5067Z" fill="#CCD0D2"/>
<path fill-rule="evenodd" clip-rule="evenodd" d="M159.7 39.4599C167.587 39.4599 173.98 33.0665 173.98 25.1799C173.98 17.2933 167.587 10.8999 159.7 10.8999C151.813 10.8999 145.42 17.2933 145.42 25.1799C145.42 33.0665 151.813 39.4599 159.7 39.4599Z" fill="black"/>
<g clip-path="url(#clip1)">
<path d="M153.897 22.3516C153.62 22.3516 153.385 22.4481 153.192 22.6411C152.999 22.8342 152.902 23.0659 152.902 23.3362V27.4876C152.902 27.7648 152.999 27.9994 153.192 28.1925C153.385 28.3855 153.62 28.4821 153.897 28.4821C154.173 28.4821 154.407 28.3856 154.597 28.1925C154.786 27.9994 154.882 27.7648 154.882 27.4876V23.3362C154.882 23.0658 154.785 22.8342 154.592 22.6411C154.399 22.4481 154.167 22.3516 153.897 22.3516Z" fill="#31DC71"/>
<path d="M161.89 18.6245L162.575 17.3599C162.62 17.2762 162.604 17.212 162.527 17.1669C162.443 17.128 162.379 17.1477 162.334 17.2247L161.639 18.4993C161.027 18.2289 160.381 18.0934 159.698 18.0934C159.016 18.0934 158.369 18.2289 157.758 18.4993L157.063 17.2247C157.018 17.1477 156.953 17.1281 156.87 17.1669C156.792 17.2122 156.776 17.2762 156.822 17.3599L157.507 18.6245C156.812 18.9789 156.258 19.4726 155.846 20.1066C155.435 20.7409 155.229 21.434 155.229 22.1872H164.159C164.159 21.4342 163.953 20.741 163.541 20.1066C163.129 19.4726 162.578 18.9789 161.89 18.6245ZM157.927 20.4637C157.853 20.538 157.764 20.575 157.661 20.575C157.558 20.575 157.471 20.538 157.401 20.4637C157.33 20.3898 157.294 20.3016 157.294 20.1983C157.294 20.0954 157.33 20.007 157.401 19.9329C157.471 19.859 157.558 19.822 157.661 19.822C157.764 19.822 157.853 19.859 157.927 19.9329C158.001 20.0072 158.038 20.0954 158.038 20.1983C158.038 20.3014 158.001 20.3898 157.927 20.4637ZM161.996 20.4637C161.925 20.538 161.838 20.575 161.735 20.575C161.632 20.575 161.544 20.538 161.47 20.4637C161.396 20.3898 161.359 20.3016 161.359 20.1983C161.359 20.0954 161.396 20.007 161.47 19.9329C161.544 19.859 161.632 19.822 161.735 19.822C161.838 19.822 161.925 19.859 161.996 19.9329C162.067 20.0072 162.102 20.0954 162.102 20.1983C162.102 20.3014 162.067 20.3898 161.996 20.4637Z" fill="#31DC71"/>
<path d="M155.268 28.9646C155.268 29.2609 155.37 29.5118 155.576 29.7177C155.782 29.9235 156.033 30.0265 156.329 30.0265H157.044L157.054 32.2183C157.054 32.495 157.15 32.7301 157.343 32.9231C157.536 33.1162 157.768 33.2127 158.038 33.2127C158.315 33.2127 158.55 33.1162 158.743 32.9231C158.936 32.7301 159.033 32.4951 159.033 32.2183V30.0267H160.365V32.2183C160.365 32.495 160.461 32.7301 160.654 32.9231C160.848 33.1162 161.082 33.2127 161.359 33.2127C161.636 33.2127 161.871 33.1162 162.064 32.9231C162.257 32.7301 162.353 32.4951 162.353 32.2183V30.0267H163.078C163.367 30.0267 163.615 29.9237 163.821 29.7178C164.027 29.512 164.13 29.2611 164.13 28.9648V22.5347H155.268V28.9646Z" fill="#31DC71"/>
<path d="M165.502 22.3516C165.232 22.3516 165 22.4467 164.807 22.6363C164.614 22.8264 164.518 23.0598 164.518 23.3362V27.4876C164.518 27.7648 164.614 27.9994 164.807 28.1925C165 28.3856 165.232 28.4821 165.502 28.4821C165.779 28.4821 166.014 28.3856 166.207 28.1925C166.4 27.9994 166.497 27.7648 166.497 27.4876V23.3362C166.497 23.0598 166.4 22.8264 166.207 22.6363C166.014 22.4467 165.779 22.3516 165.502 22.3516Z" fill="#31DC71"/>
</g>
<defs>
<clipPath id="clip0">
<rect width="82" height="17" fill="white" transform="translate(10.25 18.71)"/>
</clipPath>
<clipPath id="clip1">
<rect width="16.065" height="16.065" fill="white" transform="translate(151.666 17.147)"/>
</clipPath>
</defs>
</svg>
