<svg width="183" height="120" viewBox="0 0 183 120" fill="none" xmlns="http://www.w3.org/2000/svg">
<path d="M64.5911 64.1836H11.2753C10.709 64.1836 10.25 64.6426 10.25 65.2089C10.25 65.7752 10.709 66.2342 11.2753 66.2342H64.5911C65.1574 66.2342 65.6164 65.7752 65.6164 65.2089C65.6164 64.6426 65.1574 64.1836 64.5911 64.1836Z" fill="white" fill-opacity="0.3"/>
<path d="M38.9585 70.3354H11.2753C10.709 70.3354 10.25 70.7945 10.25 71.3608C10.25 71.927 10.709 72.386 11.2753 72.386H38.9585C39.5248 72.386 39.9838 71.927 39.9838 71.3608C39.9838 70.7945 39.5248 70.3354 38.9585 70.3354Z" fill="white" fill-opacity="0.3"/>
<path d="M49.2116 76.4873H11.2753C10.709 76.4873 10.25 76.9463 10.25 77.5126C10.25 78.0789 10.709 78.5379 11.2753 78.5379H49.2116C49.7779 78.5379 50.2369 78.0789 50.2369 77.5126C50.2369 76.9463 49.7779 76.4873 49.2116 76.4873Z" fill="white" fill-opacity="0.3"/>
<path d="M38.9585 82.6392H11.2753C10.709 82.6392 10.25 83.0982 10.25 83.6645C10.25 84.2307 10.709 84.6898 11.2753 84.6898H38.9585C39.5248 84.6898 39.9838 84.2307 39.9838 83.6645C39.9838 83.0982 39.5248 82.6392 38.9585 82.6392Z" fill="white" fill-opacity="0.3"/>
<path d="M50.7495 96.9932H12.3006C11.1681 96.9932 10.25 97.9113 10.25 99.0438V99.0438C10.25 100.176 11.1681 101.094 12.3006 101.094H50.7495C51.882 101.094 52.8001 100.176 52.8001 99.0438C52.8001 97.9113 51.882 96.9932 50.7495 96.9932Z" fill="white" fill-opacity="0.6"/>
<path d="M150.206 84.6895H117.396C116.83 84.6895 116.371 85.1485 116.371 85.7148C116.371 86.281 116.83 86.7401 117.396 86.7401H150.206C150.772 86.7401 151.231 86.281 151.231 85.7148C151.231 85.1485 150.772 84.6895 150.206 84.6895Z" fill="white" fill-opacity="0.3"/>
<path d="M134.827 90.8413H117.396C116.83 90.8413 116.371 91.3003 116.371 91.8666C116.371 92.4329 116.83 92.8919 117.396 92.8919H134.827C135.393 92.8919 135.852 92.4329 135.852 91.8666C135.852 91.3003 135.393 90.8413 134.827 90.8413Z" fill="white" fill-opacity="0.3"/>
<path d="M141.491 96.9932H118.422C117.289 96.9932 116.371 97.9112 116.371 99.0438V99.0438C116.371 100.176 117.289 101.094 118.422 101.094H141.491C142.624 101.094 143.542 100.176 143.542 99.0438V99.0438C143.542 97.9112 142.624 96.9932 141.491 96.9932Z" fill="white" fill-opacity="0.6"/>
<path d="M15.2695 24.0869H13.8691V27.21H12.1113V18.6787H15.2812C16.2891 18.6787 17.0664 18.9033 17.6133 19.3525C18.1602 19.8018 18.4336 20.4365 18.4336 21.2568C18.4336 21.8389 18.3066 22.3252 18.0527 22.7158C17.8027 23.1025 17.4219 23.4111 16.9102 23.6416L18.7559 27.1279V27.21H16.8691L15.2695 24.0869ZM13.8691 22.6631H15.2871C15.7285 22.6631 16.0703 22.5518 16.3125 22.3291C16.5547 22.1025 16.6758 21.792 16.6758 21.3975C16.6758 20.9951 16.5605 20.6787 16.3301 20.4482C16.1035 20.2178 15.7539 20.1025 15.2812 20.1025H13.8691V22.6631ZM24.9082 23.5127H21.5332V25.7979H25.4941V27.21H19.7754V18.6787H25.4824V20.1025H21.5332V22.1357H24.9082V23.5127ZM31.3418 25.4521H28.2598L27.6738 27.21H25.8047L28.9805 18.6787H30.6094L33.8027 27.21H31.9336L31.3418 25.4521ZM28.7344 24.0283H30.8672L29.7949 20.835L28.7344 24.0283ZM41.168 24.3682C41.1016 25.2861 40.7617 26.0088 40.1484 26.5361C39.5391 27.0635 38.7344 27.3271 37.7344 27.3271C36.6406 27.3271 35.7793 26.96 35.1504 26.2256C34.5254 25.4873 34.2129 24.4756 34.2129 23.1904V22.6689C34.2129 21.8486 34.3574 21.126 34.6465 20.501C34.9355 19.876 35.3477 19.3975 35.8828 19.0654C36.4219 18.7295 37.0469 18.5615 37.7578 18.5615C38.7422 18.5615 39.5352 18.8252 40.1367 19.3525C40.7383 19.8799 41.0859 20.6201 41.1797 21.5732H39.4219C39.3789 21.0225 39.2246 20.624 38.959 20.3779C38.6973 20.1279 38.2969 20.0029 37.7578 20.0029C37.1719 20.0029 36.7324 20.2139 36.4395 20.6357C36.1504 21.0537 36.002 21.7041 35.9941 22.5869V23.2314C35.9941 24.1533 36.1328 24.8271 36.4102 25.2529C36.6914 25.6787 37.1328 25.8916 37.7344 25.8916C38.2773 25.8916 38.6816 25.7686 38.9473 25.5225C39.2168 25.2725 39.3711 24.8877 39.4102 24.3682H41.168ZM48.5684 20.1025H45.9551V27.21H44.1973V20.1025H41.6191V18.6787H48.5684V20.1025ZM59.1504 27.21H57.3926L53.9707 21.5967V27.21H52.2129V18.6787H53.9707L57.3984 24.3037V18.6787H59.1504V27.21ZM65.6074 25.4521H62.5254L61.9395 27.21H60.0703L63.2461 18.6787H64.875L68.0684 27.21H66.1992L65.6074 25.4521ZM63 24.0283H65.1328L64.0605 20.835L63 24.0283ZM74.584 20.1025H71.9707V27.21H70.2129V20.1025H67.6348V18.6787H74.584V20.1025ZM77.4609 27.21H75.7031V18.6787H77.4609V27.21ZM82.248 25.0947L84.1816 18.6787H86.1387L83.168 27.21H81.334L78.375 18.6787H80.3262L82.248 25.0947ZM92.0801 23.5127H88.7051V25.7979H92.666V27.21H86.9473V18.6787H92.6543V20.1025H88.7051V22.1357H92.0801V23.5127Z" fill="white"/>
<path d="M12.0723 45.21V38.1006H14.1719C14.8001 38.1006 15.3568 38.2406 15.8418 38.5205C16.3301 38.8005 16.7077 39.1976 16.9746 39.7119C17.2415 40.2262 17.375 40.8154 17.375 41.4795V41.8359C17.375 42.5098 17.2399 43.1022 16.9697 43.6133C16.7028 44.1243 16.3203 44.5182 15.8223 44.7949C15.3275 45.0716 14.7594 45.21 14.1182 45.21H12.0723ZM13.3076 39.0967V44.2236H14.1133C14.7611 44.2236 15.2575 44.0218 15.6025 43.6182C15.9508 43.2113 16.1283 42.6286 16.1348 41.8701V41.4746C16.1348 40.7031 15.9671 40.1139 15.6318 39.707C15.2965 39.3001 14.8099 39.0967 14.1719 39.0967H13.3076ZM20.8174 45.3076C20.0654 45.3076 19.4551 45.0716 18.9863 44.5996C18.5208 44.1243 18.2881 43.4928 18.2881 42.7051V42.5586C18.2881 42.0312 18.389 41.5609 18.5908 41.1475C18.7959 40.7308 19.0824 40.4069 19.4502 40.1758C19.818 39.9447 20.2282 39.8291 20.6807 39.8291C21.4001 39.8291 21.9551 40.0586 22.3457 40.5176C22.7396 40.9766 22.9365 41.626 22.9365 42.4658V42.9443H19.4844C19.5202 43.3805 19.665 43.7256 19.9189 43.9795C20.1761 44.2334 20.4984 44.3604 20.8857 44.3604C21.4294 44.3604 21.8721 44.1406 22.2139 43.7012L22.8535 44.3115C22.6419 44.6273 22.3587 44.873 22.0039 45.0488C21.6523 45.2214 21.2568 45.3076 20.8174 45.3076ZM20.6758 40.7812C20.3503 40.7812 20.0866 40.8952 19.8848 41.123C19.6862 41.3509 19.5592 41.6683 19.5039 42.0752H21.7646V41.9873C21.7386 41.5902 21.6328 41.2907 21.4473 41.0889C21.2617 40.8838 21.0046 40.7812 20.6758 40.7812ZM26.8232 43.7744C26.8232 43.5628 26.7354 43.4017 26.5596 43.291C26.387 43.1803 26.099 43.0827 25.6953 42.998C25.2917 42.9134 24.9548 42.806 24.6846 42.6758C24.0921 42.3893 23.7959 41.9743 23.7959 41.4307C23.7959 40.9749 23.988 40.5941 24.3721 40.2881C24.7562 39.9821 25.2445 39.8291 25.8369 39.8291C26.4684 39.8291 26.9779 39.9854 27.3652 40.2979C27.7559 40.6104 27.9512 41.0156 27.9512 41.5137H26.7646C26.7646 41.2858 26.68 41.097 26.5107 40.9473C26.3415 40.7943 26.1169 40.7178 25.8369 40.7178C25.5765 40.7178 25.3633 40.778 25.1973 40.8984C25.0345 41.0189 24.9531 41.18 24.9531 41.3818C24.9531 41.5641 25.0296 41.7057 25.1826 41.8066C25.3356 41.9076 25.6449 42.0101 26.1104 42.1143C26.5758 42.2152 26.9404 42.3372 27.2041 42.4805C27.471 42.6204 27.668 42.7897 27.7949 42.9883C27.9251 43.1868 27.9902 43.4277 27.9902 43.7109C27.9902 44.1862 27.7933 44.5719 27.3994 44.8682C27.0055 45.1611 26.4896 45.3076 25.8516 45.3076C25.4186 45.3076 25.0329 45.2295 24.6943 45.0732C24.3558 44.917 24.0921 44.7021 23.9033 44.4287C23.7145 44.1553 23.6201 43.8607 23.6201 43.5449H24.7725C24.7887 43.8249 24.8945 44.0413 25.0898 44.1943C25.2852 44.3441 25.5439 44.4189 25.8662 44.4189C26.1787 44.4189 26.4163 44.3604 26.5791 44.2432C26.7419 44.1227 26.8232 43.9665 26.8232 43.7744ZM32.1846 45.21C32.1325 45.109 32.0869 44.9447 32.0479 44.7168C31.6702 45.1107 31.208 45.3076 30.6611 45.3076C30.1305 45.3076 29.6976 45.1562 29.3623 44.8535C29.027 44.5508 28.8594 44.1764 28.8594 43.7305C28.8594 43.1673 29.0677 42.736 29.4844 42.4365C29.9043 42.1338 30.5033 41.9824 31.2812 41.9824H32.0088V41.6357C32.0088 41.3623 31.9323 41.1442 31.7793 40.9814C31.6263 40.8154 31.3936 40.7324 31.0811 40.7324C30.8109 40.7324 30.5895 40.8008 30.417 40.9375C30.2445 41.071 30.1582 41.2419 30.1582 41.4502H28.9717C28.9717 41.1605 29.0677 40.8903 29.2598 40.6396C29.4518 40.3857 29.7122 40.1872 30.041 40.0439C30.373 39.9007 30.7425 39.8291 31.1494 39.8291C31.7679 39.8291 32.2611 39.9854 32.6289 40.2979C32.9967 40.6071 33.1855 41.0433 33.1953 41.6064V43.9893C33.1953 44.4645 33.262 44.8438 33.3955 45.127V45.21H32.1846ZM30.8809 44.3555C31.1152 44.3555 31.335 44.2985 31.54 44.1846C31.7484 44.0706 31.9046 43.9176 32.0088 43.7256V42.7295H31.3691C30.9297 42.7295 30.5993 42.806 30.3779 42.959C30.1566 43.112 30.0459 43.3285 30.0459 43.6084C30.0459 43.8363 30.1208 44.0186 30.2705 44.1553C30.4235 44.2887 30.627 44.3555 30.8809 44.3555ZM37.2041 41.0107C37.0479 40.9847 36.8867 40.9717 36.7207 40.9717C36.1771 40.9717 35.8109 41.18 35.6221 41.5967V45.21H34.4355V39.9268H35.5684L35.5977 40.5176C35.8841 40.0586 36.2812 39.8291 36.7891 39.8291C36.9583 39.8291 37.0983 39.8519 37.209 39.8975L37.2041 41.0107ZM40.7197 41.0107C40.5635 40.9847 40.4023 40.9717 40.2363 40.9717C39.6927 40.9717 39.3265 41.18 39.1377 41.5967V45.21H37.9512V39.9268H39.084L39.1133 40.5176C39.3997 40.0586 39.7969 39.8291 40.3047 39.8291C40.474 39.8291 40.6139 39.8519 40.7246 39.8975L40.7197 41.0107ZM41.0713 42.5195C41.0713 42.002 41.1738 41.5365 41.3789 41.123C41.584 40.7064 41.8721 40.3874 42.2432 40.166C42.6143 39.9414 43.0407 39.8291 43.5225 39.8291C44.2354 39.8291 44.8132 40.0586 45.2559 40.5176C45.7018 40.9766 45.9427 41.5853 45.9785 42.3438L45.9834 42.6221C45.9834 43.1429 45.8825 43.6084 45.6807 44.0186C45.4821 44.4287 45.1956 44.7461 44.8213 44.9707C44.4502 45.1953 44.0205 45.3076 43.5322 45.3076C42.7868 45.3076 42.1895 45.0602 41.7402 44.5654C41.2943 44.0674 41.0713 43.4049 41.0713 42.5781V42.5195ZM42.2578 42.6221C42.2578 43.1657 42.3701 43.5921 42.5947 43.9014C42.8193 44.2074 43.1318 44.3604 43.5322 44.3604C43.9326 44.3604 44.2435 44.2041 44.4648 43.8916C44.6895 43.5791 44.8018 43.1217 44.8018 42.5195C44.8018 41.9857 44.6862 41.5625 44.4551 41.25C44.2272 40.9375 43.9163 40.7812 43.5225 40.7812C43.1351 40.7812 42.8275 40.9359 42.5996 41.2451C42.3717 41.5511 42.2578 42.0101 42.2578 42.6221ZM48.249 45.21H47.0625V37.71H48.249V45.21ZM50.8076 45.21H49.6211V37.71H50.8076V45.21ZM51.8818 42.5195C51.8818 42.002 51.9844 41.5365 52.1895 41.123C52.3945 40.7064 52.6826 40.3874 53.0537 40.166C53.4248 39.9414 53.8512 39.8291 54.333 39.8291C55.0459 39.8291 55.6237 40.0586 56.0664 40.5176C56.5124 40.9766 56.7533 41.5853 56.7891 42.3438L56.7939 42.6221C56.7939 43.1429 56.693 43.6084 56.4912 44.0186C56.2926 44.4287 56.0062 44.7461 55.6318 44.9707C55.2607 45.1953 54.8311 45.3076 54.3428 45.3076C53.5973 45.3076 53 45.0602 52.5508 44.5654C52.1048 44.0674 51.8818 43.4049 51.8818 42.5781V42.5195ZM53.0684 42.6221C53.0684 43.1657 53.1807 43.5921 53.4053 43.9014C53.6299 44.2074 53.9424 44.3604 54.3428 44.3604C54.7432 44.3604 55.054 44.2041 55.2754 43.8916C55.5 43.5791 55.6123 43.1217 55.6123 42.5195C55.6123 41.9857 55.4967 41.5625 55.2656 41.25C55.0378 40.9375 54.7269 40.7812 54.333 40.7812C53.9456 40.7812 53.638 40.9359 53.4102 41.2451C53.1823 41.5511 53.0684 42.0101 53.0684 42.6221ZM61.4033 39.9268L61.4375 40.4785C61.8086 40.0456 62.3164 39.8291 62.9609 39.8291C63.6673 39.8291 64.1507 40.0993 64.4111 40.6396C64.7952 40.0993 65.3356 39.8291 66.0322 39.8291C66.6149 39.8291 67.0479 39.9902 67.3311 40.3125C67.6175 40.6348 67.764 41.11 67.7705 41.7383V45.21H66.584V41.7725C66.584 41.4372 66.5107 41.1914 66.3643 41.0352C66.2178 40.8789 65.9753 40.8008 65.6367 40.8008C65.3665 40.8008 65.1452 40.874 64.9727 41.0205C64.8034 41.1637 64.6846 41.3525 64.6162 41.5869L64.6211 45.21H63.4346V41.7334C63.4183 41.1117 63.1009 40.8008 62.4824 40.8008C62.0072 40.8008 61.6702 40.9945 61.4717 41.3818V45.21H60.2852V39.9268H61.4033ZM68.7666 42.5195C68.7666 42.002 68.8691 41.5365 69.0742 41.123C69.2793 40.7064 69.5674 40.3874 69.9385 40.166C70.3096 39.9414 70.736 39.8291 71.2178 39.8291C71.9307 39.8291 72.5085 40.0586 72.9512 40.5176C73.3971 40.9766 73.638 41.5853 73.6738 42.3438L73.6787 42.6221C73.6787 43.1429 73.5778 43.6084 73.376 44.0186C73.1774 44.4287 72.891 44.7461 72.5166 44.9707C72.1455 45.1953 71.7158 45.3076 71.2275 45.3076C70.4821 45.3076 69.8848 45.0602 69.4355 44.5654C68.9896 44.0674 68.7666 43.4049 68.7666 42.5781V42.5195ZM69.9531 42.6221C69.9531 43.1657 70.0654 43.5921 70.29 43.9014C70.5146 44.2074 70.8271 44.3604 71.2275 44.3604C71.6279 44.3604 71.9388 44.2041 72.1602 43.8916C72.3848 43.5791 72.4971 43.1217 72.4971 42.5195C72.4971 41.9857 72.3815 41.5625 72.1504 41.25C71.9225 40.9375 71.6117 40.7812 71.2178 40.7812C70.8304 40.7812 70.5228 40.9359 70.2949 41.2451C70.0671 41.5511 69.9531 42.0101 69.9531 42.6221ZM76.4668 43.7061L77.585 39.9268H78.8105L76.9795 45.21H75.9492L74.1035 39.9268H75.334L76.4668 43.7061ZM80.8174 45.21H79.6309V39.9268H80.8174V45.21ZM79.5576 38.5547C79.5576 38.3724 79.6146 38.221 79.7285 38.1006C79.8457 37.9801 80.0117 37.9199 80.2266 37.9199C80.4414 37.9199 80.6074 37.9801 80.7246 38.1006C80.8418 38.221 80.9004 38.3724 80.9004 38.5547C80.9004 38.7337 80.8418 38.8835 80.7246 39.0039C80.6074 39.1211 80.4414 39.1797 80.2266 39.1797C80.0117 39.1797 79.8457 39.1211 79.7285 39.0039C79.6146 38.8835 79.5576 38.7337 79.5576 38.5547ZM83.376 45.21H82.1895V37.71H83.376V45.21Z" fill="white" fill-opacity="0.6"/>
<circle cx="122.28" cy="25.1799" r="14.28" fill="black"/>
<path d="M125.197 18.7568C125.948 18.0508 126.456 17.0707 126.317 16.0933C125.235 16.1272 123.923 16.6509 123.146 17.3569C122.45 17.9818 121.84 18.9806 122.003 19.9388C123.211 20.0105 124.444 19.4616 125.197 18.7568ZM127.502 25.5067C127.479 23.3155 129.478 22.263 129.567 22.2122C128.443 20.7242 126.692 20.5206 126.069 20.4976C124.578 20.3603 123.162 21.29 122.405 21.29C121.652 21.29 120.486 20.5157 119.249 20.5365C117.624 20.56 116.127 21.3907 115.292 22.7074C113.604 25.3562 114.859 29.28 116.504 31.4285C117.309 32.4804 118.266 33.6603 119.524 33.6176C120.737 33.5749 121.195 32.9089 122.66 32.9089C124.125 32.9089 124.535 33.6176 125.817 33.5963C127.121 33.5749 127.946 32.5242 128.744 31.4691C129.666 30.2492 130.047 29.0682 130.068 29.0086C130.04 28.9944 127.529 28.127 127.502 25.5067Z" fill="#CCD0D2"/>
<path fill-rule="evenodd" clip-rule="evenodd" d="M159.7 39.4599C167.587 39.4599 173.98 33.0665 173.98 25.1799C173.98 17.2933 167.587 10.8999 159.7 10.8999C151.813 10.8999 145.42 17.2933 145.42 25.1799C145.42 33.0665 151.813 39.4599 159.7 39.4599Z" fill="black"/>
<g clip-path="url(#clip0)">
<path d="M153.897 22.3516C153.62 22.3516 153.385 22.4481 153.192 22.6411C152.999 22.8342 152.902 23.0659 152.902 23.3362V27.4876C152.902 27.7648 152.999 27.9994 153.192 28.1925C153.385 28.3855 153.62 28.4821 153.897 28.4821C154.173 28.4821 154.407 28.3856 154.597 28.1925C154.786 27.9994 154.882 27.7648 154.882 27.4876V23.3362C154.882 23.0658 154.785 22.8342 154.592 22.6411C154.399 22.4481 154.167 22.3516 153.897 22.3516Z" fill="#31DC71"/>
<path d="M161.89 18.6245L162.575 17.3599C162.62 17.2762 162.604 17.212 162.527 17.1669C162.443 17.128 162.379 17.1477 162.334 17.2247L161.639 18.4993C161.027 18.2289 160.381 18.0934 159.698 18.0934C159.016 18.0934 158.369 18.2289 157.758 18.4993L157.063 17.2247C157.018 17.1477 156.953 17.1281 156.87 17.1669C156.792 17.2122 156.776 17.2762 156.822 17.3599L157.507 18.6245C156.812 18.9789 156.258 19.4726 155.846 20.1066C155.435 20.7409 155.229 21.434 155.229 22.1872H164.159C164.159 21.4342 163.953 20.741 163.541 20.1066C163.129 19.4726 162.578 18.9789 161.89 18.6245ZM157.927 20.4637C157.853 20.538 157.764 20.575 157.661 20.575C157.558 20.575 157.471 20.538 157.401 20.4637C157.33 20.3898 157.294 20.3016 157.294 20.1983C157.294 20.0954 157.33 20.007 157.401 19.9329C157.471 19.859 157.558 19.822 157.661 19.822C157.764 19.822 157.853 19.859 157.927 19.9329C158.001 20.0072 158.038 20.0954 158.038 20.1983C158.038 20.3014 158.001 20.3898 157.927 20.4637ZM161.996 20.4637C161.925 20.538 161.838 20.575 161.735 20.575C161.632 20.575 161.544 20.538 161.47 20.4637C161.396 20.3898 161.359 20.3016 161.359 20.1983C161.359 20.0954 161.396 20.007 161.47 19.9329C161.544 19.859 161.632 19.822 161.735 19.822C161.838 19.822 161.925 19.859 161.996 19.9329C162.067 20.0072 162.102 20.0954 162.102 20.1983C162.102 20.3014 162.067 20.3898 161.996 20.4637Z" fill="#31DC71"/>
<path d="M155.268 28.9646C155.268 29.2609 155.37 29.5118 155.576 29.7177C155.782 29.9235 156.033 30.0265 156.329 30.0265H157.044L157.054 32.2183C157.054 32.495 157.15 32.7301 157.343 32.9231C157.536 33.1162 157.768 33.2127 158.038 33.2127C158.315 33.2127 158.55 33.1162 158.743 32.9231C158.936 32.7301 159.033 32.4951 159.033 32.2183V30.0267H160.365V32.2183C160.365 32.495 160.461 32.7301 160.654 32.9231C160.848 33.1162 161.082 33.2127 161.359 33.2127C161.636 33.2127 161.871 33.1162 162.064 32.9231C162.257 32.7301 162.353 32.4951 162.353 32.2183V30.0267H163.078C163.367 30.0267 163.615 29.9237 163.821 29.7178C164.027 29.512 164.13 29.2611 164.13 28.9648V22.5347H155.268V28.9646Z" fill="#31DC71"/>
<path d="M165.502 22.3516C165.232 22.3516 165 22.4467 164.807 22.6363C164.614 22.8264 164.518 23.0598 164.518 23.3362V27.4876C164.518 27.7648 164.614 27.9994 164.807 28.1925C165 28.3856 165.232 28.4821 165.502 28.4821C165.779 28.4821 166.014 28.3856 166.207 28.1925C166.4 27.9994 166.497 27.7648 166.497 27.4876V23.3362C166.497 23.0598 166.4 22.8264 166.207 22.6363C166.014 22.4467 165.779 22.3516 165.502 22.3516Z" fill="#31DC71"/>
</g>
<defs>
<clipPath id="clip0">
<rect width="16.065" height="16.065" fill="white" transform="translate(151.666 17.147)"/>
</clipPath>
</defs>
</svg>
