<svg width="183" height="120" viewBox="0 0 183 120" fill="none" xmlns="http://www.w3.org/2000/svg">
<path d="M68.8082 64.439H12.016C11.4128 64.439 10.9238 64.9279 10.9238 65.5311C10.9238 66.1343 11.4128 66.6233 12.016 66.6233H68.8082C69.4114 66.6233 69.9003 66.1343 69.9003 65.5311C69.9003 64.9279 69.4114 64.439 68.8082 64.439Z" fill="white" fill-opacity="0.2"/>
<path d="M41.5043 70.9922H12.016C11.4128 70.9922 10.9238 71.4812 10.9238 72.0843C10.9238 72.6875 11.4128 73.1765 12.016 73.1765H41.5043C42.1075 73.1765 42.5964 72.6875 42.5964 72.0843C42.5964 71.4812 42.1075 70.9922 41.5043 70.9922Z" fill="white" fill-opacity="0.2"/>
<path d="M52.4259 77.5449H12.016C11.4128 77.5449 10.9238 78.0339 10.9238 78.6371C10.9238 79.2403 11.4128 79.7292 12.016 79.7292H52.4259C53.029 79.7292 53.518 79.2403 53.518 78.6371C53.518 78.0339 53.029 77.5449 52.4259 77.5449Z" fill="white" fill-opacity="0.2"/>
<path d="M41.5043 84.0977H12.016C11.4128 84.0977 10.9238 84.5866 10.9238 85.1898C10.9238 85.793 11.4128 86.282 12.016 86.282H41.5043C42.1075 86.282 42.5964 85.793 42.5964 85.1898C42.5964 84.5866 42.1075 84.0977 41.5043 84.0977Z" fill="white" fill-opacity="0.2"/>
<path d="M54.0641 99.3882H13.1081C11.9018 99.3882 10.9238 100.366 10.9238 101.573C10.9238 102.779 11.9018 103.757 13.1081 103.757H54.0641C55.2705 103.757 56.2484 102.779 56.2484 101.573C56.2484 100.366 55.2705 99.3882 54.0641 99.3882Z" fill="white" fill-opacity="0.4"/>
<g clip-path="url(#clip0)">
<path d="M14.8398 27.5869H13.4395V30.71H11.6816V22.1787H14.8516C15.8594 22.1787 16.6367 22.4033 17.1836 22.8525C17.7305 23.3018 18.0039 23.9365 18.0039 24.7568C18.0039 25.3389 17.877 25.8252 17.623 26.2158C17.373 26.6025 16.9922 26.9111 16.4805 27.1416L18.3262 30.6279V30.71H16.4395L14.8398 27.5869ZM13.4395 26.1631H14.8574C15.2988 26.1631 15.6406 26.0518 15.8828 25.8291C16.125 25.6025 16.2461 25.292 16.2461 24.8975C16.2461 24.4951 16.1309 24.1787 15.9004 23.9482C15.6738 23.7178 15.3242 23.6025 14.8516 23.6025H13.4395V26.1631ZM24.4785 27.0127H21.1035V29.2979H25.0645V30.71H19.3457V22.1787H25.0527V23.6025H21.1035V25.6357H24.4785V27.0127ZM30.9121 28.9521H27.8301L27.2441 30.71H25.375L28.5508 22.1787H30.1797L33.373 30.71H31.5039L30.9121 28.9521ZM28.3047 27.5283H30.4375L29.3652 24.335L28.3047 27.5283ZM40.7383 27.8682C40.6719 28.7861 40.332 29.5088 39.7188 30.0361C39.1094 30.5635 38.3047 30.8271 37.3047 30.8271C36.2109 30.8271 35.3496 30.46 34.7207 29.7256C34.0957 28.9873 33.7832 27.9756 33.7832 26.6904V26.1689C33.7832 25.3486 33.9277 24.626 34.2168 24.001C34.5059 23.376 34.918 22.8975 35.4531 22.5654C35.9922 22.2295 36.6172 22.0615 37.3281 22.0615C38.3125 22.0615 39.1055 22.3252 39.707 22.8525C40.3086 23.3799 40.6562 24.1201 40.75 25.0732H38.9922C38.9492 24.5225 38.7949 24.124 38.5293 23.8779C38.2676 23.6279 37.8672 23.5029 37.3281 23.5029C36.7422 23.5029 36.3027 23.7139 36.0098 24.1357C35.7207 24.5537 35.5723 25.2041 35.5645 26.0869V26.7314C35.5645 27.6533 35.7031 28.3271 35.9805 28.7529C36.2617 29.1787 36.7031 29.3916 37.3047 29.3916C37.8477 29.3916 38.252 29.2686 38.5176 29.0225C38.7871 28.7725 38.9414 28.3877 38.9805 27.8682H40.7383ZM48.1387 23.6025H45.5254V30.71H43.7676V23.6025H41.1895V22.1787H48.1387V23.6025Z" fill="white"/>
</g>
<path fill-rule="evenodd" clip-rule="evenodd" d="M159.435 38.9299C167.175 38.9299 173.45 32.6552 173.45 24.9149C173.45 17.1746 167.175 10.8999 159.435 10.8999C151.695 10.8999 145.42 17.1746 145.42 24.9149C145.42 32.6552 151.695 38.9299 159.435 38.9299Z" fill="#18204D"/>
<path d="M167.318 24.9294C167.318 23.8849 166.01 22.895 164.004 22.2812C164.467 20.2372 164.261 18.611 163.355 18.0904C163.146 17.9683 162.902 17.9104 162.635 17.9104V18.6271C162.783 18.6271 162.902 18.656 163.002 18.7107C163.439 18.9614 163.628 19.9158 163.48 21.1435C163.445 21.4456 163.387 21.7638 163.316 22.0884C162.687 21.9341 161.999 21.8152 161.276 21.7381C160.842 21.1435 160.392 20.6036 159.939 20.1312C160.986 19.1574 161.97 18.6239 162.638 18.6239V17.9072C161.755 17.9072 160.598 18.5371 159.428 19.6298C158.258 18.5436 157.101 17.9201 156.217 17.9201V18.6368C156.882 18.6368 157.869 19.167 158.917 20.1344C158.467 20.6068 158.017 21.1435 157.59 21.7381C156.863 21.8152 156.175 21.9341 155.546 22.0916C155.472 21.7702 155.417 21.4585 155.378 21.1596C155.227 19.9319 155.414 18.9774 155.848 18.7235C155.944 18.6657 156.069 18.64 156.217 18.64V17.9233C155.947 17.9233 155.703 17.9811 155.491 18.1033C154.588 18.6239 154.385 20.2469 154.851 22.2844C152.852 22.9015 151.551 23.8881 151.551 24.9294C151.551 25.9739 152.859 26.9637 154.864 27.5775C154.401 29.6215 154.607 31.2477 155.513 31.7683C155.722 31.8904 155.967 31.9483 156.236 31.9483C157.12 31.9483 158.277 31.3184 159.447 30.2257C160.617 31.312 161.774 31.9354 162.658 31.9354C162.928 31.9354 163.172 31.8776 163.384 31.7555C164.287 31.2348 164.49 29.6119 164.024 27.5743C166.016 26.9605 167.318 25.9706 167.318 24.9294ZM163.133 22.7858C163.014 23.2003 162.867 23.6278 162.699 24.0552C162.568 23.7981 162.429 23.541 162.278 23.2839C162.131 23.0268 161.973 22.7761 161.816 22.5319C162.272 22.5994 162.712 22.6829 163.133 22.7858ZM161.661 26.2085C161.411 26.6423 161.154 27.0537 160.887 27.4361C160.408 27.4779 159.923 27.5004 159.434 27.5004C158.949 27.5004 158.464 27.4779 157.988 27.4393C157.721 27.0569 157.461 26.6487 157.21 26.2181C156.966 25.7971 156.744 25.3697 156.542 24.939C156.741 24.5084 156.966 24.0777 157.207 23.6567C157.458 23.2228 157.715 22.8115 157.982 22.429C158.46 22.3873 158.946 22.3648 159.434 22.3648C159.92 22.3648 160.405 22.3873 160.88 22.4258C161.147 22.8083 161.407 23.2164 161.658 23.6471C161.902 24.0681 162.124 24.4955 162.327 24.9262C162.124 25.3568 161.902 25.7874 161.661 26.2085ZM162.699 25.7907C162.873 26.2213 163.021 26.652 163.143 27.0698C162.722 27.1726 162.278 27.2594 161.819 27.3269C161.976 27.0794 162.134 26.8255 162.282 26.5652C162.429 26.3081 162.568 26.0478 162.699 25.7907ZM159.441 29.2198C159.142 28.9113 158.843 28.5674 158.547 28.1914C158.836 28.2042 159.132 28.2139 159.431 28.2139C159.733 28.2139 160.032 28.2074 160.324 28.1914C160.035 28.5674 159.736 28.9113 159.441 29.2198ZM157.05 27.3269C156.593 27.2594 156.153 27.1758 155.732 27.073C155.851 26.6584 155.999 26.231 156.166 25.8035C156.298 26.0606 156.436 26.3177 156.587 26.5748C156.738 26.8319 156.892 27.0826 157.05 27.3269ZM159.425 20.639C159.723 20.9475 160.022 21.2914 160.318 21.6674C160.029 21.6545 159.733 21.6449 159.434 21.6449C159.132 21.6449 158.833 21.6513 158.541 21.6674C158.83 21.2914 159.129 20.9475 159.425 20.639ZM157.046 22.5319C156.889 22.7793 156.731 23.0332 156.584 23.2935C156.436 23.5506 156.298 23.8078 156.166 24.0649C155.992 23.6342 155.844 23.2036 155.722 22.7858C156.143 22.6861 156.587 22.5994 157.046 22.5319ZM154.138 26.5555C153 26.0703 152.264 25.4339 152.264 24.9294C152.264 24.4248 153 23.7853 154.138 23.3032C154.414 23.1843 154.716 23.0782 155.028 22.9786C155.211 23.6085 155.452 24.2641 155.751 24.9358C155.456 25.6043 155.218 26.2567 155.038 26.8834C154.72 26.7837 154.417 26.6745 154.138 26.5555ZM155.867 31.1481C155.43 30.8974 155.24 29.9429 155.388 28.7152C155.423 28.4131 155.481 28.095 155.552 27.7704C156.182 27.9246 156.87 28.0435 157.593 28.1207C158.027 28.7152 158.477 29.2551 158.93 29.7276C157.882 30.7013 156.899 31.2348 156.23 31.2348C156.085 31.2316 155.963 31.2027 155.867 31.1481ZM163.49 28.6991C163.641 29.9268 163.455 30.8813 163.021 31.1352C162.924 31.1931 162.799 31.2188 162.651 31.2188C161.986 31.2188 160.999 30.6885 159.952 29.7211C160.402 29.2487 160.852 28.712 161.279 28.1175C162.005 28.0403 162.693 27.9214 163.323 27.7639C163.397 28.0885 163.455 28.4003 163.49 28.6991ZM164.727 26.5555C164.451 26.6745 164.149 26.7805 163.837 26.8801C163.654 26.2502 163.413 25.5946 163.114 24.9229C163.41 24.2545 163.648 23.6021 163.827 22.9754C164.146 23.075 164.448 23.1843 164.731 23.3032C165.868 23.7885 166.604 24.4248 166.604 24.9294C166.601 25.4339 165.865 26.0735 164.727 26.5555Z" fill="#61DAFB"/>
<path d="M159.43 26.3983C160.241 26.3983 160.898 25.7408 160.898 24.9296C160.898 24.1185 160.241 23.4609 159.43 23.4609C158.618 23.4609 157.961 24.1185 157.961 24.9296C157.961 25.7408 158.618 26.3983 159.43 26.3983Z" fill="#61DAFB"/>
<defs>
<clipPath id="clip0">
<rect width="38" height="17" fill="white" transform="translate(10.9199 17.71)"/>
</clipPath>
</defs>
</svg>
