<svg width="183" height="120" viewBox="0 0 183 120" fill="none" xmlns="http://www.w3.org/2000/svg">
<path d="M68.8082 64.439H12.016C11.4128 64.439 10.9238 64.9279 10.9238 65.5311C10.9238 66.1343 11.4128 66.6233 12.016 66.6233H68.8082C69.4114 66.6233 69.9003 66.1343 69.9003 65.5311C69.9003 64.9279 69.4114 64.439 68.8082 64.439Z" fill="white" fill-opacity="0.2"/>
<path d="M41.5043 70.9922H12.016C11.4128 70.9922 10.9238 71.4812 10.9238 72.0843C10.9238 72.6875 11.4128 73.1765 12.016 73.1765H41.5043C42.1075 73.1765 42.5964 72.6875 42.5964 72.0843C42.5964 71.4812 42.1075 70.9922 41.5043 70.9922Z" fill="white" fill-opacity="0.2"/>
<path d="M52.4259 77.5449H12.016C11.4128 77.5449 10.9238 78.0339 10.9238 78.6371C10.9238 79.2403 11.4128 79.7292 12.016 79.7292H52.4259C53.029 79.7292 53.518 79.2403 53.518 78.6371C53.518 78.0339 53.029 77.5449 52.4259 77.5449Z" fill="white" fill-opacity="0.2"/>
<path d="M41.5043 84.0977H12.016C11.4128 84.0977 10.9238 84.5866 10.9238 85.1898C10.9238 85.793 11.4128 86.282 12.016 86.282H41.5043C42.1075 86.282 42.5964 85.793 42.5964 85.1898C42.5964 84.5866 42.1075 84.0977 41.5043 84.0977Z" fill="white" fill-opacity="0.2"/>
<path d="M54.0641 99.3882H13.1081C11.9018 99.3882 10.9238 100.366 10.9238 101.573C10.9238 102.779 11.9018 103.757 13.1081 103.757H54.0641C55.2705 103.757 56.2484 102.779 56.2484 101.573C56.2484 100.366 55.2705 99.3882 54.0641 99.3882Z" fill="white" fill-opacity="0.4"/>
<path d="M15.2695 24.0869H13.8691V27.21H12.1113V18.6787H15.2812C16.2891 18.6787 17.0664 18.9033 17.6133 19.3525C18.1602 19.8018 18.4336 20.4365 18.4336 21.2568C18.4336 21.8389 18.3066 22.3252 18.0527 22.7158C17.8027 23.1025 17.4219 23.4111 16.9102 23.6416L18.7559 27.1279V27.21H16.8691L15.2695 24.0869ZM13.8691 22.6631H15.2871C15.7285 22.6631 16.0703 22.5518 16.3125 22.3291C16.5547 22.1025 16.6758 21.792 16.6758 21.3975C16.6758 20.9951 16.5605 20.6787 16.3301 20.4482C16.1035 20.2178 15.7539 20.1025 15.2812 20.1025H13.8691V22.6631ZM24.9082 23.5127H21.5332V25.7979H25.4941V27.21H19.7754V18.6787H25.4824V20.1025H21.5332V22.1357H24.9082V23.5127ZM31.3418 25.4521H28.2598L27.6738 27.21H25.8047L28.9805 18.6787H30.6094L33.8027 27.21H31.9336L31.3418 25.4521ZM28.7344 24.0283H30.8672L29.7949 20.835L28.7344 24.0283ZM41.168 24.3682C41.1016 25.2861 40.7617 26.0088 40.1484 26.5361C39.5391 27.0635 38.7344 27.3271 37.7344 27.3271C36.6406 27.3271 35.7793 26.96 35.1504 26.2256C34.5254 25.4873 34.2129 24.4756 34.2129 23.1904V22.6689C34.2129 21.8486 34.3574 21.126 34.6465 20.501C34.9355 19.876 35.3477 19.3975 35.8828 19.0654C36.4219 18.7295 37.0469 18.5615 37.7578 18.5615C38.7422 18.5615 39.5352 18.8252 40.1367 19.3525C40.7383 19.8799 41.0859 20.6201 41.1797 21.5732H39.4219C39.3789 21.0225 39.2246 20.624 38.959 20.3779C38.6973 20.1279 38.2969 20.0029 37.7578 20.0029C37.1719 20.0029 36.7324 20.2139 36.4395 20.6357C36.1504 21.0537 36.002 21.7041 35.9941 22.5869V23.2314C35.9941 24.1533 36.1328 24.8271 36.4102 25.2529C36.6914 25.6787 37.1328 25.8916 37.7344 25.8916C38.2773 25.8916 38.6816 25.7686 38.9473 25.5225C39.2168 25.2725 39.3711 24.8877 39.4102 24.3682H41.168ZM48.5684 20.1025H45.9551V27.21H44.1973V20.1025H41.6191V18.6787H48.5684V20.1025Z" fill="white"/>
<path d="M12.0723 45.21V38.1006H14.1719C14.8001 38.1006 15.3568 38.2406 15.8418 38.5205C16.3301 38.8005 16.7077 39.1976 16.9746 39.7119C17.2415 40.2262 17.375 40.8154 17.375 41.4795V41.8359C17.375 42.5098 17.2399 43.1022 16.9697 43.6133C16.7028 44.1243 16.3203 44.5182 15.8223 44.7949C15.3275 45.0716 14.7594 45.21 14.1182 45.21H12.0723ZM13.3076 39.0967V44.2236H14.1133C14.7611 44.2236 15.2575 44.0218 15.6025 43.6182C15.9508 43.2113 16.1283 42.6286 16.1348 41.8701V41.4746C16.1348 40.7031 15.9671 40.1139 15.6318 39.707C15.2965 39.3001 14.8099 39.0967 14.1719 39.0967H13.3076ZM20.8174 45.3076C20.0654 45.3076 19.4551 45.0716 18.9863 44.5996C18.5208 44.1243 18.2881 43.4928 18.2881 42.7051V42.5586C18.2881 42.0312 18.389 41.5609 18.5908 41.1475C18.7959 40.7308 19.0824 40.4069 19.4502 40.1758C19.818 39.9447 20.2282 39.8291 20.6807 39.8291C21.4001 39.8291 21.9551 40.0586 22.3457 40.5176C22.7396 40.9766 22.9365 41.626 22.9365 42.4658V42.9443H19.4844C19.5202 43.3805 19.665 43.7256 19.9189 43.9795C20.1761 44.2334 20.4984 44.3604 20.8857 44.3604C21.4294 44.3604 21.8721 44.1406 22.2139 43.7012L22.8535 44.3115C22.6419 44.6273 22.3587 44.873 22.0039 45.0488C21.6523 45.2214 21.2568 45.3076 20.8174 45.3076ZM20.6758 40.7812C20.3503 40.7812 20.0866 40.8952 19.8848 41.123C19.6862 41.3509 19.5592 41.6683 19.5039 42.0752H21.7646V41.9873C21.7386 41.5902 21.6328 41.2907 21.4473 41.0889C21.2617 40.8838 21.0046 40.7812 20.6758 40.7812ZM26.8232 43.7744C26.8232 43.5628 26.7354 43.4017 26.5596 43.291C26.387 43.1803 26.099 43.0827 25.6953 42.998C25.2917 42.9134 24.9548 42.806 24.6846 42.6758C24.0921 42.3893 23.7959 41.9743 23.7959 41.4307C23.7959 40.9749 23.988 40.5941 24.3721 40.2881C24.7562 39.9821 25.2445 39.8291 25.8369 39.8291C26.4684 39.8291 26.9779 39.9854 27.3652 40.2979C27.7559 40.6104 27.9512 41.0156 27.9512 41.5137H26.7646C26.7646 41.2858 26.68 41.097 26.5107 40.9473C26.3415 40.7943 26.1169 40.7178 25.8369 40.7178C25.5765 40.7178 25.3633 40.778 25.1973 40.8984C25.0345 41.0189 24.9531 41.18 24.9531 41.3818C24.9531 41.5641 25.0296 41.7057 25.1826 41.8066C25.3356 41.9076 25.6449 42.0101 26.1104 42.1143C26.5758 42.2152 26.9404 42.3372 27.2041 42.4805C27.471 42.6204 27.668 42.7897 27.7949 42.9883C27.9251 43.1868 27.9902 43.4277 27.9902 43.7109C27.9902 44.1862 27.7933 44.5719 27.3994 44.8682C27.0055 45.1611 26.4896 45.3076 25.8516 45.3076C25.4186 45.3076 25.0329 45.2295 24.6943 45.0732C24.3558 44.917 24.0921 44.7021 23.9033 44.4287C23.7145 44.1553 23.6201 43.8607 23.6201 43.5449H24.7725C24.7887 43.8249 24.8945 44.0413 25.0898 44.1943C25.2852 44.3441 25.5439 44.4189 25.8662 44.4189C26.1787 44.4189 26.4163 44.3604 26.5791 44.2432C26.7419 44.1227 26.8232 43.9665 26.8232 43.7744ZM32.1846 45.21C32.1325 45.109 32.0869 44.9447 32.0479 44.7168C31.6702 45.1107 31.208 45.3076 30.6611 45.3076C30.1305 45.3076 29.6976 45.1562 29.3623 44.8535C29.027 44.5508 28.8594 44.1764 28.8594 43.7305C28.8594 43.1673 29.0677 42.736 29.4844 42.4365C29.9043 42.1338 30.5033 41.9824 31.2812 41.9824H32.0088V41.6357C32.0088 41.3623 31.9323 41.1442 31.7793 40.9814C31.6263 40.8154 31.3936 40.7324 31.0811 40.7324C30.8109 40.7324 30.5895 40.8008 30.417 40.9375C30.2445 41.071 30.1582 41.2419 30.1582 41.4502H28.9717C28.9717 41.1605 29.0677 40.8903 29.2598 40.6396C29.4518 40.3857 29.7122 40.1872 30.041 40.0439C30.373 39.9007 30.7425 39.8291 31.1494 39.8291C31.7679 39.8291 32.2611 39.9854 32.6289 40.2979C32.9967 40.6071 33.1855 41.0433 33.1953 41.6064V43.9893C33.1953 44.4645 33.262 44.8438 33.3955 45.127V45.21H32.1846ZM30.8809 44.3555C31.1152 44.3555 31.335 44.2985 31.54 44.1846C31.7484 44.0706 31.9046 43.9176 32.0088 43.7256V42.7295H31.3691C30.9297 42.7295 30.5993 42.806 30.3779 42.959C30.1566 43.112 30.0459 43.3285 30.0459 43.6084C30.0459 43.8363 30.1208 44.0186 30.2705 44.1553C30.4235 44.2887 30.627 44.3555 30.8809 44.3555ZM37.2041 41.0107C37.0479 40.9847 36.8867 40.9717 36.7207 40.9717C36.1771 40.9717 35.8109 41.18 35.6221 41.5967V45.21H34.4355V39.9268H35.5684L35.5977 40.5176C35.8841 40.0586 36.2812 39.8291 36.7891 39.8291C36.9583 39.8291 37.0983 39.8519 37.209 39.8975L37.2041 41.0107ZM40.7197 41.0107C40.5635 40.9847 40.4023 40.9717 40.2363 40.9717C39.6927 40.9717 39.3265 41.18 39.1377 41.5967V45.21H37.9512V39.9268H39.084L39.1133 40.5176C39.3997 40.0586 39.7969 39.8291 40.3047 39.8291C40.474 39.8291 40.6139 39.8519 40.7246 39.8975L40.7197 41.0107ZM41.0713 42.5195C41.0713 42.002 41.1738 41.5365 41.3789 41.123C41.584 40.7064 41.8721 40.3874 42.2432 40.166C42.6143 39.9414 43.0407 39.8291 43.5225 39.8291C44.2354 39.8291 44.8132 40.0586 45.2559 40.5176C45.7018 40.9766 45.9427 41.5853 45.9785 42.3438L45.9834 42.6221C45.9834 43.1429 45.8825 43.6084 45.6807 44.0186C45.4821 44.4287 45.1956 44.7461 44.8213 44.9707C44.4502 45.1953 44.0205 45.3076 43.5322 45.3076C42.7868 45.3076 42.1895 45.0602 41.7402 44.5654C41.2943 44.0674 41.0713 43.4049 41.0713 42.5781V42.5195ZM42.2578 42.6221C42.2578 43.1657 42.3701 43.5921 42.5947 43.9014C42.8193 44.2074 43.1318 44.3604 43.5322 44.3604C43.9326 44.3604 44.2435 44.2041 44.4648 43.8916C44.6895 43.5791 44.8018 43.1217 44.8018 42.5195C44.8018 41.9857 44.6862 41.5625 44.4551 41.25C44.2272 40.9375 43.9163 40.7812 43.5225 40.7812C43.1351 40.7812 42.8275 40.9359 42.5996 41.2451C42.3717 41.5511 42.2578 42.0101 42.2578 42.6221ZM48.249 45.21H47.0625V37.71H48.249V45.21ZM50.8076 45.21H49.6211V37.71H50.8076V45.21ZM51.8818 42.5195C51.8818 42.002 51.9844 41.5365 52.1895 41.123C52.3945 40.7064 52.6826 40.3874 53.0537 40.166C53.4248 39.9414 53.8512 39.8291 54.333 39.8291C55.0459 39.8291 55.6237 40.0586 56.0664 40.5176C56.5124 40.9766 56.7533 41.5853 56.7891 42.3438L56.7939 42.6221C56.7939 43.1429 56.693 43.6084 56.4912 44.0186C56.2926 44.4287 56.0062 44.7461 55.6318 44.9707C55.2607 45.1953 54.8311 45.3076 54.3428 45.3076C53.5973 45.3076 53 45.0602 52.5508 44.5654C52.1048 44.0674 51.8818 43.4049 51.8818 42.5781V42.5195ZM53.0684 42.6221C53.0684 43.1657 53.1807 43.5921 53.4053 43.9014C53.6299 44.2074 53.9424 44.3604 54.3428 44.3604C54.7432 44.3604 55.054 44.2041 55.2754 43.8916C55.5 43.5791 55.6123 43.1217 55.6123 42.5195C55.6123 41.9857 55.4967 41.5625 55.2656 41.25C55.0378 40.9375 54.7269 40.7812 54.333 40.7812C53.9456 40.7812 53.638 40.9359 53.4102 41.2451C53.1823 41.5511 53.0684 42.0101 53.0684 42.6221ZM64.9287 43.5742L65.7686 39.9268H66.9258L65.4854 45.21H64.5088L63.376 41.582L62.2627 45.21H61.2861L59.8408 39.9268H60.998L61.8525 43.5352L62.9365 39.9268H63.8301L64.9287 43.5742ZM70.0459 45.3076C69.2939 45.3076 68.6836 45.0716 68.2148 44.5996C67.7493 44.1243 67.5166 43.4928 67.5166 42.7051V42.5586C67.5166 42.0312 67.6175 41.5609 67.8193 41.1475C68.0244 40.7308 68.3109 40.4069 68.6787 40.1758C69.0465 39.9447 69.4567 39.8291 69.9092 39.8291C70.6286 39.8291 71.1836 40.0586 71.5742 40.5176C71.9681 40.9766 72.165 41.626 72.165 42.4658V42.9443H68.7129C68.7487 43.3805 68.8936 43.7256 69.1475 43.9795C69.4046 44.2334 69.7269 44.3604 70.1143 44.3604C70.6579 44.3604 71.1006 44.1406 71.4424 43.7012L72.082 44.3115C71.8704 44.6273 71.5872 44.873 71.2324 45.0488C70.8809 45.2214 70.4854 45.3076 70.0459 45.3076ZM69.9043 40.7812C69.5788 40.7812 69.3151 40.8952 69.1133 41.123C68.9147 41.3509 68.7878 41.6683 68.7324 42.0752H70.9932V41.9873C70.9671 41.5902 70.8613 41.2907 70.6758 41.0889C70.4902 40.8838 70.2331 40.7812 69.9043 40.7812ZM77.7266 42.6221C77.7266 43.4424 77.5426 44.0951 77.1748 44.5801C76.8102 45.0651 76.3073 45.3076 75.666 45.3076C75.0475 45.3076 74.5658 45.0846 74.2207 44.6387L74.1621 45.21H73.0879V37.71H74.2744V40.4346C74.6162 40.0309 75.0768 39.8291 75.6562 39.8291C76.3008 39.8291 76.807 40.0684 77.1748 40.5469C77.5426 41.0254 77.7266 41.6943 77.7266 42.5537V42.6221ZM76.54 42.5195C76.54 41.9466 76.4391 41.5169 76.2373 41.2305C76.0355 40.944 75.7425 40.8008 75.3584 40.8008C74.8441 40.8008 74.4827 41.0254 74.2744 41.4746V43.6523C74.486 44.1113 74.8506 44.3408 75.3682 44.3408C75.7393 44.3408 76.0257 44.2025 76.2275 43.9258C76.4294 43.6491 76.5335 43.2308 76.54 42.6709V42.5195Z" fill="white" fill-opacity="0.6"/>
<path fill-rule="evenodd" clip-rule="evenodd" d="M159.435 38.9299C167.175 38.9299 173.45 32.6552 173.45 24.9149C173.45 17.1746 167.175 10.8999 159.435 10.8999C151.695 10.8999 145.42 17.1746 145.42 24.9149C145.42 32.6552 151.695 38.9299 159.435 38.9299Z" fill="#18204D"/>
<path d="M167.318 24.9294C167.318 23.8849 166.01 22.895 164.004 22.2812C164.467 20.2372 164.261 18.611 163.355 18.0904C163.146 17.9683 162.902 17.9104 162.635 17.9104V18.6271C162.783 18.6271 162.902 18.656 163.002 18.7107C163.439 18.9614 163.628 19.9158 163.48 21.1435C163.445 21.4456 163.387 21.7638 163.316 22.0884C162.687 21.9341 161.999 21.8152 161.276 21.7381C160.842 21.1435 160.392 20.6036 159.939 20.1312C160.986 19.1574 161.97 18.6239 162.638 18.6239V17.9072C161.755 17.9072 160.598 18.5371 159.428 19.6298C158.258 18.5436 157.101 17.9201 156.217 17.9201V18.6368C156.882 18.6368 157.869 19.167 158.917 20.1344C158.467 20.6068 158.017 21.1435 157.59 21.7381C156.863 21.8152 156.175 21.9341 155.546 22.0916C155.472 21.7702 155.417 21.4585 155.378 21.1596C155.227 19.9319 155.414 18.9774 155.848 18.7235C155.944 18.6657 156.069 18.64 156.217 18.64V17.9233C155.947 17.9233 155.703 17.9811 155.491 18.1033C154.588 18.6239 154.385 20.2469 154.851 22.2844C152.852 22.9015 151.551 23.8881 151.551 24.9294C151.551 25.9738 152.859 26.9637 154.864 27.5775C154.401 29.6215 154.607 31.2477 155.513 31.7683C155.722 31.8904 155.967 31.9483 156.236 31.9483C157.12 31.9483 158.277 31.3184 159.447 30.2257C160.617 31.312 161.774 31.9354 162.658 31.9354C162.928 31.9354 163.172 31.8776 163.384 31.7555C164.287 31.2348 164.49 29.6119 164.024 27.5743C166.016 26.9605 167.318 25.9706 167.318 24.9294ZM163.133 22.7858C163.014 23.2003 162.867 23.6278 162.699 24.0552C162.568 23.7981 162.429 23.541 162.278 23.2839C162.131 23.0268 161.973 22.7761 161.816 22.5319C162.272 22.5994 162.712 22.6829 163.133 22.7858ZM161.661 26.2085C161.411 26.6423 161.154 27.0537 160.887 27.4361C160.408 27.4779 159.923 27.5004 159.434 27.5004C158.949 27.5004 158.464 27.4779 157.988 27.4393C157.721 27.0569 157.461 26.6487 157.21 26.2181C156.966 25.7971 156.744 25.3697 156.542 24.939C156.741 24.5084 156.966 24.0777 157.207 23.6567C157.458 23.2228 157.715 22.8115 157.982 22.429C158.46 22.3873 158.946 22.3648 159.434 22.3648C159.92 22.3648 160.405 22.3873 160.88 22.4258C161.147 22.8083 161.407 23.2164 161.658 23.6471C161.902 24.0681 162.124 24.4955 162.327 24.9262C162.124 25.3568 161.902 25.7874 161.661 26.2085ZM162.699 25.7907C162.873 26.2213 163.021 26.652 163.143 27.0698C162.722 27.1726 162.278 27.2594 161.819 27.3269C161.976 27.0794 162.134 26.8255 162.282 26.5652C162.429 26.3081 162.568 26.0478 162.699 25.7907ZM159.441 29.2198C159.142 28.9113 158.843 28.5674 158.547 28.1914C158.836 28.2042 159.132 28.2139 159.431 28.2139C159.733 28.2139 160.032 28.2074 160.324 28.1914C160.035 28.5674 159.736 28.9113 159.441 29.2198ZM157.05 27.3269C156.593 27.2594 156.153 27.1758 155.732 27.073C155.851 26.6584 155.999 26.231 156.166 25.8035C156.298 26.0606 156.436 26.3177 156.587 26.5748C156.738 26.8319 156.892 27.0826 157.05 27.3269ZM159.425 20.639C159.723 20.9475 160.022 21.2914 160.318 21.6674C160.029 21.6545 159.733 21.6449 159.434 21.6449C159.132 21.6449 158.833 21.6513 158.541 21.6674C158.83 21.2914 159.129 20.9475 159.425 20.639ZM157.046 22.5319C156.889 22.7793 156.731 23.0332 156.584 23.2935C156.436 23.5506 156.298 23.8078 156.166 24.0649C155.992 23.6342 155.844 23.2036 155.722 22.7858C156.143 22.6861 156.587 22.5994 157.046 22.5319ZM154.138 26.5555C153 26.0703 152.264 25.4339 152.264 24.9294C152.264 24.4248 153 23.7853 154.138 23.3032C154.414 23.1843 154.716 23.0782 155.028 22.9786C155.211 23.6085 155.452 24.2641 155.751 24.9358C155.456 25.6043 155.218 26.2567 155.038 26.8834C154.72 26.7837 154.417 26.6745 154.138 26.5555ZM155.867 31.1481C155.43 30.8974 155.24 29.9429 155.388 28.7152C155.423 28.4131 155.481 28.095 155.552 27.7704C156.182 27.9246 156.87 28.0435 157.593 28.1207C158.027 28.7152 158.477 29.2551 158.93 29.7276C157.882 30.7013 156.899 31.2348 156.23 31.2348C156.085 31.2316 155.963 31.2027 155.867 31.1481ZM163.49 28.6991C163.641 29.9268 163.455 30.8813 163.021 31.1352C162.924 31.1931 162.799 31.2188 162.651 31.2188C161.986 31.2188 160.999 30.6885 159.952 29.7211C160.402 29.2487 160.852 28.712 161.279 28.1175C162.005 28.0403 162.693 27.9214 163.323 27.7639C163.397 28.0885 163.455 28.4003 163.49 28.6991ZM164.727 26.5555C164.451 26.6745 164.149 26.7805 163.837 26.8801C163.654 26.2502 163.413 25.5946 163.114 24.9229C163.41 24.2545 163.648 23.6021 163.827 22.9754C164.146 23.075 164.448 23.1843 164.731 23.3032C165.868 23.7885 166.604 24.4248 166.604 24.9294C166.601 25.4339 165.865 26.0735 164.727 26.5555Z" fill="#61DAFB"/>
<path d="M159.43 26.3983C160.241 26.3983 160.898 25.7408 160.898 24.9296C160.898 24.1185 160.241 23.4609 159.43 23.4609C158.618 23.4609 157.961 24.1185 157.961 24.9296C157.961 25.7408 158.618 26.3983 159.43 26.3983Z" fill="#61DAFB"/>
</svg>
