<svg width="701" height="428" viewBox="0 0 701 428" fill="none" xmlns="http://www.w3.org/2000/svg">
<g clip-path="url(#clip0)">
<path d="M0 373.216H136.914V428H6.84611C3.06511 428 0 424.935 0 421.154V373.216Z" fill="black" fill-opacity="0.1"/>
<path fill-rule="evenodd" clip-rule="evenodd" d="M26.0106 413.958C33.5726 413.958 39.7028 407.828 39.7028 400.266C39.7028 392.704 33.5726 386.574 26.0106 386.574C18.4486 386.574 12.3184 392.704 12.3184 400.266C12.3184 407.828 18.4486 413.958 26.0106 413.958Z" fill="white" fill-opacity="0.1" stroke="white" stroke-opacity="0.3" stroke-width="0.821532"/>
<path d="M26.0063 393.42L19.1602 400.266L26.0063 407.112L32.8524 400.266L26.0063 393.42Z" fill="#00CFFD" stroke="black" stroke-width="0.821532" stroke-miterlimit="10" stroke-linecap="round" stroke-linejoin="round"/>
<path fill-rule="evenodd" clip-rule="evenodd" d="M24.2931 400.668C24.1326 400.508 23.8726 400.508 23.7121 400.668C23.5517 400.828 23.5517 401.088 23.7121 401.249L25.7868 403.324C25.8639 403.401 25.9684 403.444 26.0773 403.444C26.1862 403.444 26.2907 403.401 26.3678 403.324L28.4425 401.249C28.6029 401.088 28.6029 400.828 28.4425 400.668C28.282 400.508 28.022 400.508 27.8615 400.668L26.49 402.039V397.154C26.49 396.927 26.3061 396.743 26.0792 396.743C25.8523 396.743 25.6684 396.927 25.6684 397.154V402.043L24.2931 400.668Z" fill="black"/>
<path d="M89.7724 389.709H48.7374C47.5287 389.709 46.5488 390.689 46.5488 391.897V391.898C46.5488 393.106 47.5287 394.086 48.7374 394.086H89.7724C90.9811 394.086 91.9609 393.106 91.9609 391.898V391.897C91.9609 390.689 90.9811 389.709 89.7724 389.709Z" fill="white" fill-opacity="0.6"/>
<path d="M77.1883 399.649H47.6431C47.0388 399.649 46.5488 400.139 46.5488 400.743C46.5488 401.348 47.0388 401.837 47.6431 401.837H77.1883C77.7926 401.837 78.2825 401.348 78.2825 400.743C78.2825 400.139 77.7926 399.649 77.1883 399.649Z" fill="white" fill-opacity="0.3"/>
<path d="M120.144 407.4H48.2604C47.3151 407.4 46.5488 408.166 46.5488 409.111C46.5488 410.057 47.3151 410.823 48.2604 410.823H120.144C121.09 410.823 121.856 410.057 121.856 409.111C121.856 408.166 121.09 407.4 120.144 407.4Z" fill="black" fill-opacity="0.2"/>
<path d="M95.4994 408.085H48.2613C47.6941 408.085 47.2344 408.545 47.2344 409.112C47.2344 409.679 47.6941 410.139 48.2613 410.139H95.4994C96.0665 410.139 96.5263 409.679 96.5263 409.112C96.5263 408.545 96.0665 408.085 95.4994 408.085Z" fill="#00CFFD" stroke="black" stroke-opacity="0.05" stroke-width="0.247119"/>
<path d="M126.649 39.9927H10.2648C8.37435 39.9927 6.8418 41.5252 6.8418 43.4157V55.7387C6.8418 57.6292 8.37435 59.1618 10.2648 59.1618H126.649C128.539 59.1618 130.072 57.6292 130.072 55.7387V43.4157C130.072 41.5252 128.539 39.9927 126.649 39.9927Z" fill="black" fill-opacity="0.2"/>
<path d="M16.7384 52.553C17.4294 52.553 18.0769 52.3444 18.6158 51.9881L20.5192 53.8958C20.6452 54.0175 20.806 54.0784 20.9798 54.0784C21.3405 54.0784 21.6056 53.7959 21.6056 53.4395C21.6056 53.2744 21.5491 53.1136 21.4274 52.9919L19.537 51.0929C19.9282 50.541 20.1585 49.8631 20.1585 49.133C20.1585 47.2513 18.6201 45.7129 16.7384 45.7129C14.8611 45.7129 13.3184 47.2513 13.3184 49.133C13.3184 51.0147 14.8568 52.553 16.7384 52.553ZM16.7384 51.6404C15.3609 51.6404 14.231 50.5106 14.231 49.133C14.231 47.7598 15.3609 46.6255 16.7384 46.6255C18.116 46.6255 19.2459 47.7598 19.2459 49.133C19.2459 50.5106 18.116 51.6404 16.7384 51.6404Z" fill="white"/>
<path d="M37.4812 67.377H7.93607C7.33172 67.377 6.8418 67.8669 6.8418 68.4712C6.8418 69.0756 7.33172 69.5655 7.93607 69.5655H37.4812C38.0856 69.5655 38.5755 69.0756 38.5755 68.4712C38.5755 67.8669 38.0856 67.377 37.4812 67.377Z" fill="white" fill-opacity="0.3"/>
<path d="M126.649 75.0425H10.2648C8.37435 75.0425 6.8418 76.575 6.8418 78.4655V90.7885C6.8418 92.679 8.37435 94.2116 10.2648 94.2116H126.649C128.539 94.2116 130.072 92.679 130.072 90.7885V78.4655C130.072 76.575 128.539 75.0425 126.649 75.0425Z" fill="white" fill-opacity="0.1"/>
<path d="M21.9047 90.7883H15.7432C15.3667 90.7883 15.0586 90.4802 15.0586 90.1037V79.1499C15.0586 78.7734 15.3667 78.4653 15.7432 78.4653H21.9047V90.7883Z" stroke="white" stroke-opacity="0.6" stroke-width="0.821532" stroke-miterlimit="10" stroke-linecap="round" stroke-linejoin="round"/>
<path d="M28.0658 90.7888H21.9043V78.4658H28.0658C28.4423 78.4658 28.7504 78.7739 28.7504 79.1504V90.1042C28.7504 90.4807 28.4423 90.7888 28.0658 90.7888Z" stroke="white" stroke-opacity="0.6" stroke-width="0.821532" stroke-miterlimit="10" stroke-linecap="round" stroke-linejoin="round"/>
<path d="M16.4277 84.6274H20.5354" stroke="white" stroke-opacity="0.6" stroke-width="0.821532" stroke-miterlimit="10"/>
<path d="M16.4277 81.8892H20.5354" stroke="white" stroke-opacity="0.6" stroke-width="0.821532" stroke-miterlimit="10"/>
<path d="M16.4277 87.3657H20.5354" stroke="white" stroke-opacity="0.6" stroke-width="0.821532" stroke-miterlimit="10"/>
<path d="M23.2734 84.6274H27.3811" stroke="white" stroke-opacity="0.6" stroke-width="0.821532" stroke-miterlimit="10"/>
<path d="M23.2734 81.8892H27.3811" stroke="white" stroke-opacity="0.6" stroke-width="0.821532" stroke-miterlimit="10"/>
<path d="M67.6043 83.5327H38.0591C37.4548 83.5327 36.9648 84.0226 36.9648 84.627C36.9648 85.2313 37.4548 85.7212 38.0591 85.7212H67.6043C68.2086 85.7212 68.6985 85.2313 68.6985 84.627C68.6985 84.0226 68.2086 83.5327 67.6043 83.5327Z" fill="white" fill-opacity="0.3"/>
<path d="M21.2221 102.425C19.6201 102.425 17.6005 103.602 17.6347 106.642L15.088 109.942C15.0127 110.037 15.1017 110.161 15.2386 110.161L16.9364 111.003C17.0254 111.633 17.354 113.467 17.532 114.385C17.5937 114.672 20.4006 114.453 20.4006 114.453L21.2221 116.117" stroke="white" stroke-opacity="0.6" stroke-width="0.821532" stroke-miterlimit="10" stroke-linecap="round" stroke-linejoin="round"/>
<path fill-rule="evenodd" clip-rule="evenodd" d="M24.5402 102.563C24.6166 102.35 24.5054 102.114 24.2918 102.038C24.0782 101.962 23.8431 102.073 23.7667 102.286L23.0684 104.238C22.9919 104.451 23.1031 104.686 23.3167 104.763C23.5303 104.839 23.7654 104.728 23.8419 104.514L24.5402 102.563ZM28.7834 104.63C28.965 104.494 29.002 104.237 28.8661 104.055C28.7301 103.874 28.4727 103.837 28.2911 103.973L25.9497 105.725C25.7681 105.861 25.7311 106.119 25.867 106.3C26.003 106.482 26.2604 106.519 26.442 106.383L28.7834 104.63ZM26.104 109.151C26.1206 108.925 26.3175 108.755 26.5437 108.772L28.7824 108.936C29.0087 108.953 29.1786 109.149 29.162 109.376C29.1454 109.602 28.9485 109.772 28.7223 109.755L26.4836 109.591C26.2574 109.574 26.0874 109.378 26.104 109.151ZM21.7153 112.907C21.4885 112.907 21.3046 113.09 21.3046 113.317C21.3046 113.544 21.4885 113.728 21.7153 113.728H23.5159C23.7427 113.728 23.9266 113.544 23.9266 113.317C23.9266 113.09 23.7427 112.907 23.5159 112.907H21.7153ZM21.3046 111.551C21.3046 111.324 21.4885 111.14 21.7153 111.14H21.8237C20.9205 110.382 19.6839 108.718 20.6944 107.388C21.6802 106.094 23.5492 106.094 24.5351 107.388C25.5445 108.717 24.3163 110.383 23.411 111.14H23.5159C23.7427 111.14 23.9266 111.324 23.9266 111.551C23.9266 111.777 23.7427 111.961 23.5159 111.961H21.7153C21.4885 111.961 21.3046 111.777 21.3046 111.551ZM23.0314 111.14V109.389C23.2207 109.252 23.3439 109.029 23.3439 108.778C23.3439 108.362 23.0067 108.025 22.5908 108.025C22.1749 108.025 21.8378 108.362 21.8378 108.778C21.8378 109.055 21.9872 109.297 22.2099 109.428V111.14H23.0314ZM22.5761 108.711C22.582 108.711 22.5879 108.71 22.5938 108.71H22.5908C22.5858 108.71 22.5809 108.71 22.5761 108.711Z" fill="white" fill-opacity="0.6"/>
<path d="M81.4687 107.882H38.3556C37.5875 107.882 36.9648 108.504 36.9648 109.273C36.9648 110.041 37.5875 110.663 38.3556 110.663H81.4687C82.2368 110.663 82.8594 110.041 82.8594 109.273C82.8594 108.504 82.2368 107.882 81.4687 107.882Z" fill="white" fill-opacity="0.3"/>
<path d="M21.9066 127.074L15.0605 133.92L21.9066 140.766L28.7527 133.92L21.9066 127.074Z" stroke="white" stroke-opacity="0.6" stroke-width="0.821532" stroke-miterlimit="10" stroke-linecap="round" stroke-linejoin="round"/>
<path fill-rule="evenodd" clip-rule="evenodd" d="M20.1934 134.324C20.033 134.163 19.7729 134.163 19.6125 134.324C19.4521 134.484 19.4521 134.744 19.6125 134.905L21.6872 136.979C21.7643 137.056 21.8687 137.1 21.9777 137.1C22.0866 137.1 22.1911 137.056 22.2681 136.979L24.3428 134.905C24.5033 134.744 24.5033 134.484 24.3428 134.324C24.1824 134.163 23.9223 134.163 23.7619 134.324L22.3904 135.695V130.81C22.3904 130.583 22.2065 130.399 21.9796 130.399C21.7527 130.399 21.5688 130.583 21.5688 130.81V135.699L20.1934 134.324Z" fill="white" fill-opacity="0.6"/>
<path d="M81.4687 132.528H38.3556C37.5875 132.528 36.9648 133.15 36.9648 133.919C36.9648 134.687 37.5875 135.309 38.3556 135.309H81.4687C82.2368 135.309 82.8594 134.687 82.8594 133.919C82.8594 133.15 82.2368 132.528 81.4687 132.528Z" fill="white" fill-opacity="0.3"/>
<path d="M29.7773 183.211C29.7773 187.559 26.2523 191.084 21.9042 191.084C17.5561 191.084 14.0312 187.559 14.0312 183.211C14.0312 178.863 17.5561 175.338 21.9042 175.338C26.2523 175.338 29.7773 178.863 29.7773 183.211Z" stroke="white" stroke-opacity="0.2" stroke-width="0.68461"/>
<path d="M67.6043 182.117H38.0591C37.4548 182.117 36.9648 182.607 36.9648 183.211C36.9648 183.815 37.4548 184.305 38.0591 184.305H67.6043C68.2086 184.305 68.6985 183.815 68.6985 183.211C68.6985 182.607 68.2086 182.117 67.6043 182.117Z" fill="white" fill-opacity="0.3"/>
<path d="M29.7773 206.488C29.7773 210.836 26.2523 214.361 21.9042 214.361C17.5561 214.361 14.0312 210.836 14.0312 206.488C14.0312 202.14 17.5561 198.615 21.9042 198.615C26.2523 198.615 29.7773 202.14 29.7773 206.488Z" stroke="white" stroke-opacity="0.2" stroke-width="0.68461"/>
<path d="M73.1242 205.097H38.3556C37.5875 205.097 36.9648 205.719 36.9648 206.487C36.9648 207.256 37.5875 207.878 38.3556 207.878H73.1242C73.8923 207.878 74.5149 207.256 74.5149 206.487C74.5149 205.719 73.8923 205.097 73.1242 205.097Z" fill="white" fill-opacity="0.3"/>
<path d="M29.7773 229.764C29.7773 234.113 26.2523 237.637 21.9042 237.637C17.5561 237.637 14.0312 234.113 14.0312 229.764C14.0312 225.416 17.5561 221.891 21.9042 221.891C26.2523 221.891 29.7773 225.416 29.7773 229.764Z" stroke="white" stroke-opacity="0.2" stroke-width="0.68461"/>
<path d="M77.2965 228.374H38.3556C37.5875 228.374 36.9648 228.996 36.9648 229.764C36.9648 230.532 37.5875 231.155 38.3556 231.155H77.2965C78.0646 231.155 78.6872 230.532 78.6872 229.764C78.6872 228.996 78.0646 228.374 77.2965 228.374Z" fill="white" fill-opacity="0.3"/>
<path d="M29.7773 283.164C29.7773 287.512 26.2523 291.037 21.9042 291.037C17.5561 291.037 14.0312 287.512 14.0312 283.164C14.0312 278.816 17.5561 275.291 21.9042 275.291C26.2523 275.291 29.7773 278.816 29.7773 283.164Z" stroke="white" stroke-opacity="0.2" stroke-width="0.68461"/>
<path d="M59.2168 281.772H38.3556C37.5875 281.772 36.9648 282.395 36.9648 283.163C36.9648 283.931 37.5875 284.554 38.3556 284.554H59.2168C59.9849 284.554 60.6075 283.931 60.6075 283.163C60.6075 282.395 59.9849 281.772 59.2168 281.772Z" fill="white" fill-opacity="0.3"/>
<path d="M29.7773 306.441C29.7773 310.789 26.2523 314.314 21.9042 314.314C17.5561 314.314 14.0312 310.789 14.0312 306.441C14.0312 302.093 17.5561 298.568 21.9042 298.568C26.2523 298.568 29.7773 302.093 29.7773 306.441Z" stroke="white" stroke-opacity="0.2" stroke-width="0.68461"/>
<path d="M67.6043 305.347H38.0591C37.4548 305.347 36.9648 305.837 36.9648 306.441C36.9648 307.045 37.4548 307.535 38.0591 307.535H67.6043C68.2086 307.535 68.6985 307.045 68.6985 306.441C68.6985 305.837 68.2086 305.347 67.6043 305.347Z" fill="white" fill-opacity="0.3"/>
<path d="M29.7773 329.718C29.7773 334.066 26.2523 337.591 21.9042 337.591C17.5561 337.591 14.0312 334.066 14.0312 329.718C14.0312 325.369 17.5561 321.845 21.9042 321.845C26.2523 321.845 29.7773 325.369 29.7773 329.718Z" stroke="white" stroke-opacity="0.2" stroke-width="0.68461"/>
<path d="M87.0317 328.327H38.3556C37.5875 328.327 36.9648 328.949 36.9648 329.717C36.9648 330.485 37.5875 331.108 38.3556 331.108H87.0317C87.7998 331.108 88.4224 330.485 88.4224 329.717C88.4224 328.949 87.7998 328.327 87.0317 328.327Z" fill="white" fill-opacity="0.3"/>
<path d="M21.9067 17.8049C21.9067 15.5363 20.0677 13.6973 17.7991 13.6973C15.5305 13.6973 13.6914 15.5363 13.6914 17.8049C13.6914 20.0735 15.5305 21.9126 17.7991 21.9126C20.0677 21.9126 21.9067 20.0735 21.9067 17.8049Z" fill="#EB6A5D"/>
<path d="M36.2837 17.8049C36.2837 15.5363 34.4446 13.6973 32.176 13.6973C29.9074 13.6973 28.0684 15.5363 28.0684 17.8049C28.0684 20.0735 29.9074 21.9126 32.176 21.9126C34.4446 21.9126 36.2837 20.0735 36.2837 17.8049Z" fill="#F3BE4F"/>
<path d="M50.6606 17.8049C50.6606 15.5363 48.8216 13.6973 46.553 13.6973C44.2844 13.6973 42.4453 15.5363 42.4453 17.8049C42.4453 20.0735 44.2844 21.9126 46.553 21.9126C48.8216 21.9126 50.6606 20.0735 50.6606 17.8049Z" fill="#64C354"/>
<path d="M136.912 0H694.153C697.934 0 700.999 3.0651 700.999 6.8461V421.154C700.999 424.935 697.934 428 694.153 428H136.912V0Z" fill="#1A164A" fill-opacity="0.63"/>
<mask id="mask0" mask-type="alpha" maskUnits="userSpaceOnUse" x="140" y="-3" width="565" height="428">
<path d="M140 -3H697.241C701.022 -3 704.087 0.0651 704.087 3.8461V418.154C704.087 421.935 701.022 425 697.241 425H140V-3Z" fill="#1A164A"/>
</mask>
<g mask="url(#mask0)">
<path fill-rule="evenodd" clip-rule="evenodd" d="M650.501 156.592C676.725 92.4358 720.087 -17.9166 607.934 -82.1143C495.781 -146.312 443.607 -105.205 394.597 -86.2721C345.588 -67.3396 224.353 -55.012 242.588 21.5162C260.823 98.0444 264.873 231.876 351.987 231.878C439.101 231.881 427.419 195.609 483.367 189.188C539.315 182.768 624.277 220.748 650.501 156.592Z" fill="url(#paint0_linear)"/>
<path fill-rule="evenodd" clip-rule="evenodd" d="M650.501 156.592C676.725 92.4358 720.087 -17.9166 607.934 -82.1143C495.781 -146.312 443.607 -105.205 394.597 -86.2721C345.588 -67.3396 224.353 -55.012 242.588 21.5162C260.823 98.0444 264.873 231.876 351.987 231.878C439.101 231.881 427.419 195.609 483.367 189.188C539.315 182.768 624.277 220.748 650.501 156.592Z" fill="#14BEFD"/>
<g filter="url(#filter0_d)">
<path fill-rule="evenodd" clip-rule="evenodd" d="M261.336 -54.8167C236.734 17.3022 196.333 141.238 323.599 204.383C450.865 267.529 505.448 219.015 558.001 195.043C610.555 171.07 742.804 149.64 717.808 66.8402C692.811 -15.9593 679.649 -162.572 584.044 -156.897C488.438 -151.222 503.622 -112.176 442.638 -101.483C381.654 -90.7911 285.937 -126.936 261.336 -54.8167Z" fill="url(#paint1_linear)"/>
</g>
<g opacity="0.5" filter="url(#filter1_d)">
<path opacity="0.5" fill-rule="evenodd" clip-rule="evenodd" d="M270.7 -66.4958C246.611 4.1214 207.05 125.476 331.667 187.307C456.283 249.139 509.729 201.634 561.188 178.161C612.648 154.688 742.143 133.703 717.667 52.6279C693.191 -28.4475 680.303 -172.007 586.688 -166.451C493.073 -160.894 507.941 -122.661 448.227 -112.191C388.513 -101.721 294.789 -137.113 270.7 -66.4958Z" stroke="url(#paint2_linear)" stroke-width="6.78117" stroke-linecap="round" stroke-dasharray="67.81 33.91"/>
</g>
<g opacity="0.2" filter="url(#filter2_d)">
<path opacity="0.2" fill-rule="evenodd" clip-rule="evenodd" d="M299.991 -54.1829C278.896 8.382 244.294 115.913 356.691 171.809C469.088 227.706 516.727 185.903 562.766 165.439C608.805 144.976 724.951 127.321 702.347 55.0913C679.743 -17.1384 667.07 -144.802 583.032 -140.581C498.994 -136.361 512.64 -102.273 459.088 -93.4274C405.536 -84.5813 321.086 -116.748 299.991 -54.1829Z" stroke="url(#paint3_linear)" stroke-width="3.39059" stroke-linecap="round" stroke-dasharray="33.91 16.95"/>
</g>
<g filter="url(#filter3_d)">
<path fill-rule="evenodd" clip-rule="evenodd" d="M266.531 -92.1864C241.641 -19.2232 200.767 106.163 329.523 170.048C458.279 233.933 513.501 184.851 566.67 160.598C619.839 136.345 753.636 114.664 728.347 30.8947C703.058 -52.8741 689.742 -201.203 593.017 -195.462C496.292 -189.721 511.653 -150.217 449.956 -139.4C388.258 -128.582 291.42 -165.15 266.531 -92.1864Z" stroke="url(#paint4_linear)" stroke-width="10.1718" stroke-linecap="round" stroke-dasharray="67.81 33.91"/>
</g>
<path fill-rule="evenodd" clip-rule="evenodd" d="M572.983 26.7047C578.276 26.7047 582.567 22.4136 582.567 17.1202C582.567 11.8268 578.276 7.53564 572.983 7.53564C567.689 7.53564 563.398 11.8268 563.398 17.1202C563.398 22.4136 567.689 26.7047 572.983 26.7047Z" fill="white" fill-opacity="0.1" stroke="white" stroke-opacity="0.3" stroke-width="0.821532"/>
<path d="M579.831 17.1205C579.831 17.8188 579.728 18.4966 579.53 19.1333C578.989 17.9489 577.798 17.1205 576.408 17.1205C574.518 17.1205 572.985 18.654 572.985 20.5436C572.985 21.9333 573.813 23.1245 574.998 23.6654C574.361 23.8639 573.683 23.9666 572.985 23.9666C569.206 23.9666 566.139 20.8996 566.139 17.1205C566.139 13.3415 569.206 10.2744 572.985 10.2744C576.764 10.2744 579.831 13.3415 579.831 17.1205Z" fill="#00CFFD" stroke="black" stroke-width="0.821532" stroke-miterlimit="10" stroke-linecap="round" stroke-linejoin="round"/>
<path d="M574.991 23.6576C573.807 23.1167 572.985 21.9255 572.985 20.5426C572.985 19.7895 573.225 19.0981 573.642 18.5298C573.423 18.5025 573.204 18.4888 572.985 18.4888C570.74 18.4888 568.816 19.8375 567.967 21.7681C569.22 23.1167 571 23.9656 572.985 23.9656C573.684 23.9656 574.354 23.863 574.991 23.6576Z" fill="white" stroke="black" stroke-width="0.821532" stroke-miterlimit="10" stroke-linecap="round"/>
<path d="M573.751 18.38H573.758C574.135 17.9145 574.641 17.5448 575.216 17.3325C575.538 16.8807 575.723 16.3399 575.723 15.7511C575.723 14.2381 574.497 13.0127 572.984 13.0127C571.471 13.0127 570.246 14.2381 570.246 15.7511C570.246 17.2641 571.471 18.4895 572.984 18.4895C573.251 18.4895 573.512 18.4485 573.758 18.38" fill="white"/>
<path d="M573.751 18.38H573.758C574.135 17.9145 574.641 17.5448 575.216 17.3325C575.538 16.8807 575.723 16.3399 575.723 15.7511C575.723 14.2381 574.497 13.0127 572.984 13.0127C571.471 13.0127 570.246 14.2381 570.246 15.7511C570.246 17.2641 571.471 18.4895 572.984 18.4895C573.251 18.4895 573.512 18.4485 573.758 18.38" stroke="black" stroke-width="0.821532" stroke-miterlimit="10" stroke-linecap="round" stroke-linejoin="round"/>
<path d="M576.407 23.9672C578.298 23.9672 579.83 22.4346 579.83 20.5441C579.83 18.6536 578.298 17.1211 576.407 17.1211C574.517 17.1211 572.984 18.6536 572.984 20.5441C572.984 22.4346 574.517 23.9672 576.407 23.9672Z" fill="black" stroke="black" stroke-width="0.821532" stroke-miterlimit="10" stroke-linecap="round" stroke-linejoin="round"/>
<path d="M574.76 20.0979L575.993 21.3302L578.047 19.2764" stroke="#00CFFD" stroke-width="0.821532" stroke-miterlimit="10"/>
<path d="M650.002 19.8959C650.154 19.8915 650.294 19.835 650.407 19.7133L653.709 16.3324C653.805 16.2368 653.857 16.1151 653.857 15.9717C653.857 15.6849 653.631 15.4546 653.344 15.4546C653.205 15.4546 653.07 15.5111 652.97 15.611L650.007 18.6573L647.034 15.611C646.934 15.5154 646.804 15.4546 646.661 15.4546C646.374 15.4546 646.148 15.6849 646.148 15.9717C646.148 16.1151 646.2 16.2368 646.296 16.3324L649.603 19.7133C649.72 19.835 649.85 19.8959 650.002 19.8959Z" fill="white"/>
<path d="M292.949 62.1216H159.642C158.433 62.1216 157.453 63.1014 157.453 64.3101V68.2775C157.453 69.4862 158.433 70.4661 159.642 70.4661H292.949C294.157 70.4661 295.137 69.4862 295.137 68.2775V64.3101C295.137 63.1014 294.157 62.1216 292.949 62.1216Z" fill="white" fill-opacity="0.6"/>
<path d="M219.239 81.5918H159.642C158.433 81.5918 157.453 82.5716 157.453 83.7803V87.7477C157.453 88.9564 158.433 89.9363 159.642 89.9363H219.239C220.448 89.9363 221.427 88.9564 221.427 87.7477V83.7803C221.427 82.5716 220.448 81.5918 219.239 81.5918Z" fill="white" fill-opacity="0.6"/>
<path d="M285.401 101.062H158.844C158.076 101.062 157.453 101.685 157.453 102.453C157.453 103.221 158.076 103.844 158.844 103.844H285.401C286.169 103.844 286.792 103.221 286.792 102.453C286.792 101.685 286.169 101.062 285.401 101.062Z" fill="white" fill-opacity="0.3"/>
<path d="M252.024 114.97H158.844C158.076 114.97 157.453 115.593 157.453 116.361C157.453 117.129 158.076 117.752 158.844 117.752H252.024C252.792 117.752 253.415 117.129 253.415 116.361C253.415 115.593 252.792 114.97 252.024 114.97Z" fill="white" fill-opacity="0.3"/>
<path d="M268.712 128.877H158.844C158.076 128.877 157.453 129.5 157.453 130.268C157.453 131.036 158.076 131.658 158.844 131.658H268.712C269.48 131.658 270.103 131.036 270.103 130.268C270.103 129.5 269.48 128.877 268.712 128.877Z" fill="white" fill-opacity="0.3"/>
<path d="M606.628 48.6211H565.593C564.384 48.6211 563.404 49.6009 563.404 50.8096V50.8096C563.404 52.0183 564.384 52.9982 565.593 52.9982H606.628C607.836 52.9982 608.816 52.0183 608.816 50.8096C608.816 49.6009 607.836 48.6211 606.628 48.6211Z" fill="white" fill-opacity="0.6"/>
<path d="M657.975 58.561H564.795C564.027 58.561 563.404 59.1837 563.404 59.9518C563.404 60.7199 564.027 61.3425 564.795 61.3425H657.975C658.743 61.3425 659.366 60.7199 659.366 59.9518C659.366 59.1837 658.743 58.561 657.975 58.561Z" fill="white" fill-opacity="0.3"/>
<path d="M680.468 66.9058H570.246C566.465 66.9058 563.4 69.9709 563.4 73.7519V109.352C563.4 113.133 566.465 116.198 570.246 116.198H680.468C684.249 116.198 687.314 113.133 687.314 109.352V73.7519C687.314 69.9709 684.249 66.9058 680.468 66.9058Z" fill="#5B0000" fill-opacity="0.22"/>
<path fill-rule="evenodd" clip-rule="evenodd" d="M585.309 105.244C592.871 105.244 599.001 99.1136 599.001 91.5516C599.001 83.9896 592.871 77.8594 585.309 77.8594C577.747 77.8594 571.617 83.9896 571.617 91.5516C571.617 99.1136 577.747 105.244 585.309 105.244Z" fill="white" fill-opacity="0.1" stroke="white" stroke-opacity="0.3" stroke-width="0.821532"/>
<path d="M588.047 91.5515L585.309 86.7593L582.57 91.5515L579.146 86.7593L579.831 95.6592H590.786L591.469 86.7593L588.047 91.5515Z" fill="#00CFFD" stroke="black" stroke-width="0.821532" stroke-miterlimit="10" stroke-linecap="round" stroke-linejoin="round"/>
<path fill-rule="evenodd" clip-rule="evenodd" d="M591.813 97.713H578.805C578.613 97.713 578.463 97.5624 578.463 97.3707V96.0015C578.463 95.8098 578.613 95.6592 578.805 95.6592H591.813C592.004 95.6592 592.155 95.8098 592.155 96.0015V97.3707C592.155 97.5624 592.004 97.713 591.813 97.713Z" fill="white" stroke="black" stroke-width="0.821532" stroke-miterlimit="10" stroke-linecap="round" stroke-linejoin="round"/>
<path d="M579.148 86.7598C579.526 86.7598 579.832 86.4533 579.832 86.0752C579.832 85.6971 579.526 85.3906 579.148 85.3906C578.77 85.3906 578.463 85.6971 578.463 86.0752C578.463 86.4533 578.77 86.7598 579.148 86.7598Z" stroke="black" stroke-width="0.821532" stroke-miterlimit="10" stroke-linecap="round" stroke-linejoin="round"/>
<path d="M591.471 86.7594C591.849 86.7594 592.156 86.4528 592.156 86.0747C592.156 85.6966 591.849 85.3901 591.471 85.3901C591.093 85.3901 590.787 85.6966 590.787 86.0747C590.787 86.4528 591.093 86.7594 591.471 86.7594Z" stroke="black" stroke-width="0.821532" stroke-miterlimit="10" stroke-linecap="round" stroke-linejoin="round"/>
<path d="M585.312 86.7594C585.69 86.7594 585.997 86.4528 585.997 86.0747C585.997 85.6966 585.69 85.3901 585.312 85.3901C584.934 85.3901 584.627 85.6966 584.627 86.0747C584.627 86.4528 584.934 86.7594 585.312 86.7594Z" stroke="black" stroke-width="0.821532" stroke-miterlimit="10" stroke-linecap="round" stroke-linejoin="round"/>
<path d="M650.35 94.6108H607.236C606.468 94.6108 605.846 95.2335 605.846 96.0016C605.846 96.7697 606.468 97.3923 607.236 97.3923H650.35C651.118 97.3923 651.74 96.7697 651.74 96.0016C651.74 95.2335 651.118 94.6108 650.35 94.6108Z" fill="white" fill-opacity="0.3"/>
<path d="M672.595 100.131H607.557C606.612 100.131 605.846 100.897 605.846 101.842C605.846 102.788 606.612 103.554 607.557 103.554H672.595C673.54 103.554 674.307 102.788 674.307 101.842C674.307 100.897 673.54 100.131 672.595 100.131Z" fill="black" fill-opacity="0.2"/>
<path d="M672.325 101H608.675C607.75 101 607 101.448 607 102C607 102.552 607.75 103 608.675 103H672.325C673.25 103 674 102.552 674 102C674 101.448 673.25 101 672.325 101Z" fill="#00CFFD" stroke="black" stroke-opacity="0.05" stroke-width="0.247119"/>
<path d="M700.999 34.2417H136.912V34.584H700.999V34.2417Z" fill="white" fill-opacity="0.2"/>
<path d="M167.722 7.5332H147.869C146.357 7.5332 145.131 8.75925 145.131 10.2716V23.9639C145.131 25.4763 146.357 26.7023 147.869 26.7023H167.722C169.234 26.7023 170.46 25.4763 170.46 23.9639V10.2716C170.46 8.75925 169.234 7.5332 167.722 7.5332Z" fill="black" fill-opacity="0.2"/>
<path d="M154.075 21.5708H161.511C162.454 21.5708 162.945 21.0841 162.945 20.1541V14.8654C162.945 13.9355 162.454 13.4487 161.511 13.4487H154.075C153.136 13.4487 152.645 13.9311 152.645 14.8654V20.1541C152.645 21.0841 153.136 21.5708 154.075 21.5708ZM154.132 20.706C153.732 20.706 153.51 20.4974 153.51 20.0759V14.9437C153.51 14.5221 153.732 14.3135 154.132 14.3135H156.113V20.706H154.132ZM161.454 14.3135C161.854 14.3135 162.076 14.5221 162.076 14.9437V20.0759C162.076 20.4974 161.854 20.706 161.454 20.706H156.935V14.3135H161.454ZM155.262 15.904C155.418 15.904 155.548 15.7693 155.548 15.6216C155.548 15.4738 155.418 15.3435 155.262 15.3435H154.371C154.214 15.3435 154.084 15.4738 154.084 15.6216C154.084 15.7693 154.214 15.904 154.371 15.904H155.262ZM155.262 17.073C155.418 17.073 155.548 16.9427 155.548 16.7906C155.548 16.6428 155.418 16.5124 155.262 16.5124H154.371C154.214 16.5124 154.084 16.6428 154.084 16.7906C154.084 16.9427 154.214 17.073 154.371 17.073H155.262ZM155.262 18.2377C155.418 18.2377 155.548 18.1116 155.548 17.9595C155.548 17.8118 155.418 17.6858 155.262 17.6858H154.371C154.214 17.6858 154.084 17.8118 154.084 17.9595C154.084 18.1116 154.214 18.2377 154.371 18.2377H155.262Z" fill="white"/>
<path d="M690.049 7.5332H672.25C670.738 7.5332 669.512 8.75925 669.512 10.2716V23.9639C669.512 25.4763 670.738 26.7023 672.25 26.7023H690.049C691.561 26.7023 692.787 25.4763 692.787 23.9639V10.2716C692.787 8.75925 691.561 7.5332 690.049 7.5332Z" fill="black" fill-opacity="0.2"/>
<path d="M681.145 21.9967C683.609 21.9967 685.643 19.9629 685.643 17.5033C685.643 15.0436 683.605 13.0098 681.141 13.0098C678.681 13.0098 676.652 15.0436 676.652 17.5033C676.652 19.9629 678.686 21.9967 681.145 21.9967ZM681.145 21.1015C679.151 21.1015 677.556 19.4979 677.556 17.5033C677.556 15.5086 679.151 13.9094 681.141 13.9094C683.136 13.9094 684.739 15.5086 684.744 17.5033C684.748 19.4979 683.14 21.1015 681.145 21.1015ZM681.05 18.368C681.289 18.368 681.441 18.229 681.454 18.0508C681.454 18.0334 681.454 18.016 681.458 17.9987C681.471 17.777 681.623 17.6249 681.906 17.4424C682.336 17.1643 682.61 16.9122 682.61 16.4125C682.61 15.6868 681.958 15.2739 681.184 15.2739C680.441 15.2739 679.933 15.6129 679.798 16.017C679.772 16.0953 679.755 16.1691 679.755 16.2474C679.755 16.4559 679.92 16.5907 680.12 16.5907C680.376 16.5907 680.433 16.4603 680.567 16.3125C680.706 16.0953 680.889 15.9692 681.145 15.9692C681.489 15.9692 681.715 16.1648 681.715 16.4559C681.715 16.721 681.532 16.8644 681.163 17.1165C680.854 17.3338 680.628 17.5554 680.628 17.9465V17.9943C680.628 18.242 680.78 18.368 681.05 18.368ZM681.041 19.7022C681.319 19.7022 681.55 19.5023 681.55 19.2241C681.55 18.946 681.324 18.7461 681.041 18.7461C680.759 18.7461 680.528 18.9504 680.528 19.2241C680.528 19.4979 680.759 19.7022 681.041 19.7022Z" fill="white"/>
<path d="M588.264 19.4227H587.312V22H585.552V14.6993H588.425C589.291 14.6993 589.967 14.8915 590.455 15.2759C590.944 15.6603 591.188 16.2035 591.188 16.9055C591.188 17.4136 591.084 17.8348 590.877 18.1691C590.673 18.5034 590.352 18.7742 589.914 18.9814L591.438 21.9248V22H589.553L588.264 19.4227ZM587.312 18.0638H588.425C588.759 18.0638 589.01 17.9769 589.177 17.8031C589.347 17.6259 589.433 17.3802 589.433 17.066C589.433 16.7518 589.347 16.5061 589.177 16.3289C589.006 16.1484 588.756 16.0581 588.425 16.0581H587.312V18.0638ZM593.955 22H592.261V16.5746H593.955V22ZM592.16 15.1756C592.16 14.9349 592.247 14.7377 592.421 14.5839C592.595 14.4302 592.821 14.3533 593.098 14.3533C593.375 14.3533 593.601 14.4302 593.775 14.5839C593.949 14.7377 594.036 14.9349 594.036 15.1756C594.036 15.4163 593.949 15.6135 593.775 15.7673C593.601 15.9211 593.375 15.998 593.098 15.998C592.821 15.998 592.595 15.9211 592.421 15.7673C592.247 15.6135 592.16 15.4163 592.16 15.1756ZM597.295 20.7966C597.532 20.7966 597.716 20.7331 597.846 20.606C597.977 20.4757 598.04 20.2952 598.037 20.0645H599.622C599.622 20.6595 599.408 21.1476 598.98 21.5287C598.555 21.9097 598.007 22.1003 597.335 22.1003C596.546 22.1003 595.924 21.8529 595.47 21.3582C595.015 20.8634 594.788 20.1782 594.788 19.3023V19.2321C594.788 18.6839 594.888 18.2009 595.089 17.783C595.293 17.3618 595.585 17.0393 595.966 16.8153C596.347 16.588 596.798 16.4743 597.32 16.4743C598.025 16.4743 598.585 16.6699 599 17.061C599.414 17.4521 599.622 17.9819 599.622 18.6505H598.037C598.037 18.3697 597.968 18.1541 597.831 18.0037C597.694 17.8532 597.511 17.778 597.28 17.778C596.842 17.778 596.586 18.0571 596.513 18.6154C596.489 18.7926 596.478 19.0366 596.478 19.3475C596.478 19.8924 596.543 20.2701 596.673 20.4807C596.804 20.6913 597.011 20.7966 597.295 20.7966ZM601.988 17.1562C602.349 16.7016 602.811 16.4743 603.372 16.4743C603.971 16.4743 604.422 16.6515 604.726 17.0058C605.03 17.3602 605.186 17.8833 605.192 18.5753V22H603.498V18.6154C603.498 18.3279 603.439 18.1173 603.322 17.9836C603.205 17.8465 603.006 17.778 602.725 17.778C602.378 17.778 602.132 17.8883 601.988 18.109V22H600.298V14.2981H601.988V17.1562ZM609.189 22C609.128 21.8897 609.075 21.7276 609.028 21.5136C608.717 21.9047 608.283 22.1003 607.725 22.1003C607.213 22.1003 606.778 21.9465 606.421 21.639C606.063 21.3281 605.884 20.9387 605.884 20.4707C605.884 19.8823 606.102 19.4377 606.536 19.1369C606.971 18.836 607.602 18.6856 608.432 18.6856H608.953V18.3998C608.953 17.9017 608.737 17.6527 608.306 17.6527C607.905 17.6527 607.704 17.8499 607.704 18.2443H606.015C606.015 17.7195 606.237 17.2933 606.682 16.9657C607.129 16.6381 607.699 16.4743 608.391 16.4743C609.083 16.4743 609.63 16.6431 610.031 16.9808C610.432 17.3184 610.638 17.7814 610.648 18.3697V20.7715C610.654 21.2696 610.731 21.6507 610.878 21.9148V22H609.189ZM608.131 20.8969C608.341 20.8969 608.515 20.8517 608.652 20.7615C608.793 20.6712 608.893 20.5693 608.953 20.4556V19.5882H608.462C607.873 19.5882 607.579 19.8522 607.579 20.3804C607.579 20.5342 607.631 20.6595 607.735 20.7565C607.838 20.8501 607.97 20.8969 608.131 20.8969ZM614.87 18.1039L614.313 18.0638C613.782 18.0638 613.441 18.231 613.29 18.5652V22H611.601V16.5746H613.185L613.24 17.2716C613.524 16.7401 613.92 16.4743 614.429 16.4743C614.609 16.4743 614.766 16.4944 614.9 16.5345L614.87 18.1039ZM615.166 19.2472C615.166 18.3881 615.351 17.7112 615.722 17.2164C616.093 16.7217 616.611 16.4743 617.277 16.4743C617.761 16.4743 618.169 16.6649 618.5 17.0459V14.2981H620.195V22H618.676L618.59 21.4183C618.243 21.873 617.801 22.1003 617.267 22.1003C616.621 22.1003 616.11 21.8529 615.732 21.3582C615.355 20.8634 615.166 20.1598 615.166 19.2472ZM616.855 19.3525C616.855 20.3152 617.136 20.7966 617.698 20.7966C618.072 20.7966 618.34 20.6395 618.5 20.3252V18.2594C618.346 17.9385 618.082 17.778 617.708 17.778C617.186 17.778 616.904 18.1992 616.86 19.0416L616.855 19.3525ZM623.79 22V14.6993H626.142C626.787 14.6993 627.367 14.8464 627.882 15.1405C628.397 15.4314 628.798 15.8442 629.085 16.379C629.376 16.9106 629.523 17.5072 629.526 18.1691V18.5051C629.526 19.1736 629.384 19.7737 629.1 20.3052C628.819 20.8334 628.422 21.2479 627.907 21.5487C627.395 21.8462 626.824 21.9967 626.192 22H623.79ZM625.55 16.0581V20.6462H626.162C626.667 20.6462 627.054 20.4673 627.325 20.1096C627.596 19.7486 627.731 19.2138 627.731 18.5051V18.1892C627.731 17.4838 627.596 16.9523 627.325 16.5947C627.054 16.237 626.66 16.0581 626.142 16.0581H625.55ZM632.976 22.1003C632.144 22.1003 631.47 21.8529 630.955 21.3582C630.441 20.8601 630.183 20.2133 630.183 19.4177V19.2773C630.183 18.7224 630.285 18.2326 630.489 17.8081C630.696 17.3836 630.997 17.056 631.392 16.8253C631.786 16.5913 632.254 16.4743 632.796 16.4743C633.558 16.4743 634.16 16.7117 634.601 17.1863C635.042 17.6577 635.263 18.3162 635.263 19.1619V19.8188H631.903C631.963 20.123 632.095 20.362 632.299 20.5358C632.503 20.7097 632.767 20.7966 633.092 20.7966C633.626 20.7966 634.044 20.6094 634.345 20.235L635.117 21.1476C634.907 21.4384 634.607 21.6707 634.22 21.8446C633.835 22.015 633.421 22.1003 632.976 22.1003ZM632.786 17.778C632.291 17.778 631.997 18.1056 631.903 18.7608H633.608V18.6304C633.615 18.3597 633.546 18.1507 633.402 18.0037C633.259 17.8532 633.053 17.778 632.786 17.778ZM640.342 20.6462H643.406V22H638.582V14.6993H640.342V20.6462Z" fill="white"/>
</g>
</g>
<defs>
<filter id="filter0_d" x="174.607" y="-217.663" width="606.918" height="513.792" filterUnits="userSpaceOnUse" color-interpolation-filters="sRGB">
<feFlood flood-opacity="0" result="BackgroundImageFix"/>
<feColorMatrix in="SourceAlpha" type="matrix" values="0 0 0 0 0 0 0 0 0 0 0 0 0 0 0 0 0 0 127 0"/>
<feOffset/>
<feGaussianBlur stdDeviation="30.3029"/>
<feColorMatrix type="matrix" values="0 0 0 0 0.129427 0 0 0 0 0.224219 0 0 0 0 0.4375 0 0 0 0.3 0"/>
<feBlend mode="normal" in2="BackgroundImageFix" result="effect1_dropShadow"/>
<feBlend mode="normal" in="SourceGraphic" in2="effect1_dropShadow" result="shape"/>
</filter>
<filter id="filter1_d" x="181.125" y="-230.604" width="603.585" height="512.4" filterUnits="userSpaceOnUse" color-interpolation-filters="sRGB">
<feFlood flood-opacity="0" result="BackgroundImageFix"/>
<feColorMatrix in="SourceAlpha" type="matrix" values="0 0 0 0 0 0 0 0 0 0 0 0 0 0 0 0 0 0 127 0"/>
<feOffset/>
<feGaussianBlur stdDeviation="30.3029"/>
<feColorMatrix type="matrix" values="0 0 0 0 0.129427 0 0 0 0 0.224219 0 0 0 0 0.4375 0 0 0 0.3 0"/>
<feBlend mode="normal" in2="BackgroundImageFix" result="effect1_dropShadow"/>
<feBlend mode="normal" in="SourceGraphic" in2="effect1_dropShadow" result="shape"/>
</filter>
<filter id="filter2_d" x="215.625" y="-202.984" width="551.889" height="465.044" filterUnits="userSpaceOnUse" color-interpolation-filters="sRGB">
<feFlood flood-opacity="0" result="BackgroundImageFix"/>
<feColorMatrix in="SourceAlpha" type="matrix" values="0 0 0 0 0 0 0 0 0 0 0 0 0 0 0 0 0 0 127 0"/>
<feOffset/>
<feGaussianBlur stdDeviation="30.3029"/>
<feColorMatrix type="matrix" values="0 0 0 0 0.129427 0 0 0 0 0.224219 0 0 0 0 0.4375 0 0 0 0.3 0"/>
<feBlend mode="normal" in2="BackgroundImageFix" result="effect1_dropShadow"/>
<feBlend mode="normal" in="SourceGraphic" in2="effect1_dropShadow" result="shape"/>
</filter>
<filter id="filter3_d" x="174.41" y="-261.316" width="622.776" height="528.561" filterUnits="userSpaceOnUse" color-interpolation-filters="sRGB">
<feFlood flood-opacity="0" result="BackgroundImageFix"/>
<feColorMatrix in="SourceAlpha" type="matrix" values="0 0 0 0 0 0 0 0 0 0 0 0 0 0 0 0 0 0 127 0"/>
<feOffset/>
<feGaussianBlur stdDeviation="30.3029"/>
<feColorMatrix type="matrix" values="0 0 0 0 0.129427 0 0 0 0 0.224219 0 0 0 0 0.4375 0 0 0 0.3 0"/>
<feBlend mode="normal" in2="BackgroundImageFix" result="effect1_dropShadow"/>
<feBlend mode="normal" in="SourceGraphic" in2="effect1_dropShadow" result="shape"/>
</filter>
<linearGradient id="paint0_linear" x1="158.139" y1="122.102" x2="525.761" y2="355.301" gradientUnits="userSpaceOnUse">
<stop stop-color="#E1467C"/>
<stop offset="1" stop-color="#FF9CE3"/>
</linearGradient>
<linearGradient id="paint1_linear" x1="693.716" y1="149.856" x2="275.075" y2="-82.1229" gradientUnits="userSpaceOnUse">
<stop stop-color="#E0695B"/>
<stop offset="1" stop-color="#3913B8"/>
</linearGradient>
<linearGradient id="paint2_linear" x1="694.077" y1="133.915" x2="284.154" y2="-93.2335" gradientUnits="userSpaceOnUse">
<stop stop-color="#FF5A3D"/>
<stop offset="1" stop-color="#2FB8FF"/>
</linearGradient>
<linearGradient id="paint3_linear" x1="681.782" y1="127.141" x2="311.869" y2="-77.8364" gradientUnits="userSpaceOnUse">
<stop stop-color="#FF5A3D"/>
<stop offset="1" stop-color="#2FB8FF"/>
</linearGradient>
<linearGradient id="paint4_linear" x1="703.973" y1="114.883" x2="280.432" y2="-119.812" gradientUnits="userSpaceOnUse">
<stop stop-color="#FF6C6C"/>
<stop offset="1" stop-color="#2FB8FF"/>
</linearGradient>
<clipPath id="clip0">
<rect width="701" height="428" fill="white"/>
</clipPath>
</defs>
</svg>
