<svg width="701" height="428" viewBox="0 0 701 428" fill="none" xmlns="http://www.w3.org/2000/svg">
<g clip-path="url(#clip0)">
<path d="M0 373.216H136.914V428H6.84611C3.06511 428 0 424.935 0 421.154V373.216Z" fill="black" fill-opacity="0.1"/>
<path fill-rule="evenodd" clip-rule="evenodd" d="M26.0106 413.958C33.5726 413.958 39.7028 407.828 39.7028 400.266C39.7028 392.704 33.5726 386.574 26.0106 386.574C18.4486 386.574 12.3184 392.704 12.3184 400.266C12.3184 407.828 18.4486 413.958 26.0106 413.958Z" fill="white" fill-opacity="0.1" stroke="white" stroke-opacity="0.3" stroke-width="0.821532"/>
<path d="M26.0063 393.42L19.1602 400.266L26.0063 407.112L32.8524 400.266L26.0063 393.42Z" fill="#00CFFD" stroke="black" stroke-width="0.821532" stroke-miterlimit="10" stroke-linecap="round" stroke-linejoin="round"/>
<path fill-rule="evenodd" clip-rule="evenodd" d="M24.2931 400.668C24.1326 400.508 23.8726 400.508 23.7121 400.668C23.5517 400.828 23.5517 401.088 23.7121 401.249L25.7868 403.324C25.8639 403.401 25.9684 403.444 26.0773 403.444C26.1862 403.444 26.2907 403.401 26.3678 403.324L28.4425 401.249C28.6029 401.088 28.6029 400.828 28.4425 400.668C28.282 400.508 28.022 400.508 27.8615 400.668L26.49 402.039V397.154C26.49 396.927 26.3061 396.743 26.0792 396.743C25.8523 396.743 25.6684 396.927 25.6684 397.154V402.043L24.2931 400.668Z" fill="black"/>
<path d="M89.7724 389.709H48.7374C47.5287 389.709 46.5488 390.689 46.5488 391.897V391.898C46.5488 393.106 47.5287 394.086 48.7374 394.086H89.7724C90.9811 394.086 91.9609 393.106 91.9609 391.898V391.897C91.9609 390.689 90.9811 389.709 89.7724 389.709Z" fill="white" fill-opacity="0.6"/>
<path d="M77.1883 399.649H47.6431C47.0388 399.649 46.5488 400.139 46.5488 400.743C46.5488 401.348 47.0388 401.837 47.6431 401.837H77.1883C77.7926 401.837 78.2825 401.348 78.2825 400.743C78.2825 400.139 77.7926 399.649 77.1883 399.649Z" fill="white" fill-opacity="0.3"/>
<path d="M120.144 407.4H48.2604C47.3151 407.4 46.5488 408.166 46.5488 409.111C46.5488 410.057 47.3151 410.823 48.2604 410.823H120.144C121.09 410.823 121.856 410.057 121.856 409.111C121.856 408.166 121.09 407.4 120.144 407.4Z" fill="black" fill-opacity="0.2"/>
<path d="M95.4994 408.085H48.2613C47.6941 408.085 47.2344 408.545 47.2344 409.112C47.2344 409.679 47.6941 410.139 48.2613 410.139H95.4994C96.0665 410.139 96.5263 409.679 96.5263 409.112C96.5263 408.545 96.0665 408.085 95.4994 408.085Z" fill="#00CFFD" stroke="black" stroke-opacity="0.05" stroke-width="0.247119"/>
<path d="M126.649 39.9927H10.2648C8.37435 39.9927 6.8418 41.5252 6.8418 43.4157V55.7387C6.8418 57.6292 8.37435 59.1618 10.2648 59.1618H126.649C128.539 59.1618 130.072 57.6292 130.072 55.7387V43.4157C130.072 41.5252 128.539 39.9927 126.649 39.9927Z" fill="black" fill-opacity="0.2"/>
<path d="M16.7384 52.553C17.4294 52.553 18.0769 52.3444 18.6158 51.9881L20.5192 53.8958C20.6452 54.0175 20.806 54.0784 20.9798 54.0784C21.3405 54.0784 21.6056 53.7959 21.6056 53.4395C21.6056 53.2744 21.5491 53.1136 21.4274 52.9919L19.537 51.0929C19.9282 50.541 20.1585 49.8631 20.1585 49.133C20.1585 47.2513 18.6201 45.7129 16.7384 45.7129C14.8611 45.7129 13.3184 47.2513 13.3184 49.133C13.3184 51.0147 14.8568 52.553 16.7384 52.553ZM16.7384 51.6404C15.3609 51.6404 14.231 50.5106 14.231 49.133C14.231 47.7598 15.3609 46.6255 16.7384 46.6255C18.116 46.6255 19.2459 47.7598 19.2459 49.133C19.2459 50.5106 18.116 51.6404 16.7384 51.6404Z" fill="white"/>
<path d="M37.4812 67.377H7.93607C7.33172 67.377 6.8418 67.8669 6.8418 68.4712C6.8418 69.0756 7.33172 69.5655 7.93607 69.5655H37.4812C38.0856 69.5655 38.5755 69.0756 38.5755 68.4712C38.5755 67.8669 38.0856 67.377 37.4812 67.377Z" fill="white" fill-opacity="0.3"/>
<path d="M126.649 75.0425H10.2648C8.37435 75.0425 6.8418 76.575 6.8418 78.4655V90.7885C6.8418 92.679 8.37435 94.2116 10.2648 94.2116H126.649C128.539 94.2116 130.072 92.679 130.072 90.7885V78.4655C130.072 76.575 128.539 75.0425 126.649 75.0425Z" fill="white" fill-opacity="0.1"/>
<path d="M21.9047 90.7883H15.7432C15.3667 90.7883 15.0586 90.4802 15.0586 90.1037V79.1499C15.0586 78.7734 15.3667 78.4653 15.7432 78.4653H21.9047V90.7883Z" stroke="white" stroke-opacity="0.6" stroke-width="0.821532" stroke-miterlimit="10" stroke-linecap="round" stroke-linejoin="round"/>
<path d="M28.0658 90.7888H21.9043V78.4658H28.0658C28.4423 78.4658 28.7504 78.7739 28.7504 79.1504V90.1042C28.7504 90.4807 28.4423 90.7888 28.0658 90.7888Z" stroke="white" stroke-opacity="0.6" stroke-width="0.821532" stroke-miterlimit="10" stroke-linecap="round" stroke-linejoin="round"/>
<path d="M16.4277 84.6274H20.5354" stroke="white" stroke-opacity="0.6" stroke-width="0.821532" stroke-miterlimit="10"/>
<path d="M16.4277 81.8892H20.5354" stroke="white" stroke-opacity="0.6" stroke-width="0.821532" stroke-miterlimit="10"/>
<path d="M16.4277 87.3657H20.5354" stroke="white" stroke-opacity="0.6" stroke-width="0.821532" stroke-miterlimit="10"/>
<path d="M23.2734 84.6274H27.3811" stroke="white" stroke-opacity="0.6" stroke-width="0.821532" stroke-miterlimit="10"/>
<path d="M23.2734 81.8892H27.3811" stroke="white" stroke-opacity="0.6" stroke-width="0.821532" stroke-miterlimit="10"/>
<path d="M67.6043 83.5327H38.0591C37.4548 83.5327 36.9648 84.0226 36.9648 84.627C36.9648 85.2313 37.4548 85.7212 38.0591 85.7212H67.6043C68.2086 85.7212 68.6985 85.2313 68.6985 84.627C68.6985 84.0226 68.2086 83.5327 67.6043 83.5327Z" fill="white" fill-opacity="0.3"/>
<path d="M21.2221 102.425C19.6201 102.425 17.6005 103.602 17.6347 106.642L15.088 109.942C15.0127 110.037 15.1017 110.161 15.2386 110.161L16.9364 111.003C17.0254 111.633 17.354 113.467 17.532 114.385C17.5937 114.672 20.4006 114.453 20.4006 114.453L21.2221 116.117" stroke="white" stroke-opacity="0.6" stroke-width="0.821532" stroke-miterlimit="10" stroke-linecap="round" stroke-linejoin="round"/>
<path fill-rule="evenodd" clip-rule="evenodd" d="M24.5402 102.563C24.6166 102.35 24.5054 102.114 24.2918 102.038C24.0782 101.962 23.8431 102.073 23.7667 102.286L23.0684 104.238C22.9919 104.451 23.1031 104.686 23.3167 104.763C23.5303 104.839 23.7654 104.728 23.8419 104.514L24.5402 102.563ZM28.7834 104.63C28.965 104.494 29.002 104.237 28.8661 104.055C28.7301 103.874 28.4727 103.837 28.2911 103.973L25.9497 105.725C25.7681 105.861 25.7311 106.119 25.867 106.3C26.003 106.482 26.2604 106.519 26.442 106.383L28.7834 104.63ZM26.104 109.151C26.1206 108.925 26.3175 108.755 26.5437 108.772L28.7824 108.936C29.0087 108.953 29.1786 109.149 29.162 109.376C29.1454 109.602 28.9485 109.772 28.7223 109.755L26.4836 109.591C26.2574 109.574 26.0874 109.378 26.104 109.151ZM21.7153 112.907C21.4885 112.907 21.3046 113.09 21.3046 113.317C21.3046 113.544 21.4885 113.728 21.7153 113.728H23.5159C23.7427 113.728 23.9266 113.544 23.9266 113.317C23.9266 113.09 23.7427 112.907 23.5159 112.907H21.7153ZM21.3046 111.551C21.3046 111.324 21.4885 111.14 21.7153 111.14H21.8237C20.9205 110.382 19.6839 108.718 20.6944 107.388C21.6802 106.094 23.5492 106.094 24.5351 107.388C25.5445 108.717 24.3163 110.383 23.411 111.14H23.5159C23.7427 111.14 23.9266 111.324 23.9266 111.551C23.9266 111.777 23.7427 111.961 23.5159 111.961H21.7153C21.4885 111.961 21.3046 111.777 21.3046 111.551ZM23.0314 111.14V109.389C23.2207 109.252 23.3439 109.029 23.3439 108.778C23.3439 108.362 23.0067 108.025 22.5908 108.025C22.1749 108.025 21.8378 108.362 21.8378 108.778C21.8378 109.055 21.9872 109.297 22.2099 109.428V111.14H23.0314ZM22.5761 108.711C22.582 108.711 22.5879 108.71 22.5938 108.71H22.5908C22.5858 108.71 22.5809 108.71 22.5761 108.711Z" fill="white" fill-opacity="0.6"/>
<path d="M81.4687 107.882H38.3556C37.5875 107.882 36.9648 108.504 36.9648 109.273C36.9648 110.041 37.5875 110.663 38.3556 110.663H81.4687C82.2368 110.663 82.8594 110.041 82.8594 109.273C82.8594 108.504 82.2368 107.882 81.4687 107.882Z" fill="white" fill-opacity="0.3"/>
<path d="M21.9066 127.074L15.0605 133.92L21.9066 140.766L28.7527 133.92L21.9066 127.074Z" stroke="white" stroke-opacity="0.6" stroke-width="0.821532" stroke-miterlimit="10" stroke-linecap="round" stroke-linejoin="round"/>
<path fill-rule="evenodd" clip-rule="evenodd" d="M20.1934 134.324C20.033 134.163 19.7729 134.163 19.6125 134.324C19.4521 134.484 19.4521 134.744 19.6125 134.905L21.6872 136.979C21.7643 137.056 21.8687 137.1 21.9777 137.1C22.0866 137.1 22.1911 137.056 22.2681 136.979L24.3428 134.905C24.5033 134.744 24.5033 134.484 24.3428 134.324C24.1824 134.163 23.9223 134.163 23.7619 134.324L22.3904 135.695V130.81C22.3904 130.583 22.2065 130.399 21.9796 130.399C21.7527 130.399 21.5688 130.583 21.5688 130.81V135.699L20.1934 134.324Z" fill="white" fill-opacity="0.6"/>
<path d="M81.4687 132.528H38.3556C37.5875 132.528 36.9648 133.15 36.9648 133.919C36.9648 134.687 37.5875 135.309 38.3556 135.309H81.4687C82.2368 135.309 82.8594 134.687 82.8594 133.919C82.8594 133.15 82.2368 132.528 81.4687 132.528Z" fill="white" fill-opacity="0.3"/>
<path d="M29.7773 183.211C29.7773 187.559 26.2523 191.084 21.9042 191.084C17.5561 191.084 14.0312 187.559 14.0312 183.211C14.0312 178.863 17.5561 175.338 21.9042 175.338C26.2523 175.338 29.7773 178.863 29.7773 183.211Z" stroke="white" stroke-opacity="0.2" stroke-width="0.68461"/>
<path d="M67.6043 182.117H38.0591C37.4548 182.117 36.9648 182.607 36.9648 183.211C36.9648 183.815 37.4548 184.305 38.0591 184.305H67.6043C68.2086 184.305 68.6985 183.815 68.6985 183.211C68.6985 182.607 68.2086 182.117 67.6043 182.117Z" fill="white" fill-opacity="0.3"/>
<path d="M29.7773 206.488C29.7773 210.836 26.2523 214.361 21.9042 214.361C17.5561 214.361 14.0312 210.836 14.0312 206.488C14.0312 202.14 17.5561 198.615 21.9042 198.615C26.2523 198.615 29.7773 202.14 29.7773 206.488Z" stroke="white" stroke-opacity="0.2" stroke-width="0.68461"/>
<path d="M73.1242 205.097H38.3556C37.5875 205.097 36.9648 205.719 36.9648 206.487C36.9648 207.256 37.5875 207.878 38.3556 207.878H73.1242C73.8923 207.878 74.5149 207.256 74.5149 206.487C74.5149 205.719 73.8923 205.097 73.1242 205.097Z" fill="white" fill-opacity="0.3"/>
<path d="M29.7773 229.764C29.7773 234.113 26.2523 237.637 21.9042 237.637C17.5561 237.637 14.0312 234.113 14.0312 229.764C14.0312 225.416 17.5561 221.891 21.9042 221.891C26.2523 221.891 29.7773 225.416 29.7773 229.764Z" stroke="white" stroke-opacity="0.2" stroke-width="0.68461"/>
<path d="M77.2965 228.374H38.3556C37.5875 228.374 36.9648 228.996 36.9648 229.764C36.9648 230.532 37.5875 231.155 38.3556 231.155H77.2965C78.0646 231.155 78.6872 230.532 78.6872 229.764C78.6872 228.996 78.0646 228.374 77.2965 228.374Z" fill="white" fill-opacity="0.3"/>
<path d="M29.7773 283.164C29.7773 287.512 26.2523 291.037 21.9042 291.037C17.5561 291.037 14.0312 287.512 14.0312 283.164C14.0312 278.816 17.5561 275.291 21.9042 275.291C26.2523 275.291 29.7773 278.816 29.7773 283.164Z" stroke="white" stroke-opacity="0.2" stroke-width="0.68461"/>
<path d="M59.2168 281.772H38.3556C37.5875 281.772 36.9648 282.395 36.9648 283.163C36.9648 283.931 37.5875 284.554 38.3556 284.554H59.2168C59.9849 284.554 60.6075 283.931 60.6075 283.163C60.6075 282.395 59.9849 281.772 59.2168 281.772Z" fill="white" fill-opacity="0.3"/>
<path d="M29.7773 306.441C29.7773 310.789 26.2523 314.314 21.9042 314.314C17.5561 314.314 14.0312 310.789 14.0312 306.441C14.0312 302.093 17.5561 298.568 21.9042 298.568C26.2523 298.568 29.7773 302.093 29.7773 306.441Z" stroke="white" stroke-opacity="0.2" stroke-width="0.68461"/>
<path d="M67.6043 305.347H38.0591C37.4548 305.347 36.9648 305.837 36.9648 306.441C36.9648 307.045 37.4548 307.535 38.0591 307.535H67.6043C68.2086 307.535 68.6985 307.045 68.6985 306.441C68.6985 305.837 68.2086 305.347 67.6043 305.347Z" fill="white" fill-opacity="0.3"/>
<path d="M29.7773 329.718C29.7773 334.066 26.2523 337.591 21.9042 337.591C17.5561 337.591 14.0312 334.066 14.0312 329.718C14.0312 325.369 17.5561 321.845 21.9042 321.845C26.2523 321.845 29.7773 325.369 29.7773 329.718Z" stroke="white" stroke-opacity="0.2" stroke-width="0.68461"/>
<path d="M87.0317 328.327H38.3556C37.5875 328.327 36.9648 328.949 36.9648 329.717C36.9648 330.485 37.5875 331.108 38.3556 331.108H87.0317C87.7998 331.108 88.4224 330.485 88.4224 329.717C88.4224 328.949 87.7998 328.327 87.0317 328.327Z" fill="white" fill-opacity="0.3"/>
<path d="M21.9067 17.8049C21.9067 15.5363 20.0677 13.6973 17.7991 13.6973C15.5305 13.6973 13.6914 15.5363 13.6914 17.8049C13.6914 20.0735 15.5305 21.9126 17.7991 21.9126C20.0677 21.9126 21.9067 20.0735 21.9067 17.8049Z" fill="#EB6A5D"/>
<path d="M36.2837 17.8049C36.2837 15.5363 34.4446 13.6973 32.176 13.6973C29.9074 13.6973 28.0684 15.5363 28.0684 17.8049C28.0684 20.0735 29.9074 21.9126 32.176 21.9126C34.4446 21.9126 36.2837 20.0735 36.2837 17.8049Z" fill="#F3BE4F"/>
<path d="M50.6606 17.8049C50.6606 15.5363 48.8216 13.6973 46.553 13.6973C44.2844 13.6973 42.4453 15.5363 42.4453 17.8049C42.4453 20.0735 44.2844 21.9126 46.553 21.9126C48.8216 21.9126 50.6606 20.0735 50.6606 17.8049Z" fill="#64C354"/>
<path d="M136.912 0H694.153C697.934 0 700.999 3.0651 700.999 6.8461V421.154C700.999 424.935 697.934 428 694.153 428H136.912V0Z" fill="#1A164A" fill-opacity="0.63"/>
<mask id="mask0" mask-type="alpha" maskUnits="userSpaceOnUse" x="140" y="-3" width="565" height="428">
<path d="M140 -3H697.241C701.022 -3 704.087 0.0651 704.087 3.8461V418.154C704.087 421.935 701.022 425 697.241 425H140V-3Z" fill="#1A164A"/>
</mask>
<g mask="url(#mask0)">
<path fill-rule="evenodd" clip-rule="evenodd" d="M650.501 156.592C676.725 92.4358 720.087 -17.9166 607.934 -82.1143C495.781 -146.312 443.607 -105.205 394.597 -86.2721C345.588 -67.3396 224.353 -55.012 242.588 21.5162C260.823 98.0444 264.873 231.876 351.987 231.878C439.101 231.881 427.419 195.609 483.367 189.188C539.315 182.768 624.277 220.748 650.501 156.592Z" fill="url(#paint0_linear)"/>
<path fill-rule="evenodd" clip-rule="evenodd" d="M650.501 156.592C676.725 92.4358 720.087 -17.9166 607.934 -82.1143C495.781 -146.312 443.607 -105.205 394.597 -86.2721C345.588 -67.3396 224.353 -55.012 242.588 21.5162C260.823 98.0444 264.873 231.876 351.987 231.878C439.101 231.881 427.419 195.609 483.367 189.188C539.315 182.768 624.277 220.748 650.501 156.592Z" fill="#14BEFD"/>
<g filter="url(#filter0_d)">
<path fill-rule="evenodd" clip-rule="evenodd" d="M261.336 -54.8167C236.734 17.3022 196.333 141.238 323.599 204.383C450.865 267.529 505.448 219.015 558.001 195.043C610.555 171.07 742.804 149.64 717.808 66.8402C692.811 -15.9593 679.649 -162.572 584.044 -156.897C488.438 -151.222 503.622 -112.176 442.638 -101.483C381.654 -90.7911 285.937 -126.936 261.336 -54.8167Z" fill="url(#paint1_linear)"/>
</g>
<g opacity="0.5" filter="url(#filter1_d)">
<path opacity="0.5" fill-rule="evenodd" clip-rule="evenodd" d="M270.7 -66.4958C246.611 4.1214 207.05 125.476 331.667 187.307C456.283 249.139 509.729 201.634 561.188 178.161C612.648 154.688 742.143 133.703 717.667 52.6279C693.191 -28.4475 680.303 -172.007 586.688 -166.451C493.073 -160.894 507.941 -122.661 448.227 -112.191C388.513 -101.721 294.789 -137.113 270.7 -66.4958Z" stroke="url(#paint2_linear)" stroke-width="6.78117" stroke-linecap="round" stroke-dasharray="67.81 33.91"/>
</g>
<g opacity="0.2" filter="url(#filter2_d)">
<path opacity="0.2" fill-rule="evenodd" clip-rule="evenodd" d="M299.991 -54.1829C278.896 8.382 244.294 115.913 356.691 171.809C469.088 227.706 516.727 185.903 562.766 165.439C608.805 144.976 724.951 127.321 702.347 55.0913C679.743 -17.1384 667.07 -144.802 583.032 -140.581C498.994 -136.361 512.64 -102.273 459.088 -93.4274C405.536 -84.5813 321.086 -116.748 299.991 -54.1829Z" stroke="url(#paint3_linear)" stroke-width="3.39059" stroke-linecap="round" stroke-dasharray="33.91 16.95"/>
</g>
<g filter="url(#filter3_d)">
<path fill-rule="evenodd" clip-rule="evenodd" d="M266.531 -92.1864C241.641 -19.2232 200.767 106.163 329.523 170.048C458.279 233.933 513.501 184.851 566.67 160.598C619.839 136.345 753.636 114.664 728.347 30.8947C703.058 -52.8741 689.742 -201.203 593.017 -195.462C496.292 -189.721 511.653 -150.217 449.956 -139.4C388.258 -128.582 291.42 -165.15 266.531 -92.1864Z" stroke="url(#paint4_linear)" stroke-width="10.1718" stroke-linecap="round" stroke-dasharray="67.81 33.91"/>
</g>
<path fill-rule="evenodd" clip-rule="evenodd" d="M572.983 26.7047C578.276 26.7047 582.567 22.4136 582.567 17.1202C582.567 11.8268 578.276 7.53564 572.983 7.53564C567.689 7.53564 563.398 11.8268 563.398 17.1202C563.398 22.4136 567.689 26.7047 572.983 26.7047Z" fill="white" fill-opacity="0.1" stroke="white" stroke-opacity="0.3" stroke-width="0.821532"/>
<path d="M579.831 17.1205C579.831 17.8188 579.728 18.4966 579.53 19.1333C578.989 17.9489 577.798 17.1205 576.408 17.1205C574.518 17.1205 572.985 18.654 572.985 20.5436C572.985 21.9333 573.813 23.1245 574.998 23.6654C574.361 23.8639 573.683 23.9666 572.985 23.9666C569.206 23.9666 566.139 20.8996 566.139 17.1205C566.139 13.3415 569.206 10.2744 572.985 10.2744C576.764 10.2744 579.831 13.3415 579.831 17.1205Z" fill="#00CFFD" stroke="black" stroke-width="0.821532" stroke-miterlimit="10" stroke-linecap="round" stroke-linejoin="round"/>
<path d="M574.991 23.6576C573.807 23.1167 572.985 21.9255 572.985 20.5426C572.985 19.7895 573.225 19.0981 573.642 18.5298C573.423 18.5025 573.204 18.4888 572.985 18.4888C570.74 18.4888 568.816 19.8375 567.967 21.7681C569.22 23.1167 571 23.9656 572.985 23.9656C573.684 23.9656 574.354 23.863 574.991 23.6576Z" fill="white" stroke="black" stroke-width="0.821532" stroke-miterlimit="10" stroke-linecap="round"/>
<path d="M573.751 18.38H573.758C574.135 17.9145 574.641 17.5448 575.216 17.3325C575.538 16.8807 575.723 16.3399 575.723 15.7511C575.723 14.2381 574.497 13.0127 572.984 13.0127C571.471 13.0127 570.246 14.2381 570.246 15.7511C570.246 17.2641 571.471 18.4895 572.984 18.4895C573.251 18.4895 573.512 18.4485 573.758 18.38" fill="white"/>
<path d="M573.751 18.38H573.758C574.135 17.9145 574.641 17.5448 575.216 17.3325C575.538 16.8807 575.723 16.3399 575.723 15.7511C575.723 14.2381 574.497 13.0127 572.984 13.0127C571.471 13.0127 570.246 14.2381 570.246 15.7511C570.246 17.2641 571.471 18.4895 572.984 18.4895C573.251 18.4895 573.512 18.4485 573.758 18.38" stroke="black" stroke-width="0.821532" stroke-miterlimit="10" stroke-linecap="round" stroke-linejoin="round"/>
<path d="M576.407 23.9672C578.298 23.9672 579.83 22.4346 579.83 20.5441C579.83 18.6536 578.298 17.1211 576.407 17.1211C574.517 17.1211 572.984 18.6536 572.984 20.5441C572.984 22.4346 574.517 23.9672 576.407 23.9672Z" fill="black" stroke="black" stroke-width="0.821532" stroke-miterlimit="10" stroke-linecap="round" stroke-linejoin="round"/>
<path d="M574.76 20.0979L575.993 21.3302L578.047 19.2764" stroke="#00CFFD" stroke-width="0.821532" stroke-miterlimit="10"/>
<path d="M650.002 19.8959C650.154 19.8915 650.294 19.835 650.407 19.7133L653.709 16.3324C653.805 16.2368 653.857 16.1151 653.857 15.9717C653.857 15.6849 653.631 15.4546 653.344 15.4546C653.205 15.4546 653.07 15.5111 652.97 15.611L650.007 18.6573L647.034 15.611C646.934 15.5154 646.804 15.4546 646.661 15.4546C646.374 15.4546 646.148 15.6849 646.148 15.9717C646.148 16.1151 646.2 16.2368 646.296 16.3324L649.603 19.7133C649.72 19.835 649.85 19.8959 650.002 19.8959Z" fill="white"/>
<path d="M292.949 62.1216H159.642C158.433 62.1216 157.453 63.1014 157.453 64.3101V68.2775C157.453 69.4862 158.433 70.4661 159.642 70.4661H292.949C294.157 70.4661 295.137 69.4862 295.137 68.2775V64.3101C295.137 63.1014 294.157 62.1216 292.949 62.1216Z" fill="white" fill-opacity="0.6"/>
<path d="M219.239 81.5918H159.642C158.433 81.5918 157.453 82.5716 157.453 83.7803V87.7477C157.453 88.9564 158.433 89.9363 159.642 89.9363H219.239C220.448 89.9363 221.427 88.9564 221.427 87.7477V83.7803C221.427 82.5716 220.448 81.5918 219.239 81.5918Z" fill="white" fill-opacity="0.6"/>
<path d="M285.401 101.062H158.844C158.076 101.062 157.453 101.685 157.453 102.453C157.453 103.221 158.076 103.844 158.844 103.844H285.401C286.169 103.844 286.792 103.221 286.792 102.453C286.792 101.685 286.169 101.062 285.401 101.062Z" fill="white" fill-opacity="0.3"/>
<path d="M252.024 114.97H158.844C158.076 114.97 157.453 115.593 157.453 116.361C157.453 117.129 158.076 117.752 158.844 117.752H252.024C252.792 117.752 253.415 117.129 253.415 116.361C253.415 115.593 252.792 114.97 252.024 114.97Z" fill="white" fill-opacity="0.3"/>
<path d="M268.712 128.877H158.844C158.076 128.877 157.453 129.5 157.453 130.268C157.453 131.036 158.076 131.658 158.844 131.658H268.712C269.48 131.658 270.103 131.036 270.103 130.268C270.103 129.5 269.48 128.877 268.712 128.877Z" fill="white" fill-opacity="0.3"/>
<path d="M606.628 48.6211H565.593C564.384 48.6211 563.404 49.6009 563.404 50.8096V50.8096C563.404 52.0183 564.384 52.9982 565.593 52.9982H606.628C607.836 52.9982 608.816 52.0183 608.816 50.8096C608.816 49.6009 607.836 48.6211 606.628 48.6211Z" fill="white" fill-opacity="0.6"/>
<path d="M657.975 58.561H564.795C564.027 58.561 563.404 59.1837 563.404 59.9518C563.404 60.7199 564.027 61.3425 564.795 61.3425H657.975C658.743 61.3425 659.366 60.7199 659.366 59.9518C659.366 59.1837 658.743 58.561 657.975 58.561Z" fill="white" fill-opacity="0.3"/>
<path d="M680.468 66.9058H570.246C566.465 66.9058 563.4 69.9709 563.4 73.7519V109.352C563.4 113.133 566.465 116.198 570.246 116.198H680.468C684.249 116.198 687.314 113.133 687.314 109.352V73.7519C687.314 69.9709 684.249 66.9058 680.468 66.9058Z" fill="#5B0000" fill-opacity="0.22"/>
<path fill-rule="evenodd" clip-rule="evenodd" d="M585.309 105.244C592.871 105.244 599.001 99.1136 599.001 91.5516C599.001 83.9896 592.871 77.8594 585.309 77.8594C577.747 77.8594 571.617 83.9896 571.617 91.5516C571.617 99.1136 577.747 105.244 585.309 105.244Z" fill="white" fill-opacity="0.1" stroke="white" stroke-opacity="0.3" stroke-width="0.821532"/>
<path d="M588.047 91.5515L585.309 86.7593L582.57 91.5515L579.146 86.7593L579.831 95.6592H590.786L591.469 86.7593L588.047 91.5515Z" fill="#00CFFD" stroke="black" stroke-width="0.821532" stroke-miterlimit="10" stroke-linecap="round" stroke-linejoin="round"/>
<path fill-rule="evenodd" clip-rule="evenodd" d="M591.813 97.713H578.805C578.613 97.713 578.463 97.5624 578.463 97.3707V96.0015C578.463 95.8098 578.613 95.6592 578.805 95.6592H591.813C592.004 95.6592 592.155 95.8098 592.155 96.0015V97.3707C592.155 97.5624 592.004 97.713 591.813 97.713Z" fill="white" stroke="black" stroke-width="0.821532" stroke-miterlimit="10" stroke-linecap="round" stroke-linejoin="round"/>
<path d="M579.148 86.7598C579.526 86.7598 579.832 86.4533 579.832 86.0752C579.832 85.6971 579.526 85.3906 579.148 85.3906C578.77 85.3906 578.463 85.6971 578.463 86.0752C578.463 86.4533 578.77 86.7598 579.148 86.7598Z" stroke="black" stroke-width="0.821532" stroke-miterlimit="10" stroke-linecap="round" stroke-linejoin="round"/>
<path d="M591.471 86.7594C591.849 86.7594 592.156 86.4528 592.156 86.0747C592.156 85.6966 591.849 85.3901 591.471 85.3901C591.093 85.3901 590.787 85.6966 590.787 86.0747C590.787 86.4528 591.093 86.7594 591.471 86.7594Z" stroke="black" stroke-width="0.821532" stroke-miterlimit="10" stroke-linecap="round" stroke-linejoin="round"/>
<path d="M585.312 86.7594C585.69 86.7594 585.997 86.4528 585.997 86.0747C585.997 85.6966 585.69 85.3901 585.312 85.3901C584.934 85.3901 584.627 85.6966 584.627 86.0747C584.627 86.4528 584.934 86.7594 585.312 86.7594Z" stroke="black" stroke-width="0.821532" stroke-miterlimit="10" stroke-linecap="round" stroke-linejoin="round"/>
<path d="M650.35 94.6108H607.236C606.468 94.6108 605.846 95.2335 605.846 96.0016C605.846 96.7697 606.468 97.3923 607.236 97.3923H650.35C651.118 97.3923 651.74 96.7697 651.74 96.0016C651.74 95.2335 651.118 94.6108 650.35 94.6108Z" fill="white" fill-opacity="0.3"/>
<path d="M672.595 100.131H607.557C606.612 100.131 605.846 100.897 605.846 101.842C605.846 102.788 606.612 103.554 607.557 103.554H672.595C673.54 103.554 674.307 102.788 674.307 101.842C674.307 100.897 673.54 100.131 672.595 100.131Z" fill="black" fill-opacity="0.2"/>
<path d="M672.325 101H608.675C607.75 101 607 101.448 607 102C607 102.552 607.75 103 608.675 103H672.325C673.25 103 674 102.552 674 102C674 101.448 673.25 101 672.325 101Z" fill="#00CFFD" stroke="black" stroke-opacity="0.05" stroke-width="0.247119"/>
<path d="M700.999 34.2417H136.912V34.584H700.999V34.2417Z" fill="white" fill-opacity="0.2"/>
<path d="M167.722 7.5332H147.869C146.357 7.5332 145.131 8.75925 145.131 10.2716V23.9639C145.131 25.4763 146.357 26.7023 147.869 26.7023H167.722C169.234 26.7023 170.46 25.4763 170.46 23.9639V10.2716C170.46 8.75925 169.234 7.5332 167.722 7.5332Z" fill="black" fill-opacity="0.2"/>
<path d="M154.075 21.5708H161.511C162.454 21.5708 162.945 21.0841 162.945 20.1541V14.8654C162.945 13.9355 162.454 13.4487 161.511 13.4487H154.075C153.136 13.4487 152.645 13.9311 152.645 14.8654V20.1541C152.645 21.0841 153.136 21.5708 154.075 21.5708ZM154.132 20.706C153.732 20.706 153.51 20.4974 153.51 20.0759V14.9437C153.51 14.5221 153.732 14.3135 154.132 14.3135H156.113V20.706H154.132ZM161.454 14.3135C161.854 14.3135 162.076 14.5221 162.076 14.9437V20.0759C162.076 20.4974 161.854 20.706 161.454 20.706H156.935V14.3135H161.454ZM155.262 15.904C155.418 15.904 155.548 15.7693 155.548 15.6216C155.548 15.4738 155.418 15.3435 155.262 15.3435H154.371C154.214 15.3435 154.084 15.4738 154.084 15.6216C154.084 15.7693 154.214 15.904 154.371 15.904H155.262ZM155.262 17.073C155.418 17.073 155.548 16.9427 155.548 16.7906C155.548 16.6428 155.418 16.5124 155.262 16.5124H154.371C154.214 16.5124 154.084 16.6428 154.084 16.7906C154.084 16.9427 154.214 17.073 154.371 17.073H155.262ZM155.262 18.2377C155.418 18.2377 155.548 18.1116 155.548 17.9595C155.548 17.8118 155.418 17.6858 155.262 17.6858H154.371C154.214 17.6858 154.084 17.8118 154.084 17.9595C154.084 18.1116 154.214 18.2377 154.371 18.2377H155.262Z" fill="white"/>
<path d="M690.049 7.5332H672.25C670.738 7.5332 669.512 8.75925 669.512 10.2716V23.9639C669.512 25.4763 670.738 26.7023 672.25 26.7023H690.049C691.561 26.7023 692.787 25.4763 692.787 23.9639V10.2716C692.787 8.75925 691.561 7.5332 690.049 7.5332Z" fill="black" fill-opacity="0.2"/>
<path d="M681.145 21.9967C683.609 21.9967 685.643 19.9629 685.643 17.5033C685.643 15.0436 683.605 13.0098 681.141 13.0098C678.681 13.0098 676.652 15.0436 676.652 17.5033C676.652 19.9629 678.686 21.9967 681.145 21.9967ZM681.145 21.1015C679.151 21.1015 677.556 19.4979 677.556 17.5033C677.556 15.5086 679.151 13.9094 681.141 13.9094C683.136 13.9094 684.739 15.5086 684.744 17.5033C684.748 19.4979 683.14 21.1015 681.145 21.1015ZM681.05 18.368C681.289 18.368 681.441 18.229 681.454 18.0508C681.454 18.0334 681.454 18.016 681.458 17.9987C681.471 17.777 681.623 17.6249 681.906 17.4424C682.336 17.1643 682.61 16.9122 682.61 16.4125C682.61 15.6868 681.958 15.2739 681.184 15.2739C680.441 15.2739 679.933 15.6129 679.798 16.017C679.772 16.0953 679.755 16.1691 679.755 16.2474C679.755 16.4559 679.92 16.5907 680.12 16.5907C680.376 16.5907 680.433 16.4603 680.567 16.3125C680.706 16.0953 680.889 15.9692 681.145 15.9692C681.489 15.9692 681.715 16.1648 681.715 16.4559C681.715 16.721 681.532 16.8644 681.163 17.1165C680.854 17.3338 680.628 17.5554 680.628 17.9465V17.9943C680.628 18.242 680.78 18.368 681.05 18.368ZM681.041 19.7022C681.319 19.7022 681.55 19.5023 681.55 19.2241C681.55 18.946 681.324 18.7461 681.041 18.7461C680.759 18.7461 680.528 18.9504 680.528 19.2241C680.528 19.4979 680.759 19.7022 681.041 19.7022Z" fill="white"/>
</g>
<path d="M281.5 428C361.857 428 427 423.996 427 419.056C427 414.117 361.857 410.112 281.5 410.112C201.143 410.112 136 414.117 136 419.056C136 423.996 201.143 428 281.5 428Z" fill="#F2F2F2"/>
<path d="M400.922 249H182.34V256.432H400.922V249Z" fill="#F2F2F2"/>
<path d="M188.188 254.53C189.182 254.53 189.988 253.669 189.988 252.607C189.988 251.544 189.182 250.683 188.188 250.683C187.194 250.683 186.389 251.544 186.389 252.607C186.389 253.669 187.194 254.53 188.188 254.53Z" fill="#536DFE"/>
<path d="M194.038 254.53C195.032 254.53 195.838 253.669 195.838 252.607C195.838 251.544 195.032 250.683 194.038 250.683C193.044 250.683 192.238 251.544 192.238 252.607C192.238 253.669 193.044 254.53 194.038 254.53Z" fill="#536DFE"/>
<path d="M199.888 254.53C200.882 254.53 201.687 253.669 201.687 252.607C201.687 251.544 200.882 250.683 199.888 250.683C198.894 250.683 198.088 251.544 198.088 252.607C198.088 253.669 198.894 254.53 199.888 254.53Z" fill="#536DFE"/>
<path d="M182.495 366.549L182.34 366.692V416.829H400.922V328.761L398.317 328.972L182.495 366.549Z" fill="#3F3D56"/>
<path d="M259.153 298.717H198.113V301.348H259.153V298.717Z" fill="#3F3D56"/>
<path d="M259.153 304.504H198.113V307.135H259.153V304.504Z" fill="#3F3D56"/>
<path d="M218.788 310.292H198.113V312.922H218.788V310.292Z" fill="#3F3D56"/>
<path d="M383.631 371.747H322.592V374.378H383.631V371.747Z" fill="white"/>
<path d="M383.631 377.534H322.592V380.165H383.631V377.534Z" fill="white"/>
<path d="M343.266 383.321H322.592V385.952H343.266V383.321Z" fill="white"/>
<path d="M284.667 414.403C285.993 414.403 287.068 413.254 287.068 411.837C287.068 410.419 285.993 409.271 284.667 409.271C283.341 409.271 282.266 410.419 282.266 411.837C282.266 413.254 283.341 414.403 284.667 414.403Z" fill="#F2F2F2"/>
<path d="M291.63 414.66C292.956 414.66 294.031 413.511 294.031 412.094C294.031 410.676 292.956 409.527 291.63 409.527C290.304 409.527 289.229 410.676 289.229 412.094C289.229 413.511 290.304 414.66 291.63 414.66Z" fill="#F2F2F2"/>
<path d="M298.594 414.916C299.92 414.916 300.995 413.767 300.995 412.35C300.995 410.933 299.92 409.784 298.594 409.784C297.268 409.784 296.193 410.933 296.193 412.35C296.193 413.767 297.268 414.916 298.594 414.916Z" fill="#F2F2F2"/>
<path d="M291.653 414.146C292.714 414.146 293.574 413.227 293.574 412.093C293.574 410.96 292.714 410.041 291.653 410.041C290.592 410.041 289.732 410.96 289.732 412.093C289.732 413.227 290.592 414.146 291.653 414.146Z" fill="#3F3D56"/>
<path d="M238.917 328.827H218.242V333.868H238.917V328.827Z" fill="#3F3D56"/>
<path d="M361.805 397.045H341.131V402.086H361.805V397.045Z" fill="white"/>
<path opacity="0.3" d="M228.696 346.66C236.595 346.66 242.998 339.817 242.998 331.375C242.998 322.933 236.595 316.089 228.696 316.089C220.798 316.089 214.395 322.933 214.395 331.375C214.395 339.817 220.798 346.66 228.696 346.66Z" fill="#536DFE"/>
<path opacity="0.3" d="M228.697 341.565C233.962 341.565 238.231 337.003 238.231 331.375C238.231 325.747 233.962 321.185 228.697 321.185C223.431 321.185 219.162 325.747 219.162 331.375C219.162 337.003 223.431 341.565 228.697 341.565Z" fill="#536DFE"/>
<path d="M228.695 338.451C232.352 338.451 235.317 335.283 235.317 331.375C235.317 327.467 232.352 324.298 228.695 324.298C225.039 324.298 222.074 327.467 222.074 331.375C222.074 335.283 225.039 338.451 228.695 338.451Z" fill="#536DFE"/>
<path opacity="0.3" d="M349.036 308.779C356.935 308.779 363.338 301.935 363.338 293.493C363.338 285.051 356.935 278.208 349.036 278.208C341.137 278.208 334.734 285.051 334.734 293.493C334.734 301.935 341.137 308.779 349.036 308.779Z" fill="#536DFE"/>
<path opacity="0.3" d="M349.036 303.683C354.302 303.683 358.571 299.121 358.571 293.493C358.571 287.865 354.302 283.303 349.036 283.303C343.771 283.303 339.502 287.865 339.502 293.493C339.502 299.121 343.771 303.683 349.036 303.683Z" fill="#536DFE"/>
<path d="M349.035 300.57C352.692 300.57 355.656 297.401 355.656 293.493C355.656 289.585 352.692 286.417 349.035 286.417C345.378 286.417 342.414 289.585 342.414 293.493C342.414 297.401 345.378 300.57 349.035 300.57Z" fill="#536DFE"/>
<path opacity="0.3" d="M351.585 414.878C359.484 414.878 365.887 408.035 365.887 399.593C365.887 391.151 359.484 384.308 351.585 384.308C343.686 384.308 337.283 391.151 337.283 399.593C337.283 408.035 343.686 414.878 351.585 414.878Z" fill="#536DFE"/>
<path opacity="0.3" d="M351.585 409.783C356.851 409.783 361.12 405.221 361.12 399.593C361.12 393.965 356.851 389.403 351.585 389.403C346.32 389.403 342.051 393.965 342.051 399.593C342.051 405.221 346.32 409.783 351.585 409.783Z" fill="#536DFE"/>
<path d="M351.584 406.669C355.241 406.669 358.205 403.501 358.205 399.593C358.205 395.684 355.241 392.516 351.584 392.516C347.927 392.516 344.963 395.684 344.963 399.593C344.963 403.501 347.927 406.669 351.584 406.669Z" fill="#536DFE"/>
<path d="M159.815 279.956L165.701 280.2L165.995 272.111L160.108 271.867L159.815 279.956Z" fill="#536DFE"/>
<path d="M186.662 300.196C186.662 300.196 194.814 296.033 194.684 299.628C194.553 303.223 186.467 305.588 186.467 305.588L186.662 300.196Z" fill="#FFB9B9"/>
<path d="M182.191 330.614C182.191 330.614 186.037 340.674 187.458 347.934C188.879 355.194 191.043 365.184 188.259 372.27C185.475 379.355 177.561 400.18 177.48 402.426C177.398 404.673 178.158 406.955 176.476 406.885C174.794 406.816 165.642 403.736 165.27 402.37C164.899 401.005 168.393 397.549 168.393 397.549L177.021 368.654L168.019 349.829L161.526 377.913L160.254 412.964C160.254 412.964 154.012 410.905 153.106 412.667C153.106 412.667 150.31 408.501 149.955 406.686C149.599 404.871 151.275 370.287 151.275 370.287C151.275 370.287 145.546 330.895 150.171 331.087C154.796 331.279 172.912 319.428 182.191 330.614Z" fill="#2F2E41"/>
<path d="M176.541 405.088C176.541 405.088 180.807 415.166 181.211 415.632C181.616 416.099 184.396 420.715 182.293 420.628C180.191 420.541 175.227 418.085 171.574 414.333C167.92 410.581 163.103 404.081 163.539 403.649C163.976 403.217 166.968 401.991 166.968 401.991L176.541 405.088Z" fill="#2F2E41"/>
<path d="M159.495 410.682C159.495 410.682 159.752 415.193 160.528 417.026C161.304 418.858 161.206 421.554 159.103 421.467C157.001 421.38 151.568 420.255 151.568 420.255C151.568 420.255 151.245 417.541 151.682 417.109C152.119 416.677 153.98 411.804 153.188 410.421C152.396 409.038 159.495 410.682 159.495 410.682Z" fill="#2F2E41"/>
<path d="M156.384 264.287C156.384 264.287 151.902 271.752 150.155 273.48C148.408 275.208 153.323 279.012 153.323 279.012L162.12 280.277C162.12 280.277 162.009 271.721 162.462 270.84C162.915 269.958 156.384 264.287 156.384 264.287Z" fill="#FFB9B9"/>
<path d="M164.03 274.055C164.03 274.055 162.218 277.58 160.536 277.511C158.854 277.441 150.155 273.48 149.784 272.114C149.412 270.749 146.902 281.896 146.902 281.896L168.188 321.933L173.381 318.097L170.865 294.591L168.799 281.904L164.03 274.055Z" fill="#536DFE"/>
<path d="M148.999 309.886C149.848 311.784 150.379 313.764 150.305 315.791C150.302 315.881 150.299 315.97 150.291 316.06C150.09 320.219 148.656 325.029 148.142 328.527C147.769 331.037 147.875 332.868 149.249 333.299C152.58 334.337 148.763 335.079 161.65 339.664C174.538 344.248 176.787 340.291 176.819 339.392C176.852 338.493 174.994 331.666 175.431 331.234C175.868 330.802 181.542 336.888 183.257 336.059C184.971 335.229 183.452 330.666 183.452 330.666C183.452 330.666 179.59 321.055 179.672 318.808C179.753 316.561 173.821 305.964 173.821 305.964L169.787 277.894C169.787 277.894 168.235 274.229 166.149 273.693C164.063 273.156 162.333 274.435 162.333 274.435L165.823 282.68L169.506 297.234L168.89 302.609C168.89 302.609 164.607 292.981 161.795 289.264C158.982 285.547 152.985 276.748 152.985 276.748C152.985 276.748 151.585 271.698 152.642 270.19C153.699 268.676 148.233 268.45 145.902 274.654C144.667 277.942 142.662 282.845 141.406 287.411C140.286 291.455 139.757 295.236 140.866 297.398C142.561 300.699 146.825 305.039 148.999 309.886Z" fill="#575A89"/>
<path opacity="0.1" d="M140.866 297.398C142.561 300.699 146.825 305.039 148.999 309.886C149.567 307.7 150.26 305.438 150.26 305.438C150.26 305.438 152.916 290.246 145.058 286.32C143.756 286.185 142.454 286.574 141.406 287.411C140.286 291.455 139.757 295.236 140.866 297.398Z" fill="black"/>
<path d="M172.061 296.44L178.724 298.517L187.974 298.9L188.925 307.49L173.724 308.661C173.724 308.661 169.927 297.252 172.061 296.44Z" fill="#575A89"/>
<path d="M161.198 325.324C161.198 325.324 170.11 326.904 168.076 329.771C166.042 332.637 158.146 329.623 158.146 329.623L161.198 325.324Z" fill="#FFB9B9"/>
<path opacity="0.1" d="M150.29 316.06C150.089 320.219 148.655 325.029 148.141 328.527C150.98 331.399 153.68 333.932 154.697 333.975C156.799 334.062 160.179 333.752 161.425 334.253C162.67 334.755 163.4 326.234 163.4 326.234C163.4 326.234 162.657 323.503 159.342 322.016C157.105 321.01 152.816 318.28 150.29 316.06Z" fill="black"/>
<path d="M145.156 283.624C145.156 283.624 138.041 282.429 138.425 295.046C138.81 307.664 137.675 315.718 140.537 318.086C143.399 320.455 152.694 331.192 154.796 331.279C156.899 331.366 160.278 331.056 161.524 331.558C162.769 332.059 163.499 323.539 163.499 323.539C163.499 323.539 162.756 320.807 159.441 319.32C156.126 317.832 148.317 312.558 148.382 310.761C148.447 308.963 150.358 302.742 150.358 302.742C150.358 302.742 153.014 287.55 145.156 283.624Z" fill="#575A89"/>
<path d="M162.657 275.341C167.77 275.341 171.914 270.911 171.914 265.447C171.914 259.983 167.77 255.554 162.657 255.554C157.545 255.554 153.4 259.983 153.4 265.447C153.4 270.911 157.545 275.341 162.657 275.341Z" fill="#FFB9B9"/>
<path d="M168.89 251.267C169.113 251.472 169.38 251.616 169.668 251.684C169.813 251.712 169.961 251.677 170.082 251.588C170.203 251.498 170.285 251.362 170.312 251.208C170.524 251.677 170.763 252.177 171.195 252.418C171.627 252.659 172.296 252.457 172.358 251.94C172.421 252.333 172.584 252.699 172.828 253C173.096 253.273 173.583 253.342 173.817 253.035C173.628 254.141 173.745 255.279 173.685 256.401C173.626 257.524 173.346 258.714 172.552 259.452C171.395 260.529 169.654 260.263 168.132 260.059C167.902 260.008 167.663 260.022 167.439 260.1C166.869 260.359 166.895 261.207 166.887 261.87C166.841 263.031 166.411 264.138 165.673 264.993C164.935 265.848 163.938 266.396 162.859 266.539C162.254 266.639 161.638 266.478 161.144 266.092C160.712 265.701 160.491 265.063 159.996 264.768C159.19 264.29 158.213 264.988 157.624 265.745C157.035 266.503 156.454 267.435 155.542 267.574C154.335 267.757 153.416 266.443 152.965 265.232C152.343 263.536 152.045 261.723 152.088 259.902C152.132 258.08 152.516 256.286 153.219 254.626C155.739 248.755 164.347 247.826 168.89 251.267Z" fill="#2F2E41"/>
<path d="M391.105 408.582C394.365 414.524 400.941 416.876 400.941 416.876C400.941 416.876 402.23 409.595 398.97 403.653C395.71 397.71 389.134 395.358 389.134 395.358C389.134 395.358 387.845 402.639 391.105 408.582Z" fill="#F2F2F2"/>
<path d="M393.14 406.508C398.778 409.845 401.14 416.813 401.14 416.813C401.14 416.813 394.361 418.369 388.723 415.032C383.085 411.694 380.723 404.727 380.723 404.727C380.723 404.727 387.502 403.17 393.14 406.508Z" fill="#536DFE"/>
<path d="M610.312 83.523V86H608.552V78.6993H611.465C612.023 78.6993 612.516 78.8029 612.944 79.0102C613.375 79.2141 613.708 79.5066 613.942 79.8876C614.179 80.2654 614.298 80.6949 614.298 81.1763C614.298 81.8883 614.042 82.4583 613.531 82.8862C613.023 83.3107 612.324 83.523 611.435 83.523H610.312ZM610.312 82.1641H611.465C611.806 82.1641 612.065 82.0789 612.242 81.9084C612.423 81.7379 612.513 81.4972 612.513 81.1863C612.513 80.8454 612.421 80.5729 612.237 80.369C612.053 80.1651 611.802 80.0615 611.485 80.0581H610.312V82.1641ZM618.445 82.1039L617.888 82.0638C617.357 82.0638 617.016 82.231 616.865 82.5652V86H615.175V80.5746H616.76L616.815 81.2716C617.099 80.7401 617.495 80.4743 618.003 80.4743C618.184 80.4743 618.341 80.4944 618.475 80.5345L618.445 82.1039ZM618.66 83.2372C618.66 82.6956 618.766 82.2143 618.976 81.7931C619.187 81.3685 619.489 81.0426 619.884 80.8153C620.278 80.588 620.741 80.4743 621.273 80.4743C622.085 80.4743 622.725 80.7267 623.193 81.2315C623.661 81.7329 623.895 82.4165 623.895 83.2823V83.3425C623.895 84.1882 623.659 84.8601 623.188 85.3582C622.72 85.8529 622.085 86.1003 621.283 86.1003C620.511 86.1003 619.89 85.8696 619.422 85.4083C618.954 84.9437 618.702 84.3152 618.665 83.523L618.66 83.2372ZM620.35 83.3425C620.35 83.8439 620.429 84.2116 620.586 84.4456C620.743 84.6796 620.975 84.7966 621.283 84.7966C621.884 84.7966 622.192 84.3336 622.205 83.4076V83.2372C622.205 82.2644 621.894 81.778 621.273 81.778C620.708 81.778 620.402 82.1975 620.355 83.0366L620.35 83.3425ZM625.013 86V81.7479H624.226V80.5746H625.013V80.1434C625.013 79.525 625.195 79.0453 625.56 78.7043C625.924 78.3633 626.436 78.1928 627.094 78.1928C627.335 78.1928 627.599 78.2279 627.886 78.2981L627.891 79.5417C627.788 79.5116 627.649 79.4965 627.475 79.4965C626.964 79.4965 626.708 79.7172 626.708 80.1584V80.5746H627.766V81.7479H626.708V86H625.013ZM630.865 86.1003C630.033 86.1003 629.359 85.8529 628.844 85.3582C628.329 84.8601 628.072 84.2133 628.072 83.4177V83.2773C628.072 82.7224 628.174 82.2326 628.378 81.8081C628.585 81.3836 628.886 81.056 629.28 80.8253C629.675 80.5913 630.143 80.4743 630.684 80.4743C631.447 80.4743 632.048 80.7117 632.49 81.1863C632.931 81.6577 633.151 82.3162 633.151 83.1619V83.8188H629.792C629.852 84.123 629.984 84.362 630.188 84.5358C630.392 84.7097 630.656 84.7966 630.98 84.7966C631.515 84.7966 631.933 84.6094 632.234 84.235L633.006 85.1476C632.795 85.4384 632.496 85.6707 632.108 85.8446C631.724 86.015 631.31 86.1003 630.865 86.1003ZM630.674 81.778C630.18 81.778 629.885 82.1056 629.792 82.7608H631.497V82.6304C631.503 82.3597 631.435 82.1507 631.291 82.0037C631.147 81.8532 630.942 81.778 630.674 81.778ZM636.676 84.4757C636.676 84.3319 636.601 84.2166 636.451 84.1297C636.3 84.0428 636.015 83.9525 635.593 83.8589C635.172 83.7653 634.824 83.6433 634.55 83.4929C634.276 83.3391 634.067 83.1536 633.924 82.9363C633.78 82.719 633.708 82.47 633.708 82.1892C633.708 81.6911 633.914 81.2816 634.325 80.9607C634.736 80.6364 635.274 80.4743 635.939 80.4743C636.655 80.4743 637.23 80.6364 637.664 80.9607C638.099 81.2849 638.316 81.7112 638.316 82.2393H636.621C636.621 81.8048 636.392 81.5875 635.934 81.5875C635.757 81.5875 635.608 81.6376 635.488 81.7379C635.368 81.8348 635.308 81.9569 635.308 82.1039C635.308 82.2544 635.381 82.3764 635.528 82.47C635.675 82.5636 635.909 82.6405 636.23 82.7006C636.554 82.7608 636.839 82.8327 637.083 82.9162C637.898 83.197 638.306 83.7001 638.306 84.4255C638.306 84.9203 638.085 85.3231 637.644 85.634C637.206 85.9448 636.638 86.1003 635.939 86.1003C635.475 86.1003 635.06 86.0167 634.696 85.8496C634.331 85.6824 634.047 85.4551 633.843 85.1676C633.639 84.8802 633.537 84.5776 633.537 84.2601H635.117C635.124 84.5108 635.207 84.6946 635.368 84.8116C635.528 84.9253 635.734 84.9821 635.984 84.9821C636.215 84.9821 636.387 84.9353 636.501 84.8417C636.618 84.7481 636.676 84.6261 636.676 84.4757ZM640.883 86H639.189V80.5746H640.883V86ZM639.088 79.1756C639.088 78.9349 639.175 78.7377 639.349 78.5839C639.523 78.4302 639.748 78.3533 640.026 78.3533C640.303 78.3533 640.529 78.4302 640.703 78.5839C640.877 78.7377 640.964 78.9349 640.964 79.1756C640.964 79.4163 640.877 79.6135 640.703 79.7673C640.529 79.9211 640.303 79.998 640.026 79.998C639.748 79.998 639.523 79.9211 639.349 79.7673C639.175 79.6135 639.088 79.4163 639.088 79.1756ZM641.716 83.2372C641.716 82.6956 641.821 82.2143 642.032 81.7931C642.242 81.3685 642.545 81.0426 642.939 80.8153C643.334 80.588 643.797 80.4743 644.328 80.4743C645.14 80.4743 645.781 80.7267 646.249 81.2315C646.717 81.7329 646.951 82.4165 646.951 83.2823V83.3425C646.951 84.1882 646.715 84.8601 646.244 85.3582C645.776 85.8529 645.14 86.1003 644.338 86.1003C643.566 86.1003 642.946 85.8696 642.478 85.4083C642.01 84.9437 641.757 84.3152 641.721 83.523L641.716 83.2372ZM643.406 83.3425C643.406 83.8439 643.484 84.2116 643.641 84.4456C643.798 84.6796 644.031 84.7966 644.338 84.7966C644.94 84.7966 645.247 84.3336 645.261 83.4076V83.2372C645.261 82.2644 644.95 81.778 644.328 81.778C643.763 81.778 643.457 82.1975 643.411 83.0366L643.406 83.3425ZM649.247 80.5746L649.302 81.2114C649.677 80.72 650.193 80.4743 650.852 80.4743C651.417 80.4743 651.838 80.6431 652.115 80.9808C652.396 81.3184 652.541 81.8265 652.551 82.5051V86H650.857V82.5753C650.857 82.3012 650.802 82.1006 650.691 81.9736C650.581 81.8432 650.38 81.778 650.089 81.778C649.759 81.778 649.513 81.9084 649.352 82.1691V86H647.663V80.5746H649.247ZM656.548 86C656.488 85.8897 656.434 85.7276 656.387 85.5136C656.076 85.9047 655.642 86.1003 655.084 86.1003C654.572 86.1003 654.138 85.9465 653.78 85.639C653.422 85.3281 653.243 84.9387 653.243 84.4707C653.243 83.8823 653.461 83.4377 653.895 83.1369C654.33 82.836 654.962 82.6856 655.791 82.6856H656.312V82.3998C656.312 81.9017 656.097 81.6527 655.665 81.6527C655.264 81.6527 655.064 81.8499 655.064 82.2443H653.374C653.374 81.7195 653.596 81.2933 654.041 80.9657C654.489 80.6381 655.059 80.4743 655.751 80.4743C656.443 80.4743 656.989 80.6431 657.39 80.9808C657.791 81.3184 657.997 81.7814 658.007 82.3697V84.7715C658.014 85.2696 658.091 85.6507 658.238 85.9148V86H656.548ZM655.49 84.8969C655.7 84.8969 655.874 84.8517 656.011 84.7615C656.152 84.6712 656.252 84.5693 656.312 84.4556V83.5882H655.821C655.232 83.5882 654.938 83.8522 654.938 84.3804C654.938 84.5342 654.99 84.6595 655.094 84.7565C655.197 84.8501 655.329 84.8969 655.49 84.8969ZM660.73 86H659.035V78.2981H660.73V86Z" fill="white"/>
<path d="M588.264 19.4227H587.312V22H585.552V14.6993H588.425C589.291 14.6993 589.967 14.8915 590.455 15.2759C590.944 15.6603 591.188 16.2035 591.188 16.9055C591.188 17.4136 591.084 17.8348 590.877 18.1691C590.673 18.5034 590.352 18.7742 589.914 18.9814L591.438 21.9248V22H589.553L588.264 19.4227ZM587.312 18.0638H588.425C588.759 18.0638 589.01 17.9769 589.177 17.8031C589.347 17.6259 589.433 17.3802 589.433 17.066C589.433 16.7518 589.347 16.5061 589.177 16.3289C589.006 16.1484 588.756 16.0581 588.425 16.0581H587.312V18.0638ZM593.955 22H592.261V16.5746H593.955V22ZM592.16 15.1756C592.16 14.9349 592.247 14.7377 592.421 14.5839C592.595 14.4302 592.821 14.3533 593.098 14.3533C593.375 14.3533 593.601 14.4302 593.775 14.5839C593.949 14.7377 594.036 14.9349 594.036 15.1756C594.036 15.4163 593.949 15.6135 593.775 15.7673C593.601 15.9211 593.375 15.998 593.098 15.998C592.821 15.998 592.595 15.9211 592.421 15.7673C592.247 15.6135 592.16 15.4163 592.16 15.1756ZM597.295 20.7966C597.532 20.7966 597.716 20.7331 597.846 20.606C597.977 20.4757 598.04 20.2952 598.037 20.0645H599.622C599.622 20.6595 599.408 21.1476 598.98 21.5287C598.555 21.9097 598.007 22.1003 597.335 22.1003C596.546 22.1003 595.924 21.8529 595.47 21.3582C595.015 20.8634 594.788 20.1782 594.788 19.3023V19.2321C594.788 18.6839 594.888 18.2009 595.089 17.783C595.293 17.3618 595.585 17.0393 595.966 16.8153C596.347 16.588 596.798 16.4743 597.32 16.4743C598.025 16.4743 598.585 16.6699 599 17.061C599.414 17.4521 599.622 17.9819 599.622 18.6505H598.037C598.037 18.3697 597.968 18.1541 597.831 18.0037C597.694 17.8532 597.511 17.778 597.28 17.778C596.842 17.778 596.586 18.0571 596.513 18.6154C596.489 18.7926 596.478 19.0366 596.478 19.3475C596.478 19.8924 596.543 20.2701 596.673 20.4807C596.804 20.6913 597.011 20.7966 597.295 20.7966ZM601.988 17.1562C602.349 16.7016 602.811 16.4743 603.372 16.4743C603.971 16.4743 604.422 16.6515 604.726 17.0058C605.03 17.3602 605.186 17.8833 605.192 18.5753V22H603.498V18.6154C603.498 18.3279 603.439 18.1173 603.322 17.9836C603.205 17.8465 603.006 17.778 602.725 17.778C602.378 17.778 602.132 17.8883 601.988 18.109V22H600.298V14.2981H601.988V17.1562ZM609.189 22C609.128 21.8897 609.075 21.7276 609.028 21.5136C608.717 21.9047 608.283 22.1003 607.725 22.1003C607.213 22.1003 606.778 21.9465 606.421 21.639C606.063 21.3281 605.884 20.9387 605.884 20.4707C605.884 19.8823 606.102 19.4377 606.536 19.1369C606.971 18.836 607.602 18.6856 608.432 18.6856H608.953V18.3998C608.953 17.9017 608.737 17.6527 608.306 17.6527C607.905 17.6527 607.704 17.8499 607.704 18.2443H606.015C606.015 17.7195 606.237 17.2933 606.682 16.9657C607.129 16.6381 607.699 16.4743 608.391 16.4743C609.083 16.4743 609.63 16.6431 610.031 16.9808C610.432 17.3184 610.638 17.7814 610.648 18.3697V20.7715C610.654 21.2696 610.731 21.6507 610.878 21.9148V22H609.189ZM608.131 20.8969C608.341 20.8969 608.515 20.8517 608.652 20.7615C608.793 20.6712 608.893 20.5693 608.953 20.4556V19.5882H608.462C607.873 19.5882 607.579 19.8522 607.579 20.3804C607.579 20.5342 607.631 20.6595 607.735 20.7565C607.838 20.8501 607.97 20.8969 608.131 20.8969ZM614.87 18.1039L614.313 18.0638C613.782 18.0638 613.441 18.231 613.29 18.5652V22H611.601V16.5746H613.185L613.24 17.2716C613.524 16.7401 613.92 16.4743 614.429 16.4743C614.609 16.4743 614.766 16.4944 614.9 16.5345L614.87 18.1039ZM615.166 19.2472C615.166 18.3881 615.351 17.7112 615.722 17.2164C616.093 16.7217 616.611 16.4743 617.277 16.4743C617.761 16.4743 618.169 16.6649 618.5 17.0459V14.2981H620.195V22H618.676L618.59 21.4183C618.243 21.873 617.801 22.1003 617.267 22.1003C616.621 22.1003 616.11 21.8529 615.732 21.3582C615.355 20.8634 615.166 20.1598 615.166 19.2472ZM616.855 19.3525C616.855 20.3152 617.136 20.7966 617.698 20.7966C618.072 20.7966 618.34 20.6395 618.5 20.3252V18.2594C618.346 17.9385 618.082 17.778 617.708 17.778C617.186 17.778 616.904 18.1992 616.86 19.0416L616.855 19.3525ZM623.79 22V14.6993H626.142C626.787 14.6993 627.367 14.8464 627.882 15.1405C628.397 15.4314 628.798 15.8442 629.085 16.379C629.376 16.9106 629.523 17.5072 629.526 18.1691V18.5051C629.526 19.1736 629.384 19.7737 629.1 20.3052C628.819 20.8334 628.422 21.2479 627.907 21.5487C627.395 21.8462 626.824 21.9967 626.192 22H623.79ZM625.55 16.0581V20.6462H626.162C626.667 20.6462 627.054 20.4673 627.325 20.1096C627.596 19.7486 627.731 19.2138 627.731 18.5051V18.1892C627.731 17.4838 627.596 16.9523 627.325 16.5947C627.054 16.237 626.66 16.0581 626.142 16.0581H625.55ZM632.976 22.1003C632.144 22.1003 631.47 21.8529 630.955 21.3582C630.441 20.8601 630.183 20.2133 630.183 19.4177V19.2773C630.183 18.7224 630.285 18.2326 630.489 17.8081C630.696 17.3836 630.997 17.056 631.392 16.8253C631.786 16.5913 632.254 16.4743 632.796 16.4743C633.558 16.4743 634.16 16.7117 634.601 17.1863C635.042 17.6577 635.263 18.3162 635.263 19.1619V19.8188H631.903C631.963 20.123 632.095 20.362 632.299 20.5358C632.503 20.7097 632.767 20.7966 633.092 20.7966C633.626 20.7966 634.044 20.6094 634.345 20.235L635.117 21.1476C634.907 21.4384 634.607 21.6707 634.22 21.8446C633.835 22.015 633.421 22.1003 632.976 22.1003ZM632.786 17.778C632.291 17.778 631.997 18.1056 631.903 18.7608H633.608V18.6304C633.615 18.3597 633.546 18.1507 633.402 18.0037C633.259 17.8532 633.053 17.778 632.786 17.778ZM640.342 20.6462H643.406V22H638.582V14.6993H640.342V20.6462Z" fill="white"/>
<path d="M28.8474 54V46.6993H31.2342C32.0264 46.6993 32.6215 46.8631 33.0192 47.1907C33.4204 47.5183 33.621 48.003 33.621 48.6448C33.621 48.9858 33.524 49.2883 33.3301 49.5524C33.1362 49.8131 32.8722 50.0154 32.5379 50.1591C32.9323 50.2694 33.2432 50.48 33.4705 50.7909C33.7012 51.0984 33.8165 51.4661 33.8165 51.894C33.8165 52.5492 33.6042 53.064 33.1797 53.4384C32.7552 53.8128 32.1551 54 31.3796 54H28.8474ZM29.8101 50.5853V53.2128H31.3997C31.8476 53.2128 32.2003 53.0974 32.4577 52.8668C32.7184 52.6328 32.8488 52.3119 32.8488 51.9041C32.8488 51.0249 32.3707 50.5853 31.4147 50.5853H29.8101ZM29.8101 49.8131H31.2643C31.6855 49.8131 32.0214 49.7078 32.2721 49.4972C32.5262 49.2866 32.6532 49.0008 32.6532 48.6398C32.6532 48.2386 32.5362 47.9478 32.3022 47.7673C32.0682 47.5835 31.7122 47.4915 31.2342 47.4915H29.8101V49.8131ZM38.4497 53.4635C38.0886 53.888 37.5588 54.1003 36.8602 54.1003C36.2818 54.1003 35.8406 53.9331 35.5364 53.5989C35.2355 53.2612 35.0834 52.7632 35.0801 52.1046V48.5746H36.0077V52.0795C36.0077 52.9019 36.342 53.313 37.0106 53.313C37.7193 53.313 38.1906 53.049 38.4246 52.5208V48.5746H39.3522V54H38.4697L38.4497 53.4635ZM43.9252 52.5609C43.9252 52.3102 43.8299 52.1163 43.6394 51.9793C43.4522 51.8389 43.1229 51.7185 42.6516 51.6182C42.1836 51.518 41.8109 51.3976 41.5334 51.2572C41.2593 51.1168 41.0554 50.9497 40.9217 50.7558C40.7913 50.5619 40.7261 50.3313 40.7261 50.0638C40.7261 49.6192 40.9133 49.2432 41.2877 48.9356C41.6655 48.6281 42.1468 48.4743 42.7318 48.4743C43.3469 48.4743 43.845 48.6331 44.2261 48.9507C44.6105 49.2682 44.8027 49.6744 44.8027 50.1691H43.8701C43.8701 49.9151 43.7614 49.6961 43.5441 49.5123C43.3302 49.3284 43.0594 49.2365 42.7318 49.2365C42.3942 49.2365 42.1301 49.31 41.9396 49.4571C41.749 49.6042 41.6538 49.7964 41.6538 50.0337C41.6538 50.2577 41.7423 50.4265 41.9195 50.5402C42.0967 50.6538 42.4159 50.7625 42.8772 50.8661C43.3419 50.9697 43.718 51.0934 44.0054 51.2372C44.2929 51.3809 44.5052 51.5547 44.6422 51.7586C44.7826 51.9592 44.8528 52.2049 44.8528 52.4957C44.8528 52.9804 44.659 53.3699 44.2712 53.664C43.8834 53.9549 43.3803 54.1003 42.7619 54.1003C42.3273 54.1003 41.9429 54.0234 41.6086 53.8696C41.2743 53.7159 41.0119 53.5019 40.8214 53.2278C40.6342 52.9504 40.5406 52.6512 40.5406 52.3303H41.4682C41.4849 52.6411 41.6086 52.8885 41.8393 53.0724C42.0733 53.2529 42.3808 53.3431 42.7619 53.3431C43.1129 53.3431 43.3937 53.2729 43.6043 53.1325C43.8182 52.9888 43.9252 52.7983 43.9252 52.5609ZM48.2375 53.3431C48.5684 53.3431 48.8575 53.2429 49.1049 53.0423C49.3523 52.8417 49.4893 52.591 49.5161 52.2901H50.3936C50.3769 52.601 50.2699 52.8969 50.0727 53.1777C49.8754 53.4585 49.6114 53.6824 49.2804 53.8496C48.9528 54.0167 48.6052 54.1003 48.2375 54.1003C47.4987 54.1003 46.9103 53.8546 46.4724 53.3632C46.0379 52.8685 45.8206 52.1932 45.8206 51.3374V51.182C45.8206 50.6538 45.9175 50.1842 46.1114 49.773C46.3053 49.3618 46.5828 49.0426 46.9438 48.8153C47.3081 48.588 47.7377 48.4743 48.2324 48.4743C48.8408 48.4743 49.3456 48.6565 49.7467 49.0209C50.1512 49.3852 50.3668 49.8582 50.3936 50.4399H49.5161C49.4893 50.0889 49.3556 49.8014 49.1149 49.5774C48.8776 49.3501 48.5834 49.2365 48.2324 49.2365C47.7611 49.2365 47.3951 49.407 47.1343 49.7479C46.8769 50.0856 46.7482 50.5753 46.7482 51.2171V51.3926C46.7482 52.0177 46.8769 52.4991 47.1343 52.8367C47.3917 53.1743 47.7594 53.3431 48.2375 53.3431ZM54.786 54C54.7326 53.893 54.6891 53.7025 54.6557 53.4284C54.2244 53.8763 53.7097 54.1003 53.1113 54.1003C52.5764 54.1003 52.1369 53.9499 51.7925 53.649C51.4516 53.3448 51.2811 52.9604 51.2811 52.4957C51.2811 51.9308 51.495 51.4929 51.9229 51.182C52.3541 50.8678 52.9592 50.7107 53.7381 50.7107H54.6406V50.2845C54.6406 49.9602 54.5437 49.7028 54.3498 49.5123C54.1559 49.3184 53.8701 49.2214 53.4924 49.2214C53.1614 49.2214 52.884 49.305 52.66 49.4721C52.436 49.6393 52.3241 49.8415 52.3241 50.0789H51.3914C51.3914 49.8081 51.4867 49.5474 51.6772 49.2966C51.8711 49.0426 52.1318 48.842 52.4594 48.6949C52.7904 48.5479 53.1531 48.4743 53.5475 48.4743C54.1726 48.4743 54.6624 48.6314 55.0167 48.9457C55.371 49.2565 55.5549 49.6861 55.5683 50.2343V52.7314C55.5683 53.2295 55.6318 53.6256 55.7588 53.9198V54H54.786ZM53.2467 53.293C53.5375 53.293 53.8133 53.2178 54.074 53.0674C54.3348 52.9169 54.5236 52.7214 54.6406 52.4807V51.3675H53.9136C52.777 51.3675 52.2087 51.7001 52.2087 52.3654C52.2087 52.6562 52.3057 52.8835 52.4995 53.0473C52.6934 53.2111 52.9425 53.293 53.2467 53.293ZM59.6448 49.407C59.5044 49.3836 59.3523 49.3719 59.1885 49.3719C58.5801 49.3719 58.1673 49.6309 57.95 50.1491V54H57.0224V48.5746H57.9249L57.94 49.2014C58.2442 48.7167 58.6754 48.4743 59.2337 48.4743C59.4142 48.4743 59.5512 48.4977 59.6448 48.5445V49.407Z" fill="white" fill-opacity="0.6"/>
<path d="M10.9946 166.352C10.9946 166.071 10.895 165.854 10.6958 165.702C10.4995 165.549 10.1436 165.396 9.62793 165.24C9.1123 165.085 8.70215 164.912 8.39746 164.722C7.81445 164.355 7.52295 163.878 7.52295 163.289C7.52295 162.773 7.73242 162.349 8.15137 162.015C8.57324 161.681 9.11963 161.514 9.79053 161.514C10.2358 161.514 10.6328 161.596 10.9814 161.76C11.3301 161.924 11.604 162.158 11.8032 162.463C12.0024 162.765 12.1021 163.1 12.1021 163.469H10.9946C10.9946 163.135 10.8892 162.875 10.6782 162.687C10.4702 162.497 10.1714 162.401 9.78174 162.401C9.41846 162.401 9.13574 162.479 8.93359 162.634C8.73438 162.79 8.63477 163.006 8.63477 163.285C8.63477 163.519 8.74316 163.715 8.95996 163.874C9.17676 164.029 9.53418 164.181 10.0322 164.331C10.5303 164.477 10.9302 164.646 11.2319 164.836C11.5337 165.023 11.7549 165.24 11.8955 165.486C12.0361 165.729 12.1064 166.015 12.1064 166.343C12.1064 166.876 11.9014 167.301 11.4912 167.618C11.084 167.931 10.5303 168.088 9.83008 168.088C9.36719 168.088 8.94092 168.003 8.55127 167.833C8.16455 167.66 7.86279 167.423 7.646 167.121C7.43213 166.819 7.3252 166.468 7.3252 166.066H8.43701C8.43701 166.43 8.55713 166.711 8.79736 166.91C9.0376 167.109 9.38184 167.209 9.83008 167.209C10.2168 167.209 10.5068 167.131 10.7002 166.976C10.8965 166.818 10.9946 166.61 10.9946 166.352ZM15.0728 168.088C14.396 168.088 13.8467 167.875 13.4248 167.451C13.0059 167.023 12.7964 166.455 12.7964 165.746V165.614C12.7964 165.139 12.8872 164.716 13.0688 164.344C13.2534 163.969 13.5112 163.677 13.8423 163.469C14.1733 163.261 14.5425 163.157 14.9497 163.157C15.5972 163.157 16.0967 163.364 16.4482 163.777C16.8027 164.19 16.98 164.774 16.98 165.53V165.961H13.873C13.9053 166.354 14.0356 166.664 14.2642 166.893C14.4956 167.121 14.7856 167.235 15.1343 167.235C15.6235 167.235 16.022 167.038 16.3296 166.642L16.9053 167.191C16.7148 167.476 16.46 167.697 16.1406 167.855C15.8242 168.01 15.4683 168.088 15.0728 168.088ZM14.9453 164.014C14.6523 164.014 14.415 164.117 14.2334 164.322C14.0547 164.527 13.9404 164.812 13.8906 165.179H15.9253V165.1C15.9019 164.742 15.8066 164.473 15.6396 164.291C15.4727 164.106 15.2412 164.014 14.9453 164.014ZM19.7661 167.235C20.0327 167.235 20.2539 167.158 20.4297 167.002C20.6055 166.847 20.6992 166.655 20.7109 166.427H21.7173C21.7056 166.723 21.6133 167 21.4404 167.257C21.2676 167.512 21.0332 167.714 20.7373 167.864C20.4414 168.013 20.1221 168.088 19.7793 168.088C19.1143 168.088 18.5869 167.873 18.1973 167.442C17.8076 167.011 17.6128 166.417 17.6128 165.658V165.548C17.6128 164.824 17.8062 164.246 18.1929 163.812C18.5796 163.375 19.1069 163.157 19.7749 163.157C20.3403 163.157 20.8003 163.323 21.1548 163.654C21.5122 163.982 21.6997 164.414 21.7173 164.95H20.7109C20.6992 164.678 20.6055 164.454 20.4297 164.278C20.2568 164.102 20.0356 164.014 19.7661 164.014C19.4204 164.014 19.1538 164.14 18.9663 164.392C18.7788 164.641 18.6836 165.021 18.6807 165.53V165.702C18.6807 166.217 18.7729 166.603 18.9575 166.857C19.145 167.109 19.4146 167.235 19.7661 167.235ZM24.4771 167.235C24.7437 167.235 24.9648 167.158 25.1406 167.002C25.3164 166.847 25.4102 166.655 25.4219 166.427H26.4282C26.4165 166.723 26.3242 167 26.1514 167.257C25.9785 167.512 25.7441 167.714 25.4482 167.864C25.1523 168.013 24.833 168.088 24.4902 168.088C23.8252 168.088 23.2979 167.873 22.9082 167.442C22.5186 167.011 22.3237 166.417 22.3237 165.658V165.548C22.3237 164.824 22.5171 164.246 22.9038 163.812C23.2905 163.375 23.8179 163.157 24.4858 163.157C25.0513 163.157 25.5112 163.323 25.8657 163.654C26.2231 163.982 26.4106 164.414 26.4282 164.95H25.4219C25.4102 164.678 25.3164 164.454 25.1406 164.278C24.9678 164.102 24.7466 164.014 24.4771 164.014C24.1313 164.014 23.8647 164.14 23.6772 164.392C23.4897 164.641 23.3945 165.021 23.3916 165.53V165.702C23.3916 166.217 23.4839 166.603 23.6685 166.857C23.856 167.109 24.1255 167.235 24.4771 167.235ZM28.3706 168H27.3027V163.245H28.3706V168ZM27.2368 162.01C27.2368 161.846 27.2881 161.71 27.3906 161.602C27.4961 161.493 27.6455 161.439 27.8389 161.439C28.0322 161.439 28.1816 161.493 28.2871 161.602C28.3926 161.71 28.4453 161.846 28.4453 162.01C28.4453 162.171 28.3926 162.306 28.2871 162.415C28.1816 162.52 28.0322 162.573 27.8389 162.573C27.6455 162.573 27.4961 162.52 27.3906 162.415C27.2881 162.306 27.2368 162.171 27.2368 162.01ZM29.3374 165.579C29.3374 165.113 29.4297 164.694 29.6143 164.322C29.7988 163.947 30.0581 163.66 30.3921 163.46C30.7261 163.258 31.1099 163.157 31.5435 163.157C32.1851 163.157 32.7051 163.364 33.1035 163.777C33.5049 164.19 33.7217 164.738 33.7539 165.42L33.7583 165.671C33.7583 166.14 33.6675 166.559 33.4858 166.928C33.3071 167.297 33.0493 167.583 32.7124 167.785C32.3784 167.987 31.9917 168.088 31.5522 168.088C30.8813 168.088 30.3438 167.865 29.9395 167.42C29.5381 166.972 29.3374 166.375 29.3374 165.631V165.579ZM30.4053 165.671C30.4053 166.16 30.5063 166.544 30.7085 166.822C30.9106 167.098 31.1919 167.235 31.5522 167.235C31.9126 167.235 32.1924 167.095 32.3916 166.813C32.5938 166.532 32.6948 166.121 32.6948 165.579C32.6948 165.098 32.5908 164.717 32.3828 164.436C32.1777 164.155 31.8979 164.014 31.5435 164.014C31.1948 164.014 30.918 164.153 30.7129 164.432C30.5078 164.707 30.4053 165.12 30.4053 165.671ZM35.6523 163.245L35.6831 163.794C36.0347 163.37 36.4961 163.157 37.0674 163.157C38.0576 163.157 38.5615 163.724 38.5791 164.858V168H37.5112V164.919C37.5112 164.618 37.4453 164.395 37.3135 164.251C37.1846 164.105 36.9722 164.032 36.6763 164.032C36.2456 164.032 35.9248 164.227 35.7139 164.616V168H34.646V163.245H35.6523ZM41.7651 168.088C41.0884 168.088 40.5391 167.875 40.1172 167.451C39.6982 167.023 39.4888 166.455 39.4888 165.746V165.614C39.4888 165.139 39.5796 164.716 39.7612 164.344C39.9458 163.969 40.2036 163.677 40.5347 163.469C40.8657 163.261 41.2349 163.157 41.6421 163.157C42.2896 163.157 42.7891 163.364 43.1406 163.777C43.4951 164.19 43.6724 164.774 43.6724 165.53V165.961H40.5654C40.5977 166.354 40.728 166.664 40.9565 166.893C41.188 167.121 41.478 167.235 41.8267 167.235C42.3159 167.235 42.7144 167.038 43.022 166.642L43.5977 167.191C43.4072 167.476 43.1523 167.697 42.833 167.855C42.5166 168.01 42.1606 168.088 41.7651 168.088ZM41.6377 164.014C41.3447 164.014 41.1074 164.117 40.9258 164.322C40.7471 164.527 40.6328 164.812 40.583 165.179H42.6177V165.1C42.5942 164.742 42.499 164.473 42.332 164.291C42.165 164.106 41.9336 164.014 41.6377 164.014ZM47.1704 166.708C47.1704 166.518 47.0913 166.373 46.9331 166.273C46.7778 166.173 46.5186 166.085 46.1553 166.009C45.792 165.933 45.4888 165.836 45.2456 165.719C44.7124 165.461 44.4458 165.088 44.4458 164.599C44.4458 164.188 44.6187 163.846 44.9644 163.57C45.3101 163.295 45.7495 163.157 46.2827 163.157C46.8511 163.157 47.3096 163.298 47.6582 163.579C48.0098 163.86 48.1855 164.225 48.1855 164.673H47.1177C47.1177 164.468 47.0415 164.298 46.8892 164.164C46.7368 164.026 46.5347 163.957 46.2827 163.957C46.0483 163.957 45.8564 164.011 45.707 164.12C45.5605 164.228 45.4873 164.373 45.4873 164.555C45.4873 164.719 45.5562 164.846 45.6938 164.937C45.8315 165.028 46.1099 165.12 46.5288 165.214C46.9478 165.305 47.2759 165.415 47.5132 165.543C47.7534 165.669 47.9307 165.822 48.0449 166C48.1621 166.179 48.2207 166.396 48.2207 166.651C48.2207 167.079 48.0435 167.426 47.689 167.692C47.3345 167.956 46.8701 168.088 46.2959 168.088C45.9062 168.088 45.5591 168.018 45.2544 167.877C44.9497 167.736 44.7124 167.543 44.5425 167.297C44.3726 167.051 44.2876 166.786 44.2876 166.501H45.3247C45.3394 166.753 45.4346 166.948 45.6104 167.086C45.7861 167.221 46.019 167.288 46.3091 167.288C46.5903 167.288 46.8042 167.235 46.9507 167.13C47.0972 167.021 47.1704 166.881 47.1704 166.708Z" fill="white" fill-opacity="0.6"/>
<path d="M11.2319 266.51H8.75342L8.23486 268H7.0791L9.49609 261.602H10.4937L12.915 268H11.7549L11.2319 266.51ZM9.06543 265.614H10.9199L9.99268 262.959L9.06543 265.614ZM14.6553 263.245V268.422C14.6553 268.908 14.5337 269.279 14.2905 269.534C14.0503 269.792 13.6973 269.92 13.2314 269.92C13.0352 269.92 12.8462 269.896 12.6646 269.846V269.002C12.7759 269.028 12.9019 269.042 13.0425 269.042C13.397 269.042 13.5786 268.848 13.5874 268.461V263.245H14.6553ZM13.4951 262.01C13.4951 261.846 13.5464 261.71 13.6489 261.602C13.7544 261.493 13.9038 261.439 14.0972 261.439C14.2905 261.439 14.4399 261.493 14.5454 261.602C14.6509 261.71 14.7036 261.846 14.7036 262.01C14.7036 262.171 14.6509 262.306 14.5454 262.415C14.4399 262.52 14.2905 262.573 14.0972 262.573C13.9038 262.573 13.7544 262.52 13.6489 262.415C13.5464 262.306 13.4951 262.171 13.4951 262.01ZM18.6807 267.534C18.3672 267.903 17.9219 268.088 17.3447 268.088C16.8291 268.088 16.438 267.937 16.1714 267.635C15.9077 267.333 15.7759 266.897 15.7759 266.326V263.245H16.8438V266.312C16.8438 266.916 17.0942 267.218 17.5952 267.218C18.1138 267.218 18.4639 267.032 18.6455 266.66V263.245H19.7134V268H18.707L18.6807 267.534ZM23.4663 266.708C23.4663 266.518 23.3872 266.373 23.229 266.273C23.0737 266.173 22.8145 266.085 22.4512 266.009C22.0879 265.933 21.7847 265.836 21.5415 265.719C21.0083 265.461 20.7417 265.088 20.7417 264.599C20.7417 264.188 20.9146 263.846 21.2603 263.57C21.606 263.295 22.0454 263.157 22.5786 263.157C23.147 263.157 23.6055 263.298 23.9541 263.579C24.3057 263.86 24.4814 264.225 24.4814 264.673H23.4136C23.4136 264.468 23.3374 264.298 23.1851 264.164C23.0327 264.026 22.8306 263.957 22.5786 263.957C22.3442 263.957 22.1523 264.011 22.0029 264.12C21.8564 264.228 21.7832 264.373 21.7832 264.555C21.7832 264.719 21.8521 264.846 21.9897 264.937C22.1274 265.028 22.4058 265.12 22.8247 265.214C23.2437 265.305 23.5718 265.415 23.8091 265.543C24.0493 265.669 24.2266 265.822 24.3408 266C24.458 266.179 24.5166 266.396 24.5166 266.651C24.5166 267.079 24.3394 267.426 23.9849 267.692C23.6304 267.956 23.166 268.088 22.5918 268.088C22.2021 268.088 21.855 268.018 21.5503 267.877C21.2456 267.736 21.0083 267.543 20.8384 267.297C20.6685 267.051 20.5835 266.786 20.5835 266.501H21.6206C21.6353 266.753 21.7305 266.948 21.9062 267.086C22.082 267.221 22.3149 267.288 22.605 267.288C22.8862 267.288 23.1001 267.235 23.2466 267.13C23.3931 267.021 23.4663 266.881 23.4663 266.708ZM26.7886 262.089V263.245H27.6279V264.036H26.7886V266.69C26.7886 266.872 26.8237 267.004 26.894 267.086C26.9673 267.165 27.0962 267.205 27.2808 267.205C27.4038 267.205 27.5283 267.19 27.6543 267.161V267.987C27.4111 268.054 27.1768 268.088 26.9512 268.088C26.1309 268.088 25.7207 267.635 25.7207 266.73V264.036H24.9385V263.245H25.7207V262.089H26.7886ZM30.5415 268.088C29.8647 268.088 29.3154 267.875 28.8936 267.451C28.4746 267.023 28.2651 266.455 28.2651 265.746V265.614C28.2651 265.139 28.356 264.716 28.5376 264.344C28.7222 263.969 28.98 263.677 29.311 263.469C29.6421 263.261 30.0112 263.157 30.4185 263.157C31.0659 263.157 31.5654 263.364 31.917 263.777C32.2715 264.19 32.4487 264.774 32.4487 265.53V265.961H29.3418C29.374 266.354 29.5044 266.664 29.7329 266.893C29.9644 267.121 30.2544 267.235 30.603 267.235C31.0923 267.235 31.4907 267.038 31.7983 266.642L32.374 267.191C32.1836 267.476 31.9287 267.697 31.6094 267.855C31.293 268.01 30.937 268.088 30.5415 268.088ZM30.4141 264.014C30.1211 264.014 29.8838 264.117 29.7021 264.322C29.5234 264.527 29.4092 264.812 29.3594 265.179H31.394V265.1C31.3706 264.742 31.2754 264.473 31.1084 264.291C30.9414 264.106 30.71 264.014 30.4141 264.014ZM35.9468 266.708C35.9468 266.518 35.8677 266.373 35.7095 266.273C35.5542 266.173 35.2949 266.085 34.9316 266.009C34.5684 265.933 34.2651 265.836 34.022 265.719C33.4888 265.461 33.2222 265.088 33.2222 264.599C33.2222 264.188 33.395 263.846 33.7407 263.57C34.0864 263.295 34.5259 263.157 35.0591 263.157C35.6274 263.157 36.0859 263.298 36.4346 263.579C36.7861 263.86 36.9619 264.225 36.9619 264.673H35.894C35.894 264.468 35.8179 264.298 35.6655 264.164C35.5132 264.026 35.311 263.957 35.0591 263.957C34.8247 263.957 34.6328 264.011 34.4834 264.12C34.3369 264.228 34.2637 264.373 34.2637 264.555C34.2637 264.719 34.3325 264.846 34.4702 264.937C34.6079 265.028 34.8862 265.12 35.3052 265.214C35.7241 265.305 36.0522 265.415 36.2896 265.543C36.5298 265.669 36.707 265.822 36.8213 266C36.9385 266.179 36.9971 266.396 36.9971 266.651C36.9971 267.079 36.8198 267.426 36.4653 267.692C36.1108 267.956 35.6465 268.088 35.0723 268.088C34.6826 268.088 34.3354 268.018 34.0308 267.877C33.7261 267.736 33.4888 267.543 33.3188 267.297C33.1489 267.051 33.064 266.786 33.064 266.501H34.1011C34.1157 266.753 34.2109 266.948 34.3867 267.086C34.5625 267.221 34.7954 267.288 35.0854 267.288C35.3667 267.288 35.5806 267.235 35.7271 267.13C35.8735 267.021 35.9468 266.881 35.9468 266.708Z" fill="white" fill-opacity="0.6"/>
</g>
<defs>
<filter id="filter0_d" x="174.607" y="-217.663" width="606.918" height="513.793" filterUnits="userSpaceOnUse" color-interpolation-filters="sRGB">
<feFlood flood-opacity="0" result="BackgroundImageFix"/>
<feColorMatrix in="SourceAlpha" type="matrix" values="0 0 0 0 0 0 0 0 0 0 0 0 0 0 0 0 0 0 127 0"/>
<feOffset/>
<feGaussianBlur stdDeviation="30.3029"/>
<feColorMatrix type="matrix" values="0 0 0 0 0.129427 0 0 0 0 0.224219 0 0 0 0 0.4375 0 0 0 0.3 0"/>
<feBlend mode="normal" in2="BackgroundImageFix" result="effect1_dropShadow"/>
<feBlend mode="normal" in="SourceGraphic" in2="effect1_dropShadow" result="shape"/>
</filter>
<filter id="filter1_d" x="181.125" y="-230.604" width="603.585" height="512.4" filterUnits="userSpaceOnUse" color-interpolation-filters="sRGB">
<feFlood flood-opacity="0" result="BackgroundImageFix"/>
<feColorMatrix in="SourceAlpha" type="matrix" values="0 0 0 0 0 0 0 0 0 0 0 0 0 0 0 0 0 0 127 0"/>
<feOffset/>
<feGaussianBlur stdDeviation="30.3029"/>
<feColorMatrix type="matrix" values="0 0 0 0 0.129427 0 0 0 0 0.224219 0 0 0 0 0.4375 0 0 0 0.3 0"/>
<feBlend mode="normal" in2="BackgroundImageFix" result="effect1_dropShadow"/>
<feBlend mode="normal" in="SourceGraphic" in2="effect1_dropShadow" result="shape"/>
</filter>
<filter id="filter2_d" x="215.625" y="-202.984" width="551.889" height="465.044" filterUnits="userSpaceOnUse" color-interpolation-filters="sRGB">
<feFlood flood-opacity="0" result="BackgroundImageFix"/>
<feColorMatrix in="SourceAlpha" type="matrix" values="0 0 0 0 0 0 0 0 0 0 0 0 0 0 0 0 0 0 127 0"/>
<feOffset/>
<feGaussianBlur stdDeviation="30.3029"/>
<feColorMatrix type="matrix" values="0 0 0 0 0.129427 0 0 0 0 0.224219 0 0 0 0 0.4375 0 0 0 0.3 0"/>
<feBlend mode="normal" in2="BackgroundImageFix" result="effect1_dropShadow"/>
<feBlend mode="normal" in="SourceGraphic" in2="effect1_dropShadow" result="shape"/>
</filter>
<filter id="filter3_d" x="174.41" y="-261.316" width="622.776" height="528.561" filterUnits="userSpaceOnUse" color-interpolation-filters="sRGB">
<feFlood flood-opacity="0" result="BackgroundImageFix"/>
<feColorMatrix in="SourceAlpha" type="matrix" values="0 0 0 0 0 0 0 0 0 0 0 0 0 0 0 0 0 0 127 0"/>
<feOffset/>
<feGaussianBlur stdDeviation="30.3029"/>
<feColorMatrix type="matrix" values="0 0 0 0 0.129427 0 0 0 0 0.224219 0 0 0 0 0.4375 0 0 0 0.3 0"/>
<feBlend mode="normal" in2="BackgroundImageFix" result="effect1_dropShadow"/>
<feBlend mode="normal" in="SourceGraphic" in2="effect1_dropShadow" result="shape"/>
</filter>
<linearGradient id="paint0_linear" x1="158.139" y1="122.102" x2="525.761" y2="355.301" gradientUnits="userSpaceOnUse">
<stop stop-color="#E1467C"/>
<stop offset="1" stop-color="#FF9CE3"/>
</linearGradient>
<linearGradient id="paint1_linear" x1="693.716" y1="149.856" x2="275.075" y2="-82.1229" gradientUnits="userSpaceOnUse">
<stop stop-color="#E0695B"/>
<stop offset="1" stop-color="#3913B8"/>
</linearGradient>
<linearGradient id="paint2_linear" x1="694.077" y1="133.915" x2="284.154" y2="-93.2335" gradientUnits="userSpaceOnUse">
<stop stop-color="#FF5A3D"/>
<stop offset="1" stop-color="#2FB8FF"/>
</linearGradient>
<linearGradient id="paint3_linear" x1="681.782" y1="127.141" x2="311.869" y2="-77.8364" gradientUnits="userSpaceOnUse">
<stop stop-color="#FF5A3D"/>
<stop offset="1" stop-color="#2FB8FF"/>
</linearGradient>
<linearGradient id="paint4_linear" x1="703.973" y1="114.883" x2="280.432" y2="-119.812" gradientUnits="userSpaceOnUse">
<stop stop-color="#FF6C6C"/>
<stop offset="1" stop-color="#2FB8FF"/>
</linearGradient>
<clipPath id="clip0">
<rect width="701" height="428" fill="white"/>
</clipPath>
</defs>
</svg>
