<svg width="20" height="12" viewBox="0 0 20 12" fill="none" xmlns="http://www.w3.org/2000/svg">
<path d="M4.69213 3.12972H8.44279V3.42794H5.03603V5.67215H8.23961V5.97037H5.03603V8.43431H8.48184V8.73253H4.69213V3.12972ZM8.77875 3.12972H9.17731L10.9432 5.59367L12.7482 3.12972L15.2033 0L11.1699 5.85264L13.2483 8.73253H12.8341L10.9432 6.11161L9.04454 8.73253H8.63817L10.7322 5.85264L8.77888 3.12972H8.77875ZM13.3968 3.42794V3.12972H17.6709V3.42794H15.7019V8.73239H15.358V3.42794H13.397H13.3968ZM0 3.12972H0.429801L6.35586 12L3.90686 8.73253L0.35938 3.55346L0.34376 8.73253H0V3.12972ZM17.6364 8.34427C17.566 8.34427 17.5133 8.28984 17.5133 8.21955C17.5133 8.14913 17.566 8.0947 17.6363 8.0947C17.7074 8.0947 17.7592 8.14913 17.7592 8.21955C17.7592 8.28984 17.7074 8.34427 17.6363 8.34427H17.6364ZM17.9741 8.01595H18.1582C18.1607 8.11567 18.2336 8.18259 18.3405 8.18259C18.46 8.18259 18.5278 8.11069 18.5278 7.97576V7.12157H18.7151V7.97657C18.7151 8.21955 18.5746 8.35945 18.3421 8.35945C18.124 8.35945 17.9742 8.22372 17.9742 8.01595H17.9741ZM18.96 8.0052H19.1457C19.1616 8.11983 19.2736 8.19267 19.435 8.19267C19.5854 8.19267 19.6959 8.11473 19.6959 8.00762C19.6959 7.91556 19.6257 7.86019 19.4659 7.82256L19.3104 7.78493C19.0922 7.73386 18.9926 7.62823 18.9926 7.45069C18.9926 7.2354 19.1682 7.09214 19.4315 7.09214C19.6766 7.09214 19.8557 7.2354 19.8665 7.43887H19.6841C19.6666 7.32759 19.5697 7.25798 19.4291 7.25798C19.281 7.25798 19.1824 7.3292 19.1824 7.43806C19.1824 7.52434 19.246 7.5738 19.4033 7.61062L19.5362 7.64328C19.7836 7.70107 19.8857 7.80159 19.8857 7.98329C19.8857 8.21444 19.7066 8.35945 19.4208 8.35945C19.1532 8.35945 18.9733 8.22116 18.96 8.00506V8.0052Z" fill="white"/>
</svg>
