<svg width="40" height="24" viewBox="0 0 40 24" fill="none" xmlns="http://www.w3.org/2000/svg">
<path d="M9.34381 6.25944H16.8128V6.85588H10.0286V11.3443H16.4082V11.9407H10.0286V16.8686H16.8906V17.4651H9.34381V6.25944ZM17.4818 6.25944H18.2755L21.7921 11.1873L25.3865 6.25944L30.2755 0L22.2434 11.7053L26.3824 17.4651H25.5576L21.7921 12.2232L18.0111 17.4651H17.2019L21.372 11.7053L17.4821 6.25944H17.4818ZM26.6781 6.85588V6.25944H35.1894V6.85588H31.2684V17.4648H30.5836V6.85588H26.6784H26.6781ZM0 6.25944H0.855897L12.6569 24L7.78003 17.4651L0.715661 7.10692L0.684557 17.4651H0V6.25944ZM35.1207 16.6885C34.9805 16.6885 34.8757 16.5797 34.8757 16.4391C34.8757 16.2983 34.9805 16.1894 35.1205 16.1894C35.2621 16.1894 35.3653 16.2983 35.3653 16.4391C35.3653 16.5797 35.2621 16.6885 35.1205 16.6885H35.1207ZM35.7932 16.0319H36.1598C36.1649 16.2313 36.3099 16.3652 36.5228 16.3652C36.761 16.3652 36.8958 16.2214 36.8958 15.9515V14.2431H37.2688V15.9531C37.2688 16.4391 36.9891 16.7189 36.5261 16.7189C36.0917 16.7189 35.7935 16.4474 35.7935 16.0319H35.7932ZM37.7565 16.0104H38.1263C38.158 16.2397 38.381 16.3853 38.7025 16.3853C39.002 16.3853 39.2219 16.2295 39.2219 16.0152C39.2219 15.8311 39.0822 15.7204 38.7639 15.6451L38.4542 15.5699C38.0199 15.4677 37.8214 15.2565 37.8214 14.9014C37.8214 14.4708 38.1711 14.1843 38.6956 14.1843C39.1836 14.1843 39.5402 14.4708 39.5617 14.8777H39.1986C39.1637 14.6552 38.9707 14.516 38.6907 14.516C38.3958 14.516 38.1995 14.6584 38.1995 14.8761C38.1995 15.0487 38.3261 15.1476 38.6393 15.2212L38.9039 15.2866C39.3967 15.4021 39.6 15.6032 39.6 15.9666C39.6 16.4289 39.2434 16.7189 38.6741 16.7189C38.1413 16.7189 37.7831 16.4423 37.7565 16.0101V16.0104Z" fill="black"/>
</svg>
