<svg width="27" height="24" viewBox="0 0 27 24" fill="none" xmlns="http://www.w3.org/2000/svg">
<path d="M7.65786e-05 12.0027C7.65786e-05 10.2174 2.23583 8.52552 5.66361 7.47631C4.87259 3.9826 5.22415 1.20302 6.77325 0.313115C7.13031 0.104372 7.5478 0.00549316 8.00374 0.00549316V1.23049C7.75105 1.23049 7.5478 1.27993 7.37751 1.37331C6.63043 1.80179 6.30632 3.43328 6.55901 5.5317C6.61944 6.04807 6.71832 6.5919 6.83917 7.14672C7.91585 6.88304 9.0914 6.67979 10.3274 6.54795C11.069 5.5317 11.838 4.60883 12.6126 3.80133C10.8218 2.13687 9.14084 1.22499 7.99824 1.22499V0C9.50889 0 11.4865 1.07668 13.486 2.94438C15.4855 1.08766 17.4631 0.0219731 18.9738 0.0219731V1.24697C17.8367 1.24697 16.1502 2.15335 14.3594 3.80682C15.1285 4.61433 15.8975 5.5317 16.6281 6.54795C17.8696 6.67979 19.0452 6.88304 20.1218 7.15221C20.2482 6.60288 20.3416 6.07004 20.4075 5.55917C20.6657 3.46075 20.3471 1.82925 19.6055 1.39528C19.4407 1.29641 19.2264 1.25246 18.9738 1.25246V0.0274662C19.4352 0.0274662 19.8527 0.126345 20.2152 0.335088C21.7588 1.22499 22.1049 3.99908 21.3084 7.4818C24.7252 8.53651 26.95 10.2229 26.95 12.0027C26.95 13.7881 24.7142 15.48 21.2864 16.5292C22.0774 20.0229 21.7259 22.8025 20.1768 23.6924C19.8197 23.9011 19.4022 24 18.9408 24C17.4302 24 15.4526 22.9233 13.453 21.0556C11.4535 22.9123 9.47593 23.978 7.96529 23.978C7.50385 23.978 7.08636 23.8791 6.72381 23.6704C5.18021 22.7805 4.83414 20.0064 5.63066 16.5237C2.22484 15.4745 7.65786e-05 13.7826 7.65786e-05 12.0027V12.0027ZM7.15229 8.33875C7.35554 9.04738 7.60823 9.77798 7.89387 10.5086C8.1191 10.0691 8.35531 9.62966 8.61349 9.1902C8.86618 8.75074 9.13535 8.32227 9.40451 7.90478C8.62447 8.02014 7.8719 8.16297 7.15229 8.33875ZM9.66819 14.1891C10.0967 14.9306 10.5361 15.6338 10.9921 16.2875C11.8106 16.3589 12.64 16.3973 13.475 16.3973C14.3045 16.3973 15.134 16.3589 15.947 16.293C16.4029 15.6393 16.8479 14.9416 17.2763 14.2055C17.6938 13.4859 18.0729 12.7553 18.4189 12.0192C18.0784 11.2831 17.6938 10.547 17.2818 9.82742C16.8534 9.08583 16.4139 8.3827 15.958 7.729C15.1395 7.65759 14.31 7.61913 13.475 7.61913C12.6455 7.61913 11.8161 7.65759 11.0031 7.72351C10.5471 8.3772 10.1022 9.07485 9.67369 9.81094C9.2562 10.5306 8.87717 11.2612 8.53109 11.9973C8.87717 12.7333 9.2562 13.4694 9.66819 14.1891ZM7.89387 13.4749C7.59724 14.211 7.34455 14.9471 7.1358 15.6612C7.85542 15.837 8.61349 15.9854 9.39902 16.1007C9.12985 15.6777 8.86068 15.2438 8.60799 14.7988C8.3553 14.3593 8.1191 13.9144 7.89387 13.4749ZM13.464 19.3362C13.9749 18.8089 14.4858 18.2211 14.9911 17.5784C14.4968 17.6004 13.9914 17.6168 13.4805 17.6168C12.9641 17.6168 12.4533 17.6059 11.9534 17.5784C12.4478 18.2211 12.9586 18.8089 13.464 19.3362ZM17.551 16.1007C18.331 15.9854 19.0836 15.8425 19.8032 15.6667C19.6 14.9581 19.3473 14.2275 19.0616 13.4969C18.8364 13.9364 18.6002 14.3758 18.342 14.8153C18.0838 15.2547 17.8202 15.6832 17.551 16.1007ZM13.4915 4.66926C12.9806 5.19661 12.4697 5.78439 11.9644 6.4271C12.4588 6.40513 12.9641 6.38865 13.475 6.38865C13.9914 6.38865 14.5022 6.39963 15.0021 6.4271C14.5077 5.78439 13.9969 5.19661 13.4915 4.66926ZM17.5565 7.90478C17.8257 8.32776 18.0948 8.76173 18.3475 9.20668C18.6002 9.64614 18.8364 10.0856 19.0616 10.5251C19.3583 9.78897 19.611 9.05287 19.8197 8.33875C19.1001 8.16846 18.342 8.02014 17.5565 7.90478V7.90478ZM22.5279 14.7823C24.4725 13.9528 25.7305 12.8652 25.7305 12.0027C25.7305 11.1403 24.4725 10.0471 22.5279 9.22316C22.0555 9.01991 21.5391 8.83864 21.0063 8.66834C20.6931 9.74502 20.2811 10.8656 19.7703 12.0137C20.2757 13.1563 20.6822 14.2715 20.9898 15.3426C21.5336 15.1723 22.05 14.9856 22.5279 14.7823ZM19.5725 22.6322C20.3196 22.2037 20.6437 20.5722 20.391 18.4738C20.3306 17.9574 20.2317 17.4136 20.1109 16.8588C19.0342 17.1225 17.8586 17.3257 16.6226 17.4575C15.8811 18.4738 15.112 19.3967 14.3375 20.2042C16.1283 21.8686 17.8092 22.7805 18.9518 22.7805C19.199 22.775 19.4077 22.7256 19.5725 22.6322V22.6322ZM6.54253 18.4463C6.28435 20.5447 6.60296 22.1762 7.34455 22.6102C7.50935 22.7091 7.72358 22.753 7.97627 22.753C9.11338 22.753 10.7998 21.8466 12.5906 20.1932C11.8215 19.3857 11.0525 18.4683 10.3219 17.452C9.08041 17.3202 7.90486 17.117 6.82818 16.8478C6.70184 17.4026 6.60296 17.9355 6.54253 18.4463V18.4463ZM4.42763 14.7823C4.90005 14.9856 5.41642 15.1669 5.94926 15.3371C6.26238 14.2605 6.67437 13.1398 7.18524 11.9918C6.67987 10.8492 6.27336 9.73403 5.96574 8.66285C5.42191 8.83314 4.90555 9.01991 4.42214 9.22316C2.47753 10.0526 1.21958 11.1403 1.21958 12.0027C1.22507 12.8652 2.48302 13.9583 4.42763 14.7823V14.7823Z" fill="#61DAFB"/>
<path d="M13.5105 14.0208C12.124 14.0208 11 12.8969 11 11.5104C11 10.124 12.124 9 13.5105 9C14.8969 9 16.0209 10.124 16.0209 11.5104C16.0209 12.8969 14.8969 14.0208 13.5105 14.0208Z" fill="#61DAFB"/>
</svg>
