<svg width="41" height="44" viewBox="0 0 41 44" fill="none" xmlns="http://www.w3.org/2000/svg">
<path d="M18.9262 0.141623C19.2184 0.168023 19.5456 0.264823 19.8413 0.414423C19.976 0.483063 20.2735 0.669622 20.2735 0.687222C20.2735 0.692502 20.1685 0.743542 20.0408 0.799862C18.7932 1.3525 17.9288 1.9861 17.4563 2.69714C17.3356 2.88018 17.1869 3.19522 17.1379 3.37298C17.1151 3.45394 17.0924 3.51906 17.0854 3.51906C17.0801 3.51906 17.0399 3.47682 16.9962 3.42578C16.7792 3.16706 16.6217 2.85906 16.543 2.53874C16.4852 2.30642 16.4888 1.93858 16.5517 1.70274C16.641 1.3613 16.8159 1.0621 17.0784 0.799862C17.4651 0.414423 17.9428 0.194423 18.515 0.139863C18.6199 0.131063 18.7197 0.124023 18.7337 0.124023C18.7477 0.125783 18.8352 0.134583 18.9262 0.141623Z" fill="white" fill-opacity="0.8"/>
<path d="M23.4914 0.323202C23.7294 1.14688 23.6209 2.02336 23.1852 2.80128C22.8877 3.33104 22.4205 3.88016 21.9183 4.28672C21.1362 4.92031 20.5447 5.55918 20.0566 6.30016C19.8151 6.66447 19.7346 6.80527 19.5684 7.13789C19.1834 7.91056 18.9245 8.79585 18.837 9.64065C18.8177 9.81838 18.8107 9.85007 18.7897 9.83425C18.7442 9.79549 18.4608 9.35376 18.3593 9.16367C17.9585 8.41216 17.7363 7.52865 17.7363 6.67856C17.7363 5.69296 18.0793 4.50847 18.585 3.74816C18.7512 3.5 18.8982 3.32224 19.1257 3.10048C19.5421 2.69568 19.9306 2.44752 20.9892 1.91072C21.3794 1.71184 21.8098 1.4848 21.9446 1.4056C22.4695 1.0976 22.844 0.812483 23.2149 0.439362L23.4546 0.198242L23.4914 0.323202Z" fill="white" fill-opacity="0.8"/>
<path d="M26.6401 0.724273C27.0128 1.63243 26.9935 2.66731 26.5823 3.88875C26.3286 4.64027 25.6269 5.72973 24.7801 6.68715C24.0399 7.52315 22.8203 8.61786 22.2184 8.98746C21.9192 9.16875 21.7739 9.26906 21.5255 9.45737C21.27 9.65275 20.8833 10.0294 20.7293 10.2318C20.6663 10.3145 20.6103 10.3814 20.6051 10.3814C20.5684 10.3849 20.5124 9.79706 20.5281 9.55595C20.6138 8.17964 21.3487 6.78044 23.0565 4.75115C23.3908 4.35515 23.718 3.98203 24.5089 3.09675C25.5972 1.87883 26.0381 1.35435 26.4161 0.826353C26.4949 0.715473 26.5666 0.616913 26.5736 0.609873C26.5806 0.601073 26.6104 0.652113 26.6401 0.724273Z" fill="white" fill-opacity="0.8"/>
<path d="M13.2046 0.944136C13.831 1.82589 14.5817 2.61613 15.5143 3.36941C15.8223 3.61757 15.9308 3.72317 16.0638 3.90621C16.2492 4.15965 16.3664 4.41309 16.4504 4.73693C16.4872 4.87949 16.4994 4.97454 16.5064 5.18396C16.5117 5.33183 16.51 5.49725 16.5029 5.55183L16.4907 5.65387L16.2265 5.64334C15.922 5.63103 15.712 5.59934 15.4304 5.52365C14.3577 5.23854 13.4653 4.42189 13.0734 3.37117C12.9176 2.94701 12.8477 2.56509 12.8477 2.11101C12.8477 1.77661 12.8669 1.58653 12.9351 1.30142C12.9754 1.12718 13.0786 0.791016 13.0909 0.791016C13.0944 0.791016 13.1451 0.859656 13.2046 0.944136Z" fill="white" fill-opacity="0.8"/>
<path d="M28.2713 1.4985C28.9258 1.79066 29.3439 2.17258 29.6239 2.73578C29.9371 3.36586 30.0001 4.15082 29.8024 4.93578C29.4804 6.21707 28.5443 7.2924 27.3264 7.77818C26.735 8.014 26.0263 8.12489 25.3754 8.08267C25.2162 8.07209 25.0797 8.058 25.0727 8.05276C25.0657 8.04569 25.0745 8.0316 25.092 8.0228C25.1095 8.01227 25.204 7.94009 25.302 7.86267C27.0832 6.44236 28.0141 4.51162 28.1838 1.89098C28.1926 1.7449 28.2013 1.59354 28.2013 1.5513C28.2013 1.4721 28.2048 1.47034 28.2713 1.4985Z" fill="white" fill-opacity="0.8"/>
<path d="M10.7792 2.09371C10.7845 2.10779 10.8089 2.21163 10.8352 2.32251C10.9402 2.77835 11.1151 3.24651 11.3496 3.70411C11.5369 4.07371 11.6768 4.29723 11.9025 4.60171C12.9384 5.99032 14.4537 6.87032 16.1545 7.06748L16.417 7.09912L16.2595 7.17481C15.7941 7.39659 15.1799 7.56379 14.6252 7.6201C14.3943 7.64299 13.927 7.64299 13.6944 7.6201C12.739 7.52508 11.8606 7.17832 11.1064 6.59752C10.6287 6.23148 10.2298 5.52748 10.0915 4.81115C9.92358 3.93643 10.1108 3.02123 10.6007 2.30491C10.753 2.08315 10.7705 2.06203 10.7792 2.09371Z" fill="white" fill-opacity="0.8"/>
<path d="M35.208 5.35125C36.1564 5.47973 36.8458 6.15734 37.2552 7.35592C37.4949 8.0617 37.6034 8.80441 37.6017 9.74072C37.5999 10.9393 37.3952 12.0533 36.9997 13.0284C36.8563 13.3804 36.5308 13.9735 36.4801 13.9735C36.4503 13.9735 34.8055 13.1815 34.8003 13.1657C34.7968 13.1551 34.83 13.0425 34.8755 12.914C35.25 11.8316 35.523 10.6981 35.6314 9.78472C35.6717 9.4345 35.6717 8.77094 35.6314 8.52632C35.558 8.10041 35.446 7.83814 35.2483 7.62694C34.9368 7.29783 34.4853 7.22214 33.8467 7.39112C33.4057 7.5073 32.7636 7.82232 32.1109 8.24121C31.8974 8.37672 31.3988 8.72343 31.285 8.81321L31.2448 8.84312L31.299 9.01912C31.3288 9.11592 31.404 9.3289 31.4635 9.49432C31.8502 10.5397 32.3611 11.4145 33.012 12.1431L33.124 12.2716L33.047 12.2311C32.8755 12.1431 32.2141 11.7348 31.8764 11.5077C30.4749 10.5697 29.3725 9.51543 28.6621 8.4313L28.5781 8.30281L28.8651 8.0177C29.5702 7.32423 30.2964 6.8033 31.201 6.34392C32.0672 5.90392 32.963 5.60645 33.9097 5.44631C34.4451 5.35653 34.9665 5.31782 35.208 5.35125Z" fill="white" fill-opacity="0.8"/>
<path d="M5.72537 5.43048C5.76386 5.43577 5.92482 5.45515 6.08407 5.47448C7.91957 5.70328 9.6694 6.48124 11.0832 7.70088C11.3562 7.93497 11.7884 8.35564 11.7884 8.38728C11.7884 8.39964 11.7446 8.47528 11.6886 8.55626C10.9485 9.65275 9.87234 10.6771 8.50929 11.587C8.19079 11.7999 7.62211 12.1502 7.35266 12.2998L7.24768 12.3579L7.29319 12.3086C7.58888 11.9795 7.76563 11.7524 7.97732 11.4391C8.27307 11.0009 8.55303 10.4764 8.77175 9.94488C8.90471 9.62808 9.13395 8.96106 9.12171 8.92937C9.11119 8.90124 8.763 8.65128 8.39378 8.40844C7.36141 7.72555 6.55475 7.39115 5.94586 7.39115C5.58539 7.39288 5.37192 7.47208 5.15492 7.69035C5.01145 7.83288 4.92573 7.97195 4.85223 8.17964C4.63176 8.80266 4.6755 9.86044 4.97296 11.1575C5.09545 11.6891 5.33516 12.5215 5.5154 13.0319L5.59237 13.2519L5.51014 13.2942C5.46467 13.3171 5.08144 13.5001 4.65975 13.699C3.94585 14.0369 3.8916 14.0598 3.86885 14.0316C3.79886 13.9401 3.59939 13.5899 3.50315 13.3875C3.12345 12.5849 2.87673 11.5711 2.79274 10.4729C2.76649 10.1139 2.78049 9.17048 2.81899 8.85195C2.95897 7.67448 3.28968 6.78217 3.80761 6.18204C4.13482 5.80364 4.52502 5.56777 5.0027 5.46217C5.12696 5.43404 5.57664 5.41466 5.72537 5.43048Z" fill="white" fill-opacity="0.8"/>
<path d="M17.2732 9.17586L18.5505 9.76022L19.3432 10.781L20.1358 11.8L20.2356 11.8123C20.2898 11.8176 20.3406 11.8176 20.3458 11.8123C20.3511 11.8053 20.7045 11.3495 21.1315 10.8004C21.5584 10.2495 21.9223 9.78835 21.9434 9.77604C22.0046 9.73555 24.4963 8.60564 24.505 8.61266C24.5085 8.61795 24.4106 8.75346 24.2863 8.91715C23.7386 9.63173 23.0387 10.5592 23.0387 10.5698C23.0387 10.5751 23.0527 10.5751 23.0684 10.568C23.0859 10.561 23.7964 10.3199 24.6485 10.0312L26.1971 9.50502L27.1909 9.57186C27.7369 9.60884 28.1865 9.64226 28.1918 9.64582C28.1953 9.64933 27.7351 10.0418 27.1682 10.5152C26.6013 10.9887 26.1428 11.3829 26.1498 11.3882C26.1568 11.3952 26.4141 11.4375 26.722 11.4815C27.03 11.5272 27.2994 11.5712 27.3204 11.5765C27.3554 11.5888 27.3379 11.6275 27.0037 12.2418L26.6503 12.8965L26.7378 12.9141C26.7867 12.9229 27.5077 13.0567 28.3405 13.208C29.1735 13.3611 29.8628 13.4949 29.8734 13.5055C29.9013 13.5319 31.037 15.7371 31.0282 15.7459C31.0247 15.7495 30.7395 15.6773 30.3965 15.584C30.0536 15.4907 29.7701 15.4168 29.7666 15.4203C29.7631 15.4239 30.1603 16.0539 30.6502 16.8231C31.4622 18.0973 31.5409 18.2275 31.5514 18.3103C31.5566 18.3595 31.5951 18.8717 31.6389 19.4472C31.6809 20.0227 31.7211 20.5278 31.7264 20.5683C31.7298 20.6106 31.7281 20.644 31.7211 20.644C31.7123 20.644 31.5111 20.5208 31.2732 20.3712C31.0335 20.2198 30.8357 20.1002 30.8323 20.1019C30.8305 20.1055 30.666 20.9872 30.4683 22.0608C30.2688 23.1362 30.1026 24.0355 30.0973 24.0619C30.0903 24.0954 29.7404 24.4562 28.9075 25.2886L27.7281 26.4661L27.4254 26.1563C27.2592 25.9838 26.9705 25.6864 26.785 25.4928C26.2373 24.9243 26.2548 24.9419 26.2741 24.9912C26.2828 25.0158 26.6713 25.9539 27.1385 27.0768C27.6039 28.1997 28.0116 29.18 28.0431 29.2557C28.0746 29.3313 28.0973 29.3947 28.0938 29.3982C28.0903 29.4 27.2802 29.5478 26.2933 29.7256C25.3064 29.9033 24.4806 30.0547 24.456 30.0617C24.4141 30.0741 24.4141 30.0741 24.4648 30.0758C24.547 30.0776 28.1743 30.3627 28.1778 30.3662C28.1883 30.3768 27.8156 31.1617 27.7946 31.1723C27.7824 31.1793 26.757 31.2973 25.5164 31.4328C24.2758 31.5683 23.2574 31.6809 23.2557 31.6845C23.2522 31.6862 24.1761 31.7777 25.3064 31.8851C26.4385 31.9925 27.3677 32.0857 27.3729 32.091C27.3782 32.0945 27.289 32.2776 27.1752 32.4958C27.0265 32.7792 26.9565 32.8936 26.932 32.9006C26.9127 32.9041 26.1201 33.0009 25.1699 33.1153C24.2198 33.2297 23.4446 33.3248 23.4464 33.3283C23.4499 33.3301 23.9748 33.4075 24.6135 33.499C25.2539 33.5923 25.7894 33.6697 25.8034 33.6733C25.8314 33.6768 24.5803 34.4248 24.5435 34.4248C24.5313 34.4248 23.7001 34.1696 22.6993 33.8598C21.6966 33.5483 20.8637 33.2896 20.8462 33.2861C20.8183 33.2773 20.8165 33.1998 20.8165 31.9801V30.683L22.8235 29.5513C23.9294 28.9283 24.8393 28.4126 24.8462 28.4056C24.855 28.3985 24.6555 27.5537 24.4018 26.5294C24.1498 25.5034 23.9346 24.6286 23.9241 24.5829C23.9136 24.5389 23.9014 24.4966 23.8944 24.4914C23.8891 24.4861 23.8558 25.0018 23.8191 25.6389C23.7824 26.2742 23.7491 26.8709 23.7439 26.9641L23.7334 27.1349L22.7955 27.1454C20.939 27.1665 17.1017 27.1542 16.834 27.1278L16.7448 27.119L16.7343 26.9571C16.729 26.8674 16.694 26.2707 16.6591 25.6301C16.6223 24.9877 16.5873 24.4738 16.5803 24.4861C16.5733 24.4966 16.3546 25.3784 16.0921 26.4414C15.6564 28.2137 15.6197 28.3792 15.6459 28.3985C15.6617 28.4109 16.5716 28.9265 17.6687 29.5443L19.6616 30.6672V31.9643V33.2614L19.4639 33.323C18.1848 33.7225 15.9556 34.4107 15.9346 34.4107C15.9119 34.4125 14.7063 33.7049 14.6713 33.6715C14.6643 33.6645 15.1805 33.5835 15.8174 33.4937C16.4543 33.4022 16.9845 33.323 16.9967 33.3177C17.009 33.3107 16.2304 33.2121 15.268 33.096L13.5164 32.8848L13.3082 32.4923C13.1945 32.2758 13.1 32.091 13.1 32.0822C13.1 32.0734 13.114 32.0664 13.1332 32.0664C13.1507 32.0664 13.282 32.0541 13.4255 32.04C14.0956 31.9731 17.1665 31.6792 17.1997 31.6792C17.219 31.6792 17.2312 31.6757 17.2277 31.6721C17.2242 31.6686 16.1971 31.5525 14.946 31.4152C13.6949 31.2761 12.6696 31.16 12.666 31.1529C12.575 30.9752 12.3038 30.3645 12.3109 30.3574C12.3161 30.3504 13.1595 30.28 14.1848 30.2008C15.2102 30.1216 16.0518 30.0529 16.0554 30.0494C16.0589 30.0459 16.0554 30.0424 16.0449 30.0424C16.0116 30.0424 12.3931 29.3912 12.3861 29.3841C12.3826 29.3806 12.7903 28.3862 13.2942 27.1753C13.7964 25.9627 14.2041 24.9701 14.2006 24.9666C14.1971 24.963 13.8699 25.2957 13.4762 25.7058C13.0808 26.1158 12.7553 26.452 12.75 26.452C12.7448 26.452 12.2111 25.9187 11.5654 25.2675L10.3878 24.0848L10.0204 22.096C9.81742 21.0013 9.65119 20.1019 9.64765 20.0931C9.64593 20.0861 9.44294 20.2058 9.19797 20.3606C8.953 20.5155 8.75006 20.6405 8.75006 20.6387C8.74829 20.637 8.78854 20.0914 8.83927 19.4261L8.93201 18.217L9.82617 16.8125C10.3161 16.0416 10.7168 15.408 10.7133 15.4045C10.7115 15.4027 10.4281 15.4767 10.0834 15.5682C9.7404 15.6615 9.45518 15.7336 9.45169 15.7301C9.43596 15.7143 10.5961 13.4896 10.6275 13.4773C10.645 13.4703 11.3642 13.3365 12.2251 13.1799C13.086 13.0232 13.7982 12.8895 13.8051 12.8824C13.8139 12.8754 13.6617 12.5779 13.4692 12.2207C13.2767 11.8651 13.121 11.5712 13.1227 11.5695C13.1245 11.5677 13.3974 11.5255 13.7299 11.4744C14.0624 11.4234 14.3371 11.3794 14.3406 11.3759C14.3441 11.3724 14.3441 11.3653 14.3406 11.3635C14.3371 11.36 13.8699 10.9693 13.3012 10.4959L12.2688 9.63524L12.3738 9.62466C12.4316 9.61764 12.8847 9.58595 13.3799 9.55426L14.2794 9.49444L15.8542 10.0277C16.7203 10.3199 17.4307 10.5557 17.4342 10.5522C17.4377 10.5504 17.1087 10.1104 16.7045 9.57542C16.3003 9.04213 15.9696 8.60035 15.9696 8.59684C15.9696 8.59155 15.9749 8.58804 15.9818 8.58982C15.9906 8.59155 16.5698 8.85555 17.2732 9.17586ZM12.3493 17.5922C12.3336 17.6925 12.3248 17.9143 12.3231 18.2064C12.3213 18.7133 12.3371 18.8488 12.4385 19.1638C12.5366 19.4754 12.6643 19.6918 12.8778 19.9171C13.2085 20.2638 13.6407 20.4627 14.2986 20.5666C14.4491 20.5912 14.6066 20.5982 15.0125 20.6L15.5322 20.6018L15.6652 20.732C16.0729 21.1368 16.3003 21.7018 16.3511 22.4357L16.3633 22.624L16.4053 22.536C16.4666 22.3987 16.561 22.1066 16.603 21.9165C16.6363 21.7704 16.6416 21.6894 16.6416 21.392C16.6433 21.0805 16.638 21.0206 16.6013 20.8728C16.4193 20.1354 15.9504 19.4983 15.1385 18.884C14.6888 18.5443 14.2933 18.305 13.6337 17.9759C13.2015 17.7594 12.4246 17.4179 12.3913 17.4285C12.3808 17.432 12.3633 17.5059 12.3493 17.5922ZM27.8628 17.5271C26.3738 18.1307 25.2365 18.8471 24.575 19.5968C23.8961 20.3642 23.6774 21.209 23.9206 22.1136C23.9696 22.2984 24.0903 22.6152 24.1096 22.6152C24.1166 22.6152 24.1236 22.5712 24.1236 22.5202C24.1236 22.3758 24.1708 22.0502 24.2198 21.8461C24.3301 21.3867 24.5313 21.0189 24.827 20.732L24.9442 20.6176L25.4394 20.6158C25.7334 20.6158 25.9993 20.607 26.0921 20.5947C26.7675 20.4997 27.205 20.3166 27.5566 19.9787C27.8419 19.7059 28.0221 19.3522 28.1148 18.8893C28.169 18.6147 28.1796 18.1026 28.1393 17.7383C28.1113 17.476 28.1043 17.4408 28.0833 17.4408C28.0781 17.4408 27.9783 17.4795 27.8628 17.5271Z" fill="white" fill-opacity="0.8"/>
<path d="M31.9012 12.9371C32.1182 13.2029 32.5014 13.4616 32.9546 13.65C33.0386 13.6852 33.3413 13.7925 33.6248 13.8858C35.4113 14.4824 36.7691 15.1917 37.868 16.1051C37.9642 16.1861 38.1847 16.3938 38.3597 16.5698C38.6589 16.8707 38.6834 16.8989 38.8216 17.133C39.3938 18.0957 39.7525 19.1218 39.8557 20.081C39.882 20.3362 39.882 20.9293 39.8557 21.1722C39.7997 21.6826 39.6685 22.2159 39.483 22.684C39.4025 22.8935 39.2713 23.1786 39.2625 23.1698C39.259 23.1663 39.2135 23.0413 39.1646 22.8935C38.8706 22.0275 38.4349 21.1317 37.959 20.4154C37.5337 19.7765 37.14 19.3048 36.5364 18.7082C35.9695 18.1485 35.4918 17.7525 34.4646 16.9869C33.2818 16.1052 32.8654 15.7549 32.5119 15.3395C32.0132 14.7587 31.7857 14.2167 31.7577 13.5496C31.749 13.3103 31.7718 12.9459 31.8032 12.8615C31.812 12.8368 31.8312 12.8509 31.9012 12.9371Z" fill="white" fill-opacity="0.8"/>
<path d="M8.50278 12.9036C8.536 13.0374 8.5535 13.3418 8.54475 13.5777C8.50799 14.5034 8.08106 15.2215 7.06442 16.0751C6.91569 16.2001 6.42403 16.5802 5.97081 16.9217C4.57975 17.9653 4.10206 18.3719 3.43715 19.0741C2.40303 20.1653 1.62788 21.4695 1.12394 22.9655C1.08195 23.094 1.0417 23.2031 1.0382 23.2066C1.0242 23.2207 0.810731 22.7085 0.726742 22.4586C0.515018 21.8321 0.425781 21.3093 0.425781 20.6705C0.427531 20.1759 0.473025 19.794 0.588509 19.3065C0.752988 18.6253 1.07495 17.8509 1.47565 17.1769C1.59638 16.9745 1.65062 16.9023 1.8466 16.6982C2.89122 15.6052 4.32429 14.7551 6.36279 14.023C6.52027 13.9666 6.74425 13.891 6.86147 13.8575C7.55613 13.6481 8.11429 13.3207 8.43102 12.9388C8.49049 12.8666 8.49403 12.8649 8.50278 12.9036Z" fill="white" fill-opacity="0.8"/>
<path d="M33.5989 17.9865C34.2464 18.1872 34.9392 18.5603 35.4765 18.995C36.4248 19.7624 37.2227 20.792 37.8491 22.0521C38.9708 24.3137 39.3242 26.8904 38.7783 28.8369C38.5246 29.7433 38.1326 30.428 37.5342 31.0123C37.361 31.1812 37.0285 31.4505 36.9935 31.4505C36.9865 31.4505 36.9848 31.2833 36.99 31.0792C37.0267 29.7134 36.85 28.3723 36.4511 26.9977C36.1659 26.0156 35.7774 25.0476 35.095 23.6185C34.9673 23.3528 34.766 22.9286 34.6453 22.6769C34.0976 21.5329 33.8142 20.8324 33.6147 20.1355C33.4205 19.4544 33.3277 18.7644 33.354 18.1924C33.368 17.8897 33.3487 17.9073 33.5989 17.9865Z" fill="white" fill-opacity="0.8"/>
<path d="M6.94923 18.2363C6.9912 19.1814 6.75149 20.2356 6.19682 21.5416C6.04106 21.9076 5.83984 22.3424 5.43567 23.1872C4.96849 24.1604 4.77949 24.5723 4.55202 25.1056C3.8696 26.7124 3.5039 28.0923 3.36217 29.5901C3.32367 29.9931 3.30093 30.7552 3.31492 31.1565C3.32192 31.3465 3.32367 31.5032 3.32017 31.5032C3.31492 31.5032 3.22219 31.4345 3.11195 31.3501C2.09708 30.5757 1.49166 29.3542 1.31143 27.7192C1.27119 27.339 1.27119 26.4872 1.31143 26.0648C1.40242 25.1478 1.60365 24.2449 1.90986 23.3843C2.87748 20.6528 4.70775 18.6111 6.71822 18.0233C6.81972 17.9934 6.90897 17.9688 6.91944 17.9688C6.92996 17.9688 6.9422 18.0796 6.94923 18.2363Z" fill="white" fill-opacity="0.8"/>
<path d="M6.3411 24.0443C6.41812 24.1376 6.71209 24.8627 6.82755 25.2464C7.07955 26.0841 7.17579 26.8269 7.17579 27.948C7.17751 28.8544 7.14428 29.2944 6.95003 31.0808C6.76808 32.7457 6.72782 33.2245 6.6946 34.1027C6.6596 35.0549 6.71381 35.9912 6.85557 36.8518C6.88353 37.0296 6.90457 37.1774 6.90103 37.1827C6.88879 37.195 6.71558 37.1193 6.53535 37.0261C6.20466 36.8518 5.83195 36.5262 5.57297 36.1848C4.94305 35.3505 4.52135 34.0358 4.32712 32.2952C4.20814 31.2409 4.21164 30.6179 4.33587 29.4616C4.57384 27.2563 5.16526 25.5086 6.07691 24.3224C6.29038 24.0443 6.31839 24.0161 6.3411 24.0443Z" fill="white" fill-opacity="0.8"/>
<path d="M34.0334 24.166C35.1026 25.4596 35.7552 27.4343 35.9617 29.9898C36.0317 30.8751 36.0317 31.0951 35.96 31.917C35.7202 34.6521 34.9591 36.3875 33.7115 37.0457C33.533 37.1407 33.3633 37.2129 33.351 37.1988C33.3458 37.1953 33.3633 37.0703 33.3878 36.9207C33.5172 36.1287 33.5575 35.5937 33.5575 34.6714C33.5575 33.6665 33.5138 33.054 33.3196 31.2764C33.106 29.3369 33.0763 28.9514 33.0763 28.001C33.0746 27.2425 33.0885 26.9978 33.1638 26.4733C33.2618 25.7799 33.4228 25.1745 33.6643 24.5972C33.7412 24.4089 33.9162 24.041 33.9284 24.041C33.9302 24.041 33.9774 24.0974 34.0334 24.166Z" fill="white" fill-opacity="0.8"/>
<path d="M32.0669 25.7039C32.0039 26.019 31.9356 26.4942 31.8989 26.8919C31.8604 27.3038 31.8552 28.6854 31.8902 29.1623C31.9479 29.9455 32.0039 30.5017 32.1649 31.8551C32.3311 33.2578 32.3818 33.8721 32.3958 34.6535C32.4133 35.5828 32.3503 36.2692 32.1824 36.9679C31.8622 38.3143 31.1605 39.4161 30.0302 40.3471C29.4702 40.8083 28.8333 41.2131 28.0616 41.595C27.7344 41.7569 27.2165 41.9928 27.1868 41.9928C27.1762 41.9928 27.2358 41.903 27.3162 41.7939C27.6504 41.3416 27.9969 40.7678 28.2821 40.1976C29.08 38.5907 29.5209 36.8465 29.6837 34.643C29.7222 34.1185 29.7257 32.6383 29.6907 31.7935C29.6207 30.118 29.8359 28.6854 30.3241 27.573C30.6968 26.723 31.269 26.019 31.9706 25.5473C32.0389 25.5033 32.0966 25.4663 32.1036 25.4663C32.1089 25.4663 32.0931 25.5737 32.0669 25.7039Z" fill="white" fill-opacity="0.8"/>
<path d="M8.38036 25.646C8.85629 25.9751 9.27624 26.4081 9.58771 26.8851C10.1634 27.7668 10.5011 28.8932 10.6165 30.3153C10.6533 30.7553 10.6568 31.5807 10.6271 32.1985C10.4346 36.1567 11.236 39.4303 12.9822 41.8363C13.0645 41.9489 13.1362 42.0492 13.1432 42.0615C13.187 42.1302 12.0706 41.5969 11.5877 41.3153C9.98313 40.3825 8.95253 39.2772 8.41182 37.9097C8.02338 36.9259 7.8659 35.7273 7.93943 34.3105C7.97614 33.61 8.01817 33.1665 8.18435 31.7409C8.4276 29.6606 8.45556 29.2945 8.45556 28.1329C8.45556 27.399 8.45035 27.179 8.42411 26.9273C8.38385 26.5331 8.31912 26.0807 8.26309 25.8027C8.23861 25.683 8.21934 25.5774 8.21934 25.5703C8.21934 25.5404 8.24913 25.5545 8.38036 25.646Z" fill="white" fill-opacity="0.8"/>
<path d="M27.8571 34.3843C27.8694 34.4494 27.9132 34.8014 27.9411 35.0759C27.9779 35.4244 27.9709 36.5667 27.9324 36.8975C27.7819 38.1577 27.3795 39.175 26.6848 40.048C26.5991 40.1536 26.3926 40.3788 26.2229 40.5478C25.397 41.3715 24.7111 41.903 24.0391 42.2444C23.7907 42.3712 23.6822 42.4152 23.2132 42.5841C22.2211 42.9414 21.4495 43.362 20.9981 43.7915L20.8633 43.92L20.8738 43.6032C20.9193 42.2374 21.39 41.1251 22.3751 40.062C22.7408 39.6696 23.1467 39.3017 23.9656 38.6223C24.2211 38.4111 24.5466 38.1384 24.6918 38.0169C26.0951 36.8377 27.005 35.7975 27.7014 34.5831C27.7767 34.4529 27.8396 34.3438 27.8432 34.3403C27.8449 34.3367 27.8519 34.3561 27.8571 34.3843Z" fill="white" fill-opacity="0.8"/>
<path d="M22.3103 35.0318C23.4442 35.4137 24.3751 35.7288 24.3803 35.734C24.3891 35.7428 23.9411 38.3688 23.9202 38.4339C23.9149 38.4515 23.8887 38.4409 23.8291 38.3969C23.4004 38.0854 22.7198 37.6278 22.7023 37.6384C22.6585 37.6665 22.1318 38.0784 21.8309 38.3195C21.2675 38.7753 20.7198 39.247 20.4066 39.548L20.2439 39.7028L20.2018 39.6588C20.1318 39.5814 19.6856 39.1784 19.4005 38.932C19.0225 38.6064 18.4311 38.1276 17.9341 37.744L17.7574 37.6067L17.166 38.022C16.8405 38.2508 16.5693 38.4304 16.5623 38.4233C16.5535 38.4128 16.1144 35.9206 16.0951 35.771L16.0898 35.7182L17.2937 35.3152C18.3646 34.9561 20.2456 34.3331 20.2473 34.3384C20.2473 34.3384 21.1747 34.6516 22.3103 35.0318Z" fill="white" fill-opacity="0.8"/>
<path d="M12.622 34.5795C13.2851 35.7481 14.1285 36.7355 15.4269 37.8584C15.5756 37.9886 15.9623 38.3124 16.2825 38.5782C17.2274 39.3596 17.6438 39.7363 18.0253 40.1569C18.9807 41.2059 19.4338 42.2936 19.4811 43.6558L19.4916 43.9533L19.3516 43.8265C18.8442 43.3619 18.0253 42.9289 16.9334 42.547C16.4837 42.3904 16.1618 42.2285 15.7348 41.9451C15.2186 41.6036 14.699 41.1672 14.097 40.5652C13.6403 40.1112 13.3114 39.6553 13.0332 39.0956C12.4295 37.8812 12.2458 36.4556 12.4628 34.6534C12.4785 34.5232 12.496 34.4105 12.503 34.4035C12.51 34.3947 12.5642 34.4739 12.622 34.5795Z" fill="white" fill-opacity="0.8"/>
</svg>
