<svg width="32" height="32" viewBox="0 0 32 32" fill="none" xmlns="http://www.w3.org/2000/svg">
<path fill-rule="evenodd" clip-rule="evenodd" d="M16 32C24.8366 32 32 24.8366 32 16C32 7.16344 24.8366 0 16 0C7.16344 0 0 7.16344 0 16C0 24.8366 7.16344 32 16 32Z" fill="black"/>
<g clip-path="url(#clip0)">
<path d="M9.49787 12.8306C9.18773 12.8306 8.92459 12.9387 8.70828 13.155C8.49198 13.3713 8.38379 13.6309 8.38379 13.9338V18.5852C8.38379 18.8958 8.49194 19.1587 8.70828 19.375C8.92459 19.5913 9.18773 19.6995 9.49787 19.6995C9.80778 19.6995 10.0693 19.5914 10.2823 19.375C10.4948 19.1587 10.6014 18.8958 10.6014 18.5852V13.9338C10.6014 13.6309 10.4932 13.3713 10.2769 13.155C10.0605 12.9387 9.80082 12.8306 9.49787 12.8306Z" fill="#31DC71"/>
<path d="M18.4539 8.65491L19.222 7.23807C19.2724 7.14427 19.2544 7.07234 19.168 7.02177C19.0742 6.97815 19.0021 7.00025 18.9517 7.0865L18.1729 8.51466C17.4876 8.21168 16.7629 8.05992 15.9986 8.05992C15.2341 8.05992 14.5092 8.21171 13.8242 8.51466L13.0454 7.0865C12.9948 7.00025 12.9227 6.97835 12.8291 7.02177C12.7425 7.07257 12.7245 7.14427 12.7751 7.23807L13.5432 8.65491C12.7644 9.05208 12.1441 9.60521 11.6826 10.3155C11.2211 11.0262 10.9902 11.8028 10.9902 12.6468H20.996C20.996 11.803 20.7651 11.0264 20.3036 10.3155C19.8421 9.60521 19.2254 9.05208 18.4539 8.65491ZM14.0135 10.7157C13.9304 10.799 13.8312 10.8404 13.7159 10.8404C13.6003 10.8404 13.5031 10.799 13.4239 10.7157C13.3446 10.6328 13.3049 10.534 13.3049 10.4183C13.3049 10.303 13.3446 10.204 13.4239 10.1209C13.5031 10.0381 13.6006 9.99665 13.7159 9.99665C13.8312 9.99665 13.9304 10.0381 14.0135 10.1209C14.0963 10.2042 14.1379 10.303 14.1379 10.4183C14.1377 10.5338 14.0961 10.6328 14.0135 10.7157ZM18.5728 10.7157C18.4934 10.799 18.396 10.8404 18.2808 10.8404C18.1653 10.8404 18.0661 10.799 17.9832 10.7157C17.9002 10.6328 17.8587 10.534 17.8587 10.4183C17.8587 10.303 17.9002 10.204 17.9832 10.1209C18.0661 10.0381 18.1653 9.99665 18.2808 9.99665C18.3962 9.99665 18.4933 10.0381 18.5728 10.1209C18.6522 10.2042 18.6917 10.303 18.6917 10.4183C18.6917 10.5338 18.6521 10.6328 18.5728 10.7157Z" fill="#31DC71"/>
<path d="M11.0332 20.2403C11.0332 20.5723 11.1485 20.8534 11.3792 21.0841C11.61 21.3147 11.8911 21.43 12.2229 21.43H13.0234L13.0344 23.8858C13.0344 24.196 13.1426 24.4593 13.3589 24.6756C13.5752 24.892 13.8349 25.0001 14.1377 25.0001C14.4476 25.0001 14.7109 24.892 14.9273 24.6756C15.1436 24.4593 15.2518 24.196 15.2518 23.8858V21.4303H16.7445V23.8858C16.7445 24.196 16.8526 24.4593 17.069 24.6756C17.2853 24.892 17.5484 25.0001 17.8585 25.0001C18.1685 25.0001 18.4318 24.892 18.6481 24.6756C18.8645 24.4593 18.9726 24.196 18.9726 23.8858V21.4303H19.7839C20.1084 21.4303 20.3858 21.3149 20.6169 21.0843C20.8476 20.8536 20.9629 20.5725 20.9629 20.2405V13.0359H11.0332V20.2403Z" fill="#31DC71"/>
<path d="M22.5008 12.8306C22.1978 12.8306 21.9383 12.9371 21.7219 13.1497C21.5056 13.3626 21.3975 13.6241 21.3975 13.9338V18.5852C21.3975 18.8958 21.5056 19.1587 21.7219 19.375C21.9383 19.5914 22.198 19.6995 22.5008 19.6995C22.8107 19.6995 23.074 19.5914 23.2904 19.375C23.5067 19.1587 23.6148 18.8958 23.6148 18.5852V13.9338C23.6148 13.6241 23.5067 13.3626 23.2904 13.1497C23.074 12.9371 22.8107 12.8306 22.5008 12.8306Z" fill="#31DC71"/>
</g>
<defs>
<clipPath id="clip0">
<rect width="18" height="18" fill="white" transform="translate(7 7)"/>
</clipPath>
</defs>
</svg>
